<?xml version="1.0" encoding="utf-8" ?>
<svg baseProfile="full" height="200mm" version="1.1" viewBox="0,0,200,200" width="200mm" xmlns="http://www.w3.org/2000/svg" xmlns:ev="http://www.w3.org/2001/xml-events" xmlns:xlink="http://www.w3.org/1999/xlink"><defs /><rect fill="#1a1a1a" height="200" width="200" x="0" y="0" /><text alignment-baseline="middle" fill="#e1ed5e" style="dominant-baseline: central; font-size:9.0px; font-family:Arial;" text-anchor="middle" x="100.0" y="100.0">2022</text><line stroke="#e1ed5e" stroke-width="0.3" x1="100.0" x2="100.0" y1="15.0" y2="10.0" /><path d="M 100.0 14.0 a86.0,86.0 0 0,1 42.46469731375804,11.215312516191453" fill="none" id="id61" stroke="none" /><text fill="#e1ed5e" style="font-size:6.75px; font-family:Arial;" text-anchor="middle"><textPath startOffset="22.20632615414155" xlink:href="#id61">January</textPath></text><path d="M 100.0 79.0 l 0.0 -40.609284440481495 a61.609284440481495,61.609284440481495 0 0,0 1.0605025555801322,0.009128080308484 l -0.6990220763076038 40.60326773678157" fill="#ffd714" stroke="none" /><path d="M 105.01212808612495 79.60689891045804 l 10.129653129329213 -41.2150361520621 a63.44159607668301,63.44159607668301 0 0,0 1.0582393901570022,0.26976878323393816 l -10.83760140817124 41.0345643726593" fill="#f9ff18" stroke="none" /><path d="M 106.0581310904928 79.89281104454417 l 12.46310346536845 -41.36555855366531 a64.20229603209987,64.20229603209987 0 0,0 1.0554081759922613,0.32792045774454837 l -13.17329701407143 41.14489796103824" fill="#e6ff1a" stroke="none" /><path d="M 108.43124777332544 80.76684994638697 l 15.336219176628271 -34.98459689589341 a59.19845073562193,59.19845073562193 0 0,0 0.9297479815081667,0.4171508177995591 l -15.936149276603217 34.71542574757732" fill="#ff970d" stroke="none" /><path d="M 109.41281617654863 81.2277094730956 l 28.23844852964587 -56.31687158071319 a84.0,84.0 0 0,0 1.2869580496449777,0.6592298987499978 l -29.203667066879603 55.82244915665069" fill="#4dd2ff" stroke="none" /><line stroke="#e1ed5e" stroke-width="0.3" x1="143.23703022742887" x2="145.7803849466894" y1="26.81831364943548" y2="22.513508569990506" /><path d="M 143.74570117128098 25.957352633546492 a86.0,86.0 0 0,1 28.547481713284135,27.462654790039103" fill="none" id="id62" stroke="none" /><text fill="#e1ed5e" style="font-size:6.75px; font-family:Arial;" text-anchor="middle"><textPath startOffset="19.985693538727396" xlink:href="#id62">February</textPath></text><path d="M 110.99172775467656 82.1063720568725 l 22.297697391773365 -36.298815802373156 a63.60036781096745,63.60036781096745 0 0,0 0.927901647588573,0.5810519265941037 l -22.9192181917342 35.909619534456105" fill="#f5ff19" stroke="none" /><path d="M 111.2981086023043 82.29822771554956 l 20.447704465683987 -32.037274638823625 a59.00652028533215,59.00652028533215 0 0,0 0.8514724447706861,0.5538213633257906 l -20.996143936238955 31.680554351338305" fill="#ff910d" stroke="none" /><path d="M 112.77801427241765 83.33499621200491 l 24.68820977198719 -32.1982039304093 a61.5737851092287,61.5737851092287 0 0,0 0.8355487719875819,0.6521590697913193 l -25.2387910991342 31.768466471394756" fill="#ffd614" stroke="none" /><path d="M 113.34407831869373 83.78471172551755 l 26.962563954574147 -32.764027361118494 a63.43184351315203,63.43184351315203 0 0,0 0.8371265403075613,0.701069403037093 l -27.522548031840824 32.295056800687576" fill="#f9ff18" stroke="none" /><path d="M 115.9244219780498 86.31012108654704 l 44.460706911445435 -38.221901860123225 a79.63163174320107,79.63163174320107 0 0,0 0.8846292626852943,1.0471220205864629 l -45.11204678761784 37.45092088990766" fill="#42ffd5" stroke="none" /><path d="M 117.04232023915458 87.72973835380427 l 33.20675457358381 -23.90845620320845 a61.91824565314312,61.91824565314312 0 0,0 0.615312212937812,0.8703154887025709 l -33.6133794063255 23.333314214174084" fill="#ffdf14" stroke="none" /><path d="M 117.45458315368197 88.32363383020206 l 33.966271229883866 -22.721976045537094 a61.865581810075795,61.865581810075795 0 0,0 0.5844923612694569,0.8902219659293477 l -34.352360226511244 22.13393601563007" fill="#ffdd14" stroke="none" /><line stroke="#e1ed5e" stroke-width="0.3" x1="172.23445277983987" x2="176.4835382374775" y1="55.19839476539836" y2="52.563006222186495" /><path d="M 173.08426987136738 54.67131705675599 a86.0,86.0 0 0,1 12.851231095245387,41.99856678651699" fill="none" id="id63" stroke="none" /><text fill="#e1ed5e" style="font-size:6.75px; font-family:Arial;" text-anchor="middle"><textPath startOffset="22.20632615414155" xlink:href="#id63">March</textPath></text><path d="M 117.84615892207809 88.93136811851018 l 32.171619973884404 -19.953639328044613 a58.85711101203744,58.85711101203744 0 0,0 0.5265867294131311,0.8655701264974063 l -32.51032250158376 19.396901428340126" fill="#ff8d0d" stroke="none" /><path d="M 118.56541770881063 90.18545643968196 l 36.09758397878198 -19.082862337854234 a61.83125278644672,61.83125278644672 0 0,0 0.4893224261428436,0.945215179107879 l -36.42071583808494 18.45867443648601" fill="#ffdc14" stroke="none" /><path d="M 118.89224826269711 90.83032412892265 l 31.984725110820495 -15.52433347336615 a56.55316540347748,56.55316540347748 0 0,0 0.4175288051486217,0.8794221467638367 l -32.247212109810874 14.971468910961773" fill="#ff4c07" stroke="none" /><path d="M 119.34039704204932 91.81776055985345 l 34.03287618149441 -14.398108846908197 a57.95324342398574,57.95324342398574 0 0,0 0.380775750815006,0.9220786834601677 l -34.27567361919561 13.810155592994727" fill="#ff740a" stroke="none" /><path d="M 119.61058180528143 92.48833698450437 l 37.87000355862742 -14.505775909790621 a61.55310967454302,61.55310967454302 0 0,0 0.3704776488723075,0.9926959090792205 l -38.11408579600135 13.851756863682068" fill="#ffd513" stroke="none" /><path d="M 119.85752413597 93.16781622104841 l 38.25280972098544 -13.161269465694737 a61.45363352652697,61.45363352652697 0 0,0 0.33554475846235543,1.003236118859452 l -38.47369177321957 12.500860243912971" fill="#ffd313" stroke="none" /><path d="M 120.37134235888165 94.90015583598534 l 31.971185525154485 -8.003795775686907 a53.95781319661168,53.95781319661168 0 0,0 0.21780251089174169,0.9029320202215396 l -32.10422083630704 7.45227852380596" fill="#ff0000" stroke="none" /><path d="M 120.78858239683441 97.02765380044208 l 40.52367889720271 -5.794065254807718 a61.935800267498884,61.935800267498884 0 0,0 0.14181528944838503,1.0566886288281574 l -40.61741018570893 5.095658283914896" fill="#ffdf14" stroke="none" /><path d="M 120.83666639777658 97.38593545837742 l 35.84253433708781 -4.49662610629831 a57.12349531876951,57.12349531876951 0 0,0 0.11400121542908434,0.9766927944273883 l -35.91462590552049 3.878989573546069" fill="#ff5d08" stroke="none" /><path d="M 120.91429891909075 98.10471618934814 l 40.40159865684291 -3.6612509056601663 a61.56715336602765,61.56715336602765 0 0,0 0.08656199918553799,1.0562756435673635 l -40.45863513984794 2.965261344885034" fill="#ffd614" stroke="none" /><path d="M 120.98425023603335 99.18683210126433 l 40.50203536974918 -1.5695083038793545 a61.53243423985734,61.53243423985734 0 0,0 0.03190399737578544,1.058738352022314 l -40.52305106158061 0.8720998044320416" fill="#ffd513" stroke="none" /><line stroke="#e1ed5e" stroke-width="0.3" x1="184.98032266829074" x2="189.97916517819016" y1="98.17113171792111" y2="98.06355123074" /><path d="M 185.9800911702706 98.14961562048488 a86.0,86.0 0 0,1 -9.607161424134198,41.387399972396054" fill="none" id="id64" stroke="none" /><text fill="#e1ed5e" style="font-size:6.75px; font-family:Arial;" text-anchor="middle"><textPath startOffset="21.466115282336823" xlink:href="#id64">April</textPath></text><path d="M 120.9764740272857 100.99374915477107 l 36.84326415057755 1.74542978772401 a57.8845853767276,57.8845853767276 0 0,0 -0.0557170808488583,0.9948659071741879 l -36.807760718841166 -2.379367411233621" fill="#ff720a" stroke="none" /><path d="M 120.92983693683757 101.71520430193887 l 42.84216937708183 3.51092430589512 a63.985789121711996,63.985789121711996 0 0,0 -0.09940772393456071,1.0969559501058443 l -42.775387056870194 -4.247861644549535" fill="#ebff1a" stroke="none" /><path d="M 120.8583938346157 102.4346265915055 l 41.09140782733309 4.7962578025924945 a62.37037449843959,62.37037449843959 0 0,0 -0.13364632000660254,1.0652926662398337 l -41.00275999807964 -5.502868223119723" fill="#ffea16" stroke="none" /><path d="M 120.76222939487914 103.15116336523771 l 47.03282110618095 7.1383520533748905 a68.57144449398128,68.57144449398128 0 0,0 -0.18716166187177596,1.1654558471353065 l -46.90297768994788 -7.946887130203402" fill="#80ff25" stroke="none" /><path d="M 120.49622156327973 104.57218783832717 l 40.36535743561874 9.004488743794237 a62.357501114578696,62.357501114578696 0 0,0 -0.2427174690995516,1.0456205043745217 l -40.204379400588635 -9.697977905517323" fill="#ffea16" stroke="none" /><path d="M 120.41448212921028 104.9243191809786 l 39.558937124917726 9.542286286294079 a61.69354658938921,61.69354658938921 0 0,0 -0.2579045415028052,1.0302004417970727 l -39.38882126911986 -10.221814567488547" fill="#ffd914" stroke="none" /><path d="M 120.13307415673323 105.97154293290107 l 38.8789887792243 11.53164930877046 a61.55310967454302,61.55310967454302 0 0,0 -0.3100319558362097,1.0132023700016453 l -38.674730050881955 -12.199178651324162" fill="#ffd513" stroke="none" /><path d="M 119.67450827220406 107.3425965602758 l 47.91659387605117 17.88264349516121 a72.1447837717343,72.1447837717343 0 0,0 -0.4442253923416565,1.1597323227264833 l -47.601674204116 -18.704799384720836" fill="#35ff2f" stroke="none" /><line stroke="#e1ed5e" stroke-width="0.3" x1="174.80103733775053" x2="179.2010983576182" y1="140.37084112569926" y2="142.7455964860345" /><path d="M 175.68104954172406 140.8457921977663 a86.0,86.0 0 0,1 -30.038265399797805,32.042727171017184" fill="none" id="id65" stroke="none" /><text fill="#e1ed5e" style="font-size:6.75px; font-family:Arial;" text-anchor="middle"><textPath startOffset="22.206326154141568" xlink:href="#id65">May</textPath></text><line stroke="#e1ed5e" stroke-width="0.3" x1="143.8653032363475" x2="146.44561519142675" y1="172.8068346515853" y2="177.08958963109032" /><path d="M 144.38136562736335 173.6633856474863 a86.0,86.0 0 0,1 -40.68145358897372,12.25698825130547" fill="none" id="id66" stroke="none" /><text fill="#e1ed5e" style="font-size:6.75px; font-family:Arial;" text-anchor="middle"><textPath startOffset="21.466115282336833" xlink:href="#id66">June</textPath></text><line stroke="#e1ed5e" stroke-width="0.3" x1="102.19456741930631" x2="102.32365962044197" y1="184.97166512339345" y2="189.96999836594603" /><path d="M 102.22038585953345 185.97133177190398 a86.0,86.0 0 0,1 -42.740103519485714,-10.115201625700543" fill="none" id="id67" stroke="none" /><text fill="#e1ed5e" style="font-size:6.75px; font-family:Arial;" text-anchor="middle"><textPath startOffset="22.20632615414155" xlink:href="#id67">July</textPath></text><line stroke="#e1ed5e" stroke-width="0.3" x1="58.666819895761336" x2="56.23545636021788" y1="174.27360380694188" y2="178.64263932499728" /><path d="M 58.180547188652646 175.14741091055294 a86.0,86.0 0 0,1 -31.652253787137756,-30.449443065178592" fill="none" id="id68" stroke="none" /><text fill="#e1ed5e" style="font-size:6.75px; font-family:Arial;" text-anchor="middle"><textPath startOffset="22.20632615414155" xlink:href="#id68">August</textPath></text><line stroke="#e1ed5e" stroke-width="0.3" x1="26.63291911575756" x2="22.317208475507996" y1="142.92168965132927" y2="145.44649492493687" /><path d="M 25.769776987707644 143.4266507060508 a86.0,86.0 0 0,1 -11.730757126820373,-40.83630448921669" fill="none" id="id69" stroke="none" /><text fill="#e1ed5e" style="font-size:6.75px; font-family:Arial;" text-anchor="middle"><textPath startOffset="21.46611528233685" xlink:href="#id69">September</textPath></text><line stroke="#e1ed5e" stroke-width="0.3" x1="15.007084014347285" x2="10.007500721073583" y1="101.09737516637583" y2="101.16192664675087" /><path d="M 14.007167355692545 101.11028546245083 a86.0,86.0 0 0,1 10.666146001902534,-42.60595125391555" fill="none" id="id70" stroke="none" /><text fill="#e1ed5e" style="font-size:6.75px; font-family:Arial;" text-anchor="middle"><textPath startOffset="22.20632615414155" xlink:href="#id70">October</textPath></text><line stroke="#e1ed5e" stroke-width="0.3" x1="26.266209847984243" x2="21.928928074336255" y1="57.711370442889674" y2="55.22380399835377" /><path d="M 25.398753493254645 57.213857153982495 a86.0,86.0 0 0,1 29.58750427330803,-30.492523968695096" fill="none" id="id71" stroke="none" /><text fill="#e1ed5e" style="font-size:6.75px; font-family:Arial;" text-anchor="middle"><textPath startOffset="21.46611528233685" xlink:href="#id71">November</textPath></text><line stroke="#e1ed5e" stroke-width="0.3" x1="56.762969772571076" x2="54.21961505331055" y1="26.818313649435495" y2="22.513508569990535" /><path d="M 56.25429882871897 25.957352633546506 a86.0,86.0 0 0,1 42.265352541879196,-11.944610805530505" fill="none" id="id72" stroke="none" /><text fill="#e1ed5e" style="font-size:6.75px; font-family:Arial;" text-anchor="middle"><textPath startOffset="22.20632615414155" xlink:href="#id72">December</textPath></text></svg>