<?xml version="1.0" encoding="utf-8" ?>
<svg baseProfile="full" height="200mm" version="1.1" viewBox="0,0,200,200" width="200mm" xmlns="http://www.w3.org/2000/svg" xmlns:ev="http://www.w3.org/2001/xml-events" xmlns:xlink="http://www.w3.org/1999/xlink"><defs /><rect fill="#1a1a1a" height="200" width="200" x="0" y="0" /><text alignment-baseline="middle" fill="#e1ed5e" style="dominant-baseline: central; font-size:9.0px; font-family:Arial;" text-anchor="middle" x="100.0" y="100.0">2018</text><line stroke="#e1ed5e" stroke-width="0.3" x1="100.0" x2="100.0" y1="15.0" y2="10.0" /><path d="M 100.0 14.0 a86.0,86.0 0 0,1 42.46469731375804,11.215312516191453" fill="none" id="id13" stroke="none" /><text fill="#e1ed5e" style="font-size:6.75px; font-family:Arial;" text-anchor="middle"><textPath startOffset="22.20632615414155" xlink:href="#id13">January</textPath></text><path d="M 106.40334571778207 80.00007090966166 l 0.49744123928877637 -1.5536861432856577 a22.63137623446678,22.63137623446678 0 0,0 0.3699876294089124,0.1219791043270155 l -0.5241116909401062 1.544893314699406" fill="#ff0600" stroke="none" /><line stroke="#e1ed5e" stroke-width="0.3" x1="143.23703022742887" x2="145.7803849466894" y1="26.81831364943548" y2="22.513508569990506" /><path d="M 143.74570117128098 25.957352633546492 a86.0,86.0 0 0,1 28.547481713284135,27.462654790039103" fill="none" id="id14" stroke="none" /><text fill="#e1ed5e" style="font-size:6.75px; font-family:Arial;" text-anchor="middle"><textPath startOffset="19.985693538727396" xlink:href="#id14">February</textPath></text><path d="M 111.2981086023043 82.29822771554956 l 3.5997936184885186 -5.6401234178705915 a27.69100188794794,27.69100188794794 0 0,0 0.3995850791008561,0.25990125062928954 l -3.6963457233736547 5.577323243081774" fill="#ff4e07" stroke="none" /><path d="M 116.15771136456269 86.58626213691792 l 14.152122256003649 -11.748746704602393 a39.393357863037934,39.393357863037934 0 0,0 0.4286400797084678,0.5254620547490534 l -14.352260827788525 11.50340048024524" fill="#ffe915" stroke="none" /><line stroke="#e1ed5e" stroke-width="0.3" x1="172.23445277983987" x2="176.4835382374775" y1="55.19839476539836" y2="52.563006222186495" /><path d="M 173.08426987136738 54.67131705675599 a86.0,86.0 0 0,1 12.851231095245387,41.99856678651699" fill="none" id="id15" stroke="none" /><text fill="#e1ed5e" style="font-size:6.75px; font-family:Arial;" text-anchor="middle"><textPath startOffset="22.20632615414155" xlink:href="#id15">March</textPath></text><path d="M 118.56541770881063 90.18545643968196 l 2.5162874776272317 -1.3302266314070135 a23.846261681744682,23.846261681744682 0 0,0 0.18871541647149265,0.36453811771228317 l -2.5388123272588405 1.2867157914343854" fill="#ff1802" stroke="none" /><path d="M 118.89224826269711 90.83032412892265 l 2.1029455881578074 -1.0207006148651072 a23.337564949244918,23.337564949244918 0 0,0 0.17229991528886932,0.36290756355511505 l -2.120203697288433 0.9843506356694518" fill="#ff1001" stroke="none" /><path d="M 119.04729006885535 91.15688171328212 l 3.1870884130037673 -1.4796750469246145 a24.51382566397285,24.51382566397285 0 0,0 0.1743956550743803,0.38425770893630806 l -3.212086385041495 1.4245953291462436" fill="#ff2103" stroke="none" /><path d="M 119.196687751892 91.48605970444005 l 7.126756435249689 -3.160794173189238 a28.796234802302962,28.796234802302962 0 0,0 0.19706126012583103,0.45484455793375866 l -7.180108405218201 3.037650470668877" fill="#ff5e08" stroke="none" /><path d="M 119.34039704204932 91.81776055985345 l 4.734484445428129 -2.0029932826052055 a26.140751409488935,26.140751409488935 0 0,0 0.1717550849051686,0.4159185615889958 l -4.768261217219495 1.9212001505629066" fill="#ff3805" stroke="none" /><path d="M 119.47837535516314 92.15188598940014 l 3.789343182509282 -1.5267801743916574 a25.085361606485403,25.085361606485403 0 0,0 0.15792602894891997,0.40190451785957615 l -3.8150627613399024 1.4613266516362968" fill="#ff2904" stroke="none" /><path d="M 119.97218684219823 93.5106431181261 l 3.89301928707131 -1.2649186441840556 a25.093362718586473,25.093362718586473 0 0,0 0.12994121854579127,0.4119491724301993 l -3.9142159893853075 1.1977193053274373" fill="#ff2904" stroke="none" /><path d="M 120.08093135843002 93.85539295169968 l 4.853303526657635 -1.4850727053016939 a26.07543062822255,26.07543062822255 0 0,0 0.1276381189930561,0.4303322849367336 l -4.8781475427623935 1.4013110336184302" fill="#ff3705" stroke="none" /><path d="M 120.18372546131832 94.20196356495316 l 5.073406857688331 -1.457401799636456 a26.278586662092664,26.278586662092664 0 0,0 0.12114832570042322,0.43583498554916045 l -5.097741953955118 1.3698555106683437" fill="#ff3a05" stroke="none" /><path d="M 120.28053869075195 94.5502522615342 l 4.928078067114455 -1.3242637540730982 a26.10290387190728,26.10290387190728 0 0,0 0.11286854382885998,0.43492854134929093 l -4.950142942813617 1.2392387871749568" fill="#ff3805" stroke="none" /><path d="M 120.37134235888165 94.90015583598534 l 5.0356287694932345 -1.260639654462818 a26.191027782872297,26.191027782872297 0 0,0 0.10572095635453159,0.4382816171866727 l -5.056582526108585 1.1737728056167394" fill="#ff3905" stroke="none" /><path d="M 120.45610955862082 95.25157060432595 l 1.200200766150229 -0.2785998277124257 a22.232111903630912,22.232111903630912 0 0,0 0.08332342836259848,0.3735225912670998 l -1.204818581514865 0.2578990668953621" fill="#ff0000" stroke="none" /><path d="M 120.53481517161879 95.60439243477599 l 10.117621456349083 -2.165741110592864 a31.346820694884364,31.346820694884364 0 0,0 0.10840134236613565,0.5286034433304337 l -10.153402094630216 1.9912620110990182" fill="#ff800b" stroke="none" /><path d="M 120.6074358757038 95.95851677861258 l 3.1078375768631052 -0.6095020019690169 a24.16704074722233,24.16704074722233 0 0,0 0.07654539145440127,0.40890854192112486 l -3.1178686922273657 0.5559153825853294" fill="#ff1c02" stroke="none" /><path d="M 120.73433829027371 96.67025291283417 l 5.097476578712993 -0.8186086072410448 a26.162788735012953,26.162788735012953 0 0,0 0.06757986190795844,0.44526685315200304 l -5.110812334060252 0.7307426416969596" fill="#ff3905" stroke="none" /><path d="M 120.78858239683441 97.02765380044208 l 4.5073887955678265 -0.6444652983397299 a25.553228445309383,25.553228445309383 0 0,0 0.058509593363789685,0.4359644310945631 l -4.517814387989453 0.5667825251805024" fill="#ff3004" stroke="none" /><path d="M 120.96714384426684 98.82574320788733 l 7.079608511750592 -0.39649074009166646 a28.090702474834906,28.090702474834906 0 0,0 0.02288240769194362,0.48301146051527133 l -7.085384527676031 0.27456817295339536" fill="#ff5407" stroke="none" /><line stroke="#e1ed5e" stroke-width="0.3" x1="184.98032266829074" x2="189.97916517819016" y1="98.17113171792111" y2="98.06355123074" /><path d="M 185.9800911702706 98.14961562048488 a86.0,86.0 0 0,1 -9.607161424134198,41.387399972396054" fill="none" id="id16" stroke="none" /><text fill="#e1ed5e" style="font-size:6.75px; font-family:Arial;" text-anchor="middle"><textPath startOffset="21.466115282336823" xlink:href="#id16">April</textPath></text><path d="M 120.99824983174949 100.27111621757518 l 5.074590998388188 0.06551993276810449 a26.07501395687858,26.07501395687858 0 0,0 -0.009657610668769395,0.44875121892527686 l -5.072711325034411 -0.15286096748349617" fill="#ff3705" stroke="none" /><path d="M 120.9764740272857 100.99374915477107 l 4.531887859027525 0.21469574550840745 a25.536970556433058,25.536970556433058 0 0,0 -0.02458073153443969,0.4389054739488673 l -4.527520776605556 -0.29267293579269804" fill="#ff3004" stroke="none" /><path d="M 120.95626037817324 101.35467743843564 l 10.556403906890623 0.6823985742500668 a31.57843708964392,31.57843708964392 0 0,0 -0.03973385618619568,0.5421368989649229 l -10.54309349204009 -0.8640086097117599" fill="#ff830c" stroke="none" /><path d="M 120.92983693683757 101.71520430193887 l 7.548601426752794 0.6186093890679205 a28.573906592784024,28.573906592784024 0 0,0 -0.04439215421574845,0.4898637226322357 l -7.5368346762599705 -0.7484545002487268" fill="#ff5a08" stroke="none" /><path d="M 120.89721153311464 102.0752229133903 l 1.5661850397633095 0.15553190319079335 a22.573888735485628,22.573888735485628 0 0,0 -0.041726971756327724,0.38633993528080995 l -1.5632757665059298 -0.18246816035639477" fill="#ff0500" stroke="none" /><path d="M 120.8583938346157 102.4346265915055 l 5.267117165644168 0.6147867191370768 a26.30287525278983,26.30287525278983 0 0,0 -0.05636141375447478,0.4492559221128172 l -5.255754242642845 -0.7053603955372889" fill="#ff3b05" stroke="none" /><path d="M 120.81339534386255 102.79330883721812 l 5.2640820376461175 0.7064780461172574 a26.31127771150353,26.31127771150353 0 0,0 -0.0641067377654678,0.44836237462107004 l -5.251141248864049 -0.7969858927187368" fill="#ff3b05" stroke="none" /><path d="M 120.70491114924044 103.5080841355445 l 7.367975359752701 1.2483742279463703 a28.472984618940657,28.472984618940657 0 0,0 -0.08603391291873067,0.4825238731686886 l -7.345395004494781 -1.3750168518482773" fill="#ff5908" stroke="none" /><path d="M 120.49622156327973 104.57218783832717 l 5.057895982972811 1.1282884715836197 a26.182214454234888,26.182214454234888 0 0,0 -0.10191044724638378,0.43902753949321627 l -5.037724969795875 -1.2151846684254008" fill="#ff3905" stroke="none" /><path d="M 120.41448212921028 104.9243191809786 l 5.129931926267021 1.237426549531992 a26.277066044083618,26.277066044083618 0 0,0 -0.10984900439009454,0.43879216780838687 l -5.107871607581866 -1.3255465567377749" fill="#ff3a05" stroke="none" /><path d="M 120.23288151984713 105.62410040840565 l 40.60701610507778 11.287464696349819 a63.14660859700801,63.14660859700801 0 0,0 -0.3001188806501398,1.0447531954413585 l -40.40670458754154 -11.984775367295759" fill="#33ff53" stroke="none" /><path d="M 119.9155931802556 106.66101706037122 l 5.78155179705319 1.9337116804419954 a27.096358096854775,27.096358096854775 0 0,0 -0.15175143620170242,0.4410607068748675 l -5.747409529908257 -2.0329450904061632" fill="#ff4606" stroke="none" /><path d="M 119.79798401119884 107.00284435728193 l 8.304038360803457 2.9372631145025268 a29.80821024394357,29.80821024394357 0 0,0 -0.1752662279991668,0.4822573856040113 l -8.252247871799064 -3.079768297112669" fill="#ff6b09" stroke="none" /><path d="M 119.54520255179757 107.68017299344265 l 4.994279131111232 1.962472765519998 a26.366015597709428,26.366015597709428 0 0,0 -0.16961808474758847,0.42097817606562904 l -4.95975843210625 -2.0481503094284403" fill="#ff3c05" stroke="none" /><path d="M 119.26925614724726 108.34839909993367 l 7.693586511874717 3.333243910412818 a29.384616173803348,29.384616173803348 0 0,0 -0.20507511771526252,0.4623902521979615 l -7.6350703094281815 -3.465182499103467" fill="#ff6609" stroke="none" /><path d="M 118.81262510543309 109.33194174019688 l 10.857951851016661 5.3860518414459575 a33.12042378952731,33.12042378952731 0 0,0 -0.25774208156795486,0.508549578931189 l -10.763631099662437 -5.57215563207984" fill="#ff980e" stroke="none" /><line stroke="#e1ed5e" stroke-width="0.3" x1="174.80103733775053" x2="179.2010983576182" y1="140.37084112569926" y2="142.7455964860345" /><path d="M 175.68104954172406 140.8457921977663 a86.0,86.0 0 0,1 -30.038265399797805,32.042727171017184" fill="none" id="id17" stroke="none" /><text fill="#e1ed5e" style="font-size:6.75px; font-family:Arial;" text-anchor="middle"><textPath startOffset="22.206326154141568" xlink:href="#id17">May</textPath></text><path d="M 116.0416608686014 113.55231037782055 l 2.1677123876867284 1.8313260284212898 a23.837733605908735,23.837733605908735 0 0,0 -0.2675019275756554,0.3111651754984015 l -2.135867950540294 -1.8683683030812193" fill="#ff1702" stroke="none" /><path d="M 115.80600337817218 113.82643327865902 l 4.2580881332182186 3.724798107401121 a26.65733466317424,26.65733466317424 0 0,0 -0.30508830848840585,0.34276994880567635 l -4.193340975081474 -3.797542225947664" fill="#ff4006" stroke="none" /><path d="M 115.32070863581623 114.36230785411682 l 2.6099813987018514 2.4467116523606753 a24.57748526361286,24.57748526361286 0 0,0 -0.2919962646119739,0.30615691605997275 l -2.5674785827109132 -2.491275685003155" fill="#ff2203" stroke="none" /><path d="M 114.81725581225074 114.88116024355365 l 3.6638594950824386 3.679661129364371 a26.192665252706053,26.192665252706053 0 0,0 -0.32223220549721376,0.31537203396810715 l -3.5999773372094306 -3.7421832662550503" fill="#ff3905" stroke="none" /><path d="M 114.55890576462653 115.13401014063108 l 4.793633116900779 4.98299071197418 a27.914413561182815,27.914413561182815 0 0,0 -0.349148387929429,0.33014159353084505 l -4.707148894580542 -5.064766942250946" fill="#ff5107" stroke="none" /><path d="M 114.0293411484842 115.62618273729858 l 1.9781432246070023 2.2032985855218032 a23.961009164798543,23.961009164798543 0 0,0 -0.3092768936282848,0.27290089961913855 l -1.9399239780721298 -2.2370226269132307" fill="#ff1902" stroke="none" /><path d="M 113.48314897796784 116.09983520530334 l 4.601749208782906 5.494814604407506 a28.167222845520023,28.167222845520023 0 0,0 -0.37439587105347827,0.30810231313588315 l -4.506483209184737 -5.573212036400568" fill="#ff5507" stroke="none" /><path d="M 112.34349029814194 116.9893568818739 l 4.155562080852735 5.719640517481271 a28.069864486468926,28.069864486468926 0 0,0 -0.39334257282632895,0.280639481818539 l -4.056492180177521 -5.79032426114403" fill="#ff5307" stroke="none" /><path d="M 112.04921762599082 117.19931262002967 l 1.7747083624800146 2.533256920335913 a24.093053571518976,24.093053571518976 0 0,0 -0.34171191117566574,0.23503256840218462 l -1.7308395666814655 -2.563430278103192" fill="#ff1b02" stroke="none" /><path d="M 111.1453310114006 117.79835938074945 l 4.652892256832364 7.430362405773162 a29.76696594237811,29.76696594237811 0 0,0 -0.43661165072185826,0.2682025363726102 l -4.524301406178197 -7.509353408974151" fill="#ff6b09" stroke="none" /><line stroke="#e1ed5e" stroke-width="0.3" x1="143.8653032363475" x2="146.44561519142675" y1="172.8068346515853" y2="177.08958963109032" /><path d="M 144.38136562736335 173.6633856474863 a86.0,86.0 0 0,1 -40.68145358897372,12.25698825130547" fill="none" id="id18" stroke="none" /><text fill="#e1ed5e" style="font-size:6.75px; font-family:Arial;" text-anchor="middle"><textPath startOffset="21.466115282336833" xlink:href="#id18">June</textPath></text><path d="M 110.5260780823613 118.17145234162733 l 3.6788650065985635 6.350923830852859 a28.33950143007481,28.33950143007481 0 0,0 -0.4242170104467838,0.2408814899155692 l -3.5689992292305805 -6.413308486563057" fill="#ff5708" stroke="none" /><path d="M 110.21172684928248 118.3499491758327 l 3.0626126378569563 5.503357764988276 a27.298138046995945,27.298138046995945 0 0,0 -0.4125622045036681,0.22496180850404426 l -2.967427621484639 -5.55526022525209" fill="#ff4906" stroke="none" /><path d="M 109.2508944713604 118.85261126421891 l 4.731673571798509 9.642786733159813 a31.741139174745822,31.741139174745822 0 0,0 -0.49257310287101,0.23646502299625083 l -4.564987800927266 -9.722806032655624" fill="#ff860c" stroke="none" /><path d="M 108.59647513512805 119.15986991738527 l 2.5350792835963034 5.650198312734366 a27.192848128877813,27.192848128877813 0 0,0 -0.428713800602049,0.18793553144670178 l -2.4374448083365006 -5.692998397475522" fill="#ff4706" stroke="none" /><path d="M 108.2653958097858 119.30500536409082 l 1.8908508218729327 4.416350541341889 a25.804109588111864,25.804109588111864 0 0,0 -0.4098289052328819,0.171308515625453 l -1.81455045714259 -4.448244099987315" fill="#ff3404" stroke="none" /><path d="M 107.2578585660854 119.70592522655815 l 2.815239376389723 7.643700430486629 a29.14565706480433,29.14565706480433 0 0,0 -0.472271285321271,0.1693396803087064 l -2.6832485304387172 -7.691027651835295" fill="#ff6209" stroke="none" /><path d="M 106.57524785965236 119.94407469862006 l 2.213979276210488 6.715453015374736 a28.07099805099642,28.07099805099642 0 0,0 -0.460202164331042,0.14734220031344097 l -2.0980557667885056 -6.752568062347883" fill="#ff5307" stroke="none" /><path d="M 105.88484417918355 120.15858648285463 l 2.4666052618739114 8.449378433236276 a29.802053023354404,29.802053023354404 0 0,0 -0.493676446348519,0.13951789493882896 l -2.320797647420787 -8.490585121513625" fill="#ff6b09" stroke="none" /><path d="M 105.53697534728816 120.25689768951611 l 1.63392773821305 5.977687265892336 a27.19697223670668,27.19697223670668 0 0,0 -0.4526477011104453,0.11954837191420388 l -1.5307895942911072 -6.0049269871101245" fill="#ff4706" stroke="none" /><path d="M 105.18746579009965 120.34920634021253 l 6.219393357881094 24.397215108774404 a46.17746926924677,46.17746926924677 0 0,0 -0.7719261383733519,0.18972066394253154 l -5.798513934764531 -24.500657031030965" fill="#c4ff1e" stroke="none" /><path d="M 104.13013068566511 120.58985236759428 l 1.5346578867369474 7.650697212160839 a28.803098273217476,28.803098273217476 0 0,0 -0.48695393750790583,0.09332588108352938 l -1.4027363346573372 -7.675980291592836" fill="#ff5e08" stroke="none" /><path d="M 103.7750983002368 120.6578951692458 l 1.948046454027058 10.659997762068231 a31.836532530027633,31.836532530027633 0 0,0 -0.5399339907301371,0.09387444520102564 l -1.7642634918248707 -10.691950785790262" fill="#ff870c" stroke="none" /><path d="M 103.06178313531738 120.77559828337769 l 6.68558639831444 45.364760063516705 a66.85475461835738,66.85475461835738 0 0,0 -1.139941722478761,0.15798553556292474 l -5.903716084648848 -45.47312016457223" fill="#38ff7d" stroke="none" /><path d="M 102.34483914955558 120.86867818915974 l 1.2090619188455312 10.760449858548903 a31.82816290429487,31.82816290429487 0 0,0 -0.5449699947767231,0.05648836820647965 l -1.023659327463205 -10.77966759521114" fill="#ff870c" stroke="none" /><path d="M 101.62511606390274 120.93702456842531 l 4.578782412745435 58.99029736922393 a80.16773134143926,80.16773134143926 0 0,0 -1.3767366335996702,0.09494781880168028 l -3.5626830183668337 -59.060373532541895" fill="#48f6ff" stroke="none" /><path d="M 100.90346689309514 120.98055641714683 l 0.7006055642369887 16.269654902665255 a37.28473269072782,37.28473269072782 0 0,0 -0.6414388149719401,0.022092449738092237 l -0.4204463975903963 -16.27930415082944" fill="#ffce13" stroke="none" /><line stroke="#e1ed5e" stroke-width="0.3" x1="102.19456741930631" x2="102.32365962044197" y1="184.97166512339345" y2="189.96999836594603" /><path d="M 102.22038585953345 185.97133177190398 a86.0,86.0 0 0,1 -42.740103519485714,-10.115201625700543" fill="none" id="id19" stroke="none" /><text fill="#e1ed5e" style="font-size:6.75px; font-family:Arial;" text-anchor="middle"><textPath startOffset="22.20632615414155" xlink:href="#id19">July</textPath></text><path d="M 100.18074693466247 120.99922214144158 l 0.5422408039873879 62.99766642432473 a84.0,84.0 0 0,0 -1.4459754772996436,0.0 l 0.5422408039873445 -62.99766642432473" fill="#4dd2ff" stroke="none" /><path d="M 99.81925306533755 120.99922214144158 l -0.17818781431225986 20.70190292648145 a41.702669771665455,41.702669771665455 0 0,0 -0.7177631378368774,-0.012356943341613805 l 0.5345106420418051 -20.695768505860677" fill="#f9ff18" stroke="none" /><path d="M 98.73552117531835 120.96189622390904 l -0.5568711526094636 9.231530875202326 a30.24831161782638,30.24831161782638 0 0,0 -0.5194603615691201,-0.03582502788202985 l 0.7156942749575137 -9.22057750280401" fill="#ff710a" stroke="none" /><path d="M 98.01472825383883 120.90594882070398 l -0.9558707770549874 10.065818738900107 a31.111102601933197,31.111102601933197 0 0,0 -0.5326923037768614,-0.055215735333889314 l 1.1289956774374421 -10.047873635110458" fill="#ff7d0b" stroke="none" /><path d="M 97.2962882734958 120.8252237178851 l -7.882326697845614 60.71328362818296 a82.22282158711536,82.22282158711536 0 0,0 -1.4019829315377257,-0.19430205941355358 l 8.926238220570172 -60.568607003276796" fill="#4be2ff" stroke="none" /><path d="M 96.22490169976321 120.6578951692458 l -1.7435373932782015 9.540893992546351 a30.698895855651116,30.698895855651116 0 0,0 -0.5190048678879486,-0.09946851817271918 l 1.9075098757378453 -9.509468276025164" fill="#ff780b" stroke="none" /><path d="M 95.86986931433489 120.58985236759428 l -1.8425674345378522 9.18571210982441 a30.36869050163331,30.36869050163331 0 0,0 -0.5116524764136259,-0.10722175113632408 l 2.000411372380865 -9.152634377961544" fill="#ff730a" stroke="none" /><path d="M 95.51606077576429 120.51570834832081 l -8.525834143941623 39.00889775174768 a60.92973768579386,60.92973768579386 0 0,0 -1.0226907065247945,-0.2327610752099572 l 9.19604499985928 -38.85635994296004" fill="#30ff38" stroke="none" /><path d="M 93.42475214034765 119.94407469862007 l -2.819841181955106 8.553156378523385 a30.00599735325995,30.00599735325995 0 0,0 -0.4891410041631607,-0.16594318608335412 l 2.9666519190554927 -8.503350205541906" fill="#ff6e0a" stroke="none" /><path d="M 93.08242187328487 119.8279376855182 l -2.685629483904935 7.697852207495616 a29.152885031279702,29.152885031279702 0 0,0 -0.4723884060645201,-0.16938167564027826 l 2.8177374505991812 -7.650482990815381" fill="#ff6209" stroke="none" /><path d="M 92.40401165467489 119.57807347666478 l -3.609232551560799 9.302518234156564 a30.97814637635976,30.97814637635976 0 0,0 -0.49547173671950134,-0.19715842941196457 l 3.7688253643221583 -9.239012960338531" fill="#ff7b0b" stroke="none" /><path d="M 91.7346041902142 119.30500536409082 l -23.759107593732274 55.492768900428416 a81.36507760192893,81.36507760192893 0 0,0 -1.2827759523269997,-0.5623312801898818 l 24.710804220717016 -55.07557306694408" fill="#4aeaff" stroke="none" /><path d="M 91.07499286063937 119.00905698771935 l -3.1492226898330413 6.707418004636307 a28.409929813370606,28.409929813370606 0 0,0 -0.44087791567522516,-0.21164819163092463 l 3.2642132735085085 -6.65221553650582" fill="#ff5808" stroke="none" /><path d="M 90.7491055286396 118.85261126421891 l -2.2742152326524434 4.634675689480297 a26.16258401104409,26.16258401104409 0 0,0 -0.40258746609954227,-0.20186571308101167 l 2.3536566064347464 -4.5948421354899835" fill="#ff3905" stroke="none" /><line stroke="#e1ed5e" stroke-width="0.3" x1="58.666819895761336" x2="56.23545636021788" y1="174.27360380694188" y2="178.64263932499728" /><path d="M 58.180547188652646 175.14741091055294 a86.0,86.0 0 0,1 -31.652253787137756,-30.449443065178592" fill="none" id="id20" stroke="none" /><text fill="#e1ed5e" style="font-size:6.75px; font-family:Arial;" text-anchor="middle"><textPath startOffset="22.20632615414155" xlink:href="#id20">August</textPath></text><path d="M 89.1626897886671 117.98757091392108 l -3.6820869569667773 6.111461142858416 a28.134964727266222,28.134964727266222 0 0,0 -0.4126740164366103,-0.2534980862750259 l 3.7867401733356965 -6.047174589755012" fill="#ff5407" stroke="none" /><path d="M 88.8546689885994 117.79835938074946 l -6.0504029776239365 9.662094960118617 a32.40015154329056,32.40015154329056 0 0,0 -0.4701388472227663,-0.30006485614724604 l 6.215823626893626 -9.556515675147567" fill="#ff8e0d" stroke="none" /><path d="M 87.65650970185807 116.9893568818739 l -4.823384416803368 6.638819106770553 a29.206031706292837,29.206031706292837 0 0,0 -0.40417675087050675,-0.2990002977925665 l 4.9369461380924395 -6.554808860238221" fill="#ff6309" stroke="none" /><path d="M 87.36589467227662 116.77436683061367 l -32.75875849661996 43.4939726782225 a75.45054561318771,75.45054561318771 0 0,0 -1.0306949502816827,-0.7902929367886216 l 33.50258217539513 -42.923640399606505" fill="#42ffda" stroke="none" /><path d="M 87.07902340077011 116.55440617244103 l -4.51810831220967 5.788618186636048 a28.343119448266638,28.343119448266638 0 0,0 -0.38201464727851425,-0.3034955397722276 l 4.617080452205543 -5.70998873285869" fill="#ff5708" stroke="none" /><path d="M 86.51685102203217 116.09983520530335 l -5.916667647993901 7.064920387137087 a30.21520787250092,30.21520787250092 0 0,0 -0.3958688961012242,-0.33736806144975856 l 6.0374020206721815 -6.962027935464377" fill="#ff710a" stroke="none" /><path d="M 86.24171649860922 115.8653595955263 l -5.271703089024862 6.079062492044997 a29.04648086066341,29.04648086066341 0 0,0 -0.37491765516358366,-0.3308212397535628 l 5.375563097095033 -5.987418110519146" fill="#ff6108" stroke="none" /><path d="M 85.70375840098266 115.38237550388516 l -5.537345650934167 5.958036558596596 a29.133904135868157,29.133904135868157 0 0,0 -0.36440155337074936,-0.3445644135101964 l 5.639083038695733 -5.86183750834047" fill="#ff6209" stroke="none" /><path d="M 85.44109423537348 115.13401014063109 l -43.38509946612902 45.098893137147016 a83.57936575167341,83.57936575167341 0 0,0 -1.0282253867783684,-1.006334953719406 l 44.15497480528318 -44.34540808050504" fill="#4cd6ff" stroke="none" /><path d="M 84.67929136418377 114.36230785411682 l -7.467404656080811 7.000274405791813 a31.235525099087067,31.235525099087067 0 0,0 -0.36434543196004476,-0.39542500729587704 l 7.586796496036586 -6.870698143694592" fill="#ff7f0b" stroke="none" /><path d="M 84.19399662182784 113.82643327865904 l -13.617337753497972 11.911879769791453 a39.09211892352049,39.09211892352049 0 0,0 -0.43868336386083373,-0.5102878590113272 l 13.820363626929586 -11.675714811618596" fill="#ffe515" stroke="none" /><path d="M 83.72743513129214 113.27417163493432 l -47.971488436964655 39.132231226809715 a82.90795767626594,82.90795767626594 0 0,0 -0.8925716275579725,-1.1136203445402997 l 48.63797797657749 -38.300683048691155" fill="#4cdcff" stroke="none" /><path d="M 83.50135304334701 112.99209946851258 l -5.904200048372761 4.649348186671978 a28.515052679264127,28.515052679264127 0 0,0 -0.3003492980628989,-0.38824195523911753 l 5.9833561636537285 -4.547028237319608" fill="#ff5a08" stroke="none" /><path d="M 83.06392112726016 112.41649034213515 l -4.5838589655348105 3.360603183472602 a26.683785426340446,26.683785426340446 0 0,0 -0.26838831895030324,-0.3727679011162362 l 4.641027076860722 -3.2812016769052272" fill="#ff4006" stroke="none" /><path d="M 82.6465618267979 111.8261652097733 l -4.954028037268379 3.376112182371878 a26.995041889928793,26.995041889928793 0 0,0 -0.25837712329442547,-0.38623874225672067 l 5.011408265973534 -3.2903365259093365" fill="#ff4406" stroke="none" /><path d="M 82.05923443525364 110.91462005526583 l -6.6190731846727315 4.026844265256002 a28.747748354243235,28.747748354243235 0 0,0 -0.2535539417057394,-0.42497099069429833 l 6.687408002076703 -3.9123111806755926" fill="#ff5d08" stroke="none" /><line stroke="#e1ed5e" stroke-width="0.3" x1="26.63291911575756" x2="22.317208475507996" y1="142.92168965132927" y2="145.44649492493687" /><path d="M 25.769776987707644 143.4266507060508 a86.0,86.0 0 0,1 -11.730757126820373,-40.83630448921669" fill="none" id="id21" stroke="none" /><text fill="#e1ed5e" style="font-size:6.75px; font-family:Arial;" text-anchor="middle"><textPath startOffset="21.46611528233685" xlink:href="#id21">September</textPath></text><path d="M 81.87401531095188 110.60418214915194 l -6.587628965815053 3.8539377960933656 a28.63214857870328,28.63214857870328 0 0,0 -0.24521117941658738,-0.42754636022464915 l 6.652992141384018 -3.7399715900104096" fill="#ff5b08" stroke="none" /><path d="M 81.51974371655577 109.97397251340807 l -5.190127173515485 2.801161681730092 a26.897789996639148,26.897789996639148 0 0,0 -0.21639591210599685,-0.4093395147758318 l 5.237575593846368 -2.711407151868134" fill="#ff4306" stroke="none" /><path d="M 81.18737489456691 109.33194174019688 l -6.718853499629138 3.332865512817204 a28.500065658112934,28.500065658112934 0 0,0 -0.21422107382856254,-0.4413588622729924 l 6.77522783007242 -3.216717694578927" fill="#ff5908" stroke="none" /><path d="M 80.87730276802145 108.67885076344099 l -6.956533444148687 3.157228023863134 a28.639466365802384,28.639466365802384 0 0,0 -0.19987472021176148,-0.4506647286924231 l 7.009849249091728 -3.037014958678015" fill="#ff5b08" stroke="none" /><path d="M 80.58989483394504 108.01547362559985 l -7.617016743710214 3.1454748077169072 a29.240931733726683,29.240931733726683 0 0,0 -0.18811302066212685,-0.4668810902468538 l 7.670032378629728 -3.013894349627248" fill="#ff6409" stroke="none" /><path d="M 80.20201598880116 107.00284435728193 l -7.721657119771628 2.7312661208066222 a29.19047027331068,29.19047027331068 0 0,0 -0.16347937872478382,-0.47514759757514397 l 7.76752732943964 -2.5979458201421815" fill="#ff6309" stroke="none" /><path d="M 79.97269907076064 106.31721596034903 l -7.834554341305085 2.4712552081771713 a29.215068108713716,29.215068108713716 0 0,0 -0.1471510497767558,-0.4808981447731995 l 7.875932163587971 -2.336030090851924" fill="#ff6309" stroke="none" /><path d="M 79.86692584326677 105.97154293290107 l -7.424055800374248 2.2020019199781027 a28.743734046482857,28.743734046482857 0 0,0 -0.13661125243936037,-0.4755616914540237 l 7.460859689699712 -2.073882753019483" fill="#ff5d08" stroke="none" /><path d="M 79.4281124754447 104.21870165774334 l -7.600928400459722 1.5587315070205767 a28.759107968052373,28.759107968052373 0 0,0 -0.09527490804273564,-0.4858047034970086 l 7.626633241478124 -1.427663076455613" fill="#ff5d08" stroke="none" /><path d="M 79.23777060512086 103.15116336523772 l -14.501583117058198 2.20096101373846 a35.66765633238467,35.66765633238467 0 0,0 -0.08690330877429872,-0.6078015391614663 l 14.537320476849096 -1.9510140025965934" fill="#ffb911" stroke="none" /><path d="M 79.10278846688536 102.07522291339032 l -10.032581679528956 0.9962976806176427 a31.081929588368695,31.081929588368695 0 0,0 -0.04828859530038315,-0.5328606253159873 l 10.048244871106416 -0.8234556667530891" fill="#ff7d0b" stroke="none" /><path d="M 79.0235259727143 100.99374915477108 l -7.860680977206703 0.3723955259050298 a28.869497052107803,28.869497052107803 0 0,0 -0.019243399256573968,-0.49658662868969927 l 7.865926509314477 -0.2370316502013337" fill="#ff5f08" stroke="none" /><line stroke="#e1ed5e" stroke-width="0.3" x1="15.007084014347285" x2="10.007500721073583" y1="101.09737516637583" y2="101.16192664675087" /><path d="M 14.007167355692545 101.11028546245083 a86.0,86.0 0 0,1 10.666146001902534,-42.60595125391555" fill="none" id="id22" stroke="none" /><text fill="#e1ed5e" style="font-size:6.75px; font-family:Arial;" text-anchor="middle"><textPath startOffset="22.20632615414155" xlink:href="#id22">October</textPath></text><path d="M 79.00175016825051 100.2711162175752 l -12.848575184664677 0.16589273549978956 a33.84964609145608,33.84964609145608 0 0,0 -0.0025076183892305693,-0.5826822013438752 l 12.84952710034341 0.05529894404776097" fill="#ffa20e" stroke="none" /><path d="M 79.00486145842228 99.54816195383935 l -7.727041703598624 -0.16629427898471422 a28.72883091265266,28.72883091265266 0 0,0 0.01489563280519388,-0.4943135351581452 l 7.723034376337785 0.2992779615678538" fill="#ff5d08" stroke="none" /><path d="M 79.05617556472873 98.46500227214037 l -7.520756286013935 -0.5512051462471076 a28.54092847246726,28.54092847246726 0 0,0 0.040127887877162316,-0.4896618723142007 l 7.510153914317276 0.6805809357690866" fill="#ff5a08" stroke="none" /><path d="M 79.32604984820605 96.31383870115002 l -7.662355251806826 -1.3661964539853244 a28.783198619833218,28.783198619833218 0 0,0 0.09116636284556555,-0.4870143557321792 l 7.6377031650513985 1.4978888871800762" fill="#ff5d08" stroke="none" /><path d="M 80.02781315780177 93.51064311812611 l -20.420650564748463 -6.635071578376394 a42.47154266320285,42.47154266320285 0 0,0 0.2319000961643078,-0.693351770729907 l 20.303413174812384 6.985596452028623" fill="#f0ff19" stroke="none" /><path d="M 80.95270993114464 91.15688171328213 l -9.558714710349719 -4.437841002423106 a31.538664985501903,31.538664985501903 0 0,0 0.23284817062724403,-0.4904376310280015 l 9.480908345880724 4.60172104909164" fill="#ff830c" stroke="none" /><path d="M 81.10775173730289 90.83032412892265 l -9.176786340627945 -4.454110231434941 a31.200612996056122,31.200612996056122 0 0,0 0.2386698127396208,-0.48114377865368874 l 9.098756514934912 4.611413598587591" fill="#ff7e0b" stroke="none" /><line stroke="#e1ed5e" stroke-width="0.3" x1="26.266209847984243" x2="21.928928074336255" y1="57.711370442889674" y2="55.22380399835377" /><path d="M 25.398753493254645 57.213857153982495 a86.0,86.0 0 0,1 29.58750427330803,-30.492523968695096" fill="none" id="id23" stroke="none" /><text fill="#e1ed5e" style="font-size:6.75px; font-family:Arial;" text-anchor="middle"><textPath startOffset="21.46611528233685" xlink:href="#id23">November</textPath></text><path d="M 81.78341655067845 89.55222093294921 l -7.137562034740029 -4.09361455861311 a29.228151186885874,29.228151186885874 0 0,0 0.2540626777278431,-0.4342754718638774 l 7.06603968254186 4.215869442830879" fill="#ff6309" stroke="none" /><path d="M 82.34701348167596 88.62581576622439 l -1.6004586562566068 -1.0312086057454173 a22.90390627367791,22.90390627367791 0 0,0 0.21639105086402555,-0.32957841620257383 l 1.5824709700346609 1.058605085925658" fill="#ff0a01" stroke="none" /><path d="M 83.6137871275137 86.86637796730984 l -8.087473698999128 -6.48214591062252 a31.36462476110944,31.36462476110944 0 0,0 0.341279240636744,-0.4183679957090036 l 7.974695966285992 6.620398075939606" fill="#ff810b" stroke="none" /><path d="M 83.84228863543731 86.58626213691792 l -2.4674121319027797 -2.048385367875902 a24.206868448188843,24.206868448188843 0 0,0 0.26891454712742213,-0.3183100037844133 l 2.4317869712882336 2.0905543212894315" fill="#ff1d02" stroke="none" /><path d="M 84.5562425177563 85.77008943001954 l -7.576904819022497 -6.9813760087794385 a31.302868416731695,31.302868416731695 0 0,0 0.3685281899369053,-0.3931201781397294 l 7.455609307115136 7.110765603797218" fill="#ff800b" stroke="none" /><path d="M 85.05521093208273 85.24692304244772 l -8.489678133897426 -8.380772340448459 a32.92945848895087,32.92945848895087 0 0,0 0.4016832564164655,-0.3999583008588947 l 8.344159077313646 8.525666491957464" fill="#ff950d" stroke="none" /><path d="M 85.57189188830299 84.74124197986013 l -2.6926836800232596 -2.847705907120628 a24.91918031405973,24.91918031405973 0 0,0 0.31420964235511606,-0.2920236187651917 l 2.6432661538732876 2.893634111960467" fill="#ff2703" stroke="none" /><path d="M 87.51073957382395 83.11751280151077 l -5.43113051425766 -7.341586951626494 a30.13214529183549,30.13214529183549 0 0,0 0.41963271518598255,-0.3048810137249783 l 5.303952482717896 7.433987200168141" fill="#ff700a" stroke="none" /><line stroke="#e1ed5e" stroke-width="0.3" x1="56.762969772571076" x2="54.21961505331055" y1="26.818313649435495" y2="22.513508569990535" /><path d="M 56.25429882871897 25.957352633546506 a86.0,86.0 0 0,1 42.265352541879196,-11.944610805530505" fill="none" id="id24" stroke="none" /><text fill="#e1ed5e" style="font-size:6.75px; font-family:Arial;" text-anchor="middle"><textPath startOffset="22.20632615414155" xlink:href="#id24">December</textPath></text><path d="M 91.90106846888425 80.62456947434976 l -2.2227118564256716 -5.317491447761584 a26.763346535973074,26.763346535973074 0 0,0 0.42657732330410136,-0.17401160089445708 l 2.13085066353319 5.354963934839618" fill="#ff4106" stroke="none" /><path d="M 93.59665428221793 80.00007090966166 l -2.599240682578862 -8.118354315297807 a29.524302253832133,29.524302253832133 0 0,0 0.4853438570729739,-0.1507986989254091 l 2.459111452795159 8.161893149105742" fill="#ff6809" stroke="none" /><path d="M 94.28887869178378 79.79150937346287 l -1.3970935758922096 -4.943539264731726 a26.137163704004728,26.137163704004728 0 0,0 0.4340040072995979,-0.11862968979133684 l 1.311791679368889 4.966855495349359" fill="#ff3805" stroke="none" /><path d="M 95.33964822691252 79.52364482259891 l -2.307283973488861 -10.137596567089943 a31.39684680522861,31.39684680522861 0 0,0 0.5280011851382745,-0.11540060836740534 l 2.1324400641970658 10.175810673553217" fill="#ff810b" stroke="none" /></svg>