<?xml version="1.0" encoding="utf-8" ?>
<svg baseProfile="full" height="200mm" version="1.1" viewBox="0,0,200,200" width="200mm" xmlns="http://www.w3.org/2000/svg" xmlns:ev="http://www.w3.org/2001/xml-events" xmlns:xlink="http://www.w3.org/1999/xlink"><defs /><rect fill="#1a1a1a" height="200" width="200" x="0" y="0" /><text alignment-baseline="middle" fill="#e1ed5e" style="dominant-baseline: central; font-size:9.0px; font-family:Arial;" text-anchor="middle" x="100.0" y="100.0">2022</text><line stroke="#e1ed5e" stroke-width="0.3" x1="100.0" x2="100.0" y1="15.0" y2="10.0" /><path d="M 100.0 14.0 a86.0,86.0 0 0,1 42.46469731375804,11.215312516191453" fill="none" id="id61" stroke="none" /><text fill="#e1ed5e" style="font-size:6.75px; font-family:Arial;" text-anchor="middle"><textPath startOffset="22.20632615414155" xlink:href="#id61">January</textPath></text><path d="M 100.0 79.0 l 0.0 -40.609284440481495 a61.609284440481495,61.609284440481495 0 0,0 1.0605025555801322,0.009128080308484 l -0.6990220763076038 40.60326773678157" fill="#85ff25" stroke="none" /><path d="M 105.01212808612495 79.60689891045804 l 10.129653129329213 -41.2150361520621 a63.44159607668301,63.44159607668301 0 0,0 1.0582393901570022,0.26976878323393816 l -10.83760140817124 41.0345643726593" fill="#69ff28" stroke="none" /><path d="M 106.0581310904928 79.89281104454417 l 12.46310346536845 -41.36555855366531 a64.20229603209987,64.20229603209987 0 0,0 1.0554081759922613,0.32792045774454837 l -13.17329701407143 41.14489796103824" fill="#5dff2a" stroke="none" /><path d="M 108.43124777332544 80.76684994638697 l 15.336219176628271 -34.98459689589341 a59.19845073562193,59.19845073562193 0 0,0 0.9297479815081667,0.4171508177995591 l -15.936149276603217 34.71542574757732" fill="#abff21" stroke="none" /><path d="M 109.41281617654863 81.2277094730956 l 28.23844852964587 -56.31687158071319 a84.0,84.0 0 0,0 1.2869580496449777,0.6592298987499978 l -29.203667066879603 55.82244915665069" fill="#4dd2ff" stroke="none" /><line stroke="#e1ed5e" stroke-width="0.3" x1="143.23703022742887" x2="145.7803849466894" y1="26.81831364943548" y2="22.513508569990506" /><path d="M 143.74570117128098 25.957352633546492 a86.0,86.0 0 0,1 28.547481713284135,27.462654790039103" fill="none" id="id62" stroke="none" /><text fill="#e1ed5e" style="font-size:6.75px; font-family:Arial;" text-anchor="middle"><textPath startOffset="19.985693538727396" xlink:href="#id62">February</textPath></text><path d="M 110.99172775467656 82.1063720568725 l 22.297697391773365 -36.298815802373156 a63.60036781096745,63.60036781096745 0 0,0 0.927901647588573,0.5810519265941037 l -22.9192181917342 35.909619534456105" fill="#66ff29" stroke="none" /><path d="M 111.2981086023043 82.29822771554956 l 20.447704465683987 -32.037274638823625 a59.00652028533215,59.00652028533215 0 0,0 0.8514724447706861,0.5538213633257906 l -20.996143936238955 31.680554351338305" fill="#aeff20" stroke="none" /><path d="M 112.77801427241765 83.33499621200491 l 24.68820977198719 -32.1982039304093 a61.5737851092287,61.5737851092287 0 0,0 0.8355487719875819,0.6521590697913193 l -25.2387910991342 31.768466471394756" fill="#85ff25" stroke="none" /><path d="M 113.34407831869373 83.78471172551755 l 26.962563954574147 -32.764027361118494 a63.43184351315203,63.43184351315203 0 0,0 0.8371265403075613,0.701069403037093 l -27.522548031840824 32.295056800687576" fill="#69ff28" stroke="none" /><path d="M 115.9244219780498 86.31012108654704 l 44.460706911445435 -38.221901860123225 a79.63163174320107,79.63163174320107 0 0,0 0.8846292626852943,1.0471220205864629 l -45.11204678761784 37.45092088990766" fill="#45fff1" stroke="none" /><path d="M 117.04232023915458 87.72973835380427 l 33.20675457358381 -23.90845620320845 a61.91824565314312,61.91824565314312 0 0,0 0.615312212937812,0.8703154887025709 l -33.6133794063255 23.333314214174084" fill="#80ff26" stroke="none" /><path d="M 117.45458315368197 88.32363383020206 l 33.966271229883866 -22.721976045537094 a61.865581810075795,61.865581810075795 0 0,0 0.5844923612694569,0.8902219659293477 l -34.352360226511244 22.13393601563007" fill="#81ff25" stroke="none" /><line stroke="#e1ed5e" stroke-width="0.3" x1="172.23445277983987" x2="176.4835382374775" y1="55.19839476539836" y2="52.563006222186495" /><path d="M 173.08426987136738 54.67131705675599 a86.0,86.0 0 0,1 12.851231095245387,41.99856678651699" fill="none" id="id63" stroke="none" /><text fill="#e1ed5e" style="font-size:6.75px; font-family:Arial;" text-anchor="middle"><textPath startOffset="22.20632615414155" xlink:href="#id63">March</textPath></text><path d="M 117.84615892207809 88.93136811851018 l 32.171619973884404 -19.953639328044613 a58.85711101203744,58.85711101203744 0 0,0 0.5265867294131311,0.8655701264974063 l -32.51032250158376 19.396901428340126" fill="#b0ff20" stroke="none" /><path d="M 118.56541770881063 90.18545643968196 l 36.09758397878198 -19.082862337854234 a61.83125278644672,61.83125278644672 0 0,0 0.4893224261428436,0.945215179107879 l -36.42071583808494 18.45867443648601" fill="#81ff25" stroke="none" /><path d="M 118.89224826269711 90.83032412892265 l 31.984725110820495 -15.52433347336615 a56.55316540347748,56.55316540347748 0 0,0 0.4175288051486217,0.8794221467638367 l -32.247212109810874 14.971468910961773" fill="#d6ff1c" stroke="none" /><path d="M 119.34039704204932 91.81776055985345 l 34.03287618149441 -14.398108846908197 a57.95324342398574,57.95324342398574 0 0,0 0.380775750815006,0.9220786834601677 l -34.27567361919561 13.810155592994727" fill="#bfff1e" stroke="none" /><path d="M 119.61058180528143 92.48833698450437 l 37.87000355862742 -14.505775909790621 a61.55310967454302,61.55310967454302 0 0,0 0.3704776488723075,0.9926959090792205 l -38.11408579600135 13.851756863682068" fill="#85ff25" stroke="none" /><path d="M 119.85752413597 93.16781622104841 l 38.25280972098544 -13.161269465694737 a61.45363352652697,61.45363352652697 0 0,0 0.33554475846235543,1.003236118859452 l -38.47369177321957 12.500860243912971" fill="#87ff25" stroke="none" /><path d="M 120.37134235888165 94.90015583598534 l 31.971185525154485 -8.003795775686907 a53.95781319661168,53.95781319661168 0 0,0 0.21780251089174169,0.9029320202215396 l -32.10422083630704 7.45227852380596" fill="#fffb17" stroke="none" /><path d="M 120.78858239683441 97.02765380044208 l 40.52367889720271 -5.794065254807718 a61.935800267498884,61.935800267498884 0 0,0 0.14181528944838503,1.0566886288281574 l -40.61741018570893 5.095658283914896" fill="#80ff26" stroke="none" /><path d="M 120.83666639777658 97.38593545837742 l 35.84253433708781 -4.49662610629831 a57.12349531876951,57.12349531876951 0 0,0 0.11400121542908434,0.9766927944273883 l -35.91462590552049 3.878989573546069" fill="#cdff1d" stroke="none" /><path d="M 120.91429891909075 98.10471618934814 l 40.40159865684291 -3.6612509056601663 a61.56715336602765,61.56715336602765 0 0,0 0.08656199918553799,1.0562756435673635 l -40.45863513984794 2.965261344885034" fill="#85ff25" stroke="none" /><path d="M 120.98425023603335 99.18683210126433 l 40.50203536974918 -1.5695083038793545 a61.53243423985734,61.53243423985734 0 0,0 0.03190399737578544,1.058738352022314 l -40.52305106158061 0.8720998044320416" fill="#86ff25" stroke="none" /><line stroke="#e1ed5e" stroke-width="0.3" x1="184.98032266829074" x2="189.97916517819016" y1="98.17113171792111" y2="98.06355123074" /><path d="M 185.9800911702706 98.14961562048488 a86.0,86.0 0 0,1 -9.607161424134198,41.387399972396054" fill="none" id="id64" stroke="none" /><text fill="#e1ed5e" style="font-size:6.75px; font-family:Arial;" text-anchor="middle"><textPath startOffset="21.466115282336823" xlink:href="#id64">April</textPath></text><path d="M 120.9764740272857 100.99374915477107 l 36.84326415057755 1.74542978772401 a57.8845853767276,57.8845853767276 0 0,0 -0.0557170808488583,0.9948659071741879 l -36.807760718841166 -2.379367411233621" fill="#c0ff1e" stroke="none" /><path d="M 120.92983693683757 101.71520430193887 l 42.84216937708183 3.51092430589512 a63.985789121711996,63.985789121711996 0 0,0 -0.09940772393456071,1.0969559501058443 l -42.775387056870194 -4.247861644549535" fill="#61ff29" stroke="none" /><path d="M 120.8583938346157 102.4346265915055 l 41.09140782733309 4.7962578025924945 a62.37037449843959,62.37037449843959 0 0,0 -0.13364632000660254,1.0652926662398337 l -41.00275999807964 -5.502868223119723" fill="#79ff26" stroke="none" /><path d="M 120.76222939487914 103.15116336523771 l 47.03282110618095 7.1383520533748905 a68.57144449398128,68.57144449398128 0 0,0 -0.18716166187177596,1.1654558471353065 l -46.90297768994788 -7.946887130203402" fill="#31ff43" stroke="none" /><path d="M 120.49622156327973 104.57218783832717 l 40.36535743561874 9.004488743794237 a62.357501114578696,62.357501114578696 0 0,0 -0.2427174690995516,1.0456205043745217 l -40.204379400588635 -9.697977905517323" fill="#79ff26" stroke="none" /><path d="M 120.41448212921028 104.9243191809786 l 39.558937124917726 9.542286286294079 a61.69354658938921,61.69354658938921 0 0,0 -0.2579045415028052,1.0302004417970727 l -39.38882126911986 -10.221814567488547" fill="#83ff25" stroke="none" /><path d="M 120.13307415673323 105.97154293290107 l 38.8789887792243 11.53164930877046 a61.55310967454302,61.55310967454302 0 0,0 -0.3100319558362097,1.0132023700016453 l -38.674730050881955 -12.199178651324162" fill="#85ff25" stroke="none" /><path d="M 119.67450827220406 107.3425965602758 l 47.91659387605117 17.88264349516121 a72.1447837717343,72.1447837717343 0 0,0 -0.4442253923416565,1.1597323227264833 l -47.601674204116 -18.704799384720836" fill="#38ff7f" stroke="none" /><path d="M 119.12269723197855 108.67885076344098 l 37.376859118211286 16.96351609597445 a62.04619928666963,62.04619928666963 0 0,0 -0.44976221238311753,0.9687477927484527 l -37.07932228898834 -17.604383956001737" fill="#7eff26" stroke="none" /><path d="M 118.81262510543309 109.33194174019688 l 37.81116781667853 18.756107306478327 a63.20753455193937,63.20753455193937 0 0,0 -0.49187901790515676,0.9705239669013941 l -37.4827101289871 -19.40418548508242" fill="#6cff28" stroke="none" /><line stroke="#e1ed5e" stroke-width="0.3" x1="174.80103733775053" x2="179.2010983576182" y1="140.37084112569926" y2="142.7455964860345" /><path d="M 175.68104954172406 140.8457921977663 a86.0,86.0 0 0,1 -30.038265399797805,32.042727171017184" fill="none" id="id65" stroke="none" /><text fill="#e1ed5e" style="font-size:6.75px; font-family:Arial;" text-anchor="middle"><textPath startOffset="22.206326154141568" xlink:href="#id65">May</textPath></text><path d="M 118.30583269289576 110.29060199501025 l 35.47044130871174 19.939666237470803 a61.69081587160053,61.69081587160053 0 0,0 -0.5283319090589741,0.9211912166734664 l -35.12195740350039 -20.547277300002584" fill="#83ff25" stroke="none" /><path d="M 117.94076556474637 110.91462005526583 l 35.29830294294373 21.474421692179828 a62.31732055283103,62.31732055283103 0 0,0 -0.5654120536409868,0.911624261586473 l -34.92342624963477 -22.078842285131575" fill="#7aff26" stroke="none" /><path d="M 117.55443506779139 111.5257021239791 l 33.73632931970496 22.150236165036738 a61.358058403923316,61.358058403923316 0 0,0 -0.5872751998674379,0.8778967412563392 l -33.350051014426796 -22.727669820498882" fill="#89ff25" stroke="none" /><path d="M 117.14729908036423 112.12312394758627 l 32.98638079330658 23.321339475408525 a61.397848863129745,61.397848863129745 0 0,0 -0.6175460183124583,0.8577174073348922 l -32.58005498261851 -23.88569048819455" fill="#88ff25" stroke="none" /><path d="M 116.498646956653 112.99209946851258 l 31.8614641908109 25.089773304867546 a61.55427998216673,61.55427998216673 0 0,0 -0.6626819114442077,0.8267975765286053 l -31.424864367311837 -25.634498714974402" fill="#85ff25" stroke="none" /><path d="M 116.0416608686014 113.55231037782055 l 31.35114829474936 26.4860662416289 a62.04151805617477,62.04151805617477 0 0,0 -0.6962165927398745,0.8098571858086223 l -30.890589192438707 -27.02180052659905" fill="#7eff26" stroke="none" /><path d="M 115.56566222782051 114.09645910891815 l 27.425544861500963 24.836917698816116 a58.000445831475695,58.000445831475695 0 0,0 -0.6765436925842631,0.7342545592981412 l -26.99395476092098 -25.305323512915592" fill="#beff1f" stroke="none" /><path d="M 114.81725581225074 114.88116024355365 l 28.873995986790657 28.998524868275776 a61.92214667855551,61.92214667855551 0 0,0 -0.7617899782570414,0.7455718292612457 l -28.37055605615782 -29.491246800459592" fill="#80ff26" stroke="none" /><path d="M 114.29624159901734 115.38237550388516 l 26.650093707486068 28.674791607498804 a60.14679001337495,60.14679001337495 0 0,0 -0.7644383501281763,0.698296308183747 l -26.15255580789103 -29.129280682269133" fill="#9cff22" stroke="none" /><path d="M 113.75828350139079 115.86535959552629 l 26.814749375815847 30.921418450799276 a61.92877842175657,61.92877842175657 0 0,0 -0.8113688065350302,0.6914660991994945 l -26.27851509270377 -31.378408940221718" fill="#80ff26" stroke="none" /><path d="M 113.20401910651253 116.32954008644616 l 25.877248026026745 32.0026467365149 a62.15581810075791,62.15581810075791 0 0,0 -0.8377494570210844,0.665558835148894 l -25.32254107628831 -32.443339485668915" fill="#7cff26" stroke="none" /><path d="M 112.34349029814194 116.9893568818739 l 24.398754869861595 33.58200508488549 a62.50964110566206,62.50964110566206 0 0,0 -0.875946624922399,0.624964659056772 l -23.81708091709031 -33.997014005786475" fill="#77ff27" stroke="none" /><path d="M 111.7513745106137 117.40417183066458 l 22.70814723755536 33.63151230704882 a61.58002674988854,61.58002674988854 0 0,0 -0.8836009577148205,0.5856025334858233 l -22.125871581100576 -34.017412861625964" fill="#85ff25" stroke="none" /><path d="M 111.1453310114006 117.79835938074945 l 21.62358191210993 34.53143577136712 a61.743089612126624,61.743089612126624 0 0,0 -0.9056264695704,0.5563097451553961 l -21.02597624260722 -34.898533983350895" fill="#83ff25" stroke="none" /><line stroke="#e1ed5e" stroke-width="0.3" x1="143.8653032363475" x2="146.44561519142675" y1="172.8068346515853" y2="177.08958963109032" /><path d="M 144.38136562736335 173.6633856474863 a86.0,86.0 0 0,1 -40.68145358897372,12.25698825130547" fill="none" id="id66" stroke="none" /><text fill="#e1ed5e" style="font-size:6.75px; font-family:Arial;" text-anchor="middle"><textPath startOffset="21.466115282336833" xlink:href="#id66">June</textPath></text><path d="M 110.5260780823613 118.17145234162733 l 21.236546334726796 36.661222404278476 a63.36786669638877,63.36786669638877 0 0,0 -0.9485603349325187,0.5386173140787329 l -20.602337232873076 -37.02134288415184" fill="#6aff28" stroke="none" /><path d="M 109.89434966115114 118.52300852407294 l 19.09742556179571 35.751897657095206 a61.53282434239857,61.53282434239857 0 0,0 -0.9385487347671128,0.491004339477543 l -18.479185924502104 -36.07533141551747" fill="#86ff25" stroke="none" /><path d="M 109.2508944713604 118.85261126421891 l 18.333206547929503 37.361664576843985 a62.61730940704413,62.61730940704413 0 0,0 -0.9717232333174067,0.46648620351599634 l -17.687370646611864 -37.671705056859544" fill="#75ff27" stroke="none" /><path d="M 108.59647513512805 119.15986991738527 l 16.964113354134856 37.80970688798029 a62.44098305840392,62.44098305840392 0 0,0 -0.9844246926039522,0.43154285566261186 l -16.310767986873152 -38.09611429693736" fill="#78ff26" stroke="none" /><path d="M 107.93186726928326 119.44442032107085 l 14.811839746706418 36.31019380249009 a60.21505795809184,60.21505795809184 0 0,0 -0.9630937558590735,0.3832348814462108 l -14.184624914805479 -36.55977552834237" fill="#9aff22" stroke="none" /><path d="M 107.2578585660854 119.70592522655815 l 14.206565146511092 38.57246706508505 a62.10549487293803,62.10549487293803 0 0,0 -1.006346908698624,0.36084019735130085 l -13.540498677182732 -38.811294803476315" fill="#7dff26" stroke="none" /><path d="M 106.57524785965236 119.94407469862006 l 12.396013143344845 37.599649073763835 a60.59033660276416,60.59033660276416 0 0,0 -0.9933314088612765,0.3180333487453752 l -11.746960389392628 -37.80745526916891" fill="#95ff23" stroke="none" /><path d="M 105.88484417918355 120.15858648285463 l 7.9573080658859165 27.257830102671058 a49.39556397681676,49.39556397681676 0 0,0 -0.8182465305442601,0.23124464277548748 l -7.486930367237051 -27.390763538785066" fill="#ffa80f" stroke="none" /><path d="M 104.83641907484287 120.43548508189849 l 9.541308250637396 40.31521243308107 a62.4288898796255,62.4288898796255 0 0,0 -1.0478536084923744,0.23848806977440942 l -8.84593449275216 -40.47347723643317" fill="#78ff26" stroke="none" /><path d="M 103.7750983002368 120.6578951692458 l 7.378103956158323 40.37407398492255 a62.04268836379848,62.04268836379848 0 0,0 -1.052217489209805,0.1829414978983158 l -6.682037495476467 -40.495094061341874" fill="#7eff26" stroke="none" /><path d="M 102.70371172650421 120.8252237178851 l 5.2287229343038915 40.2740143478627 a61.612015158270175,61.612015158270175 0 0,0 -1.0528982214688494,0.1274913115651569 l -4.5346972897836615 -40.35805118815321" fill="#85ff25" stroke="none" /><path d="M 101.98527174616119 120.90594882070398 l 2.7269458449694777 28.716164616757958 a49.845352206865805,49.845352206865805 0 0,0 -0.8548612776893764,0.07376102810770141 l -2.2322402495385596 -28.758849897144323" fill="#ffb110" stroke="none" /><path d="M 101.26447882468166 120.96189622390904 l 2.724107190072481 45.15888372862197 a66.24097191261703,66.24097191261703 0 0,0 -1.1387514866829676,0.05886044457852336 l -1.9463676349760337 -45.1990839799627" fill="#40ff2d" stroke="none" /><line stroke="#e1ed5e" stroke-width="0.3" x1="102.19456741930631" x2="102.32365962044197" y1="184.97166512339345" y2="189.96999836594603" /><path d="M 102.22038585953345 185.97133177190398 a86.0,86.0 0 0,1 -42.740103519485714,-10.115201625700543" fill="none" id="id67" stroke="none" /><text fill="#e1ed5e" style="font-size:6.75px; font-family:Arial;" text-anchor="middle"><textPath startOffset="22.20632615414155" xlink:href="#id67">July</textPath></text><path d="M 100.18074693466247 120.99922214144158 l 0.3394813692571755 39.44102675503185 a60.44248773963441,60.44248773963441 0 0,0 -1.0404566078392348,0.0 l 0.3394813692571483 -39.44102675503185" fill="#97ff23" stroke="none" /><path d="M 99.45781275523022 120.99299961872073 l -1.0479043600011562 40.573908815027515 a61.587438698172086,61.587438698172086 0 0,0 -1.059537533054052,-0.03649261495914036 l 1.746162244729851 -40.54985940164228" fill="#85ff25" stroke="none" /><path d="M 94.81253420990036 120.34920634021253 l -10.090079654290255 39.58100567452395 a61.84685688809629,61.84685688809629 0 0,0 -1.0293365506885586,-0.2718571385311741 l 10.769906647790304 -39.40145718668919" fill="#81ff25" stroke="none" /><path d="M 94.11515582081647 120.15858648285463 l -11.411888258083458 39.0915255151523 a61.72319438252341,61.72319438252341 0 0,0 -1.017330582537171,-0.30651335922842887 l 12.083093815060876 -38.88929678681814" fill="#83ff25" stroke="none" /><path d="M 93.42475214034765 119.94407469862007 l -12.782964867586507 38.773352979344686 a61.82618145341061,61.82618145341061 0 0,0 -1.0078558670675044,-0.3419194307377986 l 13.448490467591236 -38.54757056170877" fill="#81ff25" stroke="none" /><path d="M 92.7421414339146 119.70592522655815 l -20.38771732032501 55.35500993803767 a79.9901359786001,79.9901359786001 0 0,0 -1.2879546199904284,-0.486994231384399 l 21.33754216107572 -54.995867456546634" fill="#46fff6" stroke="none" /><path d="M 92.40401165467489 119.57807347666478 l -14.358043507397305 37.0067485611634 a60.69449398127507,60.69449398127507 0 0,0 -0.9707619680292663,-0.3862862213225911 l 14.99292655146843 -36.75411549543474" fill="#93ff23" stroke="none" /><path d="M 91.07499286063937 119.00905698771935 l -13.187729285298015 28.088078094333483 a52.02992643780651,52.02992643780651 0 0,0 -0.8074235195695444,-0.387612356439866 l 13.669265472867803 -27.856911461394056" fill="#ffd914" stroke="none" /><path d="M 90.42595943632237 118.69057910512821 l -17.02703773750499 33.240426927603735 a58.34763709317877,58.34763709317877 0 0,0 -0.8899656655727456,-0.46558797385270295 l 17.596694305604235 -32.942409534806316" fill="#b9ff1f" stroke="none" /><line stroke="#e1ed5e" stroke-width="0.3" x1="58.666819895761336" x2="56.23545636021788" y1="174.27360380694188" y2="178.64263932499728" /><path d="M 58.180547188652646 175.14741091055294 a86.0,86.0 0 0,1 -31.652253787137756,-30.449443065178592" fill="none" id="id68" stroke="none" /><text fill="#e1ed5e" style="font-size:6.75px; font-family:Arial;" text-anchor="middle"><textPath startOffset="22.20632615414155" xlink:href="#id68">August</textPath></text><path d="M 88.24862548938628 117.40417183066458 l -11.254748395818678 16.668652234239367 a41.11251671868034,41.11251671868034 0 0,0 -0.5830990504992981,-0.4010608439144256 l 11.540004330940867 -16.472450600959842" fill="#ff0400" stroke="none" /><line stroke="#e1ed5e" stroke-width="0.3" x1="26.63291911575756" x2="22.317208475507996" y1="142.92168965132927" y2="145.44649492493687" /><path d="M 25.769776987707644 143.4266507060508 a86.0,86.0 0 0,1 -11.730757126820373,-40.83630448921669" fill="none" id="id69" stroke="none" /><text fill="#e1ed5e" style="font-size:6.75px; font-family:Arial;" text-anchor="middle"><textPath startOffset="21.46611528233685" xlink:href="#id69">September</textPath></text><path d="M 81.18737489456691 109.33194174019688 l -17.865214147994596 8.861981603889971 a40.94243201069996,40.94243201069996 0 0,0 -0.307744264722013,-0.6340443361676228 l 18.015111669331326 -8.553148311757063" fill="#ff0000" stroke="none" /><path d="M 79.58551787078972 104.9243191809786 l -24.91475444729875 6.0098611582537 a46.62934685688809,46.62934685688809 0 0,0 -0.18149792490999425,-0.7818883102702402 l 25.0145129381393 -5.580104190634885" fill="#ff730a" stroke="none" /><path d="M 79.29508885075956 103.50808413554451 l -33.178166249735824 5.621458494953568 a54.65102541239412,54.65102541239412 0 0,0 -0.14916670947594987,-0.9288612422974982 l 33.27001471357306 -5.0495180229628565" fill="#f7ff19" stroke="none" /><path d="M 79.1416061653843 102.43462659150553 l -20.248125401536495 2.363395039981881 a41.38558849754793,41.38558849754793 0 0,0 -0.07649968078568337,-0.7082920346181705 l 20.28580738382323 -2.014506683478928" fill="#ff0901" stroke="none" /><path d="M 79.04373962182676 101.35467743843564 l -28.810965119784196 1.8624298287483905 a49.8710989745876,49.8710989745876 0 0,0 -0.04800366169169023,-0.8571376265411152 l 28.838755132363417 -1.3662204858718376" fill="#ffb110" stroke="none" /><path d="M 79.0095281055655 100.63252640178507 l -28.08750672410092 0.8463882876316011 a49.10025635309853,49.10025635309853 0 0,0 -0.018185653145926895,-0.845015842539297 l 28.097914439931852 -0.3627826293021752" fill="#ffa30f" stroke="none" /><line stroke="#e1ed5e" stroke-width="0.3" x1="15.007084014347285" x2="10.007500721073583" y1="101.09737516637583" y2="101.16192664675087" /><path d="M 14.007167355692545 101.11028546245083 a86.0,86.0 0 0,1 10.666146001902534,-42.60595125391555" fill="none" id="id70" stroke="none" /><text fill="#e1ed5e" style="font-size:6.75px; font-family:Arial;" text-anchor="middle"><textPath startOffset="22.20632615414155" xlink:href="#id70">October</textPath></text><path d="M 79.00019446554 99.90962569577889 l -21.122296598099105 -0.09090145408598561 a42.12249219794918,42.12249219794918 0 0,0 0.009361208155805288,-0.7250358880804421 l 21.11760238282558 0.4544736002268997" fill="#ff1902" stroke="none" /><path d="M 79.00486145842228 99.54816195383935 l -23.522417813189822 -0.5062278243431604 a44.52786446723138,44.52786446723138 0 0,0 0.023087285407468603,-0.7661546049249783 l 23.510218833326707 0.9110525766931331" fill="#ff4a06" stroke="none" /><path d="M 79.01574976396665 99.18683210126434 l -36.55053171685368 -1.4163822266486212 a57.57796477931342,57.57796477931342 0 0,0 0.04690243917298775,-0.9900363611934114 l 36.52073566944719 2.0453296944650416" fill="#c5ff1e" stroke="none" /><path d="M 79.05617556472873 98.46500227214037 l -36.598391677840915 -2.6823395241125683 a57.69655595185019,57.69655595185019 0 0,0 0.08112002839598309,-0.9898698159283021 l 36.546797165625435 3.3119232572486488" fill="#c3ff1e" stroke="none" /><path d="M 79.21141760316559 97.0276538004421 l -38.66810714774534 -5.528756080174105 a60.06135755684352,60.06135755684352 0 0,0 0.1551416514044567,-1.0221896429405621 l 38.56720960290158 6.193544835506759" fill="#9dff22" stroke="none" /><path d="M 79.46518482838121 95.60439243477599 l -29.908459346313936 -6.402095615087465 a51.58598974587606,51.58598974587606 0 0,0 0.19333842595503709,-0.8666982537008108 l 29.793826533356864 6.915972038338235" fill="#ffd113" stroke="none" /><path d="M 79.62865764111835 94.90015583598534 l -28.719384646683128 -7.189726803674394 a50.60566205974142,50.60566205974142 0 0,0 0.21881808300743516,-0.8431953353414176 l 28.591370231805385 7.683018564564676" fill="#ffbf11" stroke="none" /><path d="M 79.81627453868168 94.20196356495316 l -28.944929073567998 -8.314805594240998 a51.115526081141326,51.115526081141326 0 0,0 0.25020831653209846,-0.843578058129258 l 28.797514859924192 8.811813039116794" fill="#ffc812" stroke="none" /><path d="M 80.2630227832202 92.82701384747504 l -37.92563271438773 -13.783267584398393 a61.35259696834597,61.35259696834597 0 0,0 0.3692707971575183,-0.9894621464925024 l 37.682757328728584 14.434052867920238" fill="#89ff24" stroke="none" /><path d="M 80.52162464483688 92.15188598940014 l -32.93253702166317 -13.268986786200507 a56.50518279090504,56.50518279090504 0 0,0 0.3712614192226673,-0.8990389748393005 l 32.69925391555431 13.833900331493119" fill="#d7ff1c" stroke="none" /><path d="M 81.10775173730289 90.83032412892265 l -31.957702092611488 -15.511217389214105 a56.52312750780205,56.52312750780205 0 0,0 0.4323749747945676,-0.8716415653072517 l 31.685967104863508 16.05901854302032" fill="#d7ff1c" stroke="none" /><path d="M 81.43458229118936 90.18545643968196 l -26.4610313405819 -13.9885322709348 a50.931007579135084,50.931007579135084 0 0,0 0.41640197618952957,-0.7715296213790872 l 26.2163212651739 14.441942875646358" fill="#ffc512" stroke="none" /><line stroke="#e1ed5e" stroke-width="0.3" x1="26.266209847984243" x2="21.928928074336255" y1="57.711370442889674" y2="55.22380399835377" /><path d="M 25.398753493254645 57.213857153982495 a86.0,86.0 0 0,1 29.58750427330803,-30.492523968695096" fill="none" id="id71" stroke="none" /><text fill="#e1ed5e" style="font-size:6.75px; font-family:Arial;" text-anchor="middle"><textPath startOffset="21.46611528233685" xlink:href="#id71">November</textPath></text><path d="M 81.96595687620814 89.24020034530311 l -28.355913065223554 -16.91822191582161 a54.0194493981275,54.0194493981275 0 0,0 0.4833048155802516,-0.7944260403691179 l 28.060492451357085 17.403815729397802" fill="#fffc17" stroke="none" /><path d="M 82.15384107792192 88.93136811851018 l -28.569700730899218 -17.71963937648445 a54.61864690147124,54.61864690147124 0 0,0 0.5024197767500096,-0.7947074304481528 l 28.260453357903245 18.20879445464682" fill="#f7ff18" stroke="none" /><path d="M 82.54541684631803 88.32363383020206 l -30.31076947489407 -20.276602435076736 a57.46756576014267,57.46756576014267 0 0,0 0.5570947812541831,-0.8174678496051043 l 29.957250227971148 20.795348307952256" fill="#c7ff1e" stroke="none" /><path d="M 83.17141714833178 87.43820079747576 l -28.783216467930735 -21.485409012743602 a56.91791127953633,56.91791127953633 0 0,0 0.5928246013821035,-0.7800876853001711 l 28.409115926324525 21.9776814739248" fill="#d0ff1d" stroke="none" /><path d="M 84.31358615837235 86.03803664274999 l -29.41435711872902 -26.180756189086203 a60.37812082032991,60.37812082032991 0 0,0 0.6976730945098015,-0.7703880563671137 l 28.95934038360317 26.683197032722873" fill="#98ff23" stroke="none" /><path d="M 86.10567301691215 84.25364557470407 l -22.394252235856623 -25.37926689248731 a54.8468568880963,54.8468568880963 0 0,0 0.7132865114700965,-0.6185550339048631 l 21.95407192573975 25.760986919811852" fill="#f3ff19" stroke="none" /><path d="M 87.51073957382395 83.11751280151077 l -22.263141449246792 -30.09443215126741 a58.43423985733393,58.43423985733393 0 0,0 0.8137793872182778,-0.5912453332282228 l 21.741816745674733 30.4731967193123" fill="#b7ff1f" stroke="none" /><line stroke="#e1ed5e" stroke-width="0.3" x1="56.762969772571076" x2="54.21961505331055" y1="26.818313649435495" y2="22.513508569990535" /><path d="M 56.25429882871897 25.957352633546506 a86.0,86.0 0 0,1 42.265352541879196,-11.944610805530505" fill="none" id="id72" stroke="none" /><text fill="#e1ed5e" style="font-size:6.75px; font-family:Arial;" text-anchor="middle"><textPath startOffset="22.20632615414155" xlink:href="#id72">December</textPath></text><path d="M 89.94658935756843 81.56283822128135 l -20.399466820542482 -37.41101237649012 a63.61129068212216,63.61129068212216 0 0,0 0.9658464347963098,-0.5159217160879259 l 19.752475339217867 37.7566128190798" fill="#66ff29" stroke="none" /><path d="M 90.26544431104013 81.39251694778311 l -13.999662511663987 -26.760182102402432 a51.20095853767276,51.20095853767276 0 0,0 0.7844462588047029,-0.40182384181776065 l 13.53695576527052 26.997198469532698" fill="#ffca12" stroke="none" /></svg>