<?xml version="1.0" encoding="utf-8" ?>
<svg baseProfile="full" height="200mm" version="1.1" viewBox="0,0,200,200" width="200mm" xmlns="http://www.w3.org/2000/svg" xmlns:ev="http://www.w3.org/2001/xml-events" xmlns:xlink="http://www.w3.org/1999/xlink"><defs /><rect fill="#1a1a1a" height="200" width="200" x="0" y="0" /><text alignment-baseline="middle" fill="#e1ed5e" style="dominant-baseline: central; font-size:9.0px; font-family:Arial;" text-anchor="middle" x="100.0" y="100.0">2019</text><line stroke="#e1ed5e" stroke-width="0.3" x1="100.0" x2="100.0" y1="15.0" y2="10.0" /><path d="M 100.0 14.0 a86.0,86.0 0 0,1 42.46469731375804,11.215312516191453" fill="none" id="id25" stroke="none" /><text fill="#e1ed5e" style="font-size:6.75px; font-family:Arial;" text-anchor="middle"><textPath startOffset="22.20632615414155" xlink:href="#id25">January</textPath></text><path d="M 107.4271985657038 80.35727306442388 l 3.797535666150852 -10.043350188961023 a31.73732555871299,31.73732555871299 0 0,0 0.5093339529129822,0.19761366075251197 l -3.969852784063501 9.976493824317963" fill="#ff6c09" stroke="none" /><path d="M 109.41281617654863 81.2277094730956 l 5.550802964187747 -11.070149883617695 a33.38384560598994,33.38384560598994 0 0,0 0.5114715336992127,0.26199558522288463 l -5.7405349854757155 10.972961773082309" fill="#ff830c" stroke="none" /><path d="M 109.73455568895987 81.39251694778311 l 3.126400772080904 -5.976076488720478 a27.74446973354509,27.74446973354509 0 0,0 0.42126007647553326,0.2250225436929018 l -3.2288058950847485 5.921375218525823" fill="#ff3204" stroke="none" /><path d="M 110.36928655335952 81.73862282372117 l 4.027476314868045 -7.092798880218665 a29.156491980137922,29.156491980137922 0 0,0 0.43429742672550437,0.25157310151863593 l -4.148970474058877 7.02242162130998" fill="#ff4706" stroke="none" /><line stroke="#e1ed5e" stroke-width="0.3" x1="143.23703022742887" x2="145.7803849466894" y1="26.81831364943548" y2="22.513508569990506" /><path d="M 143.74570117128098 25.957352633546492 a86.0,86.0 0 0,1 28.547481713284135,27.462654790039103" fill="none" id="id26" stroke="none" /><text fill="#e1ed5e" style="font-size:6.75px; font-family:Arial;" text-anchor="middle"><textPath startOffset="19.985693538727396" xlink:href="#id26">February</textPath></text><path d="M 110.99172775467656 82.1063720568725 l 3.0759281146616453 -5.007357759579144 a26.876645769398,26.876645769398 0 0,0 0.392118548200885,0.24554459891036942 l -3.1616658152347936 4.95366881934583" fill="#ff2503" stroke="none" /><path d="M 113.34407831869373 83.78471172551755 l 5.486508870000472 -6.667026438456304 a29.634293318602815,29.634293318602815 0 0,0 0.39109147813302647,0.32752786574760884 l -5.6004578850926166 6.5715974153148755" fill="#ff4e07" stroke="none" /><path d="M 115.19652480421416 85.50635884689758 l 5.313103064691337 -5.0673565319177625 a28.342149984684465,28.342149984684465 0 0,0 0.3336716972299211,0.35593770201859354 l -5.3995420838917205 4.975149413021114" fill="#ff3b05" stroke="none" /><path d="M 116.82858285166822 87.43820079747576 l 6.3097476656667855 -4.709949963899964 a28.873788431678154,28.873788431678154 0 0,0 0.29387657648672216,0.4008473200627497 l -6.389886854667134 4.600640200165721" fill="#ff4306" stroke="none" /><line stroke="#e1ed5e" stroke-width="0.3" x1="172.23445277983987" x2="176.4835382374775" y1="55.19839476539836" y2="52.563006222186495" /><path d="M 173.08426987136738 54.67131705675599 a86.0,86.0 0 0,1 12.851231095245387,41.99856678651699" fill="none" id="id27" stroke="none" /><text fill="#e1ed5e" style="font-size:6.75px; font-family:Arial;" text-anchor="middle"><textPath startOffset="22.20632615414155" xlink:href="#id27">March</textPath></text><path d="M 118.3937258080291 89.86733742301442 l 5.052733960894597 -2.7834300049570384 a26.76867429069043,26.76867429069043 0 0,0 0.21885545573192633,0.4055059210880063 l -5.099897515844988 2.6960431005365733" fill="#ff2403" stroke="none" /><path d="M 118.89224826269711 90.83032412892265 l 6.158794409008838 -2.9892762206985717 a27.845912714610993,27.845912714610993 0 0,0 0.2055847905427664,0.4330139995413204 l -6.20933739339336 2.8828198055167107" fill="#ff3404" stroke="none" /><path d="M 119.97218684219823 93.5106431181261 l 15.715391915719811 -5.106240367436754 a37.52414093847884,37.52414093847884 0 0,0 0.19431164539850146,0.6160210163586748 l -15.80095904488652 4.834969184651659" fill="#ffbc11" stroke="none" /><path d="M 120.08093135843002 93.85539295169968 l 20.63528881326446 -6.314236069158631 a42.57972941312984,42.57972941312984 0 0,0 0.20842595648805454,0.7027087111845346 l -20.740920666864216 5.958097971227566" fill="#fffd17" stroke="none" /><path d="M 120.18372546131832 94.20196356495316 l 5.621340077954298 -1.6148027106408769 a26.84867951475445,26.84867951475445 0 0,0 0.12377654142152904,0.44529007586267216 l -5.648303389942191 1.5178013313592527" fill="#ff2503" stroke="none" /><path d="M 120.67395015179393 96.31383870115 l 10.587482591211735 -1.8877460907772499 a31.754458281217904,31.754458281217904 0 0,0 0.09131393447792797,0.5389400102741854 l -10.618408387209886 1.7052202921872266" fill="#ff6c0a" stroke="none" /><path d="M 120.73433829027371 96.67025291283417 l 9.338050476372619 -1.4996063987291468 a30.457695599372624,30.457695599372624 0 0,0 0.07867383265170169,0.518362259128931 l -9.36248020246362 1.3386450272081338" fill="#ff5a08" stroke="none" /><path d="M 120.96714384426684 98.82574320788733 l 10.29699743650215 -0.5766793640558523 a31.313133146442922,31.313133146442922 0 0,0 0.025507367763797136,0.5384202188578924 l -10.305398412499443 0.3993480385749601" fill="#ff6609" stroke="none" /><path d="M 120.98425023603335 99.18683210126433 l 29.17186773815239 -1.1304490808108234 a50.19376273207279,50.19376273207279 0 0,0 0.026025001192745922,0.8636430899125922 l -29.18700443380078 0.6281358434732321" fill="#a5ff21" stroke="none" /><line stroke="#e1ed5e" stroke-width="0.3" x1="184.98032266829074" x2="189.97916517819016" y1="98.17113171792111" y2="98.06355123074" /><path d="M 185.9800911702706 98.14961562048488 a86.0,86.0 0 0,1 -9.607161424134198,41.387399972396054" fill="none" id="id28" stroke="none" /><text fill="#e1ed5e" style="font-size:6.75px; font-family:Arial;" text-anchor="middle"><textPath startOffset="21.466115282336823" xlink:href="#id28">April</textPath></text><path d="M 120.99980553446 99.90962569577887 l 11.462017789174569 -0.04932768929536206 a32.462123931465996,32.462123931465996 0 0,0 -0.0024048292470795593,0.5587976246953474 l -11.461168662637986 -0.14797941360367012" fill="#ff760a" stroke="none" /><path d="M 120.95626037817324 101.35467743843564 l 15.534425732352888 1.0041932901631059 a36.566848974599715,36.566848974599715 0 0,0 -0.0460105708909695,0.6277776842385109 l -15.514838602797582 -1.271444110898387" fill="#ffaf10" stroke="none" /><path d="M 120.92983693683757 101.71520430193887 l 5.675937624546156 0.4651442178234785 a26.694965062325956,26.694965062325956 0 0,0 -0.04147304821560729,0.4576516311658577 l -5.667089980053474 -0.5627772375379068" fill="#ff2303" stroke="none" /><path d="M 120.8583938346157 102.4346265915055 l 9.069350645136616 1.0585897659911578 a30.130921827345865,30.130921827345865 0 0,0 -0.064564095582465,0.5146393669725412 l -9.049785040307302 -1.214546887251094" fill="#ff5507" stroke="none" /><path d="M 120.76222939487914 103.15116336523771 l 7.3767373361515665 1.119595781674355 a28.461216284287403,28.461216284287403 0 0,0 -0.07768318981710873,0.48373329714553137 l -7.35637239197317 -1.2464083085130913" fill="#ff3d05" stroke="none" /><path d="M 120.64145759157962 103.86396538481128 l 9.235143000823909 1.7287671047766813 a30.39555756452084,30.39555756452084 0 0,0 -0.10069623700027497,0.5134479430538026 l -9.20401683084797 -1.887478774898429" fill="#ff5908" stroke="none" /><path d="M 120.5718875245553 104.21870165774334 l 6.613014113111337 1.3561387387697164 a27.75063463231433,27.75063463231433 0 0,0 -0.0999894497838488,0.46711742118829414 l -6.5886906246030446 -1.4697699793741794" fill="#ff3204" stroke="none" /><path d="M 120.41448212921028 104.9243191809786 l 8.513871899424444 2.0536902397706007 a29.75806247527033,29.75806247527033 0 0,0 -0.12440100922997381,0.4969201935023963 l -8.47725957589941 -2.199938272670393" fill="#ff5007" stroke="none" /><path d="M 120.13307415673323 105.97154293290107 l 12.210373848530542 3.621641240460407 a33.73614992042266,33.73614992042266 0 0,0 -0.16992292668095618,0.5553179560681037 l -12.146224149343455 -3.8312861690805677" fill="#ff880c" stroke="none" /><path d="M 119.9155931802556 106.66101706037122 l 12.426146237480262 4.156078673297213 a34.10275162909993,34.10275162909993 0 0,0 -0.19099029912608692,0.5551072098377231 l -12.352765107410946 -4.369358586224236" fill="#ff8d0d" stroke="none" /><path d="M 119.67450827220406 107.3425965602758 l 10.287502380902477 3.8393325287098232 a31.980581929164025,31.980581929164025 0 0,0 -0.19691772311283018,0.5140900370594098 l -10.21989037819614 -4.015846132602377" fill="#ff6f0a" stroke="none" /><path d="M 119.26925614724726 108.34839909993367 l 11.926875220206714 5.167314897498997 a33.998134318751134,33.998134318751134 0 0,0 -0.23727284223412623,0.5349876210369694 l -11.836161293241314 -5.3718508550286534" fill="#ff8c0c" stroke="none" /><path d="M 118.64920377521936 109.65438752849418 l 11.58843994900112 5.9991456722137855 a34.049202628821675,34.049202628821675 0 0,0 -0.2739298752896095,0.5181720908791014 l -11.483457565486619 -6.197732778179021" fill="#ff8c0c" stroke="none" /><line stroke="#e1ed5e" stroke-width="0.3" x1="174.80103733775053" x2="179.2010983576182" y1="140.37084112569926" y2="142.7455964860345" /><path d="M 175.68104954172406 140.8457921977663 a86.0,86.0 0 0,1 -30.038265399797805,32.042727171017184" fill="none" id="id29" stroke="none" /><text fill="#e1ed5e" style="font-size:6.75px; font-family:Arial;" text-anchor="middle"><textPath startOffset="22.206326154141568" xlink:href="#id29">May</textPath></text><path d="M 118.48025628344425 109.97397251340804 l 7.276584465285551 3.927242800916594 a29.26873131125847,29.26873131125847 0 0,0 -0.24310272410041567,0.4413020582017953 l -7.207905331733626 -4.0519153775161945" fill="#ff4806" stroke="none" /><path d="M 118.30583269289576 110.29060199501025 l 10.197448343737044 5.732483412830451 a32.6982613580635,32.6982613580635 0 0,0 -0.2800341445016906,0.4882631350869833 l -10.097262203082973 -5.90716639377575" fill="#ff790b" stroke="none" /><path d="M 117.94076556474637 110.91462005526583 l 10.001666778485085 6.084712071654703 a32.70713711130064,32.70713711130064 0 0,0 -0.296755531187191,0.47846440529193174 l -9.89544660762993 -6.255972808311909" fill="#ff7a0b" stroke="none" /><path d="M 117.55443506779139 111.5257021239791 l 7.340374233489333 4.819463945550589 a29.78113469946431,29.78113469946431 0 0,0 -0.28504359961606407,0.4261015062025508 l -7.256327528462549 -4.945102365958946" fill="#ff5007" stroke="none" /><path d="M 117.14729908036423 112.12312394758627 l 8.925212913917582 6.310116940686271 a31.930553570789407,31.930553570789407 0 0,0 -0.32116086451352743,0.4460643512862856 l -8.815272257028452 -6.462814897423688" fill="#ff6f0a" stroke="none" /><path d="M 116.0416608686014 113.55231037782055 l 9.031779285968902 7.63022464756124 a32.8234244296104,32.8234244296104 0 0,0 -0.36833742039881806,0.4284596342903415 l -8.899099355999304 -7.784561381013109" fill="#ff7b0b" stroke="none" /><path d="M 115.32070863581623 114.36230785411682 l 8.182138908825147 7.670297811092958 a32.21520689216957,32.21520689216957 0 0,0 -0.3827372888365494,0.40129851718160603 l -8.048895068609633 -7.810003444857071" fill="#ff730a" stroke="none" /><path d="M 114.81725581225074 114.88116024355365 l 8.584420244149056 8.621443462261684 a33.16641106905117,33.16641106905117 0 0,0 -0.4080258990101598,0.3993392202493932 l -8.434744392763102 -8.767932785433649" fill="#ff800b" stroke="none" /><path d="M 114.0293411484842 115.62618273729858 l 7.955324117526215 8.860811571920063 a32.908029372149144,32.908029372149144 0 0,0 -0.42476061962360234,0.37480186074742244 l -7.801621144996024 -8.996436574439775" fill="#ff7c0b" stroke="none" /><path d="M 113.75828350139079 115.86535959552629 l 6.148997294290005 7.090713984485594 a30.385541675096082,30.385541675096082 0 0,0 -0.3981005489393252,0.33926992441305787 l -6.026031268773632 -7.195508299121599" fill="#ff5908" stroke="none" /><path d="M 113.48314897796784 116.09983520530334 l 10.516990659492635 12.558032010936502 a37.38020941623034,37.38020941623034 0 0,0 -0.49685395472975724,0.4088769790975701 l -10.299266576218185 -12.73720410889125" fill="#ffba11" stroke="none" /><path d="M 113.20401910651253 116.32954008644616 l 7.308975163334072 9.039081355284909 a32.62437566864103,32.62437566864103 0 0,0 -0.4397183375134858,0.34933884117303377 l -7.152299333103235 -9.163554110463068" fill="#ff780b" stroke="none" /><path d="M 112.63410532772338 116.77436683061366 l 3.1607512705550844 4.196545770144626 a26.253698220799738,26.253698220799738 0 0,0 -0.36331996595522864,0.2687754250600176 l -3.0880463341812914 -4.250331143944412" fill="#ff1c02" stroke="none" /><path d="M 112.34349029814194 116.9893568818739 l 6.2177309716246825 8.557972495697873 a31.5782357542561,31.5782357542561 0 0,0 -0.44250532462965886,0.31571579987819554 l -6.069498319146138 -8.663732557420287" fill="#ff6a09" stroke="none" /><path d="M 112.04921762599082 117.19931262002967 l 6.636943287785202 9.473715720910842 a32.5672082096723,32.5672082096723 0 0,0 -0.4619008929668576,0.317699646019814 l -6.472885510195462 -9.58655615629575" fill="#ff780b" stroke="none" /><path d="M 111.7513745106137 117.40417183066458 l 3.3284433613619133 4.929533999402105 a26.948011487972725,26.948011487972725 0 0,0 -0.3866722704748709,0.2562652962762875 l -3.2430963921470783 -4.986097316769711" fill="#ff2603" stroke="none" /><line stroke="#e1ed5e" stroke-width="0.3" x1="143.8653032363475" x2="146.44561519142675" y1="172.8068346515853" y2="177.08958963109032" /><path d="M 144.38136562736335 173.6633856474863 a86.0,86.0 0 0,1 -40.68145358897372,12.25698825130547" fill="none" id="id30" stroke="none" /><text fill="#e1ed5e" style="font-size:6.75px; font-family:Arial;" text-anchor="middle"><textPath startOffset="21.466115282336833" xlink:href="#id30">June</textPath></text><path d="M 110.8373102113329 117.98757091392108 l 5.447409262733596 9.041511085297204 a31.555718373529487,31.555718373529487 0 0,0 -0.46767397193439914,0.27631002603909344 l -5.290967419770815 -9.133939683630047" fill="#ff6909" stroke="none" /><path d="M 109.89434966115114 118.52300852407294 l 4.7395402731721745 8.872795877110866 a31.059311540950333,31.059311540950333 0 0,0 -0.47374190703953334,0.24783937533781483 l -4.586107463606146 -8.953064671393397" fill="#ff6209" stroke="none" /><path d="M 109.57404056367764 118.69057910512821 l 5.234137019456584 10.218157251221697 a32.480719835843935,32.480719835843935 0 0,0 -0.4998103662192389,0.25061529351532624 l -5.057472745554585 -10.306740385646325" fill="#ff760a" stroke="none" /><path d="M 108.92500713936063 119.00905698771935 l 5.2166984501004 11.1108614903371 a33.27457476969104,33.27457476969104 0 0,0 -0.5205601304320693,0.23896362401928567 l -5.024670323900911 -11.199012184690462" fill="#ff810b" stroke="none" /><path d="M 108.2653958097858 119.30500536409082 l 4.310222574722633 10.067136751869857 a31.951039266868573,31.951039266868573 0 0,0 -0.5074563568675231,0.2121167983265538 l -4.136294758357648 -10.139838593216384" fill="#ff6f0a" stroke="none" /><path d="M 107.59598834532513 119.57807347666477 l 4.078624435695671 10.512339573942882 a32.27583525089558,32.27583525089558 0 0,0 -0.5196867165791935,0.19650104838557564 l -3.897067498356203 -10.58098887243509" fill="#ff730a" stroke="none" /><path d="M 106.2309692047433 120.05430185196036 l 18.692907614229917 60.16290555588107 a84.0,84.0 0 0,0 -1.3845001022390167,0.4171385235770977 l -17.654532537550654 -60.47575944856389" fill="#4dd2ff" stroke="none" /><path d="M 105.88484417918355 120.15858648285463 l 2.331463894400438 7.98645046765619 a29.31980257958196,29.31980257958196 0 0,0 -0.48568787975060684,0.13726024622262403 l -2.1936448465452254 -8.025399507217333" fill="#ff4906" stroke="none" /><path d="M 104.13013068566511 120.58985236759428 l 3.218234108667002 16.043793822746576 a37.36338446058727,37.36338446058727 0 0,0 -0.6316767387008005,0.12106235037531751 l -2.9415897553944967 -16.09681337147036" fill="#ffb911" stroke="none" /><path d="M 103.7750983002368 120.6578951692458 l 1.6163365852775087 8.844832394108773 a29.99130713727334,29.99130713727334 0 0,0 -0.5086397563732166,0.0884335414263361 l -1.463847857432242 -8.871344514056114" fill="#ff5307" stroke="none" /><path d="M 103.41894727170886 120.7198165907248 l 0.9890355633334207 5.993843673327555 a27.07489533455738,27.07489533455738 0 0,0 -0.46048483857414163,0.07191826143626474 l -0.8857148611507619 -6.009980242110926" fill="#ff2803" stroke="none" /><path d="M 101.98527174616119 120.90594882070398 l 1.109246138187119 11.680941432498777 a32.73349137062578,32.73349137062578 0 0,0 -0.5613882341566231,0.04843893904152928 l -0.9080135862889543 -11.69830462381897" fill="#ff7a0b" stroke="none" /><path d="M 101.26447882468166 120.96189622390904 l 0.7111741744388227 11.78948903748057 a32.810919543848534,32.810919543848534 0 0,0 -0.5640539734121273,0.029155147571336196 l -0.5081321326132158 -11.79998399181411" fill="#ff7b0b" stroke="none" /><line stroke="#e1ed5e" stroke-width="0.3" x1="102.19456741930631" x2="102.32365962044197" y1="184.97166512339345" y2="189.96999836594603" /><path d="M 102.22038585953345 185.97133177190398 a86.0,86.0 0 0,1 -42.740103519485714,-10.115201625700543" fill="none" id="id31" stroke="none" /><text fill="#e1ed5e" style="font-size:6.75px; font-family:Arial;" text-anchor="middle"><textPath startOffset="22.20632615414155" xlink:href="#id31">July</textPath></text><path d="M 100.54218724476979 120.99299961872073 l 0.21166506424751433 8.195479801320687 a29.19821268773129,29.19821268773129 0 0,0 -0.5025433832587349,0.008651740088444602 l -0.0705619910961114 -8.197909018688293" fill="#ff4706" stroke="none" /><path d="M 99.81925306533755 120.99922214144158 l -0.07931944586603927 9.21535221046856 a30.21569356790254,30.21569356790254 0 0,0 -0.520055697775753,-0.008953230464391566 l 0.23793483353446018 -9.212621502725009" fill="#ff5608" stroke="none" /><path d="M 98.73552117531835 120.96189622390904 l -1.2644427955637842 20.961298951250157 a41.99940164164051,41.99940164164051 0 0,0 -0.7212642027132432,-0.04974260229300239 l 1.6250697590559573 -20.93642800444087" fill="#fff617" stroke="none" /><path d="M 98.37488393609728 120.93702456842531 l -0.681092854256258 8.774793468410282 a29.801186731877394,29.801186731877394 0 0,0 -0.5110984161681438,-0.04409972193696501 l 0.8320355881659435 -8.761769494194652" fill="#ff5007" stroke="none" /><path d="M 97.2962882734958 120.8252237178851 l -1.5077492261667158 11.61337380667727 a32.710839376518834,32.710839376518834 0 0,0 -0.5577531590005419,-0.0772995055791122 l 1.707430976354089 -11.585699735605552" fill="#ff7a0b" stroke="none" /><path d="M 96.22490169976321 120.6578951692458 l -2.1137007740882248 11.566482654909771 a32.75802925530932,32.75802925530932 0 0,0 -0.5538172032591746,-0.10614038510067096 l 2.3124855919190943 -11.528385071460633" fill="#ff7a0b" stroke="none" /><path d="M 95.16358092515715 120.4354850818985 l -2.0408536515714046 8.623287954503954 a29.86149980383825,29.86149980383825 0 0,0 -0.49918006756088956,-0.12268631561576218 l 2.1889870038755044 -8.586880380574163" fill="#ff5107" stroke="none" /><path d="M 92.40401165467489 119.57807347666478 l -2.135303114561656 5.503578911830196 a26.903295709161007,26.903295709161007 0 0,0 -0.43029761970098546,-0.17122430320981416 l 2.2297218103044996 -5.466007764214316" fill="#ff2603" stroke="none" /><path d="M 92.06813273071674 119.44442032107085 l -1.9026159298041687 4.664130474288719 a26.03726716161981,26.03726716161981 0 0,0 -0.4135319864328432,-0.17285640386736623 l 1.982619375734474 -4.630689027401379" fill="#ff1902" stroke="none" /><path d="M 90.10565033884886 118.52300852407294 l -6.425781510799012 12.029573420645887 a34.63822952979002,34.63822952979002 0 0,0 -0.5234944709530179,-0.28545092507719494 l 6.631898793620671 -11.917181843808926" fill="#ff940d" stroke="none" /><line stroke="#e1ed5e" stroke-width="0.3" x1="58.666819895761336" x2="56.23545636021788" y1="174.27360380694188" y2="178.64263932499728" /><path d="M 58.180547188652646 175.14741091055294 a86.0,86.0 0 0,1 -31.652253787137756,-30.449443065178592" fill="none" id="id32" stroke="none" /><text fill="#e1ed5e" style="font-size:6.75px; font-family:Arial;" text-anchor="middle"><textPath startOffset="22.20632615414155" xlink:href="#id32">August</textPath></text><path d="M 89.7882731507175 118.34994917583269 l -5.114509056858656 9.190510345396342 a31.517779390229023,31.517779390229023 0 0,0 -0.47179299120113594,-0.2678963734447162 l 5.2719508149809995 -9.101110806156992" fill="#ff6909" stroke="none" /><path d="M 89.1626897886671 117.98757091392108 l -6.074486163073104 10.082321950113398 a32.7708367608724,32.7708367608724 0 0,0 -0.48067139799864883,-0.29526763175436255 l 6.247136761004062 -9.976265851530657" fill="#ff7a0b" stroke="none" /><path d="M 87.65650970185807 116.9893568818739 l -6.872978273122342 9.459843034916783 a32.69300904763506,32.69300904763506 0 0,0 -0.45243237102307654,-0.334698651952492 l 7.034795614563984 -9.340134434224524" fill="#ff790b" stroke="none" /><path d="M 87.07902340077011 116.55440617244103 l -5.252368482683109 6.729355212580944 a29.536486177284726,29.536486177284726 0 0,0 -0.39809910018751254,-0.3162740019394084 l 5.36742507558798 -6.637947296636405" fill="#ff4c07" stroke="none" /><path d="M 85.97065885151581 115.62618273729859 l -8.04573674551048 8.961515106867916 a33.043364678887684,33.043364678887684 0 0,0 -0.4199661390441022,-0.38362911071573624 l 8.198802434021438 -8.821693229565604" fill="#ff7e0b" stroke="none" /><path d="M 85.44109423537348 115.13401014063109 l -8.169552277919513 8.492265079347565 a32.783893694342545,32.783893694342545 0 0,0 -0.4033200236781093,-0.39473353078152046 l 8.314522253973417 -8.350381445643475" fill="#ff7b0b" stroke="none" /><path d="M 84.9287848128048 114.62390073753433 l -18.177295943273176 17.637792855420233 a46.3279652680599,46.3279652680599 0 0,0 -0.5504058963011497,-0.5770983817779798 l 18.478208390953284 -17.322287357059754" fill="#d2ff1c" stroke="none" /><path d="M 83.95833913139862 113.55231037782056 l -9.134784865393351 7.7172457854871706 a32.958268145958215,32.958268145958215 0 0,0 -0.3623902834039615,-0.43652244142020896 l 9.26627114869085 -7.558862086953201" fill="#ff7d0b" stroke="none" /><path d="M 83.72743513129214 113.27417163493432 l -6.799792103049674 5.54685805132819 a29.77523828088338,29.77523828088338 0 0,0 -0.32055466855267367,-0.3999412365529672 l 6.894264683657209 -5.428988981196963" fill="#ff5007" stroke="none" /><path d="M 83.28015986056508 112.70617746262583 l -9.319629749782584 7.082416368767198 a32.705388515278514,32.705388515278514 0 0,0 -0.3367700849899495,-0.4511585630247801 l 9.440161101467618 -6.92094492623311" fill="#ff7a0b" stroke="none" /><path d="M 82.6465618267979 111.8261652097733 l -9.775168881946804 6.661663296778642 a32.82927235928858,32.82927235928858 0 0,0 -0.3142181807543976,-0.46971354654520947 l 9.888390168111933 -6.492412836027612" fill="#ff7b0b" stroke="none" /><path d="M 82.24976979558568 111.22182372390057 l -9.90290162506298 6.260685924171764 a32.71595701753798,32.71595701753798 0 0,0 -0.2968355551878222,-0.47859342946114275 l 10.00920181991876 -6.089296163345356" fill="#ff7a0b" stroke="none" /><path d="M 82.05923443525364 110.91462005526583 l -7.684931110384093 4.675280044099965 a29.99535489361641,29.99535489361641 0 0,0 -0.2645577793579232,-0.44341405553891755 l 7.764269765440249 -4.542303894674936" fill="#ff5307" stroke="none" /><line stroke="#e1ed5e" stroke-width="0.3" x1="26.63291911575756" x2="22.317208475507996" y1="142.92168965132927" y2="145.44649492493687" /><path d="M 25.769776987707644 143.4266507060508 a86.0,86.0 0 0,1 -11.730757126820373,-40.83630448921669" fill="none" id="id33" stroke="none" /><text fill="#e1ed5e" style="font-size:6.75px; font-family:Arial;" text-anchor="middle"><textPath startOffset="21.46611528233685" xlink:href="#id33">September</textPath></text><path d="M 81.18737489456691 109.33194174019688 l -10.564552928746663 5.240512256517461 a32.79291089150594,32.79291089150594 0 0,0 -0.24648829477847267,-0.5078388946649539 l 10.653194480139854 -5.057884405887223" fill="#ff7b0b" stroke="none" /><path d="M 80.87730276802145 108.67885076344099 l -10.69274800256091 4.852911858590684 a32.74247049617415,32.74247049617415 0 0,0 -0.2285095694827312,-0.5152287544190274 l 10.77469865677492 -4.668134767678961" fill="#ff7a0b" stroke="none" /><path d="M 80.73074385275274 108.34839909993369 l -10.797146786871986 4.677860412907062 a32.76693489316156,32.76693489316156 0 0,0 -0.21977098233511325,-0.5194736829415193 l 10.876068750399407 -4.491312204299383" fill="#ff7a0b" stroke="none" /><path d="M 80.32549172779594 107.34259656027581 l -11.082945003806488 4.136194548640635 a32.82961433444065,32.82961433444065 0 0,0 -0.19303147099326368,-0.5311397044555126 l 11.152500735804976 -3.944807047179005" fill="#ff7b0b" stroke="none" /><path d="M 80.0844068197444 106.66101706037122 l -8.512469972394856 2.847101123165851 a29.975975146827018,29.975975146827018 0 0,0 -0.15945470034499531,-0.4907511061770074 l 8.5602169237561 -2.7001511170110404" fill="#ff5307" stroke="none" /><path d="M 79.97269907076064 106.31721596034903 l -8.620536946705874 2.7191778751874556 a30.03922483216509,30.03922483216509 0 0,0 -0.15130217913867125,-0.4944642757106767 l 8.666065898350675 -2.5703866269247313" fill="#ff5407" stroke="none" /><path d="M 79.86692584326677 105.97154293290107 l -8.420226377148845 2.4974697318677683 a29.782799514051817,29.782799514051817 0 0,0 -0.14154965169749203,-0.4927529071286979 l 8.461968665732442 -2.3521593492344746" fill="#ff5007" stroke="none" /><path d="M 79.58551787078972 104.9243191809786 l -11.526731409045109 2.7804430311916564 a32.857335300393984,32.857335300393984 0 0,0 -0.12789238059448554,-0.5509570283464676 l 11.57288435557015 -2.5816173454966145" fill="#ff7c0b" stroke="none" /><path d="M 79.35854240842038 103.8639653848113 l -11.759686078756063 2.2013474456908937 a32.963951991191664,32.963951991191664 0 0,0 -0.09960381087625216,-0.5586310673997932 l 11.795836331971504 -1.9985976275578867" fill="#ff7d0b" stroke="none" /><path d="M 79.29508885075956 103.50808413554451 l -11.616003669589992 1.9681281362663743 a32.78155633236507,32.78155633236507 0 0,0 -0.08947529991798503,-0.5571627780001452 l 11.648160723869267 -1.7678861285730154" fill="#ff7b0b" stroke="none" /><path d="M 79.07016306316243 101.71520430193888 l -11.749738859154494 0.9628934376650382 a32.78912749233901,32.78912749233901 0 0,0 -0.04125721841625948,-0.5629219662771819 l 11.764572636235089 -0.7604983348910956" fill="#ff7b0b" stroke="none" /><line stroke="#e1ed5e" stroke-width="0.3" x1="15.007084014347285" x2="10.007500721073583" y1="101.09737516637583" y2="101.16192664675087" /><path d="M 14.007167355692545 101.11028546245083 a86.0,86.0 0 0,1 10.666146001902534,-42.60595125391555" fill="none" id="id34" stroke="none" /><text fill="#e1ed5e" style="font-size:6.75px; font-family:Arial;" text-anchor="middle"><textPath startOffset="22.20632615414155" xlink:href="#id34">October</textPath></text><path d="M 79.00175016825051 100.2711162175752 l -11.73885146635798 0.15156467961553705 a32.73982987957329,32.73982987957329 0 0,0 -0.002425402004041067,-0.5635780088899928 l 11.739721165651526 0.05052280747813115" fill="#ff7a0b" stroke="none" /><path d="M 79.00019446554 99.90962569577889 l -11.785034475811916 -0.050717816849574195 a32.785143609350776,32.785143609350776 0 0,0 0.007286096755691121,-0.5643162232886064 l 11.782415371938509 0.2535702981986526" fill="#ff7b0b" stroke="none" /><path d="M 79.00486145842228 99.54816195383935 l -11.74161374449773 -0.25269220312981044 a32.744332534226906,32.744332534226906 0 0,0 0.016977633213267836,-0.563404992726627 l 11.735524416828817 0.45476734328143187" fill="#ff7a0b" stroke="none" /><path d="M 79.32604984820605 96.31383870115002 l -13.895601607326707 -2.4775830691804535 a35.11474979920757,35.11474979920757 0 0,0 0.11122057918955351,-0.5941447813369131 l 13.850895304227294 2.7164059279799395" fill="#ff9b0e" stroke="none" /><path d="M 79.46518482838121 95.60439243477599 l -11.922601071594313 -2.5521084572448323 a33.19268936247957,33.19268936247957 0 0,0 0.12440242682499528,-0.5576716865918876 l 11.87690425776728 2.7569583133866793" fill="#ff800b" stroke="none" /><path d="M 79.81627453868168 94.20196356495316 l -14.789048259517738 -4.248345569933715 a36.38715010987805,36.38715010987805 0 0,0 0.1781135453431699,-0.6005103299107699 l 14.713728817062862 4.5022852865910234" fill="#ffac0f" stroke="none" /><path d="M 80.803312248108 91.48605970444005 l -8.091379364389592 -3.5886149583460853 a29.851473173304825,29.851473173304825 0 0,0 0.21236861558678122,-0.4679260939187282 l 8.028408431839459 3.7273630611068844" fill="#ff5107" stroke="none" /><path d="M 80.95270993114464 91.15688171328213 l -13.136013410153922 -6.098679653744789 a35.48270492106859,35.48270492106859 0 0,0 0.2619667932544117,-0.5517688764554266 l 13.02908842305776 6.3238909458407475" fill="#ffa00e" stroke="none" /><line stroke="#e1ed5e" stroke-width="0.3" x1="26.266209847984243" x2="21.928928074336255" y1="57.711370442889674" y2="55.22380399835377" /><path d="M 25.398753493254645 57.213857153982495 a86.0,86.0 0 0,1 29.58750427330803,-30.492523968695096" fill="none" id="id35" stroke="none" /><text fill="#e1ed5e" style="font-size:6.75px; font-family:Arial;" text-anchor="middle"><textPath startOffset="21.46611528233685" xlink:href="#id35">November</textPath></text><path d="M 83.6137871275137 86.86637796730984 l -9.216629272004376 -7.387169092449794 a32.8117112366504,32.8117112366504 0 0,0 0.357025023577552,-0.4376704637921022 l 9.08810575635043 7.544723725849979" fill="#ff7b0b" stroke="none" /><path d="M 86.10567301691215 84.25364557470407 l -2.4222117600110304 -2.7450775350744756 a24.660950762289257,24.660950762289257 0 0,0 0.32071707544989403,-0.27812268743160523 l 2.374600885914363 2.7863652159257613" fill="#ff0400" stroke="none" /><path d="M 86.37877921826538 84.01681056812374 l -5.698321935090765 -6.686431443391742 a29.785171502202694,29.785171502202694 0 0,0 0.39308265677217946,-0.32919542059466894 l 5.582381741359475 6.783528021380223" fill="#ff5007" stroke="none" /><line stroke="#e1ed5e" stroke-width="0.3" x1="56.762969772571076" x2="54.21961505331055" y1="26.818313649435495" y2="22.513508569990535" /><path d="M 56.25429882871897 25.957352633546506 a86.0,86.0 0 0,1 42.265352541879196,-11.944610805530505" fill="none" id="id36" stroke="none" /><text fill="#e1ed5e" style="font-size:6.75px; font-family:Arial;" text-anchor="middle"><textPath startOffset="22.20632615414155" xlink:href="#id36">December</textPath></text><path d="M 90.26544431104013 81.39251694778311 l -1.5741695563736262 -3.009005678066831 a24.395898255668442,24.395898255668442 0 0,0 0.3737678290291854,-0.19145839924998928 l 1.522141239755677 3.0356566026293255" fill="#ff0000" stroke="none" /><path d="M 91.56875222667455 80.76684994638697 l -3.8718776937250214 -8.83242986978174 a30.6438194860635,30.6438194860635 0 0,0 0.48492566374098806,-0.2076198619762041 l 3.719268272193725 8.897769259720729" fill="#ff5c08" stroke="none" /></svg>