<?xml version="1.0" encoding="utf-8" ?>
<svg baseProfile="full" height="200mm" version="1.1" viewBox="0,0,200,200" width="200mm" xmlns="http://www.w3.org/2000/svg" xmlns:ev="http://www.w3.org/2001/xml-events" xmlns:xlink="http://www.w3.org/1999/xlink"><defs /><rect fill="#1a1a1a" height="200" width="200" x="0" y="0" /><text alignment-baseline="middle" fill="#e1ed5e" style="dominant-baseline: central; font-size:9.0px; font-family:Arial;" text-anchor="middle" x="100.0" y="100.0">2017</text><line stroke="#e1ed5e" stroke-width="0.3" x1="100.0" x2="100.0" y1="15.0" y2="10.0" /><path d="M 100.0 14.0 a86.0,86.0 0 0,1 42.46469731375804,11.215312516191453" fill="none" id="id1" stroke="none" /><text fill="#e1ed5e" style="font-size:6.75px; font-family:Arial;" text-anchor="middle"><textPath startOffset="22.20632615414155" xlink:href="#id1">January</textPath></text><line stroke="#e1ed5e" stroke-width="0.3" x1="143.23703022742887" x2="145.7803849466894" y1="26.81831364943548" y2="22.513508569990506" /><path d="M 143.74570117128098 25.957352633546492 a86.0,86.0 0 0,1 28.547481713284135,27.462654790039103" fill="none" id="id2" stroke="none" /><text fill="#e1ed5e" style="font-size:6.75px; font-family:Arial;" text-anchor="middle"><textPath startOffset="19.985693538727396" xlink:href="#id2">February</textPath></text><line stroke="#e1ed5e" stroke-width="0.3" x1="172.23445277983987" x2="176.4835382374775" y1="55.19839476539836" y2="52.563006222186495" /><path d="M 173.08426987136738 54.67131705675599 a86.0,86.0 0 0,1 12.851231095245387,41.99856678651699" fill="none" id="id3" stroke="none" /><text fill="#e1ed5e" style="font-size:6.75px; font-family:Arial;" text-anchor="middle"><textPath startOffset="22.20632615414155" xlink:href="#id3">March</textPath></text><line stroke="#e1ed5e" stroke-width="0.3" x1="184.98032266829074" x2="189.97916517819016" y1="98.17113171792111" y2="98.06355123074" /><path d="M 185.9800911702706 98.14961562048488 a86.0,86.0 0 0,1 -9.607161424134198,41.387399972396054" fill="none" id="id4" stroke="none" /><text fill="#e1ed5e" style="font-size:6.75px; font-family:Arial;" text-anchor="middle"><textPath startOffset="21.466115282336823" xlink:href="#id4">April</textPath></text><line stroke="#e1ed5e" stroke-width="0.3" x1="174.80103733775053" x2="179.2010983576182" y1="140.37084112569926" y2="142.7455964860345" /><path d="M 175.68104954172406 140.8457921977663 a86.0,86.0 0 0,1 -30.038265399797805,32.042727171017184" fill="none" id="id5" stroke="none" /><text fill="#e1ed5e" style="font-size:6.75px; font-family:Arial;" text-anchor="middle"><textPath startOffset="22.206326154141568" xlink:href="#id5">May</textPath></text><line stroke="#e1ed5e" stroke-width="0.3" x1="143.8653032363475" x2="146.44561519142675" y1="172.8068346515853" y2="177.08958963109032" /><path d="M 144.38136562736335 173.6633856474863 a86.0,86.0 0 0,1 -40.68145358897372,12.25698825130547" fill="none" id="id6" stroke="none" /><text fill="#e1ed5e" style="font-size:6.75px; font-family:Arial;" text-anchor="middle"><textPath startOffset="21.466115282336833" xlink:href="#id6">June</textPath></text><line stroke="#e1ed5e" stroke-width="0.3" x1="102.19456741930631" x2="102.32365962044197" y1="184.97166512339345" y2="189.96999836594603" /><path d="M 102.22038585953345 185.97133177190398 a86.0,86.0 0 0,1 -42.740103519485714,-10.115201625700543" fill="none" id="id7" stroke="none" /><text fill="#e1ed5e" style="font-size:6.75px; font-family:Arial;" text-anchor="middle"><textPath startOffset="22.20632615414155" xlink:href="#id7">July</textPath></text><path d="M 95.51606077576429 120.51570834832081 l -4.482862432747004 20.510781622281595 a41.99495697418451,41.99495697418451 0 0,0 -0.704875055262558,-0.16042726770159935 l 4.8352576374024245 -20.43057762100231" fill="#ff8f0d" stroke="none" /><path d="M 95.16358092515715 120.4354850818985 l -5.971240240592951 25.230483332554098 a46.927456473884334,46.927456473884334 0 0,0 -0.7844633071672883,-0.1928019950042795 l 6.404656832503449 -25.12396007923579" fill="#ffdd14" stroke="none" /><path d="M 94.46302465271185 120.25689768951611 l -6.47694256503971 23.69574626066211 a45.56499899939964,45.56499899939964 0 0,0 -0.7547925227255042,-0.21331190634095454 l 6.883866255869829 -23.58074556098263" fill="#ffc812" stroke="none" /><path d="M 93.76903079525671 120.05430185196036 l -10.131528494188458 32.60820651938426 a55.14590754452672,55.14590754452672 0 0,0 -0.9040742320556677,-0.2894560193809615 l 10.691324071335067 -32.428977653343594" fill="#a9ff21" stroke="none" /><path d="M 93.42475214034765 119.94407469862007 l -8.081225681419834 24.512014160811514 a46.80978587152291,46.80978587152291 0 0,0 -0.7630669761214149,-0.2588737483360529 l 8.501962390478475 -24.369277425577337" fill="#ffdb14" stroke="none" /><path d="M 93.08242187328487 119.8279376855182 l -7.080377243725671 20.294570759726103 a42.49421652991795,42.49421652991795 0 0,0 -0.6885690795950482,-0.24689637382836957 l 7.428665883950446 -20.169686844857775" fill="#ff970d" stroke="none" /><path d="M 92.7421414339146 119.70592522655815 l -7.461926832752397 20.259994166788566 a42.590454272563534,42.590454272563534 0 0,0 -0.6857667095667225,-0.25929829083336514 l 7.809563763079403 -20.12854762584857" fill="#ff990e" stroke="none" /><path d="M 92.06813273071674 119.44442032107085 l -7.98821733693576 19.582558588310793 a42.14918951370822,42.14918951370822 0 0,0 -0.6694265553272367,-0.2798203544188871 l 8.324115351760458 -19.44215319087193" fill="#ff910d" stroke="none" /><path d="M 90.7491055286396 118.85261126421891 l -9.410660769715083 19.17820268949449 a42.362677606563935,42.362677606563935 0 0,0 -0.6518730346979126,-0.32686267225974824 l 9.739387712095755 -19.01337217632544" fill="#ff950d" stroke="none" /><path d="M 90.42595943632237 118.69057910512821 l -19.567101073578254 38.199174950358795 a63.91909145487293,63.91909145487293 0 0,0 -0.9749460235827017,-0.5100456807437546 l 20.221737999687452 -37.856699850670324" fill="#38ff2e" stroke="none" /><line stroke="#e1ed5e" stroke-width="0.3" x1="58.666819895761336" x2="56.23545636021788" y1="174.27360380694188" y2="178.64263932499728" /><path d="M 58.180547188652646 175.14741091055294 a86.0,86.0 0 0,1 -31.652253787137756,-30.449443065178592" fill="none" id="id8" stroke="none" /><text fill="#e1ed5e" style="font-size:6.75px; font-family:Arial;" text-anchor="middle"><textPath startOffset="22.20632615414155" xlink:href="#id8">August</textPath></text><path d="M 88.8546689885994 117.79835938074946 l -11.419447717684593 18.236105702121097 a42.51648989393636,42.51648989393636 0 0,0 -0.6169308658938323,-0.3937544676871033 l 11.731660385625348 -18.03683680561019" fill="#ff970e" stroke="none" /><path d="M 88.54995079064634 117.60387380957326 l -11.77428014053709 18.102362531617405 a42.59465679407644,42.59465679407644 0 0,0 -0.611183228121096,-0.4050589167958659 l 12.084138067398147 -17.897005593730224" fill="#ff990e" stroke="none" /><path d="M 87.07902340077011 116.55440617244103 l -13.39623685517114 17.163311486528418 a42.772423454072445,42.772423454072445 0 0,0 -0.5764959036664544,-0.4580032119348772 l 13.689690251554952 -16.93017436058841" fill="#ff9c0e" stroke="none" /><path d="M 86.51685102203217 116.09983520530335 l -27.096353545436987 32.35496599933906 a63.20256153692216,63.20256153692216 0 0,0 -0.8280574594081112,-0.705688531230536 l 27.649276481422156 -31.88375307788557" fill="#40ff2d" stroke="none" /><path d="M 86.24171649860922 115.8653595955263 l -12.813347960530802 14.775707521645042 a40.557694616770064,40.557694616770064 0 0,0 -0.5234987273502308,-0.46192676073323896 l 13.06578904078762 -14.552957619139516" fill="#ff770b" stroke="none" /><path d="M 85.70375840098266 115.38237550388516 l -18.408878640959987 19.80746351405825 a48.041124674804884,48.041124674804884 0 0,0 -0.6008896156016362,-0.5681786371900925 l 18.74710409095244 -19.487650240122225" fill="#ffee16" stroke="none" /><path d="M 84.43433777217949 114.09645910891817 l -33.604012603818695 30.432215644424137 a66.33596157694616,66.33596157694616 0 0,0 -0.7592029197660415,-0.8529725286120486 l 34.122874373233074 -29.849268946071223" fill="#32ff49" stroke="none" /><path d="M 84.19399662182784 113.82643327865904 l -16.256112299667848 14.220169811689491 a42.59801881128678,42.59801881128678 0 0,0 -0.47802581953926665,-0.5560520231676968 l 16.498480628777894 -13.938240689360265" fill="#ff990e" stroke="none" /><path d="M 83.72743513129214 113.27417163493432 l -16.858077609030783 13.751797422399045 a42.75561336802082,42.75561336802082 0 0,0 -0.4602989686484403,-0.574293737590855 l 17.092294489734087 -13.45957585122993" fill="#ff9b0e" stroke="none" /><path d="M 82.44556493220864 111.52570212397912 l -14.992759252015206 9.843784575689028 a38.93552131278767,38.93552131278767 0 0,0 -0.3630183673772958,-0.5634125677502033 l 15.159982482769548 -9.584250408017375" fill="#ff5c08" stroke="none" /><line stroke="#e1ed5e" stroke-width="0.3" x1="26.63291911575756" x2="22.317208475507996" y1="142.92168965132927" y2="145.44649492493687" /><path d="M 25.769776987707644 143.4266507060508 a86.0,86.0 0 0,1 -11.730757126820373,-40.83630448921669" fill="none" id="id9" stroke="none" /><text fill="#e1ed5e" style="font-size:6.75px; font-family:Arial;" text-anchor="middle"><textPath startOffset="21.46611528233685" xlink:href="#id9">September</textPath></text><path d="M 81.69416730710424 110.29060199501025 l -18.378367311130564 10.331377244059917 a42.08320992595557,42.08320992595557 0 0,0 -0.34953831319479756,-0.6345135687148058 l 18.553482033776877 -10.01349315694729" fill="#ff900d" stroke="none" /><path d="M 81.51974371655577 109.97397251340807 l -37.29076809742911 20.12618712116221 a63.375285171102654,63.375285171102654 0 0,0 -0.509861689056684,-0.9644661693009188 l 37.63168229471068 -19.48130593677517" fill="#3eff2d" stroke="none" /><path d="M 81.02952815118164 109.00673069616217 l -27.687322041348256 13.145284698855372 a51.64940964578747,51.64940964578747 0 0,0 -0.3743976749203214,-0.8064192837975759 l 27.9094943331084 -12.666745347778969" fill="#daff1b" stroke="none" /><path d="M 80.87730276802145 108.67885076344099 l -40.71293802512974 18.47759805925476 a65.70978587152291,65.70978587152291 0 0,0 -0.4585883304700128,-1.033995621426357 l 41.024967440331025 -17.774054101335707" fill="#31ff40" stroke="none" /><path d="M 80.58989483394504 108.01547362559985 l -41.21607842625093 17.02032970712725 a65.5921152691615,65.5921152691615 0 0,0 -0.4219677761043712,-1.0472894149655918 l 41.502948816612694 -16.308340924318852" fill="#31ff3e" stroke="none" /><path d="M 80.45479744820244 107.68017299344265 l -24.341345711496217 9.564789388191377 a47.15313187912747,47.15313187912747 0 0,0 -0.2903414136691833,-0.7579898129715033 l 24.502381404758907 -9.144376008386715" fill="#ffe115" stroke="none" /><path d="M 80.20201598880116 107.00284435728193 l -24.21281162450259 8.564435205254561 a46.6828697218331,46.6828697218331 0 0,0 -0.2614444531985862,-0.7598799604308912 l 24.3566469086444 -8.146382541734374" fill="#ffda14" stroke="none" /><path d="M 79.86692584326677 105.97154293290107 l -42.77140056694987 12.6861527850893 a65.61312787672603,65.61312787672603 0 0,0 -0.3118415847157563,-1.0855614661680695 l 42.98343478855173 -11.948033843416633" fill="#31ff3e" stroke="none" /><path d="M 79.67330655649465 105.27499134158121 l -21.268791142427872 5.519475631096963 a42.97330398238944,42.97330398238944 0 0,0 -0.17964618461966173,-0.7175972074160557 l 21.360648641342593 -5.1525505842835155" fill="#ff9f0e" stroke="none" /><path d="M 79.4281124754447 104.21870165774334 l -43.62788089908389 8.946821882683464 a65.53580148088852,65.53580148088852 0 0,0 -0.2171109572151825,-1.1070440933783239 l 43.77542178927474 -8.194514062237186" fill="#31ff3d" stroke="none" /><path d="M 79.18660465613746 102.79330883721812 l -41.3085710751033 5.543910290973477 a62.67892735641385,62.67892735641385 0 0,0 -0.13430748252690794,-1.0705627820502333 l 41.39788006687706 -4.832029754635835" fill="#47ff2c" stroke="none" /><path d="M 79.10278846688536 102.07522291339032 l -21.294496923478047 2.1146758204889897 a42.39923954372624,42.39923954372624 0 0,0 -0.06587106226947907,-0.7268816831966212 l 21.3277425820246 -1.7478127487438024" fill="#ff960d" stroke="none" /><path d="M 79.07016306316243 101.71520430193888 l -21.055491351107158 1.7255017061930662 a42.12607564538723,42.12607564538723 0 0,0 -0.053005518500841,-0.7232181868634123 l 21.082073428272334 -1.3628103828328932" fill="#ff910d" stroke="none" /><line stroke="#e1ed5e" stroke-width="0.3" x1="15.007084014347285" x2="10.007500721073583" y1="101.09737516637583" y2="101.16192664675087" /><path d="M 14.007167355692545 101.11028546245083 a86.0,86.0 0 0,1 10.666146001902534,-42.60595125391555" fill="none" id="id10" stroke="none" /><text fill="#e1ed5e" style="font-size:6.75px; font-family:Arial;" text-anchor="middle"><textPath startOffset="22.20632615414155" xlink:href="#id10">October</textPath></text><path d="M 79.08570108090925 98.10471618934814 l -39.00556509434988 -3.534740338877318 a60.165399239543724,60.165399239543724 0 0,0 0.10234671406251214,-1.0306174434000448 l 38.93894125460514 4.205633312981793" fill="#66ff29" stroke="none" /><path d="M 79.46518482838121 95.60439243477599 l -61.60444551485639 -13.186822695672024 a84.0,84.0 0 0,0 0.31482245199184966,-1.4112873218001631 l 61.3683286758625 14.245288187022146" fill="#4dd2ff" stroke="none" /><line stroke="#e1ed5e" stroke-width="0.3" x1="26.266209847984243" x2="21.928928074336255" y1="57.711370442889674" y2="55.22380399835377" /><path d="M 25.398753493254645 57.213857153982495 a86.0,86.0 0 0,1 29.58750427330803,-30.492523968695096" fill="none" id="id11" stroke="none" /><text fill="#e1ed5e" style="font-size:6.75px; font-family:Arial;" text-anchor="middle"><textPath startOffset="21.46611528233685" xlink:href="#id11">November</textPath></text><line stroke="#e1ed5e" stroke-width="0.3" x1="56.762969772571076" x2="54.21961505331055" y1="26.818313649435495" y2="22.513508569990535" /><path d="M 56.25429882871897 25.957352633546506 a86.0,86.0 0 0,1 42.265352541879196,-11.944610805530505" fill="none" id="id12" stroke="none" /><text fill="#e1ed5e" style="font-size:6.75px; font-family:Arial;" text-anchor="middle"><textPath startOffset="22.20632615414155" xlink:href="#id12">December</textPath></text><path d="M 95.692805502759 79.44645832069477 l -3.622284201562056 -17.285211837725083 a38.6606764058435,38.6606764058435 0 0,0 0.6525067786167751,-0.13088672132545692 l 3.3242110134781444 17.345002515127753" fill="#ff5708" stroke="none" /><path d="M 96.75951476605007 79.25152402106235 l -1.9564178311593987 -12.526731475056435 a33.67858715229138,33.67858715229138 0 0,0 0.5735479743331703,-0.08452606231387051 l 1.7405008763975798 12.558552021531273" fill="#ff0000" stroke="none" /></svg>
