<?xml version="1.0" encoding="utf-8" ?>
<svg baseProfile="full" height="200mm" version="1.1" viewBox="0,0,200,200" width="200mm" xmlns="http://www.w3.org/2000/svg" xmlns:ev="http://www.w3.org/2001/xml-events" xmlns:xlink="http://www.w3.org/1999/xlink"><defs /><rect fill="#1a1a1a" height="200" width="200" x="0" y="0" /><text alignment-baseline="middle" fill="#e1ed5e" style="dominant-baseline: central; font-size:9.0px; font-family:Arial;" text-anchor="middle" x="100.0" y="100.0">2017</text><line stroke="#e1ed5e" stroke-width="0.3" x1="100.0" x2="100.0" y1="15.0" y2="10.0" /><path d="M 100.0 14.0 a86.0,86.0 0 0,1 42.46469731375804,11.215312516191453" fill="none" id="id1" stroke="none" /><text fill="#e1ed5e" style="font-size:6.75px; font-family:Arial;" text-anchor="middle"><textPath startOffset="22.20632615414155" xlink:href="#id1">January</textPath></text><line stroke="#e1ed5e" stroke-width="0.3" x1="143.23703022742887" x2="145.7803849466894" y1="26.81831364943548" y2="22.513508569990506" /><path d="M 143.74570117128098 25.957352633546492 a86.0,86.0 0 0,1 28.547481713284135,27.462654790039103" fill="none" id="id2" stroke="none" /><text fill="#e1ed5e" style="font-size:6.75px; font-family:Arial;" text-anchor="middle"><textPath startOffset="19.985693538727396" xlink:href="#id2">February</textPath></text><line stroke="#e1ed5e" stroke-width="0.3" x1="172.23445277983987" x2="176.4835382374775" y1="55.19839476539836" y2="52.563006222186495" /><path d="M 173.08426987136738 54.67131705675599 a86.0,86.0 0 0,1 12.851231095245387,41.99856678651699" fill="none" id="id3" stroke="none" /><text fill="#e1ed5e" style="font-size:6.75px; font-family:Arial;" text-anchor="middle"><textPath startOffset="22.20632615414155" xlink:href="#id3">March</textPath></text><line stroke="#e1ed5e" stroke-width="0.3" x1="184.98032266829074" x2="189.97916517819016" y1="98.17113171792111" y2="98.06355123074" /><path d="M 185.9800911702706 98.14961562048488 a86.0,86.0 0 0,1 -9.607161424134198,41.387399972396054" fill="none" id="id4" stroke="none" /><text fill="#e1ed5e" style="font-size:6.75px; font-family:Arial;" text-anchor="middle"><textPath startOffset="21.466115282336823" xlink:href="#id4">April</textPath></text><line stroke="#e1ed5e" stroke-width="0.3" x1="174.80103733775053" x2="179.2010983576182" y1="140.37084112569926" y2="142.7455964860345" /><path d="M 175.68104954172406 140.8457921977663 a86.0,86.0 0 0,1 -30.038265399797805,32.042727171017184" fill="none" id="id5" stroke="none" /><text fill="#e1ed5e" style="font-size:6.75px; font-family:Arial;" text-anchor="middle"><textPath startOffset="22.206326154141568" xlink:href="#id5">May</textPath></text><line stroke="#e1ed5e" stroke-width="0.3" x1="143.8653032363475" x2="146.44561519142675" y1="172.8068346515853" y2="177.08958963109032" /><path d="M 144.38136562736335 173.6633856474863 a86.0,86.0 0 0,1 -40.68145358897372,12.25698825130547" fill="none" id="id6" stroke="none" /><text fill="#e1ed5e" style="font-size:6.75px; font-family:Arial;" text-anchor="middle"><textPath startOffset="21.466115282336833" xlink:href="#id6">June</textPath></text><line stroke="#e1ed5e" stroke-width="0.3" x1="102.19456741930631" x2="102.32365962044197" y1="184.97166512339345" y2="189.96999836594603" /><path d="M 102.22038585953345 185.97133177190398 a86.0,86.0 0 0,1 -42.740103519485714,-10.115201625700543" fill="none" id="id7" stroke="none" /><text fill="#e1ed5e" style="font-size:6.75px; font-family:Arial;" text-anchor="middle"><textPath startOffset="22.20632615414155" xlink:href="#id7">July</textPath></text><path d="M 95.51606077576429 120.51570834832081 l -6.601198141804973 30.2029641915657 a51.915932184949064,51.915932184949064 0 0,0 -0.8713961914610057,-0.19832693615409125 l 7.120114482658842 -30.08486052183392" fill="#fff817" stroke="none" /><path d="M 95.16358092515715 120.4354850818985 l -8.272815653013717 34.95540776063775 a56.92102463100409,56.92102463100409 0 0,0 -0.9515208917030853,-0.23386068479234 l 8.873289829460013 -34.80782581753137" fill="#b6ff1f" stroke="none" /><path d="M 94.46302465271185 120.25689768951611 l -8.863527851467005 32.427013955061376 a54.61656377465544,54.61656377465544 0 0,0 -0.9047333448775832,-0.2556866803995228 l 9.420392364449201 -32.269638481323334" fill="#daff1c" stroke="none" /><path d="M 93.76903079525671 120.05430185196036 l -13.933607012338822 44.84515197079143 a67.95990906781736,67.95990906781736 0 0,0 -1.1141498134100078,-0.3567155865624144 l 14.70347817083977 -44.5986635375693" fill="#32ff49" stroke="none" /><path d="M 93.08242187328487 119.8279376855182 l -9.867038729890114 28.282012214838346 a50.95380891001037,50.95380891001037 0 0,0 -0.8256468801660609,-0.296047596118594 l 10.352405170685902 -28.10797707767979" fill="#ffe815" stroke="none" /><path d="M 92.7421414339146 119.70592522655815 l -10.272276982971073 27.890419782884 a50.72196477489946,50.72196477489946 0 0,0 -0.81669555961626,-0.3088043787857431 l 10.750842763347617 -27.70946715399162" fill="#ffe415" stroke="none" /><path d="M 92.06813273071674 119.44442032107085 l -11.2432697175043 27.562092852579465 a50.76709721075875,50.76709721075875 0 0,0 -0.8062988494407056,-0.33703298445898905 l 11.716040026442467 -27.364474825100505" fill="#ffe515" stroke="none" /><path d="M 90.7491055286396 118.85261126421891 l -12.989120372841258 26.470828070889425 a50.48596253844781,50.48596253844781 0 0,0 -0.7768734052939976,-0.3895404530417519 l 13.442847685818016 -26.24331977693837" fill="#ffe015" stroke="none" /><path d="M 90.42595943632237 118.69057910512821 l -27.2988423694378 53.29319103996048 a80.87813462302526,80.87813462302526 0 0,0 -1.23361915744961,-0.6453712387356078 l 28.212152429413905 -52.81539038228016" fill="#48f9ff" stroke="none" /><line stroke="#e1ed5e" stroke-width="0.3" x1="58.666819895761336" x2="56.23545636021788" y1="174.27360380694188" y2="178.64263932499728" /><path d="M 58.180547188652646 175.14741091055294 a86.0,86.0 0 0,1 -31.652253787137756,-30.449443065178592" fill="none" id="id8" stroke="none" /><text fill="#e1ed5e" style="font-size:6.75px; font-family:Arial;" text-anchor="middle"><textPath startOffset="22.20632615414155" xlink:href="#id8">August</textPath></text><path d="M 88.8546689885994 117.79835938074946 l -15.638315900637858 24.973360255027867 a50.46566894939853,50.46566894939853 0 0,0 -0.7322765571789166,-0.467373545257742 l 16.065874259863698 -24.70047228094632" fill="#ffe015" stroke="none" /><path d="M 88.54995079064634 117.60387380957326 l -16.25338317113634 24.988757785389176 a50.809570278094014,50.809570278094014 0 0,0 -0.7290575748066553,-0.483179606287386 l 16.681115444682955 -24.70528015801047" fill="#ffe615" stroke="none" /><path d="M 87.07902340077011 116.55440617244103 l -18.519179368436156 23.726845636703235 a51.098558243680955,51.098558243680955 0 0,0 -0.6887173354199795,-0.5471587043922572 l 18.924854196573495 -23.404553018305847" fill="#ffea16" stroke="none" /><path d="M 86.51685102203217 116.09983520530335 l -37.6972016834941 45.0131297812607 a79.71337894782286,79.71337894782286 0 0,0 -1.0443763108210349,-0.8900401493418908 l 38.46644347089219 -44.35756524169586" fill="#46fff5" stroke="none" /><path d="M 86.24171649860922 115.8653595955263 l -17.54194507042989 20.228487552186774 a47.77520393018426,47.77520393018426 0 0,0 -0.6166587793677948,-0.5441296751052225 l 17.88754620270427 -19.92353473530926" fill="#ffb110" stroke="none" /><path d="M 85.70375840098266 115.38237550388516 l -25.631352877952725 27.57865358601361 a58.65034374307194,58.65034374307194 0 0,0 -0.7335877905697982,-0.6936530442249565 l 26.10227650291334 -27.13336590504272" fill="#9cff22" stroke="none" /><path d="M 84.43433777217949 114.09645910891817 l -46.69698668346152 42.28937732675451 a84.0,84.0 0 0,0 -0.9613646014066468,-1.0801033210365434 l 47.4180101345165 -41.4792998359771" fill="#4dd2ff" stroke="none" /><path d="M 84.19399662182784 113.82643327865904 l -22.500481465090893 19.682483817788466 a50.89434453869835,50.89434453869835 0 0,0 -0.5711254052871331,-0.6643478743438342 l 22.835949379948808 -19.2922588442831" fill="#ffe715" stroke="none" /><path d="M 83.72743513129214 113.27417163493432 l -23.26743158035145 18.980159722429885 a51.02698512064249,51.02698512064249 0 0,0 -0.5493470160771619,-0.6853948685214066 l 23.59069650848347 -18.57683702033022" fill="#ffe915" stroke="none" /><path d="M 82.44556493220864 111.52570212397912 l -20.684410518316557 13.580747732613421 a45.74432354030171,45.74432354030171 0 0,0 -0.426500765585619,-0.6619386595286911 l 20.91511614727922 -13.222687473163282" fill="#ff8d0d" stroke="none" /><line stroke="#e1ed5e" stroke-width="0.3" x1="26.63291911575756" x2="22.317208475507996" y1="142.92168965132927" y2="145.44649492493687" /><path d="M 25.769776987707644 143.4266507060508 a86.0,86.0 0 0,1 -11.730757126820373,-40.83630448921669" fill="none" id="id9" stroke="none" /><text fill="#e1ed5e" style="font-size:6.75px; font-family:Arial;" text-anchor="middle"><textPath startOffset="21.46611528233685" xlink:href="#id9">September</textPath></text><path d="M 81.69416730710424 110.29060199501025 l -24.305003860521836 13.663028905146897 a48.88210127524217,48.88210127524217 0 0,0 -0.4060091246658257,-0.7370244945907175 l 24.53658939463918 -13.242633892158358" fill="#ffc512" stroke="none" /><path d="M 81.51974371655577 109.97397251340807 l -51.75396020224843 27.93211136252901 a79.81050281866868,79.81050281866868 0 0,0 -0.6420849651678444,-1.214582778060615 l 52.22709767564116 -27.03711356938227" fill="#46fff7" stroke="none" /><path d="M 81.02952815118164 109.00673069616217 l -38.86099126225727 18.45027818361111 a64.01847750604236,64.01847750604236 0 0,0 -0.46405891750896355,-0.999541623694909 l 39.172824796606065 -17.778616492637376" fill="#4fff2b" stroke="none" /><path d="M 80.87730276802145 108.67885076344099 l -56.548722591403795 25.664680995591915 a83.10019224869629,83.10019224869629 0 0,0 -0.5799559064090968,-1.307647465064689 l 56.98211958254417 -24.68748519403453" fill="#4bddff" stroke="none" /><path d="M 80.58989483394504 108.01547362559985 l -57.425788890923414 23.714188684018083 a83.129574074559,83.129574074559 0 0,0 -0.5347899112080835,-1.3273047018170463 l 57.82548141638888 -22.72218461435823" fill="#4cddff" stroke="none" /><path d="M 80.45479744820244 107.68017299344265 l -27.376121807739118 10.75728690024026 a50.41379381661349,50.41379381661349 0 0,0 -0.3104186632324526,-0.8104051761438564 l 27.55723475056508 -10.284458157263245" fill="#ffdf14" stroke="none" /><path d="M 80.20201598880116 107.00284435728193 l -33.65573577207936 11.904539331295577 a56.69911213252209,56.69911213252209 0 0,0 -0.31753978400774463,-0.9229192494046132 l 33.85566638703033 -11.323447378801667" fill="#baff1f" stroke="none" /><path d="M 79.86692584326677 105.97154293290107 l -59.722166970266194 17.71381167786342 a83.29379063585041,83.29379063585041 0 0,0 -0.3958730289107213,-1.3780859473005482 l 60.01823263606302 -16.683168255058273" fill="#4cdbff" stroke="none" /><path d="M 79.18660465613746 102.79330883721812 l -58.09808408238278 7.7971848903843695 a79.61896848511118,79.61896848511118 0 0,0 -0.17060635319775078,-1.3599004960742724 l 58.22369194482738 -6.795966640022688" fill="#46fff4" stroke="none" /><path d="M 79.10278846688536 102.07522291339032 l -29.79090926665167 2.9584223437141497 a50.93744374020032,50.93744374020032 0 0,0 -0.07913593650656177,-0.8732584650586881 l 29.837419799435306 -2.4451824901068955" fill="#ffe815" stroke="none" /><path d="M 79.07016306316243 101.71520430193888 l -29.62093774779253 2.4274417428955917 a50.72023597607786,50.72023597607786 0 0,0 -0.06381919904023625,-0.8707622663142625 l 29.658333505497104 -1.9172063400845687" fill="#ffe415" stroke="none" /><line stroke="#e1ed5e" stroke-width="0.3" x1="15.007084014347285" x2="10.007500721073583" y1="101.09737516637583" y2="101.16192664675087" /><path d="M 14.007167355692545 101.11028546245083 a86.0,86.0 0 0,1 10.666146001902534,-42.60595125391555" fill="none" id="id10" stroke="none" /><text fill="#e1ed5e" style="font-size:6.75px; font-family:Arial;" text-anchor="middle"><textPath startOffset="22.20632615414155" xlink:href="#id10">October</textPath></text><path d="M 79.08570108090925 98.10471618934814 l -54.425387871460515 -4.932106828934592 a75.64840823602225,75.64840823602225 0 0,0 0.12868469427404192,-1.295837309797986 l 54.33242605150424 5.868219669437009" fill="#3fffbd" stroke="none" /><line stroke="#e1ed5e" stroke-width="0.3" x1="26.266209847984243" x2="21.928928074336255" y1="57.711370442889674" y2="55.22380399835377" /><path d="M 25.398753493254645 57.213857153982495 a86.0,86.0 0 0,1 29.58750427330803,-30.492523968695096" fill="none" id="id11" stroke="none" /><text fill="#e1ed5e" style="font-size:6.75px; font-family:Arial;" text-anchor="middle"><textPath startOffset="21.46611528233685" xlink:href="#id11">November</textPath></text><line stroke="#e1ed5e" stroke-width="0.3" x1="56.762969772571076" x2="54.21961505331055" y1="26.818313649435495" y2="22.513508569990535" /><path d="M 56.25429882871897 25.957352633546506 a86.0,86.0 0 0,1 42.265352541879196,-11.944610805530505" fill="none" id="id12" stroke="none" /><text fill="#e1ed5e" style="font-size:6.75px; font-family:Arial;" text-anchor="middle"><textPath startOffset="22.20632615414155" xlink:href="#id12">December</textPath></text><path d="M 95.692805502759 79.44645832069477 l -4.876045161110707 -23.268045479083867 a44.773467496978775,44.773467496978775 0 0,0 0.7556771831219358,-0.15158173389241827 l 4.474801568521635 23.348531169053494" fill="#ff7c0b" stroke="none" /><path d="M 96.75951476605007 79.25152402106235 l -2.667306248910023 -17.07847301822798 a38.28550731855492,38.28550731855492 0 0,0 0.6520040484352965,-0.09608844820873502 l 2.372933220046078 17.121855950597688" fill="#ff0000" stroke="none" /></svg>