<?xml version="1.0" encoding="utf-8" ?>
<svg baseProfile="full" height="200mm" version="1.1" viewBox="0,0,200,200" width="200mm" xmlns="http://www.w3.org/2000/svg" xmlns:ev="http://www.w3.org/2001/xml-events" xmlns:xlink="http://www.w3.org/1999/xlink"><defs /><rect fill="#1a1a1a" height="200" width="200" x="0" y="0" /><text alignment-baseline="middle" fill="#e1ed5e" style="dominant-baseline: central; font-size:9.0px; font-family:Arial;" text-anchor="middle" x="100.0" y="100.0">2021</text><line stroke="#e1ed5e" stroke-width="0.3" x1="100.0" x2="100.0" y1="15.0" y2="10.0" /><path d="M 100.0 14.0 a86.0,86.0 0 0,1 42.46469731375804,11.215312516191453" fill="none" id="id49" stroke="none" /><text fill="#e1ed5e" style="font-size:6.75px; font-family:Arial;" text-anchor="middle"><textPath startOffset="22.20632615414155" xlink:href="#id49">January</textPath></text><path d="M 100.36148047927253 79.00311137660856 l 0.5675393576182168 -32.96598672570824 a53.97087171613783,53.97087171613783 0 0,0 0.9287445482631841,0.023986731618321776 l -1.1349105410762688 32.951333201947556" fill="#9dff22" stroke="none" /><path d="M 101.08401301168833 79.027996857942 l 1.697877141118054 -32.84820786689423 a53.89205902422381,53.89205902422381 0 0,0 0.9260142934340774,0.05585971101528724 l -2.2630534833917433 32.814114886498636" fill="#9eff22" stroke="none" /><path d="M 102.16513564639614 79.11191278185805 l 0.9260861100984709 -8.934390541047637 a29.982258614807236,29.982258614807236 0 0,0 0.5128869332581496,0.05762882294212184 l -1.0797397468663457 8.917125764634914" fill="#ff0000" stroke="none" /><path d="M 102.52436894288641 79.15227682838746 l 1.9391749767819955 -16.014847279432882 a37.13182360968952,37.13182360968952 0 0,0 0.6338672317961104,0.08229415879849755 l -2.214556937085952 15.979094797470246" fill="#ff740a" stroke="none" /><path d="M 102.88285421437855 79.19881850522331 l 4.528536771989522 -32.67557368322562 a53.98788809280109,53.98788809280109 0 0,0 0.9194163553872423,0.1354980709995697 l -5.09032210780542 32.592781128065084" fill="#9dff22" stroke="none" /><path d="M 103.2404852339499 79.25152402106235 l 4.673883086497176 -29.926367178764554 a51.28915046059365,51.28915046059365 0 0,0 0.8711115243448864,0.143740865488467 l -5.188323816980937 29.84148005033646" fill="#bfff1e" stroke="none" /><path d="M 104.307194497241 79.44645832069477 l 4.9070079467885535 -23.41579708545889 a44.9244285226885,44.9244285226885 0 0,0 0.7554947045729629,0.1651218803670678 l -5.309345375515044 23.327861706995954" fill="#ffe815" stroke="none" /><path d="M 105.01212808612495 79.60689891045804 l 7.369561127429542 -29.98490909944451 a51.87726032070965,51.87726032070965 0 0,0 0.8653401509389351,0.22059447207652616 l -7.884610167053502 29.853611631199115" fill="#b8ff1f" stroke="none" /><path d="M 105.36241919743992 79.69619591428918 l 6.746780800782202 -25.54543211648116 a47.42135789832821,47.42135789832821 0 0,0 0.7874251235726142,0.21523303142876304 l -7.185503813578526 25.425512544226102" fill="#f3ff19" stroke="none" /><path d="M 107.08798089147638 80.2323363322302 l 13.73029279223571 -38.292401479709 a61.6795888775162,61.6795888775162 0 0,0 0.9963241279207004,0.36695458463839215 l -14.387399245928986 38.05038362726429" fill="#40ff2d" stroke="none" /><path d="M 107.4271985657038 80.35727306442388 l 9.584806928750504 -25.348958098553737 a48.10052030023883,48.10052030023883 0 0,0 0.771937386355036,0.29949971313890916 l -10.019727480105209 25.18021568152428" fill="#eaff1a" stroke="none" /><path d="M 108.09893153111575 80.62456947434976 l 9.157236129006343 -21.907259215968917 a44.744114636642784,44.744114636642784 0 0,0 0.7080569541451659,0.3031530357804064 l -9.532976840941824 21.74638665222572" fill="#ffe515" stroke="none" /><path d="M 108.76106565485865 80.91482961587045 l 13.229777068715249 -28.819844462694448 a52.71136131013306,52.71136131013306 0 0,0 0.821347901558805,0.38563385285482715 l -13.723903181573652 28.58784562719962" fill="#adff20" stroke="none" /><path d="M 109.41281617654863 81.2277094730956 l 11.917762139601479 -23.767987084729512 a47.58853633572159,47.58853633572159 0 0,0 0.7291005941438026,0.3734736427411707 l -12.325123221334037 23.55932091667584" fill="#f1ff19" stroke="none" /><path d="M 110.05341064243156 81.56283822128135 l 15.202739447259384 -27.880624460500076 a52.75614124872057,52.75614124872057 0 0,0 0.7935425797135235,0.4416055864602542 l -15.680406116044944 27.614803476479644" fill="#acff20" stroke="none" /><line stroke="#e1ed5e" stroke-width="0.3" x1="143.23703022742887" x2="145.7803849466894" y1="26.81831364943548" y2="22.513508569990506" /><path d="M 143.74570117128098 25.957352633546492 a86.0,86.0 0 0,1 28.547481713284135,27.462654790039103" fill="none" id="id50" stroke="none" /><text fill="#e1ed5e" style="font-size:6.75px; font-family:Arial;" text-anchor="middle"><textPath startOffset="19.985693538727396" xlink:href="#id50">February</textPath></text><path d="M 110.99172775467656 82.1063720568725 l 16.67603732279358 -27.14721598638765 a52.860030706243606,52.860030706243606 0 0,0 0.7712048101622433,0.4829283813731315 l -17.140861285328086 26.85614326369157" fill="#abff21" stroke="none" /><path d="M 111.60114157652 82.49532879139004 l 8.756929026357042 -13.213110312674461 a36.8515011941317,36.8515011941317 0 0,0 0.5257398458015988,0.3549818907373417 l -8.983073566565183 13.060416509638449" fill="#ff6f0a" stroke="none" /><path d="M 111.90073688211348 82.69761687909136 l 17.028048844558214 -24.756939660846346 a51.047637325145004,51.047637325145004 0 0,0 0.7196959909429889,0.5041930343964067 l -17.451675975084854 24.460161783686004" fill="#c3ff1e" stroke="none" /><path d="M 112.48926042617603 83.11751280151076 l 11.432154538290042 -15.45353336049589 a40.22253497099966,40.22253497099966 0 0,0 0.5530672227840048,0.41655876591492047 l -11.696467914832429 15.25445800507512" fill="#ffa30f" stroke="none" /><path d="M 112.77801427241765 83.33499621200491 l 21.775520853524647 -28.399493831594732 a56.786932787444556,56.786932787444556 0 0,0 0.7705917684176783,0.6014590981740918 l -22.261145177101756 28.020456344197417" fill="#7aff26" stroke="none" /><path d="M 113.89432698308785 84.25364557470407 l 26.555933411452457 -30.09567430651887 a61.136856021835555,61.136856021835555 0 0,0 0.7831020248952236,0.7030767300000969 l -27.070046423943673 29.634098567749476" fill="#47ff2c" stroke="none" /><path d="M 114.68862486808459 84.99185889309783 l 22.7397636864449 -23.234413378294587 a53.51053394745821,53.51053394745821 0 0,0 0.652737291012855,0.6499342296460178 l -23.136336777625075 22.83954329799845" fill="#a3ff22" stroke="none" /><path d="M 114.94478906791727 85.2469230424477 l 21.84611011992205 -21.565867698612358 a51.69754350051177,51.69754350051177 0 0,0 0.6197199608496133,0.638675894578011 l -22.214094344474773 21.186627608484233" fill="#baff1f" stroke="none" /><path d="M 115.19652480421416 85.50635884689758 l 21.432924185086076 -20.441588850244464 a50.618048447628794,50.618048447628794 0 0,0 0.59592550830172,0.6356917825518102 l -21.78161701535826 20.0696276508146" fill="#c8ff1d" stroke="none" /><path d="M 115.68641384162765 86.03803664274999 l 11.893255939801112 -10.585797704076711 a36.921954964176045,36.921954964176045 0 0,0 0.41846312828981697,0.47837569430131666 l -12.073710931668776 10.379506453572446" fill="#ff700a" stroke="none" /><path d="M 116.15771136456269 86.58626213691792 l 19.907033589681497 -16.52633372255962 a46.872952917093144,46.872952917093144 0 0,0 0.510025734399394,0.625231244251997 l -20.1885578161573 16.181218308699524" fill="#fbff18" stroke="none" /><path d="M 116.60985879189232 87.15038557335679 l 23.804772462535887 -18.41569826029278 a51.09659672466735,51.09659672466735 0 0,0 0.5321930988738337,0.7003037351441228 l -24.118241501633833 18.003209749267622" fill="#c2ff1e" stroke="none" /><path d="M 117.65298651832404 88.62581576622439 l 51.80633577641728 -33.37989336740026 a82.62883828045037,82.62883828045037 0 0,0 0.7600767290494662,1.2022588525349551 l -52.3732401017127 32.4831868671511" fill="#4be0ff" stroke="none" /><line stroke="#e1ed5e" stroke-width="0.3" x1="172.23445277983987" x2="176.4835382374775" y1="55.19839476539836" y2="52.563006222186495" /><path d="M 173.08426987136738 54.67131705675599 a86.0,86.0 0 0,1 12.851231095245387,41.99856678651699" fill="none" id="id51" stroke="none" /><text fill="#e1ed5e" style="font-size:6.75px; font-family:Arial;" text-anchor="middle"><textPath startOffset="22.20632615414155" xlink:href="#id51">March</textPath></text><path d="M 118.03404312379186 89.2402003453031 l 22.760467822845467 -13.57976534379607 a47.50375298532924,47.50375298532924 0 0,0 0.4129214539915791,0.7058166153275157 l -22.990848951307374 13.18596931611466" fill="#f2ff19" stroke="none" /><path d="M 118.56541770881063 90.18545643968196 l 23.384656412365764 -12.362217354975835 a47.45121119071989,47.45121119071989 0 0,0 0.3755211278583223,0.7253872930479175 l -23.593986973384204 11.957857339667573" fill="#f3ff19" stroke="none" /><path d="M 118.73160827565052 90.50648371742162 l 26.603282792830445 -13.483022634638266 a50.8249317639031,50.8249317639031 0 0,0 0.38878649429511003,0.7837698484254845 l -26.831429300078966 13.02309319771383" fill="#c6ff1e" stroke="none" /><path d="M 118.89224826269711 90.83032412892265 l 24.271425455543124 -11.780551539532473 a47.97931593312862,47.97931593312862 0 0,0 0.35422856192901264,0.7460956909686578 l -24.47061221131389 11.361013432923276" fill="#ecff1a" stroke="none" /><path d="M 119.85752413597 93.16781622104841 l 18.19962524977427 -6.261766752143572 a40.24671613783691,40.24671613783691 0 0,0 0.21975225662684547,0.657031276719098 l -18.304714800172885 5.947562372502159" fill="#ffa30f" stroke="none" /><path d="M 120.28053869075195 94.5502522615342 l 25.660313113153737 -6.8953904770045735 a47.57062436028659,47.57062436028659 0 0,0 0.2056946279587599,0.792625309644629 l -25.7752040729828 6.452668741811094" fill="#f1ff19" stroke="none" /><path d="M 120.53481517161879 95.60439243477599 l 25.740039346035015 -5.509818848283119 a47.323140566359605,47.323140566359605 0 0,0 0.16364951368774316,0.7980131476832726 l -25.831068155637755 5.065930044436436" fill="#f5ff19" stroke="none" /><path d="M 120.6074358757038 95.95851677861258 l 31.928284163840623 -6.261702111517302 a53.536506311838956,53.536506311838956 0 0,0 0.1695686648441532,0.9058425880314409 l -32.03133855259463 5.711181446023298" fill="#a2ff22" stroke="none" /><path d="M 120.87857604477298 97.74499172005257 l 30.232738484029582 -3.2653125127295177 a51.40856363016036,51.40856363016036 0 0,0 0.08745055511511278,0.8806151556717486 l -30.284466164826924 2.744421826353334" fill="#beff1f" stroke="none" /><path d="M 120.91429891909075 98.10471618934814 l 26.62036091236936 -2.4123753450262333 a47.729443875810304,47.729443875810304 0 0,0 0.06710649844960735,0.8188692556127307 l -26.657941894638462 1.9537921722057336" fill="#efff19" stroke="none" /><path d="M 120.96714384426684 98.82574320788733 l 21.18860676756223 -1.1866597375883268 a42.22180996247015,42.22180996247015 0 0,0 0.03439346772899409,0.7259917445582071 l -21.20589384352472 0.82175688640712" fill="#ffc111" stroke="none" /><path d="M 120.98425023603335 99.18683210126433 l 26.64854205170778 -1.0326668192007098 a47.66854315933129,47.66854315933129 0 0,0 0.024715698227289026,0.8201936986774402 l -26.662369444390713 0.5738029730982706" fill="#f0ff19" stroke="none" /><line stroke="#e1ed5e" stroke-width="0.3" x1="184.98032266829074" x2="189.97916517819016" y1="98.17113171792111" y2="98.06355123074" /><path d="M 185.9800911702706 98.14961562048488 a86.0,86.0 0 0,1 -9.607161424134198,41.387399972396054" fill="none" id="id52" stroke="none" /><text fill="#e1ed5e" style="font-size:6.75px; font-family:Arial;" text-anchor="middle"><textPath startOffset="21.466115282336823" xlink:href="#id52">April</textPath></text><path d="M 120.99824983174949 100.27111621757518 l 39.46276338788359 0.5095184232264228 a60.46605254179461,60.46605254179461 0 0,0 -0.02239529363595829,1.0406212946464088 l -39.44814603156263 -1.1887295336629464" fill="#4eff2b" stroke="none" /><path d="M 120.9764740272857 100.99374915477107 l 36.885064850691606 1.7474100733694022 a57.926432958034795,57.926432958034795 0 0,0 -0.05575736143575112,0.995585144112127 l -36.849521138368324 -2.3820669338169522" fill="#6cff28" stroke="none" /><path d="M 120.76222939487914 103.15116336523771 l 36.518962254051544 5.542623280130443 a57.9371801432958,57.9371801432958 0 0,0 -0.15813607252703388,0.9847134745785089 l -36.41814442716323 -6.170415984402156" fill="#6cff28" stroke="none" /><path d="M 120.64145759157962 103.86396538481128 l 42.90121437879159 8.03086732565057 a64.64640907540088,64.64640907540088 0 0,0 -0.21416452439325118,1.0920202958975567 l -42.756619921422676 -8.76815134861607" fill="#31ff43" stroke="none" /><path d="M 120.23288151984713 105.62410040840565 l 35.70408679778208 9.924605595311888 a58.057787444558166,58.057787444558166 0 0,0 -0.2759330796699369,0.9605592493502702 l -35.527961081226046 -10.53772232016674" fill="#6bff28" stroke="none" /><path d="M 120.13307415673323 105.97154293290107 l 31.743135472096053 9.415129295250843 a54.10998805868304,54.10998805868304 0 0,0 -0.27254228936292973,0.8906839708293811 l -31.576366410226992 -9.960140238632281" fill="#9bff22" stroke="none" /><path d="M 119.79798401119884 107.00284435728193 l 29.114947259048343 10.298394220858926 a51.88263391334015,51.88263391334015 0 0,0 -0.3050593601640457,0.8393923413896062 l -28.933363637879072 -10.798034359254663" fill="#b8ff1f" stroke="none" /><path d="M 119.54520255179757 107.68017299344265 l 29.658727908372104 11.654223613087803 a52.866299897645845,52.866299897645845 0 0,0 -0.340099948097935,0.8441001797853359 l -29.453725346016775 -12.163023160715952" fill="#abff21" stroke="none" /><path d="M 119.12269723197855 108.67885076344098 l 29.00101765753917 13.162134043349983 a52.84808938928694,52.84808938928694 0 0,0 -0.3830866979317642,0.8251346663524641 l -28.770156342767574 -13.659388776981277" fill="#abff21" stroke="none" /><path d="M 118.64920377521936 109.65438752849418 l 29.441478699614187 15.24137159977164 a54.15267826680314,54.15267826680314 0 0,0 -0.43566472219432073,0.8241134698543668 l -29.174761469194973 -15.74590008471214" fill="#9bff22" stroke="none" /><line stroke="#e1ed5e" stroke-width="0.3" x1="174.80103733775053" x2="179.2010983576182" y1="140.37084112569926" y2="142.7455964860345" /><path d="M 175.68104954172406 140.8457921977663 a86.0,86.0 0 0,1 -30.038265399797805,32.042727171017184" fill="none" id="id53" stroke="none" /><text fill="#e1ed5e" style="font-size:6.75px; font-family:Arial;" text-anchor="middle"><textPath startOffset="22.206326154141568" xlink:href="#id53">May</textPath></text><path d="M 118.30583269289576 110.29060199501025 l 26.48209445478152 14.886877783723238 a51.37960593654043,51.37960593654043 0 0,0 -0.4400247412459117,0.7672202261580655 l -26.221917717383228 -15.340517855739618" fill="#beff1f" stroke="none" /><path d="M 118.12598468904814 110.60418214915192 l 21.146982137222828 12.37154584067725 a45.5,45.5 0 0,0 -0.40130810265384104,0.6726154632467745 l -20.930893158870763 -12.73372339781013" fill="#fff016" stroke="none" /><path d="M 117.75023020441432 111.22182372390056 l 25.127234355813922 15.885619023687777 a50.727610030706245,50.727610030706245 0 0,0 -0.47296282554846863,0.73404880837807 l -24.850066666888406 -16.3157894319873" fill="#c7ff1e" stroke="none" /><path d="M 116.71984013943494 112.70617746262583 l 25.512112495255433 19.387830631623775 a53.04303138860457,53.04303138860457 0 0,0 -0.5587027112974925,0.7221985682354056 l -25.174602966739872 -19.824107193972434" fill="#a9ff21" stroke="none" /><path d="M 116.0416608686014 113.55231037782055 l 24.61869525574127 20.798357597486888 a53.228121801432955,53.228121801432955 0 0,0 -0.5973145525707909,0.694811769256777 l -24.257038193599698 -21.21904646590519" fill="#a6ff21" stroke="none" /><path d="M 115.56566222782051 114.09645910891815 l 15.597305149726834 14.125115336209399 a42.04269020812009,42.04269020812009 0 0,0 -0.49040514209533825,0.532237925552616 l -15.351853599635774 -14.39150451656335" fill="#ffbe11" stroke="none" /><path d="M 115.32070863581623 114.36230785411682 l 19.305303832169276 18.097643095090714 a47.46165984305698,47.46165984305698 0 0,0 -0.5638749138820381,0.5912205928631193 l -18.990922366908272 -18.427270804536338" fill="#f3ff19" stroke="none" /><path d="M 114.81725581225074 114.88116024355365 l 18.257637922757553 18.33638016647475 a46.87593824633231,46.87593824633231 0 0,0 -0.5766857561128229,0.5644083886187141 l -17.939302214268935 -18.647938658016038" fill="#fbff18" stroke="none" /><path d="M 113.48314897796784 116.09983520530334 l 17.609900335519974 21.02746872017569 a48.42741385192767,48.42741385192767 0 0,0 -0.6436922763524578,0.5297149210910133 l -17.245337930622824 -21.327478760123885" fill="#e6ff1a" stroke="none" /><path d="M 112.63410532772338 116.77436683061366 l 28.11889471892942 37.33360160071754 a67.73831456840668,67.73831456840668 0 0,0 -0.9374177281949573,0.6934792248258763 l -27.4720920203159 -37.812090774283185" fill="#36ff6d" stroke="none" /><path d="M 112.34349029814194 116.9893568818739 l 10.528044053621063 14.490609493328071 a38.91137836915728,38.91137836915728 0 0,0 -0.5452645376083345,0.389031769912157 l -10.277052188163843 -14.669685525084448" fill="#ff8f0d" stroke="none" /><path d="M 111.7513745106137 117.40417183066458 l 14.837730761091189 21.975166863240606 a47.51539576936199,47.51539576936199 0 0,0 -0.6817900449853731,0.451853264941466 l -14.457266017365852 -22.22731814927339" fill="#f2ff19" stroke="none" /><line stroke="#e1ed5e" stroke-width="0.3" x1="143.8653032363475" x2="146.44561519142675" y1="172.8068346515853" y2="177.08958963109032" /><path d="M 144.38136562736335 173.6633856474863 a86.0,86.0 0 0,1 -40.68145358897372,12.25698825130547" fill="none" id="id54" stroke="none" /><text fill="#e1ed5e" style="font-size:6.75px; font-family:Arial;" text-anchor="middle"><textPath startOffset="21.466115282336833" xlink:href="#id54">June</textPath></text><path d="M 110.21172684928248 118.3499491758327 l 18.00146389483717 32.3477069487086 a58.01927669737291,58.01927669737291 0 0,0 -0.8768568997917642,0.4781322957436615 l -17.441984183176757 -32.65277989621203" fill="#6bff28" stroke="none" /><path d="M 109.57404056367764 118.69057910512821 l 23.909241809127295 46.67596428121621 a73.44327874445582,73.44327874445582 0 0,0 -1.1301385015826988,0.5666749059840066 l -23.102249399861833 -47.08060702810952" fill="#3effb5" stroke="none" /><path d="M 108.59647513512805 119.15986991738527 l 12.312033391815653 27.441126100829226 a51.07659501876492,51.07659501876492 0 0,0 -0.8052573628377059,0.3530011635355564 l -11.837855354320194 -27.648991817659237" fill="#c2ff1e" stroke="none" /><path d="M 108.2653958097858 119.30500536409082 l 12.013282340900576 28.058726450443668 a51.52230467417264,51.52230467417264 0 0,0 -0.8182932895859018,0.34204666141245776 l -11.528517591817213 -28.2613581548761" fill="#bcff1f" stroke="none" /><path d="M 107.59598834532513 119.57807347666477 l 9.182805255574086 23.66797154529307 a46.386941316956666,46.386941316956666 0 0,0 -0.7468955346242212,0.28241198188447303 l -8.77403950018959 -23.822531777284173" fill="#fffc17" stroke="none" /><path d="M 106.91757812671514 119.82793768551818 l 10.116554819283705 28.997203193733615 a51.71127601501193,51.71127601501193 0 0,0 -0.8429683299226574,0.2859806257176294 l -9.61591675642382 -29.167046806349365" fill="#baff1f" stroke="none" /><path d="M 106.57524785965236 119.94407469862006 l 7.766277773044987 23.556712589695593 a45.80390651654726,45.80390651654726 0 0,0 -0.7509193964332,0.24042067748494858 l -7.359637031520846 -23.686906113840248" fill="#fff417" stroke="none" /><path d="M 105.18746579009965 120.34920634021253 l 8.750788134259999 34.32728052364067 a56.42511088365745,56.42511088365745 0 0,0 -0.9432309444622875,0.2318232174539666 l -8.1586039050545 -34.472824999408665" fill="#7eff26" stroke="none" /><path d="M 104.83641907484287 120.43548508189849 l 7.831541958917979 33.090879097347496 a55.00498976458547,55.00498976458547 0 0,0 -0.923245265469916,0.21012761659243248 l -7.260776544055202 -33.22078344751761" fill="#90ff24" stroke="none" /><path d="M 104.48393922423573 120.51570834832081 l 5.545388046622476 25.37223591877797 a46.97117024906176,46.97117024906176 0 0,0 -0.7913714809891628,0.1658395882020643 l -5.107825104203935 -25.463931487706578" fill="#faff18" stroke="none" /><path d="M 103.41894727170886 120.7198165907248 l 4.8970694203954555 29.677667468655002 a51.07898328215626,51.07898328215626 0 0,0 -0.8687419500822062,0.1356796260222649 l -4.385491606704732 -29.757565402024376" fill="#c2ff1e" stroke="none" /><path d="M 101.98527174616119 120.90594882070398 l 3.6685080916141897 38.63130705402064 a59.80510064824292,59.80510064824292 0 0,0 -1.025673658404938,0.0884994390568543 l -3.0029901154677097 -38.68873074535615" fill="#56ff2b" stroke="none" /><path d="M 101.26447882468166 120.96189622390904 l 1.6581814179117575 27.48850049856011 a48.5384680996247,48.5384680996247 0 0,0 -0.8344269583283912,0.04313034258122361 l -1.1847663911698867 -27.512970647903536" fill="#e4ff1a" stroke="none" /><line stroke="#e1ed5e" stroke-width="0.3" x1="102.19456741930631" x2="102.32365962044197" y1="184.97166512339345" y2="189.96999836594603" /><path d="M 102.22038585953345 185.97133177190398 a86.0,86.0 0 0,1 -42.740103519485714,-10.115201625700543" fill="none" id="id55" stroke="none" /><text fill="#e1ed5e" style="font-size:6.75px; font-family:Arial;" text-anchor="middle"><textPath startOffset="22.20632615414155" xlink:href="#id55">July</textPath></text><path d="M 100.18074693466247 120.99922214144158 l 0.2584297800458676 30.02443371602084 a51.02554588877517,51.02554588877517 0 0,0 -0.8783534294166254,0.0 l 0.25842978004584694 -30.02443371602084" fill="#c3ff1e" stroke="none" /><path d="M 99.81925306533755 120.99922214144158 l -0.2575947016629671 29.92741410957297 a50.92852268850222,50.92852268850222 0 0,0 -0.8765533825638352,-0.0150906614080018 l 0.7727077741194701 -29.91854597088581" fill="#c4ff1e" stroke="none" /><path d="M 99.09653310690486 120.98055641714683 l -1.9097207409474732 44.34805973817212 a65.38915899010577,65.38915899010577 0 0,0 -1.1241079329445505,-0.05810354011487985 l 2.6728167423055127 -44.30861639129504" fill="#32ff4d" stroke="none" /><path d="M 98.73552117531835 120.96189622390904 l -1.6705666378339157 27.69381646720382 a48.74415728420334,48.74415728420334 0 0,0 -0.8370932529110809,-0.05773085175317688 l 2.1470226515239266 -27.660957270934357" fill="#e1ff1b" stroke="none" /><path d="M 98.01472825383883 120.90594882070398 l -2.2333742697666423 23.51859803147972 a44.624402934152165,44.624402934152165 0 0,0 -0.7640705090980399,-0.07919903236383118 l 2.637877375470276 -23.476669630660126" fill="#ffe315" stroke="none" /><path d="M 96.93821686468263 120.77559828337769 l -4.5633817988183525 30.964631678951537 a52.29908734220402,52.29908734220402 0 0,0 -0.8894932554590967,-0.1389205531499855 l 5.095710917885967 -30.881492818454447" fill="#b2ff20" stroke="none" /><path d="M 95.86986931433489 120.58985236759428 l -5.5434780339155605 27.63578274108355 a49.18628454452406,49.18628454452406 0 0,0 -0.8286917834483999,-0.17366042044090577 l 6.018361278793347 -27.536266339916104" fill="#dbff1b" stroke="none" /><path d="M 95.16358092515715 120.4354850818985 l -6.937948493722167 29.315148408028797 a51.12495735243944,51.12495735243944 0 0,0 -0.8546308736293958,-0.21004747567225512 l 7.441532652094772 -29.191379674042512" fill="#c2ff1e" stroke="none" /><path d="M 94.46302465271185 120.25689768951611 l -6.956403819334771 25.449844295268484 a47.383444216990796,47.383444216990796 0 0,0 -0.7849153995687989,-0.22182493222615365 l 7.393450387008183 -25.326330569703806" fill="#f4ff19" stroke="none" /><path d="M 93.42475214034765 119.94407469862007 l -14.47640682599708 43.90990959853556 a67.23468952575912,67.23468952575912 0 0,0 -1.0960223438683727,-0.3718302865882722 l 15.230098902802677 -43.65421632504916" fill="#35ff66" stroke="none" /><path d="M 92.40401165467489 119.57807347666478 l -11.362019414521615 29.284727783672636 a52.411634254520635,52.411634254520635 0 0,0 -0.8382839674426705,-0.3335704908548465 l 11.864424458006145 -29.084810448411723" fill="#b1ff20" stroke="none" /><path d="M 92.06813273071674 119.44442032107085 l -7.978436432000957 19.558581380899717 a42.12329409757761,42.12329409757761 0 0,0 -0.6690152762630582,-0.2796484397367048 l 8.313923167761478 -19.41834789814304" fill="#ffbf11" stroke="none" /><path d="M 91.07499286063937 119.00905698771935 l -11.32208663276363 24.114511805031157 a47.6401825315592,47.6401825315592 0 0,0 -0.7393015229138715,-0.35490965827822324 l 11.735500823677745 -23.91604787025337" fill="#f0ff19" stroke="none" /><path d="M 90.10565033884886 118.52300852407294 l -14.108703473095444 26.4126136275398 a50.94464346639373,50.94464346639373 0 0,0 -0.7699365568437464,-0.41983079974405724 l 14.561262841807832 -26.165842176035977" fill="#c4ff1e" stroke="none" /><line stroke="#e1ed5e" stroke-width="0.3" x1="58.666819895761336" x2="56.23545636021788" y1="174.27360380694188" y2="178.64263932499728" /><path d="M 58.180547188652646 175.14741091055294 a86.0,86.0 0 0,1 -31.652253787137756,-30.449443065178592" fill="none" id="id56" stroke="none" /><text fill="#e1ed5e" style="font-size:6.75px; font-family:Arial;" text-anchor="middle"><textPath startOffset="22.20632615414155" xlink:href="#id56">August</textPath></text><path d="M 89.7882731507175 118.34994917583269 l -14.915183432882412 26.8018193182326 a51.672466734902756,51.672466734902756 0 0,0 -0.7734906492542658,-0.4392081775124892 l 15.374322849057883 -26.541107974925477" fill="#baff1f" stroke="none" /><path d="M 89.1626897886671 117.98757091392108 l -15.667295887943531 26.00429353024002 a51.35930569771409,51.35930569771409 0 0,0 -0.7533206872348109,-0.4627510939854523 l 16.112595775110652 -25.73075396942619" fill="#beff1e" stroke="none" /><path d="M 88.24862548938628 117.40417183066458 l -17.117374463067694 25.3513941008337 a51.58917604912999,51.58917604912999 0 0,0 -0.7316895673433833,-0.5032627563204571 l 17.551220915033966 -25.052990555148146" fill="#bbff1f" stroke="none" /><path d="M 87.95078237400918 117.19931262002967 l -17.54077223035318 25.038075877708398 a51.57096554077107,51.57096554077107 0 0,0 -0.7226631350045559,-0.5156009589294724 l 17.969162693206624 -24.732430656934703" fill="#bcff1f" stroke="none" /><path d="M 87.65650970185807 116.9893568818739 l -12.505627581143797 17.21251970683198 a42.27584442169908,42.27584442169908 0 0,0 -0.5850474179615357,-0.43280409329955866 l 12.800059969523897 -16.994705664792654" fill="#ffc112" stroke="none" /><path d="M 87.07902340077011 116.55440617244103 l -18.78798606067651 24.071241830833205 a51.53544012282497,51.53544012282497 0 0,0 -0.6946057231561354,-0.5518367957353619 l 19.199549276550005 -23.744271121092712" fill="#bcff1f" stroke="none" /><path d="M 86.24171649860922 115.8653595955263 l -20.212417432676943 23.307941781537494 a51.85128795632889,51.85128795632889 0 0,0 -0.669270862485976,-0.5905537213550048 l 20.610630648069506 -22.9565649184102" fill="#b8ff1f" stroke="none" /><path d="M 85.97065885151581 115.62618273729859 l -21.79689416949542 24.277850812323717 a53.62696178778574,53.62696178778574 0 0,0 -0.6815742981849421,-0.6226019614213071 l 22.211568017147215 -23.899056084315834" fill="#a1ff22" stroke="none" /><path d="M 85.44109423537348 115.13401014063109 l -21.379719172721472 22.224258608085858 a51.838451040600475,51.838451040600475 0 0,0 -0.6377364902430568,-0.6241593814413925 l 21.759105615340324 -21.852949123721896" fill="#b8ff1f" stroke="none" /><path d="M 84.9287848128048 114.62390073753433 l -22.13547236836487 21.478490398599686 a51.843227567383146,51.843227567383146 0 0,0 -0.6159307444491391,-0.6458009230962559 l 22.50190966419297 -21.094282358920932" fill="#b8ff1f" stroke="none" /><path d="M 84.43433777217949 114.09645910891817 l -22.815210531980853 20.66174105658076 a51.78053565336063,51.78053565336063 0 0,0 -0.5926187383216156,-0.6658134348124519 l 23.167488119950807 -20.265953452027443" fill="#b9ff1f" stroke="none" /><path d="M 83.95833913139862 113.55231037782056 l -23.309483737393695 19.692309976096766 a51.51424428522688,51.51424428522688 0 0,0 -0.5664211937104962,-0.6822908164870295 l 23.64500093099773 -19.288157902495975" fill="#bcff1f" stroke="none" /><path d="M 83.28015986056508 112.70617746262583 l -24.58061793272777 18.679944962966474 a51.873080859774824,51.873080859774824 0 0,0 -0.5341413951305303,-0.7155696869166189 l 24.898520594553386 -18.254062396540547" fill="#b8ff1f" stroke="none" /><path d="M 82.85270091963577 112.12312394758628 l -25.265354654021827 17.862581425501475 a51.94204196519959,51.94204196519959 0 0,0 -0.5098707338501246,-0.734506820067376 l 25.569086295034086 -17.425033343247083" fill="#b7ff1f" stroke="none" /><path d="M 82.6465618267979 111.8261652097733 l -25.53430245017992 17.40132855968945 a51.89994882292733,51.89994882292733 0 0,0 -0.49674897822621006,-0.7425723226617486 l 25.83005453381686 -16.95921932282188" fill="#b7ff1f" stroke="none" /><path d="M 82.24976979558568 111.22182372390057 l -26.054564277359777 16.471883697083317 a51.824718526100305,51.824718526100305 0 0,0 -0.47021149611796587,-0.7581306503419319 l 26.3342404131457 -16.020956715376123" fill="#b8ff1f" stroke="none" /><line stroke="#e1ed5e" stroke-width="0.3" x1="26.63291911575756" x2="22.317208475507996" y1="142.92168965132927" y2="145.44649492493687" /><path d="M 25.769776987707644 143.4266507060508 a86.0,86.0 0 0,1 -11.730757126820373,-40.83630448921669" fill="none" id="id57" stroke="none" /><text fill="#e1ed5e" style="font-size:6.75px; font-family:Arial;" text-anchor="middle"><textPath startOffset="21.46611528233685" xlink:href="#id57">September</textPath></text><path d="M 81.87401531095188 110.60418214915194 l -26.633684513884685 15.58141236094754 a51.8566615489594,51.8566615489594 0 0,0 -0.4441103364658154,-0.7743438057998236 l 26.897946846502876 -15.12064870928941" fill="#b8ff1f" stroke="none" /><path d="M 81.51974371655577 109.97397251340807 l -26.55052514462818 14.329574435951319 a51.170632889798696,51.170632889798696 0 0,0 -0.4116738132988876,-0.7787317114342711 l 26.793251466151954 -13.87042770943092" fill="#c1ff1e" stroke="none" /><path d="M 81.18737489456691 109.33194174019688 l -27.659993235450393 13.72065004011149 a51.87606618901399,51.87606618901399 0 0,0 -0.3899270527416736,-0.8033652212258682 l 27.892073544806784 -13.242495862920338" fill="#b8ff1f" stroke="none" /><path d="M 80.87730276802145 108.67885076344099 l -28.169714232436935 12.784846348100894 a51.9351757079495,51.9351757079495 0 0,0 -0.3624553817165458,-0.8172412003445735 l 28.38561069888476 -12.298056811263624" fill="#b7ff1f" stroke="none" /><path d="M 80.58989483394504 108.01547362559985 l -17.198240571901984 7.1020760851869 a39.606960081883315,39.606960081883315 0 0,0 -0.25479984591783017,-0.6323923215847738 l 17.317943032077203 -6.804984395759321" fill="#ff9a0e" stroke="none" /><path d="M 80.32549172779594 107.34259656027581 l -28.676887974203265 10.702316728102456 a51.6088792221085,51.6088792221085 0 0,0 -0.30344973812580794,-0.8349633528455519 l 28.856861973334297 -10.207105578250788" fill="#bbff1f" stroke="none" /><path d="M 80.20201598880116 107.00284435728193 l -36.89775249988881 13.051289350676932 a60.1379648584101,60.1379648584101 0 0,0 -0.33679886075061616,-0.9788951413933895 l 37.11694219158265 -12.414221506194245" fill="#52ff2b" stroke="none" /><path d="M 79.58551787078972 104.9243191809786 l -61.24344638763086 14.772957542935808 a84.0,84.0 0 0,0 -0.32695773627777935,-1.408525370605703 l 61.4886646898392 -13.716563514981532" fill="#4dd2ff" stroke="none" /><path d="M 79.4281124754447 104.21870165774334 l -30.244570054332755 6.202290269847585 a51.873976458546565,51.873976458546565 0 0,0 -0.17185123900189453,-0.8762657652890219 l 30.346851226310314 -5.680760777490608" fill="#b8ff1f" stroke="none" /><path d="M 79.23777060512086 103.15116336523772 l -29.443559049029897 4.4687621378656255 a50.78074889116343,50.78074889116343 0 0,0 -0.12372596224305543,-0.8653390917585279 l 29.51611906228955 -3.961277574126697" fill="#c6ff1e" stroke="none" /><path d="M 79.18660465613746 102.79330883721812 l -29.563164010823527 3.9675913479399245 a50.82821562606619,50.82821562606619 0 0,0 -0.10891395194517853,-0.86815135839625 l 29.627079472015552 -3.458122235256266" fill="#c5ff1e" stroke="none" /><path d="M 79.04373962182676 101.35467743843564 l -28.56014400566802 1.8462159767421245 a49.61975435005117,49.61975435005117 0 0,0 -0.0477617287370862,-0.8528177511152939 l 28.587692085292634 -1.354326509291393" fill="#d6ff1c" stroke="none" /><line stroke="#e1ed5e" stroke-width="0.3" x1="15.007084014347285" x2="10.007500721073583" y1="101.09737516637583" y2="101.16192664675087" /><path d="M 14.007167355692545 101.11028546245083 a86.0,86.0 0 0,1 10.666146001902534,-42.60595125391555" fill="none" id="id58" stroke="none" /><text fill="#e1ed5e" style="font-size:6.75px; font-family:Arial;" text-anchor="middle"><textPath startOffset="22.20632615414155" xlink:href="#id58">October</textPath></text><path d="M 79.00486145842228 99.54816195383935 l -45.62019399067657 -0.9817958227518351 a66.63075742067554,66.63075742067554 0 0,0 0.0345474307356243,-1.1464610359892216 l 45.5965348654853 1.766927006166051" fill="#34ff5e" stroke="none" /><path d="M 79.03285615573316 98.82574320788736 l -30.448618393427104 -1.7052631118713055 a51.49633230979188,51.49633230979188 0 0,0 0.05718400166212805,-0.884611195474866 l 30.41475380076056 2.2291333715991835" fill="#bdff1f" stroke="none" /><path d="M 79.08570108090925 98.10471618934814 l -30.50774943686487 -2.764656077203421 a51.63276185602184,51.63276185602184 0 0,0 0.08783193630771835,-0.8844556122343804 l 30.45564037487492 3.289387220142232" fill="#bbff1f" stroke="none" /><path d="M 79.21141760316559 97.0276538004421 l -30.577928920989134 -4.372024464375876 a51.888903104742404,51.888903104742404 0 0,0 0.1340317709205414,-0.8831019060302698 l 30.49814125662929 4.897725482798238" fill="#b8ff1f" stroke="none" /><path d="M 79.54389044137918 95.25157060432595 l -32.36354044251779 -7.512473784174351 a54.224027635619244,54.224027635619244 0 0,0 0.21887709434531602,-0.9073868623840763 l 32.229430547911655 8.068445878217824" fill="#9aff23" stroke="none" /><path d="M 79.71946130924805 94.55025226153421 l -24.648938586155598 -6.623615839984519 a46.52337086318663,46.52337086318663 0 0,0 0.21447989416209398,-0.771598295166496 l 24.53127192142714 7.046925438569958" fill="#fffe18" stroke="none" /><path d="M 80.02781315780177 93.51064311812611 l -27.8129680294231 -9.036981123455682 a50.244285226885026,50.244285226885026 0 0,0 0.27434027221988544,-0.8202424952485143 l 27.653290463431443 9.514396721626518" fill="#cdff1d" stroke="none" /><path d="M 80.2630227832202 92.82701384747504 l -29.02494999067754 -10.548503049588444 a51.882335380416244,51.882335380416244 0 0,0 0.3122709109478227,-0.8367307900109993 l 28.839074491228093 11.046556976628784" fill="#b8ff1f" stroke="none" /><path d="M 80.52162464483688 92.15188598940014 l -28.42119365480984 -11.451302485613116 a51.64141931081542,51.64141931081542 0 0,0 0.3393045677766068,-0.8216529242679461 l 28.219867400147034 11.938829980334374" fill="#bbff1f" stroke="none" /><path d="M 80.95270993114464 91.15688171328213 l -28.045363767793898 -13.020669517610651 a51.920547594677586,51.920547594677586 0 0,0 0.38332645122876746,-0.80738326672089 l 27.817079122723378 13.501495199972073" fill="#b7ff1f" stroke="none" /><path d="M 81.26839172434947 90.50648371742162 l -27.53767966305759 -13.956591789584904 a51.87248379392699,51.87248379392699 0 0,0 0.41051035643359646,-0.7929753458075831 l 27.29335987346388 14.428539857652822" fill="#b8ff1f" stroke="none" /><path d="M 81.6062741919709 89.86733742301443 l -26.819215302318806 -14.774062746945045 a51.61932787444559,51.61932787444559 0 0,0 0.4354271187894606,-0.7745762580628966 l 26.560930542236914 15.233522514942726" fill="#bbff1f" stroke="none" /><line stroke="#e1ed5e" stroke-width="0.3" x1="26.266209847984243" x2="21.928928074336255" y1="57.711370442889674" y2="55.22380399835377" /><path d="M 25.398753493254645 57.213857153982495 a86.0,86.0 0 0,1 29.58750427330803,-30.492523968695096" fill="none" id="id59" stroke="none" /><text fill="#e1ed5e" style="font-size:6.75px; font-family:Arial;" text-anchor="middle"><textPath startOffset="21.46611528233685" xlink:href="#id59">November</textPath></text><path d="M 84.07557802195018 86.31012108654704 l -23.518993064704187 -20.218766349318425 a52.0151825315592,52.0151825315592 0 0,0 0.5895255552378433,-0.673929619433413 l 23.1674756458885 20.620611524954782" fill="#b6ff1f" stroke="none" /><path d="M 84.31358615837235 86.03803664274999 l -22.38743647242646 -19.92632419663025 a50.9709143636984,50.9709143636984 0 0,0 0.5889722149507807,-0.6503578301940541 l 22.041120616859637 20.308734814093864" fill="#c4ff1e" stroke="none" /><path d="M 84.5562425177563 85.77008943001954 l -13.69133976042991 -12.615229201710473 a39.617110201296484,39.617110201296484 0 0,0 0.46641163099324284,-0.49753540833307 l 13.472160807466212 12.849034026921593" fill="#ff9a0e" stroke="none" /><path d="M 85.31137513191541 84.99185889309783 l -20.257832104759846 -20.69849325438012 a49.962171613783696,49.962171613783696 0 0,0 0.6198087090905797,-0.5962554870713347 l 19.89854015205684 21.044131828213768" fill="#d1ff1c" stroke="none" /><path d="M 85.57189188830299 84.74124197986013 l -16.572510908066178 -17.52661761158423 a45.12116171954964,45.12116171954964 0 0,0 0.5689394236835275,-0.5287671890554924 l 16.268363600587794 17.80928938671437" fill="#ffea16" stroke="none" /><path d="M 86.10567301691215 84.25364557470407 l -20.449611355809324 -23.17541746786847 a51.90771067894917,51.90771067894917 0 0,0 0.6750627468795294,-0.5854077619151544 l 20.04765481028302 23.523990223203306" fill="#b7ff1f" stroke="none" /><path d="M 87.80319425747018 82.90503203632743 l -17.921557465507014 -25.118744792635624 a51.8566615489594,51.8566615489594 0 0,0 0.7311020328474397,-0.5121836956625917 l 17.486524293075917 25.42351333106216" fill="#b8ff1f" stroke="none" /><path d="M 88.39885842347998 82.49532879139004 l -17.076654789900577 -25.76653560069826 a51.91159160696008,51.91159160696008 0 0,0 0.7490916190918356,-0.4872300263963183 l 16.63059614502445 26.056664551254112" fill="#b7ff1f" stroke="none" /><line stroke="#e1ed5e" stroke-width="0.3" x1="56.762969772571076" x2="54.21961505331055" y1="26.818313649435495" y2="22.513508569990535" /><path d="M 56.25429882871897 25.957352633546506 a86.0,86.0 0 0,1 42.265352541879196,-11.944610805530505" fill="none" id="id60" stroke="none" /><text fill="#e1ed5e" style="font-size:6.75px; font-family:Arial;" text-anchor="middle"><textPath startOffset="22.20632615414155" xlink:href="#id60">December</textPath></text><path d="M 89.3179101791058 81.91981866633112 l -16.81035117668868 -28.452690686300816 a54.04759467758444,54.04759467758444 0 0,0 0.8050602008351612,-0.46634283136410065 l 16.3180942433882 28.737837675054962" fill="#9cff22" stroke="none" /><path d="M 89.94658935756843 81.56283822128135 l -15.286632203530127 -28.034477155315663 a52.93138007505971,52.93138007505971 0 0,0 0.8036872729059881,-0.4293019077335283 l 14.801799884095834 28.29345778955094" fill="#aaff21" stroke="none" /><path d="M 90.58718382345135 81.22770947309562 l -14.031577918359302 -27.983639783659175 a52.30446093483452,52.30446093483452 0 0,0 0.8083000208040246,-0.3966293098000849 l 13.547806630544851 28.221024253594088" fill="#b2ff20" stroke="none" /><path d="M 92.23578459929587 80.48803036053334 l -11.875902994628715 -29.84490340793891 a53.120948481746844,53.120948481746844 0 0,0 0.852507329977789,-0.33075959953535866 l 11.36041249965125 30.04490571136482" fill="#a8ff21" stroke="none" /><path d="M 92.57280143429618 80.3572730644239 l -10.8826450495516 -28.78135317833454 a51.77008700102354,51.77008700102354 0 0,0 0.8362537384304257,-0.3079993092995366 l 10.385608985348604 28.964415755440402" fill="#b9ff1f" stroke="none" /><path d="M 93.59665428221793 80.00007090966166 l -9.684760002363683 -30.248954506130975 a52.76151484135108,52.76151484135108 0 0,0 0.8673355562463985,-0.2694853792989028 l 9.162639073406556 30.411180020312404" fill="#acff20" stroke="none" /><path d="M 95.33964822691252 79.52364482259891 l -6.654105700349151 -29.236383505456192 a50.98404981235073,50.98404981235073 0 0,0 0.8573994353976655,-0.18739430752006475 l 6.1498635407979645 29.346591311072128" fill="#c3ff1e" stroke="none" /><path d="M 95.692805502759 79.44645832069477 l -6.136392842666026 -29.282310360750174 a50.918372569089044,50.918372569089044 0 0,0 0.8593896006548714,-0.17238546917375747 l 5.631436832544018 29.38359978600114" fill="#c4ff1e" stroke="none" /><path d="M 97.11714578562143 79.19881850522333 l -4.158139348050699 -30.002977891832014 a51.28974752644149,51.28974752644149 0 0,0 0.8755532888942765,-0.1136719454461266 l 3.6410713306485643 30.070108160442278" fill="#bfff1e" stroke="none" /><path d="M 98.55514903715128 79.0497635885617 l -2.1414990082675116 -31.051583624658374 a52.125341180484476,52.125341180484476 0 0,0 0.8956572054810308,-0.054028488568344114 l 1.606679753946858 31.083845382607024" fill="#b5ff20" stroke="none" /></svg>