<?xml version="1.0" encoding="utf-8" ?>
<svg baseProfile="full" height="200mm" version="1.1" viewBox="0,0,200,200" width="200mm" xmlns="http://www.w3.org/2000/svg" xmlns:ev="http://www.w3.org/2001/xml-events" xmlns:xlink="http://www.w3.org/1999/xlink"><defs /><rect fill="#1a1a1a" height="200" width="200" x="0" y="0" /><text alignment-baseline="middle" fill="#e1ed5e" style="dominant-baseline: central; font-size:9.0px; font-family:Arial;" text-anchor="middle" x="100.0" y="100.0">2025</text><line stroke="#e1ed5e" stroke-width="0.3" x1="100.0" x2="100.0" y1="15.0" y2="10.0" /><path d="M 100.0 14.0 a86.0,86.0 0 0,1 42.46469731375804,11.215312516191453" fill="none" id="id97" stroke="none" /><text fill="#e1ed5e" style="font-size:6.75px; font-family:Arial;" text-anchor="middle"><textPath startOffset="22.20632615414155" xlink:href="#id97">January</textPath></text><path d="M 100.0 79.0 l 0.0 -38.21443849394246 a59.21443849394246,59.21443849394246 0 0,0 1.0192792193639988,0.008773258039000021 l -0.6577987400914703 38.20877661251202" fill="red" stroke="none" /><path d="M 102.88285421437855 79.19881850522331 l 5.665355014900622 -40.87826477992556 a62.26898083140123,62.26898083140123 0 0,0 1.060443766781072,0.15628184549951135 l -6.36816776211035 40.77468845026508" fill="red" stroke="none" /><path d="M 103.59715602781102 79.31037775812273 l 7.136313303418431 -41.04565531933804 a62.66140645919734,62.66140645919734 0 0,0 1.0610810407354654,0.19390577793507915 l -7.841789465256798 40.91673406005222" fill="red" stroke="none" /><path d="M 104.307194497241 79.44645832069477 l 6.357834283431944 -30.339008841680897 a51.99802436077458,51.99802436077458 0 0,0 0.874451458697602,0.19112121934923318 l -6.879128466283074 30.225074124235796" fill="red" stroke="none" /><path d="M 105.71112130821622 79.79150937346287 l 11.328340987634245 -40.08471547145711 a62.65472030826503,62.65472030826503 0 0,0 1.035323850131934,0.30223942230278533 l -12.016655055489606 39.88377772023562" fill="red" stroke="none" /><path d="M 106.40334571778207 80.00007090966166 l 12.710817941406054 -39.70041111514033 a62.68557946641413,62.68557946641413 0 0,0 1.0248112489765697,0.3378641563073862 l -13.392312012625041 39.4757332345737" fill="red" stroke="none" /><path d="M 107.76421540070413 80.48803036053334 l 19.21302931594743 -48.28357088868902 a72.9657936844855,72.9657936844855 0 0,0 1.162991814975384,0.47441356231387793 l -20.041305000511205 47.94569644019157" fill="red" stroke="none" /><path d="M 108.76106565485865 80.91482961587045 l 19.996489360282524 -43.56050069249059 a68.93095875649021,68.93095875649021 0 0,0 1.074081505768208,0.5042956688187913 l -20.74334907735033 43.2098400410318" fill="red" stroke="none" /><path d="M 110.05341064243156 81.56283822128135 l 22.377891443622246 -41.03928701283785 a67.74390980635471,67.74390980635471 0 0,0 1.018984248566866,0.5670636310966234 l -23.08099978126115 40.64800798418105" fill="red" stroke="none" /><path d="M 110.36928655335952 81.73862282372117 l 18.207032154018325 -32.064451080045025 a57.873093753061426,57.873093753061426 0 0,0 0.8620425156332385,0.4993506660490774 l -18.75627140211689 31.746296256605895" fill="red" stroke="none" /><line stroke="#e1ed5e" stroke-width="0.3" x1="143.23703022742887" x2="145.7803849466894" y1="26.81831364943548" y2="22.513508569990506" /><path d="M 143.74570117128098 25.957352633546492 a86.0,86.0 0 0,1 28.547481713284135,27.462654790039103" fill="none" id="id98" stroke="none" /><text fill="#e1ed5e" style="font-size:6.75px; font-family:Arial;" text-anchor="middle"><textPath startOffset="19.985693538727396" xlink:href="#id98">February</textPath></text><path d="M 111.60114157652 82.49532879139004 l 20.086723334429813 -30.30835244172412 a57.36031740848382,57.36031740848382 0 0,0 0.8183277058539271,0.5525385199287378 l -20.60545573469028 29.958102009496713" fill="red" stroke="none" /><path d="M 112.19680574252982 82.90503203632743 l 23.999803181564673 -33.63797662962509 a62.321955719557195,62.321955719557195 0 0,0 0.8679213259131566,0.6305817542387058 l -24.57526982383162 33.21987564056971" fill="red" stroke="none" /><path d="M 112.48926042617603 83.11751280151076 l 24.315884080075357 -32.86924827361549 a61.885812951049864,61.885812951049864 0 0,0 0.8509412627335678,0.6409113172284536 l -24.87807149656731 32.445820366881186" fill="red" stroke="none" /><path d="M 113.89432698308785 84.25364557470407 l 34.028805243978404 -38.56463351505 a72.43141592920352,72.43141592920352 0 0,0 0.9277740494200253,0.8329647020545691 l -34.68759028099442 37.97316980422613" fill="red" stroke="none" /><path d="M 114.68862486808459 84.99185889309783 l 33.49548965260966 -34.22410468412357 a68.88775593508146,68.88775593508146 0 0,0 0.8403131846370914,0.836704612771609 l -34.07963863741408 33.64246422070184" fill="red" stroke="none" /><path d="M 115.19652480421416 85.50635884689758 l 30.285364343022753 -28.884577798801132 a62.85119028181432,62.85119028181432 0 0,0 0.7399460995579509,0.7893229077586298 l -30.778077764551167 28.35898547416445" fill="red" stroke="none" /><path d="M 115.9244219780498 86.31012108654704 l 27.40999518215085 -23.563776165891838 a57.14636057865003,57.14636057865003 0 0,0 0.6348399714684407,0.7514502873839161 l -27.81154576710641 23.088466928878812" fill="red" stroke="none" /><path d="M 116.38621287248628 86.86637796730983 l 21.84110463930676 -17.505741890534008 a48.990799399144436,48.990799399144436 0 0,0 0.5217424940027777,0.6625599836037113 l -22.1392012139035 17.12718951297726" fill="red" stroke="none" /><path d="M 117.04232023915458 87.72973835380427 l 29.63929568876186 -21.339929540492573 a57.52232798876661,57.52232798876661 0 0,0 0.571627806226547,0.8085269934050803 l -30.00223611479229 20.8265760467557" fill="red" stroke="none" /><path d="M 117.45458315368197 88.32363383020206 l 32.13206763086173 -21.49497264685519 a59.658810371289555,59.658810371289555 0 0,0 0.5636432718193987,0.8584673723231 l -32.49730753803905 20.938687210554416" fill="red" stroke="none" /><line stroke="#e1ed5e" stroke-width="0.3" x1="172.23445277983987" x2="176.4835382374775" y1="55.19839476539836" y2="52.563006222186495" /><path d="M 173.08426987136738 54.67131705675599 a86.0,86.0 0 0,1 12.851231095245387,41.99856678651699" fill="none" id="id99" stroke="none" /><text fill="#e1ed5e" style="font-size:6.75px; font-family:Arial;" text-anchor="middle"><textPath startOffset="22.20632615414155" xlink:href="#id99">March</textPath></text><path d="M 118.21658344932153 89.55222093294921 l 35.86328521022423 -20.568713202310622 a62.343042810959076,62.343042810959076 0 0,0 0.5258854120257199,0.9354914681225859 l -36.21202826354238 19.94833822425324" fill="red" stroke="none" /><path d="M 118.56541770881063 90.18545643968196 l 35.005903534089896 -18.505749264158453 a60.59641445971982,60.59641445971982 0 0,0 0.4795501175012075,0.9263381892756062 l -35.31926308475122 17.9004383526225" fill="red" stroke="none" /><path d="M 119.196687751892 91.48605970444005 l 38.616071625126125 -17.126648748713777 a63.24361590961042,63.24361590961042 0 0,0 0.4327950071120122,0.9989505474597197 l -38.90515734208082 16.459399056667454" fill="red" stroke="none" /><path d="M 119.34039704204932 91.81776055985345 l 29.776051632530404 -12.597196609243678 a53.33113999281586,53.33113999281586 0 0,0 0.35040670155451364,0.8485376218245059 l -29.988480020971114 12.08278441696587" fill="red" stroke="none" /><path d="M 119.61058180528143 92.48833698450437 l 37.080348701015915 -14.203305475826784 a60.707507429056584,60.707507429056584 0 0,0 0.3653881134541071,0.9790584845162538 l -37.319341402971645 13.562923854281198" fill="red" stroke="none" /><path d="M 119.97218684219823 93.5106431181261 l 49.03206762225981 -15.931484517495981 a72.55536688110243,72.55536688110243 0 0,0 0.375714203405038,1.1911166979585792 l -49.299037309433054 15.085117653110983" fill="red" stroke="none" /><path d="M 120.28053869075195 94.5502522615342 l 43.27835035437252 -11.629675895927946 a65.81366946412828,65.81366946412828 0 0,0 0.2845772666865856,1.0965922949164266 l -43.47212395292941 10.882987175462668" fill="red" stroke="none" /><path d="M 120.45610955862082 95.25157060432595 l 45.12244491225185 -10.474168766647216 a67.32216797831694,67.32216797831694 0 0,0 0.2523158332897729,1.1310824064749805 l -45.296055132543664 9.695908190622271" fill="red" stroke="none" /><path d="M 120.6074358757038 95.95851677861258 l 42.84540491689857 -8.402742880270262 a64.66159422656173,64.66159422656173 0 0,0 0.20480567289591312,1.0940800940436937 l -42.98369631370434 7.663984708764006" fill="red" stroke="none" /><path d="M 120.67395015179393 96.31383870115 l 39.10467240733756 -6.972355499252615 a60.72139405022369,60.72139405022369 0 0,0 0.17461199774238162,1.0305698948939928 l -39.21889626660016 6.298199816042784" fill="red" stroke="none" /><path d="M 120.78858239683441 97.02765380044208 l 51.238462103734726 -7.326062220020318 a72.759551644189,72.759551644189 0 0,0 0.16659858808621905,1.2413529901767482 l -51.35697669087878 6.4429908877789055" fill="red" stroke="none" /><path d="M 120.91429891909075 98.10471618934814 l 25.934741441189708 -2.350243523681347 a47.04101492342357,47.04101492342357 0 0,0 0.06613858320328245,0.8070582379681509 l -25.971354508212485 1.9034713685054274" fill="red" stroke="none" /><path d="M 120.96714384426684 98.82574320788733 l 41.881224512230574 -2.3455418015329577 a62.94685367207654,62.94685367207654 0 0,0 0.05127588282777678,1.082352844476861 l -41.915394003291844 1.6242778504330968" fill="red" stroke="none" /><line stroke="#e1ed5e" stroke-width="0.3" x1="184.98032266829074" x2="189.97916517819016" y1="98.17113171792111" y2="98.06355123074" /><path d="M 185.9800911702706 98.14961562048488 a86.0,86.0 0 0,1 -9.607161424134198,41.387399972396054" fill="none" id="id100" stroke="none" /><text fill="#e1ed5e" style="font-size:6.75px; font-family:Arial;" text-anchor="middle"><textPath startOffset="21.466115282336823" xlink:href="#id100">April</textPath></text><path d="M 120.99513854157772 99.54816195383933 l 47.863300808191816 -1.0300699029513778 a68.87438363321685,68.87438363321685 0 0,0 0.015306488485140551,1.1855044015162755 l -47.873940303794676 0.20602924337463951" fill="red" stroke="none" /><path d="M 120.99980553446 99.90962569577887 l 49.27596173916036 -0.2120629521876265 a70.27641805179113,70.27641805179113 0 0,0 -0.00520615304986623,1.2097266205484745 l -49.272311288820994 -0.6361731465645327" fill="red" stroke="none" /><path d="M 120.9764740272857 100.99374915477107 l 47.47551533166655 2.2491269586964577 a68.52876106194691,68.52876106194691 0 0,0 -0.06596268239135904,1.1778080053213509 l -47.42976629838766 -3.0660066803532318" fill="red" stroke="none" /><path d="M 120.95626037817324 101.35467743843564 l 35.21497576332875 2.276404869035027 a56.28847598210495,56.28847598210495 0 0,0 -0.07082548776128514,0.9663575093907227 l -35.17057371690313 -2.88223551492252" fill="red" stroke="none" /><path d="M 120.8583938346157 102.4346265915055 l 47.79319205151291 5.578501258732555 a69.1176566632923,69.1176566632923 0 0,0 -0.14810429686869925,1.1805369671610706 l -47.69008624539736 -6.40035598018102" fill="red" stroke="none" /><path d="M 120.81339534386255 102.79330883721812 l 35.787444898717 4.802935054348078 a57.10830095026614,57.10830095026614 0 0,0 -0.13914287680713783,0.9731649563122967 l -35.69946797089326 -5.418245482640783" fill="red" stroke="none" /><path d="M 120.5718875245553 104.21870165774334 l 58.79040103084917 12.05621807878324 a81.01386212977174,81.01386212977174 0 0,0 -0.29190436927117214,1.363680033266575 l -58.57416262285355 -13.066411931465986" fill="red" stroke="none" /><path d="M 120.49622156327973 104.57218783832717 l 50.228727406932705 11.204756734093362 a72.46330372595762,72.46330372595762 0 0,0 -0.28205283035058276,1.215076211141914 l -50.02841401065157 -12.06770160258384" fill="red" stroke="none" /><path d="M 120.32669344350535 105.2749913415812 l 49.75303879626238 12.911438330934892 a72.40107109035691,72.40107109035691 0 0,0 -0.32343255970962487,1.2036128745450139 l -49.52341816021098 -13.765942138655454" fill="red" stroke="none" /><path d="M 120.13307415673323 105.97154293290107 l 44.24519667793396 13.123286065509905 a67.15038533128694,67.15038533128694 0 0,0 -0.338224427807003,1.1053369996077091 l -44.012745477620825 -13.882950037669671" fill="red" stroke="none" /><path d="M 120.02730092923936 106.31721596034902 l 30.506432615045266 9.622650785044913 a52.98808901805832,52.98808901805832 0 0,0 -0.281865721293239,0.8674934901182361 l -30.33627464273578 -10.146343175140945" fill="red" stroke="none" /><path d="M 119.79798401119884 107.00284435728193 l 52.1348097557745 18.44086539870301 a76.30012572249616,76.30012572249616 0 0,0 -0.4486292575704439,1.23443503823463 l -51.80965623719883 -19.335548233943772" fill="red" stroke="none" /><path d="M 119.54520255179757 107.68017299344265 l 40.250588362535474 15.816233210829076 a64.24653854945629,64.24653854945629 0 0,0 -0.4133114000496763,1.025804999502083 l -39.972374348228406 -16.506737578173972" fill="red" stroke="none" /><path d="M 119.26925614724726 108.34839909993367 l 49.053448938473764 21.252391158083118 a74.45937693890214,74.45937693890214 0 0,0 -0.5196516912262272,1.1716773796751534 l -48.68035616251626 -22.09361687425096" fill="red" stroke="none" /><path d="M 118.97047184881838 109.00673069616215 l 42.31884019881558 20.09198295552118 a67.84625934754922,67.84625934754922 0 0,0 -0.5099671947087687,1.050683468393675 l -41.96671974749209 -20.81745537988013" fill="red" stroke="none" /><path d="M 118.64920377521936 109.65438752849418 l 51.80630420446043 26.819275677255316 a79.33666688436796,79.33666688436796 0 0,0 -0.638272898852912,1.207371785207482 l -51.33697879738262 -27.70706247754893" fill="red" stroke="none" /><line stroke="#e1ed5e" stroke-width="0.3" x1="174.80103733775053" x2="179.2010983576182" y1="140.37084112569926" y2="142.7455964860345" /><path d="M 175.68104954172406 140.8457921977663 a86.0,86.0 0 0,1 -30.038265399797805,32.042727171017184" fill="none" id="id101" stroke="none" /><text fill="#e1ed5e" style="font-size:6.75px; font-family:Arial;" text-anchor="middle"><textPath startOffset="22.206326154141568" xlink:href="#id101">May</textPath></text><path d="M 118.30583269289576 110.29060199501025 l 48.32024287648728 27.163166848844476 a76.43179146393234,76.43179146393234 0 0,0 -0.6545764345374204,1.141309188027858 l -47.84551444579748 -27.990895882730648" fill="red" stroke="none" /><path d="M 117.94076556474637 110.91462005526583 l 44.51636306847341 27.082411136869666 a73.1072314926689,73.1072314926689 0 0,0 -0.6633101283492058,1.0694671294417188 l -44.04358830045624 -27.844674597676658" fill="red" stroke="none" /><path d="M 117.35343817320211 111.8261652097733 l 42.66589535638438 29.07630881393203 a72.63148613787021,72.63148613787021 0 0,0 -0.7129613649488784,1.0270740213801393 l -42.159073084273366 -29.80642409749919" fill="red" stroke="none" /><path d="M 117.14729908036423 112.12312394758627 l 31.450480378214017 22.235459360059142 a59.51685824380367,59.51685824380367 0 0,0 -0.5986268169241917,0.8314402913267048 l -31.063073768914222 -22.773533256836977" fill="red" stroke="none" /><path d="M 116.71984013943494 112.70617746262583 l 42.07573459900432 31.975290805822414 a73.84682264964243,73.84682264964243 0 0,0 -0.7778292257241544,1.005449126683269 l -41.5190985560621 -32.69481792661894" fill="red" stroke="none" /><path d="M 116.27256486870786 113.27417163493432 l 40.40735099778157 32.96186660094591 a73.14631975965776,73.14631975965776 0 0,0 -0.8042751345509964,0.9688012107002562 l -39.833979863337035 -33.65252906875994" fill="red" stroke="none" /><path d="M 115.80600337817218 113.82643327865902 l 29.73206632581346 26.008372986825417 a60.50229402736505,60.50229402736505 0 0,0 -0.6924376640691137,0.7779610560629269 l -29.279969812096006 -26.516308212629212" fill="red" stroke="none" /><path d="M 115.32070863581623 114.36230785411682 l 26.55921363012306 24.8977780066477 a57.40454886849753,57.40454886849753 0 0,0 -0.6820028030350577,0.7150772123709832 l -26.12670427570904 -25.35126233560119" fill="red" stroke="none" /><path d="M 114.81725581225074 114.88116024355365 l 30.852992976726938 30.98605695261783 a64.72691277797733,64.72691277797733 0 0,0 -0.7962952856551551,0.7793425349548204 l -30.315047738695988 -31.512549590495222" fill="red" stroke="none" /><path d="M 114.29624159901734 115.38237550388516 l 21.350176109050718 22.9722213148713 a52.36164810763152,52.36164810763152 0 0,0 -0.6654927366944944,0.6079118362899297 l -20.95158382288936 -23.336325917747814" fill="red" stroke="none" /><path d="M 113.75828350139079 115.86535959552629 l 28.541148706890322 32.912215208999804 a64.56387355908959,64.56387355908959 0 0,0 -0.8458928848580901,0.72088826773029 l -27.970390345455183 -33.398627866953035" fill="red" stroke="none" /><path d="M 113.20401910651253 116.32954008644616 l 33.23781849720303 41.10553651565056 a73.86225222871698,73.86225222871698 0 0,0 -0.9955312887790227,0.790910264830369 l -32.525329715706654 -41.67158069448606" fill="red" stroke="none" /><path d="M 112.92097659922987 116.55440617244103 l 32.605075807769936 41.77375170211401 a73.99186069294319,73.99186069294319 0 0,0 -1.0107685313388997,0.7750142084493918 l -31.881178547937544 -42.32880525239077" fill="red" stroke="none" /><path d="M 112.34349029814194 116.9893568818739 l 31.0864654187523 42.786848973723004 a73.88745387453875,73.88745387453875 0 0,0 -1.035383737623943,0.7387188056514278 l -30.345354353279472 -43.31561204121865" fill="red" stroke="none" /><path d="M 111.7513745106137 117.40417183066458 l 29.40184462467609 43.54509810951813 a73.54183130326876,73.54183130326876 0 0,0 -1.0552387844129618,0.6993547258967237 l -28.647931141523163 -44.04475085650617" fill="red" stroke="none" /><path d="M 111.1453310114006 117.79835938074945 l 24.780555102569487 39.57291397795556 a67.69144923750122,67.69144923750122 0 0,0 -0.9928749691369827,0.6099048996588866 l -24.095700933500197 -39.99360734444282" fill="red" stroke="none" /><line stroke="#e1ed5e" stroke-width="0.3" x1="143.8653032363475" x2="146.44561519142675" y1="172.8068346515853" y2="177.08958963109032" /><path d="M 144.38136562736335 173.6633856474863 a86.0,86.0 0 0,1 -40.68145358897372,12.25698825130547" fill="none" id="id102" stroke="none" /><text fill="#e1ed5e" style="font-size:6.75px; font-family:Arial;" text-anchor="middle"><textPath startOffset="21.466115282336833" xlink:href="#id102">June</textPath></text><path d="M 110.5260780823613 118.17145234162733 l 31.578234247083873 54.514357024881974 a84.0,84.0 0 0,0 -1.2574049323152037,0.7139873368214862 l -30.635180547847472 -55.049847527498095" fill="red" stroke="none" /><line stroke="#e1ed5e" stroke-width="0.3" x1="102.19456741930631" x2="102.32365962044197" y1="184.97166512339345" y2="189.96999836594603" /><path d="M 102.22038585953345 185.97133177190398 a86.0,86.0 0 0,1 -42.740103519485714,-10.115201625700543" fill="none" id="id103" stroke="none" /><text fill="#e1ed5e" style="font-size:6.75px; font-family:Arial;" text-anchor="middle"><textPath startOffset="22.20632615414155" xlink:href="#id103">July</textPath></text><line stroke="#e1ed5e" stroke-width="0.3" x1="58.666819895761336" x2="56.23545636021788" y1="174.27360380694188" y2="178.64263932499728" /><path d="M 58.180547188652646 175.14741091055294 a86.0,86.0 0 0,1 -31.652253787137756,-30.449443065178592" fill="none" id="id104" stroke="none" /><text fill="#e1ed5e" style="font-size:6.75px; font-family:Arial;" text-anchor="middle"><textPath startOffset="22.20632615414155" xlink:href="#id104">August</textPath></text><line stroke="#e1ed5e" stroke-width="0.3" x1="26.63291911575756" x2="22.317208475507996" y1="142.92168965132927" y2="145.44649492493687" /><path d="M 25.769776987707644 143.4266507060508 a86.0,86.0 0 0,1 -11.730757126820373,-40.83630448921669" fill="none" id="id105" stroke="none" /><text fill="#e1ed5e" style="font-size:6.75px; font-family:Arial;" text-anchor="middle"><textPath startOffset="21.46611528233685" xlink:href="#id105">September</textPath></text><line stroke="#e1ed5e" stroke-width="0.3" x1="15.007084014347285" x2="10.007500721073583" y1="101.09737516637583" y2="101.16192664675087" /><path d="M 14.007167355692545 101.11028546245083 a86.0,86.0 0 0,1 10.666146001902534,-42.60595125391555" fill="none" id="id106" stroke="none" /><text fill="#e1ed5e" style="font-size:6.75px; font-family:Arial;" text-anchor="middle"><textPath startOffset="22.20632615414155" xlink:href="#id106">October</textPath></text><line stroke="#e1ed5e" stroke-width="0.3" x1="26.266209847984243" x2="21.928928074336255" y1="57.711370442889674" y2="55.22380399835377" /><path d="M 25.398753493254645 57.213857153982495 a86.0,86.0 0 0,1 29.58750427330803,-30.492523968695096" fill="none" id="id107" stroke="none" /><text fill="#e1ed5e" style="font-size:6.75px; font-family:Arial;" text-anchor="middle"><textPath startOffset="21.46611528233685" xlink:href="#id107">November</textPath></text><line stroke="#e1ed5e" stroke-width="0.3" x1="56.762969772571076" x2="54.21961505331055" y1="26.818313649435495" y2="22.513508569990535" /><path d="M 56.25429882871897 25.957352633546506 a86.0,86.0 0 0,1 42.265352541879196,-11.944610805530505" fill="none" id="id108" stroke="none" /><text fill="#e1ed5e" style="font-size:6.75px; font-family:Arial;" text-anchor="middle"><textPath startOffset="22.20632615414155" xlink:href="#id108">December</textPath></text></svg>