<?xml version="1.0" encoding="utf-8" ?>
<svg baseProfile="full" height="200mm" version="1.1" viewBox="0,0,200,200" width="200mm" xmlns="http://www.w3.org/2000/svg" xmlns:ev="http://www.w3.org/2001/xml-events" xmlns:xlink="http://www.w3.org/1999/xlink"><defs /><rect fill="#1a1a1a" height="200" width="200" x="0" y="0" /><text alignment-baseline="middle" fill="#e1ed5e" style="dominant-baseline: central; font-size:9.0px; font-family:Arial;" text-anchor="middle" x="100.0" y="100.0">2026</text><line stroke="#e1ed5e" stroke-width="0.3" x1="100.0" x2="100.0" y1="15.0" y2="10.0" /><path d="M 100.0 14.0 a86.0,86.0 0 0,1 42.46469731375804,11.215312516191453" fill="none" id="id109" stroke="none" /><text fill="#e1ed5e" style="font-size:6.75px; font-family:Arial;" text-anchor="middle"><textPath startOffset="22.20632615414155" xlink:href="#id109">January</textPath></text><path d="M 100.72285384407766 79.0124445844662 l 2.1685615322329816 -62.9626662466014 a84.0,84.0 0 0,0 1.4446366704426739,0.062209093903220936 l -3.2520390350649873 62.916009426173986" fill="#4dd2ff" stroke="none" /><path d="M 102.16513564639614 79.11191278185805 l 3.247245310935281 -31.327710754021137 a52.49555624523883,52.49555624523883 0 0,0 0.8980072248127512,0.10090157499378627 l -3.786019239257757 31.26717322555675" fill="#e6ff1a" stroke="none" /><path d="M 102.52436894288641 79.15227682838746 l 2.3883323579214477 -19.7242530574072 a40.86832378748977,40.86832378748977 0 0,0 0.6976520070660724,0.09057525326384637 l -2.727499093495366 19.680219480979215" fill="#ff5608" stroke="none" /><path d="M 102.88285421437855 79.19881850522331 l 3.4089468436311794 -24.597193172913855 a45.83229410602941,45.83229410602941 0 0,0 0.7805261938301432,0.11502927156878393 l -3.8318420178899784 24.5348694171841" fill="#ffad10" stroke="none" /><path d="M 105.01212808612495 79.60689891045804 l 7.4088085816712015 -30.144597217566037 a52.041700758965106,52.041700758965106 0 0,0 0.8680831044561553,0.22129371200247333 l -7.926600574812382 30.012600509394694" fill="#edff1a" stroke="none" /><path d="M 107.76421540070413 80.48803036053334 l 11.072161529935094 -27.825049726952663 a50.947055836131256,50.947055836131256 0 0,0 0.8120381612063912,0.33125075502005075 l -11.549483560729872 27.63033808574903" fill="#feff18" stroke="none" /><path d="M 108.43124777332544 80.76684994638697 l 9.456756594554053 -21.57251494600718 a44.55427023671811,44.55427023671811 0 0,0 0.6997521439396645,0.3139583897003188 l -9.826690856960496 21.40653622579033" fill="#ff970d" stroke="none" /><path d="M 109.08828744355905 81.06846463323043 l 13.550505034982315 -28.226645217869184 a52.31069604717433,52.31069604717433 0 0,0 0.808396376666281,0.3966765912032264 l -14.034372678659027 27.989213466531126" fill="#e9ff1a" stroke="none" /><path d="M 110.36928655335952 81.73862282372117 l 12.354175660412189 -21.756970479680454 a46.0198205569506,46.0198205569506 0 0,0 0.6854833448368287,0.39707619821787543 l -12.726855737714347 21.541090124072532" fill="#ffb010" stroke="none" /><line stroke="#e1ed5e" stroke-width="0.3" x1="143.23703022742887" x2="145.7803849466894" y1="26.81831364943548" y2="22.513508569990506" /><path d="M 143.74570117128098 25.957352633546492 a86.0,86.0 0 0,1 28.547481713284135,27.462654790039103" fill="none" id="id110" stroke="none" /><text fill="#e1ed5e" style="font-size:6.75px; font-family:Arial;" text-anchor="middle"><textPath startOffset="19.985693538727396" xlink:href="#id110">February</textPath></text><path d="M 111.2981086023043 82.29822771554956 l 16.52638860796673 -25.893393143954818 a51.71789916203481,51.71789916203481 0 0,0 0.7462966096790521,0.48541207452600504 l -16.969652243430062 25.605082145269286" fill="#f2ff19" stroke="none" /><path d="M 111.60114157652 82.49532879139004 l 17.077830932904426 -25.768310253342694 a51.913720621843524,51.913720621843524 0 0,0 0.7406241425806962,0.5000727271454201 l -17.518859769891666 25.4705256138986" fill="#efff19" stroke="none" /><path d="M 112.77801427241765 83.33499621200491 l 12.71402145201999 -16.581544764425725 a41.89483113731907,41.89483113731907 0 0,0 0.5685077610109026,0.44372932498969214 l -12.997561768190323 16.36023705021281" fill="#ff6809" stroke="none" /><path d="M 113.6212207817346 84.01681056812373 l 20.230450937022844 -23.738483855449108 a52.18952966735321,52.18952966735321 0 0,0 0.6787278189458495,0.5885860762948505 l -20.636072554615456 23.386732785734583" fill="#ebff1a" stroke="none" /><path d="M 114.16331599549186 84.49514656593476 l 16.373948957912106 -17.92487570072576 a45.277713511835906,45.277713511835906 0 0,0 0.5709134084633185,0.5306017927756714 l -16.68007025017027 17.640369321875447" fill="#ffa30f" stroke="none" /><path d="M 114.68862486808459 84.99185889309783 l 19.152652257599392 -19.56927283765287 a48.38212058798634,48.38212058798634 0 0,0 0.5901793907918872,0.5876449729294341 l -19.486667448558602 19.23669201407332" fill="#ffd714" stroke="none" /><path d="M 115.68641384162765 86.03803664274999 l 22.300572114240154 -19.84900907551379 a50.854625737099006,50.854625737099006 0 0,0 0.5763721285777587,0.6588929789612304 l -22.63893610639576 19.462200540349613" fill="#fffe18" stroke="none" /><path d="M 116.38621287248628 86.86637796730983 l 24.828050582193796 -19.89979226393206 a52.818765341534295,52.818765341534295 0 0,0 0.5625095874618621,0.7143300523335896 l -25.166914250249622 19.469469817645432" fill="#e1ff1b" stroke="none" /><path d="M 116.82858285166822 87.43820079747576 l 12.17927316333666 -9.091293382161481 a36.19823378382191,36.19823378382191 0 0,0 0.36842456764643255,0.5025306962258772 l -12.333960343496718 8.880300242264111" fill="#ff0000" stroke="none" /><path d="M 117.2510076193507 88.02491185347247 l 25.33600289528768 -17.587428783662332 a51.84202804503005,51.84202804503005 0 0,0 0.5025604076230239,0.7374453854896382 l -25.63498776857944 17.14870537490229" fill="#f0ff19" stroke="none" /><line stroke="#e1ed5e" stroke-width="0.3" x1="172.23445277983987" x2="176.4835382374775" y1="55.19839476539836" y2="52.563006222186495" /><path d="M 173.08426987136738 54.67131705675599 a86.0,86.0 0 0,1 12.851231095245387,41.99856678651699" fill="none" id="id111" stroke="none" /><text fill="#e1ed5e" style="font-size:6.75px; font-family:Arial;" text-anchor="middle"><textPath startOffset="22.20632615414155" xlink:href="#id111">March</textPath></text><path d="M 118.21658344932153 89.55222093294921 l 26.78418037419994 -15.361563260211737 a51.876689332167146,51.876689332167146 0 0,0 0.43759805286856035,0.7784381075502681 l -27.044636068360933 14.898241642726674" fill="#f0ff19" stroke="none" /><path d="M 118.73160827565052 90.50648371742162 l 27.55226516475717 -13.963983984416084 a51.88883559518099,51.88883559518099 0 0,0 0.3969248513272672,0.8001762795930357 l -27.788550029037847 13.487648116324097" fill="#efff19" stroke="none" /><path d="M 118.89224826269711 90.83032412892265 l 21.27063642815022 -10.324067252640615 a44.64373783257625,44.64373783257625 0 0,0 0.32960217843894013,0.6942262468277676 l -21.445196800430914 9.956398590172308" fill="#ff980e" stroke="none" /><path d="M 119.196687751892 91.48605970444005 l 25.630066899169982 -11.36721408250408 a49.03772254041701,49.03772254041701 0 0,0 0.33557982367690015,0.7745645006752929 l -25.821937432689563 10.924350437242184" fill="#ffe115" stroke="none" /><path d="M 119.47837535516314 92.15188598940014 l 17.289716667920597 -6.966272348008821 a39.640366221820955,39.640366221820955 0 0,0 0.2495577190274428,0.6350971743631998 l -17.40706793682974 6.667626168749837" fill="#ff4006" stroke="none" /><path d="M 119.85752413597 93.16781622104841 l 31.083583191705422 -10.694623932969382 a53.87193521993059,53.87193521993059 0 0,0 0.2941477086699588,0.8794642090961386 l -31.26306819414715 10.157986620950929" fill="#d1ff1c" stroke="none" /><path d="M 119.97218684219823 93.5106431181261 l 28.501910404829903 -9.260832070794846 a50.968682109302264,50.968682109302264 0 0,0 0.2639316513784838,0.8367354606974621 l -28.657097539976593 8.768846443670965" fill="#feff18" stroke="none" /><path d="M 120.28053869075195 94.5502522615342 l 26.907204564904763 -7.230452773569269 a48.86174985187483,48.86174985187483 0 0,0 0.21127743418028233,0.8141381393861397 l -27.02767833095535 6.766218208634278" fill="#ffdf14" stroke="none" /><path d="M 120.37134235888165 94.90015583598534 l 30.11358350616162 -7.538756179928885 a52.042885760234746,52.042885760234746 0 0,0 0.210072842487675,0.8708875544385183 l -30.23888914891012 7.0192833938309604" fill="#edff1a" stroke="none" /><path d="M 120.6074358757038 95.95851677861258 l 30.34949754698882 -5.9520740888635775 a51.92764438676185,51.92764438676185 0 0,0 0.1644728416881773,0.8786204969687895 l -30.447456112586856 5.428775514432226" fill="#efff19" stroke="none" /><path d="M 120.78858239683441 97.02765380044208 l 30.64443388528649 -4.38153332717892 a51.9560844172333,51.9560844172333 0 0,0 0.11896459105092325,0.886424384039743 l -30.71531447539525 3.853390601074512" fill="#eeff19" stroke="none" /><path d="M 120.83666639777658 97.38593545837742 l 29.763810805705855 -3.734019682681145 a50.99712213977372,50.99712213977372 0 0,0 0.10177482793860844,0.8719445729380019 l -29.823675986648052 3.2211313714182905" fill="#fdff18" stroke="none" /><path d="M 120.91429891909075 98.10471618934814 l 31.61839796240838 -2.8653046419930273 a52.747961515673055,52.747961515673055 0 0,0 0.07416241862950824,0.9049693537979623 l -31.663034864857384 2.320621370987296" fill="#e2ff1b" stroke="none" /><path d="M 120.96714384426684 98.82574320788733 l 23.78007641147304 -1.3317939940000862 a44.81734051857913,44.81734051857913 0 0,0 0.0365077611830289,0.770621137712092 l -23.799477780889564 0.9222617496649944" fill="#ff9b0e" stroke="none" /><path d="M 120.98425023603335 99.18683210126433 l 27.698760348801855 -1.073364189669314 a48.71954969951753,48.71954969951753 0 0,0 0.025260635386272982,0.8382775100212905 l -27.713132678643774 0.5964165322230245" fill="#ffdc14" stroke="none" /><line stroke="#e1ed5e" stroke-width="0.3" x1="184.98032266829074" x2="189.97916517819016" y1="98.17113171792111" y2="98.06355123074" /><path d="M 185.9800911702706 98.14961562048488 a86.0,86.0 0 0,1 -9.607161424134198,41.387399972396054" fill="none" id="id112" stroke="none" /><text fill="#e1ed5e" style="font-size:6.75px; font-family:Arial;" text-anchor="middle"><textPath startOffset="21.466115282336823" xlink:href="#id112">April</textPath></text><path d="M 120.99980553446 99.90962569577887 l 30.821597604678185 -0.13264315395376197 a51.8218830234461,51.8218830234461 0 0,0 -0.003839021137268232,0.8920533111720544 l -30.819314286251412 -0.39791963542197717" fill="#f0ff19" stroke="none" /><path d="M 120.9904718944345 100.63252640178507 l 31.393023564037584 0.9459966567678529 a52.40727365065034,52.40727365065034 0 0,0 -0.03493285972344966,0.9014618887894404 l -31.372088571462932 -1.4862357925712995" fill="#e7ff1a" stroke="none" /><path d="M 120.92983693683757 101.71520430193887 l 26.940455260952383 2.2077756696922997 a48.03076771153683,48.03076771153683 0 0,0 -0.0746201517957573,0.8234271570692211 l -26.89846051287955 -2.6711842153100913" fill="#ffd113" stroke="none" /><path d="M 120.89721153311464 102.0752229133903 l 26.77641320347135 2.6590641593590774 a47.908120080128654,47.908120080128654 0 0,0 -0.08855633147246839,0.8199216461134914 l -26.72667457049783 -3.11958212735736" fill="#ffcf13" stroke="none" /><path d="M 120.81339534386255 102.79330883721812 l 30.284626526422908 4.064416858014105 a51.55614648872837,51.55614648872837 0 0,0 -0.1256151981439478,0.8785524032491795 l -30.21017727726236 -4.585114733243693" fill="#f5ff19" stroke="none" /><path d="M 120.70491114924044 103.5080841355445 l 30.436680887558197 5.156961872023799 a51.870468075501506,51.870468075501506 0 0,0 -0.15673170175819554,0.8790346180362949 l -30.343402743460814 -5.680115240793311" fill="#f0ff19" stroke="none" /><path d="M 120.5718875245553 104.21870165774334 l 31.07171669587841 6.371914224077365 a52.71833648393195,52.71833648393195 0 0,0 -0.18995160032880828,0.8873906385923016 l -30.957431056825158 -6.905818682085835" fill="#e3ff1b" stroke="none" /><path d="M 120.41448212921028 104.9243191809786 l 30.130411700538442 7.2679661099726935 a51.99459695849674,51.99459695849674 0 0,0 -0.2173589205116407,0.8682408407189351 l -30.00084146573174 -7.785534790089025" fill="#eeff19" stroke="none" /><path d="M 120.23288151984713 105.62410040840565 l 43.375135289952446 12.056914179998392 a66.01967948537089,66.01967948537089 0 0,0 -0.31377381538379745,1.0922878146083628 l -43.161168837682546 -12.801759470111337" fill="#30ff36" stroke="none" /><path d="M 120.02730092923936 106.31721596034902 l 29.60444517350981 9.338136686922827 a52.042293259599916,52.042293259599916 0 0,0 -0.2768346396182023,0.8520094128727916 l -29.439318282875362 -9.846344999773413" fill="#edff1a" stroke="none" /><path d="M 119.67450827220406 107.3425965602758 l 27.86421732036484 10.399025145667233 a50.741458115847976,50.741458115847976 0 0,0 -0.3124362283878869,0.8156724021158754 l -27.681086812383445 -10.877121114616253" fill="#fffd17" stroke="none" /><path d="M 119.41010516605496 108.01547362559984 l 28.470582126803098 11.757030587446643 a51.802626752814376,51.802626752814376 0 0,0 -0.34744519760928344,0.8212578134961627 l -28.263985948001505 -12.24536292660897" fill="#f1ff19" stroke="none" /><path d="M 119.26925614724726 108.34839909993367 l 19.166502728749126 8.303881214035542 a41.888017380018624,41.888017380018624 0 0,0 -0.2923363042844342,0.6591411916309697 l -19.02072533973342 -8.6325707421592" fill="#ff6809" stroke="none" /><path d="M 118.97047184881838 109.00673069616215 l 27.9383993895726 13.264490276733689 a51.92734813644444,51.92734813644444 0 0,0 -0.39031251409389234,0.8041593857813193 l -27.705933618863995 -13.743438618480283" fill="#efff19" stroke="none" /><line stroke="#e1ed5e" stroke-width="0.3" x1="174.80103733775053" x2="179.2010983576182" y1="140.37084112569926" y2="142.7455964860345" /><path d="M 175.68104954172406 140.8457921977663 a86.0,86.0 0 0,1 -30.038265399797805,32.042727171017184" fill="none" id="id113" stroke="none" /><text fill="#e1ed5e" style="font-size:6.75px; font-family:Arial;" text-anchor="middle"><textPath startOffset="22.206326154141568" xlink:href="#id113">May</textPath></text><path d="M 118.48025628344425 109.97397251340804 l 26.765947466476515 14.44583994027844 a51.41542758795813,51.41542758795813 0 0,0 -0.42705064235607465,0.775220961120494 l -26.51332041466893 -14.904431419796738" fill="#f7ff19" stroke="none" /><path d="M 118.12598468904814 110.60418214915192 l 33.834523630695365 19.794094371405986 a60.199249499195886,60.199249499195886 0 0,0 -0.5309548702792856,0.8899109030551603 l -33.48878788471785 -20.37356736834725" fill="#76ff27" stroke="none" /><path d="M 117.75023020441432 111.22182372390056 l 26.332871914431838 16.64783179512324 a52.15397962926389,52.15397962926389 0 0,0 -0.48626169366391697,0.7546889470223735 l -26.04240535739087 -17.098642342067063" fill="#ebff1a" stroke="none" /><path d="M 117.55443506779139 111.5257021239791 l 25.20289494800379 16.547445629030793 a51.14969105324042,51.14969105324042 0 0,0 -0.4895680505191594,0.7318378100607738 l -24.914323792073912 -16.978820353297376" fill="#fbff18" stroke="none" /><path d="M 117.14729908036423 112.12312394758627 l 22.32637073500124 15.78472262317556 a48.34271929577068,48.34271929577068 0 0,0 -0.48623615270383974,0.6753394886899178 l -22.0513547899218 -16.166695717316607" fill="#ffd614" stroke="none" /><path d="M 116.71984013943494 112.70617746262583 l 24.730909327931503 18.794158324017687 a52.06184578054905,52.06184578054905 0 0,0 -0.5483678747477009,0.7088393988448132 l -24.403734635965733 -19.217075716975753" fill="#edff1a" stroke="none" /><path d="M 116.27256486870786 113.27417163493432 l 21.044191612507216 17.166575376205447 a48.15785909770618,48.15785909770618 0 0,0 -0.5295163001058796,0.6378364947394366 l -20.745579312507793 -17.526273128058655" fill="#ffd313" stroke="none" /><path d="M 115.80600337817218 113.82643327865902 l 23.653483598404545 20.691082050054302 a52.42623367096465,52.42623367096465 0 0,0 -0.6000086337659364,0.6741160606838843 l -23.29381611499027 -21.095172280479055" fill="#e7ff1a" stroke="none" /><path d="M 115.32070863581623 114.36230785411682 l 22.551393219672462 21.140670425844363 a51.911054368986825,51.911054368986825 0 0,0 -0.6167365702891712,0.6466458282678812 l -22.184150098004324 -21.525723370694752" fill="#efff19" stroke="none" /><path d="M 114.81725581225074 114.88116024355365 l 22.001804235393113 22.096694463726646 a52.18241965973536,52.18241965973536 0 0,0 -0.6419681240113773,0.6283009257245353 l -21.618186159005944 -22.472145492373755" fill="#ebff1a" stroke="none" /><path d="M 114.55890576462653 115.13401014063108 l 22.624982367822902 23.518712059952303 a53.63463871568434,53.63463871568434 0 0,0 -0.6708522679050339,0.6343326917915336 l -22.21679426552706 -23.90467938848976" fill="#d5ff1c" stroke="none" /><path d="M 114.0293411484842 115.62618273729858 l 19.980817006567168 22.255064901524317 a50.908543294867826,50.908543294867826 0 0,0 -0.6571023791647611,0.5798164496293285 l -19.594772274495817 -22.595704492925936" fill="#ffff18" stroke="none" /><path d="M 113.48314897796784 116.09983520530334 l 19.900987897720864 23.76318960055967 a51.99578195976639,51.99578195976639 0 0,0 -0.69112266355466,0.568746900714105 l -19.488995105621512 -24.10223162013095" fill="#eeff19" stroke="none" /><path d="M 113.20401910651253 116.32954008644616 l 21.177915925511886 26.190936582518546 a54.681883587732415,54.681883587732415 0 0,0 -0.7370141635052243,0.585528625580987 l -20.72394426928931 -26.551599122104662" fill="#c5ff1e" stroke="none" /><path d="M 112.63410532772338 116.77436683061366 l 18.63515386177024 24.74198993230881 a51.974748187230205,51.974748187230205 0 0,0 -0.7192687134247417,0.5320977989052484 l -18.206500177926934 -25.05909767995383" fill="#eeff19" stroke="none" /><path d="M 112.34349029814194 116.9893568818739 l 14.059556896457384 19.351319922119743 a44.91954687808594,44.91954687808594 0 0,0 -0.6294569091253164,0.44910079154341565 l -13.724372659483183 -19.590464975507377" fill="#ff9d0e" stroke="none" /><path d="M 111.7513745106137 117.40417183066458 l 17.340264966787277 25.681502261598684 a51.987486950878875,51.987486950878875 0 0,0 -0.7459592936774172,0.4943811439323701 l -16.895630974369897 -25.976181426622375" fill="#eeff19" stroke="none" /><path d="M 111.1453310114006 117.79835938074945 l 16.445833212912 26.262912204210018 a51.98719070056146,51.98719070056146 0 0,0 -0.762530289183742,0.4684083837018437 l -15.991323723795949 -26.542109054740237" fill="#eeff19" stroke="none" /><line stroke="#e1ed5e" stroke-width="0.3" x1="143.8653032363475" x2="146.44561519142675" y1="172.8068346515853" y2="177.08958963109032" /><path d="M 144.38136562736335 173.6633856474863 a86.0,86.0 0 0,1 -40.68145358897372,12.25698825130547" fill="none" id="id114" stroke="none" /><text fill="#e1ed5e" style="font-size:6.75px; font-family:Arial;" text-anchor="middle"><textPath startOffset="21.466115282336833" xlink:href="#id114">June</textPath></text><path d="M 110.8373102113329 117.98757091392108 l 16.111948921391267 26.742320569723223 a52.22093220099879,52.22093220099879 0 0,0 -0.7739443764666366,0.45725997948909364 l -15.64923667389625 -27.015699121506067" fill="#eaff1a" stroke="none" /><path d="M 109.89434966115114 118.52300852407294 l 14.71687852147295 27.551165628532477 a52.23544846655193,52.23544846655193 0 0,0 -0.7967375883069047,0.4168154500582576 l -14.24045003063955 -27.800410497535452" fill="#eaff1a" stroke="none" /><path d="M 109.57404056367764 118.69057910512821 l 10.95572996590688 21.38793294432723 a45.030640747115086,45.030640747115086 0 0,0 -0.6929274091415094,0.3474481878806007 l -10.58594864908261 -21.57334897311713" fill="#ff9f0e" stroke="none" /><line stroke="#e1ed5e" stroke-width="0.3" x1="102.19456741930631" x2="102.32365962044197" y1="184.97166512339345" y2="189.96999836594603" /><path d="M 102.22038585953345 185.97133177190398 a86.0,86.0 0 0,1 -42.740103519485714,-10.115201625700543" fill="none" id="id115" stroke="none" /><text fill="#e1ed5e" style="font-size:6.75px; font-family:Arial;" text-anchor="middle"><textPath startOffset="22.20632615414155" xlink:href="#id115">July</textPath></text><line stroke="#e1ed5e" stroke-width="0.3" x1="58.666819895761336" x2="56.23545636021788" y1="174.27360380694188" y2="178.64263932499728" /><path d="M 58.180547188652646 175.14741091055294 a86.0,86.0 0 0,1 -31.652253787137756,-30.449443065178592" fill="none" id="id116" stroke="none" /><text fill="#e1ed5e" style="font-size:6.75px; font-family:Arial;" text-anchor="middle"><textPath startOffset="22.20632615414155" xlink:href="#id116">August</textPath></text><line stroke="#e1ed5e" stroke-width="0.3" x1="26.63291911575756" x2="22.317208475507996" y1="142.92168965132927" y2="145.44649492493687" /><path d="M 25.769776987707644 143.4266507060508 a86.0,86.0 0 0,1 -11.730757126820373,-40.83630448921669" fill="none" id="id117" stroke="none" /><text fill="#e1ed5e" style="font-size:6.75px; font-family:Arial;" text-anchor="middle"><textPath startOffset="21.46611528233685" xlink:href="#id117">September</textPath></text><line stroke="#e1ed5e" stroke-width="0.3" x1="15.007084014347285" x2="10.007500721073583" y1="101.09737516637583" y2="101.16192664675087" /><path d="M 14.007167355692545 101.11028546245083 a86.0,86.0 0 0,1 10.666146001902534,-42.60595125391555" fill="none" id="id118" stroke="none" /><text fill="#e1ed5e" style="font-size:6.75px; font-family:Arial;" text-anchor="middle"><textPath startOffset="22.20632615414155" xlink:href="#id118">October</textPath></text><line stroke="#e1ed5e" stroke-width="0.3" x1="26.266209847984243" x2="21.928928074336255" y1="57.711370442889674" y2="55.22380399835377" /><path d="M 25.398753493254645 57.213857153982495 a86.0,86.0 0 0,1 29.58750427330803,-30.492523968695096" fill="none" id="id119" stroke="none" /><text fill="#e1ed5e" style="font-size:6.75px; font-family:Arial;" text-anchor="middle"><textPath startOffset="21.46611528233685" xlink:href="#id119">November</textPath></text><line stroke="#e1ed5e" stroke-width="0.3" x1="56.762969772571076" x2="54.21961505331055" y1="26.818313649435495" y2="22.513508569990535" /><path d="M 56.25429882871897 25.957352633546506 a86.0,86.0 0 0,1 42.265352541879196,-11.944610805530505" fill="none" id="id120" stroke="none" /><text fill="#e1ed5e" style="font-size:6.75px; font-family:Arial;" text-anchor="middle"><textPath startOffset="22.20632615414155" xlink:href="#id120">December</textPath></text></svg>