<?xml version="1.0" encoding="utf-8" ?>
<svg baseProfile="full" height="200mm" version="1.1" viewBox="0,0,200,200" width="200mm" xmlns="http://www.w3.org/2000/svg" xmlns:ev="http://www.w3.org/2001/xml-events" xmlns:xlink="http://www.w3.org/1999/xlink"><defs /><rect fill="#1a1a1a" height="200" width="200" x="0" y="0" /><text alignment-baseline="middle" fill="#e1ed5e" style="dominant-baseline: central; font-size:9.0px; font-family:Arial;" text-anchor="middle" x="100.0" y="100.0">2023</text><line stroke="#e1ed5e" stroke-width="0.3" x1="100.0" x2="100.0" y1="15.0" y2="10.0" /><path d="M 100.0 14.0 a86.0,86.0 0 0,1 42.46469731375804,11.215312516191453" fill="none" id="id73" stroke="none" /><text fill="#e1ed5e" style="font-size:6.75px; font-family:Arial;" text-anchor="middle"><textPath startOffset="22.20632615414155" xlink:href="#id73">January</textPath></text><line stroke="#e1ed5e" stroke-width="0.3" x1="143.23703022742887" x2="145.7803849466894" y1="26.81831364943548" y2="22.513508569990506" /><path d="M 143.74570117128098 25.957352633546492 a86.0,86.0 0 0,1 28.547481713284135,27.462654790039103" fill="none" id="id74" stroke="none" /><text fill="#e1ed5e" style="font-size:6.75px; font-family:Arial;" text-anchor="middle"><textPath startOffset="19.985693538727396" xlink:href="#id74">February</textPath></text><path d="M 111.90073688211348 82.69761687909136 l 35.70221064634041 -51.90714936272591 a84.0,84.0 0 0,0 1.1842754416653962,0.8296606289442576 l -36.590417227589455 51.28490389101772" fill="red" stroke="none" /><path d="M 113.34407831869373 83.78471172551755 l 21.89762399531674 -26.609277698322447 a55.46098658289852,55.46098658289852 0 0,0 0.7319330678219924,0.6129728950327457 l -22.352414600097852 26.22840364589588" fill="red" stroke="none" /><path d="M 114.68862486808459 84.99185889309783 l 15.37273063974666 -15.707127979081005 a42.97805079331275,42.97805079331275 0 0,0 0.5242589519922443,0.5220076174434432 l -15.640825391906226 15.440184510987443" fill="red" stroke="none" /><path d="M 114.94478906791727 85.2469230424477 l 17.971821003367392 -17.741278055186644 a46.25350069215206,46.25350069215206 0 0,0 0.5544599549070311,0.5714197219377054 l -18.274545221977533 17.429294137698825" fill="red" stroke="none" /><path d="M 115.19652480421416 85.50635884689758 l 21.333248366303543 -20.34652332916723 a50.48030694281759,50.48030694281759 0 0,0 0.5943038796774204,0.6339619422001934 l -21.680319567951425 19.97629197008898" fill="red" stroke="none" /><path d="M 115.68641384162765 86.03803664274999 l 25.413794419491428 -22.619986316566962 a55.02241507826642,55.02241507826642 0 0,0 0.623608689248776,0.7128925334733647 l -25.79939497231805 22.17917822689065" fill="red" stroke="none" /><path d="M 116.82858285166822 87.43820079747576 l 28.954982612847928 -21.613624908357654 a57.13225428601853,57.13225428601853 0 0,0 0.5814904177286082,0.7931522762897464 l -29.322735643090166 21.112010188396415" fill="red" stroke="none" /><path d="M 117.04232023915458 87.72973835380427 l 34.10857249813174 -24.557754053275215 a63.02948967096156,63.02948967096156 0 0,0 0.6263551940252948,0.8859350023085152 l -34.52624031196092 23.966992550634906" fill="red" stroke="none" /><path d="M 117.65298651832404 88.62581576622439 l 29.19164563958481 -18.80878089648328 a55.726393621552546,55.726393621552546 0 0,0 0.5126095908771119,0.8108252693080684 l -29.511082826707877 18.303507979461006" fill="red" stroke="none" /><line stroke="#e1ed5e" stroke-width="0.3" x1="172.23445277983987" x2="176.4835382374775" y1="55.19839476539836" y2="52.563006222186495" /><path d="M 173.08426987136738 54.67131705675599 a86.0,86.0 0 0,1 12.851231095245387,41.99856678651699" fill="none" id="id75" stroke="none" /><text fill="#e1ed5e" style="font-size:6.75px; font-family:Arial;" text-anchor="middle"><textPath startOffset="22.20632615414155" xlink:href="#id75">March</textPath></text><path d="M 118.3937258080291 89.86733742301442 l 23.94602207406152 -13.191289479350607 a48.339021403471406,48.339021403471406 0 0,0 0.3952104031753009,0.7322648550258836 l -24.169540576455287 12.777143640992264" fill="red" stroke="none" /><path d="M 119.61058180528143 92.48833698450437 l 20.431909348278957 -7.826265396475523 a42.879518954317966,42.879518954317966 0 0,0 0.2580844972896847,0.6915381411971263 l -20.563598434070265 7.473404118249063" fill="red" stroke="none" /><path d="M 119.7369772167798 92.82701384747503 l 22.31089152677608 -8.108420768505207 a44.73862607815994,44.73862607815994 0 0,0 0.2568144544059092,0.7260490456118603 l -22.447159061991798 7.723174096466731" fill="red" stroke="none" /><path d="M 119.97218684219823 93.5106431181261 l 42.34864982379641 -13.759910436621652 a65.52800553721647,65.52800553721647 0 0,0 0.3393243457989958,1.0757509049220983 l -42.579229653363605 13.028909365273135" fill="red" stroke="none" /><path d="M 120.37134235888165 94.90015583598534 l 38.289001976235234 -9.585423475508682 a60.47059684804599,60.47059684804599 0 0,0 0.24409157911265605,1.0119171801320728 l -38.44832635560871 8.924921063717203" fill="red" stroke="none" /><path d="M 120.73433829027371 96.67025291283417 l 41.47750815899074 -6.660912445905366 a63.008944734320096,63.008944734320096 0 0,0 0.1627554244021773,1.0723548940611545 l -41.58601947683221 5.945958439452129" fill="red" stroke="none" /><path d="M 120.83666639777658 97.38593545837742 l 51.33561295695424 -6.440310699966581 a72.73802044510703,72.73802044510703 0 0,0 0.14516308381296036,1.243668652508122 l -51.438866393770795 5.555698309133606" fill="red" stroke="none" /><path d="M 120.87857604477298 97.74499172005257 l 31.81642872247205 -3.436360317565507 a53.00146416782025,53.00146416782025 0 0,0 0.09016022110118586,0.9079011223646213 l -31.870866069255467 2.888183664496451" fill="red" stroke="none" /><line stroke="#e1ed5e" stroke-width="0.3" x1="184.98032266829074" x2="189.97916517819016" y1="98.17113171792111" y2="98.06355123074" /><path d="M 185.9800911702706 98.14961562048488 a86.0,86.0 0 0,1 -9.607161424134198,41.387399972396054" fill="none" id="id76" stroke="none" /><text fill="#e1ed5e" style="font-size:6.75px; font-family:Arial;" text-anchor="middle"><textPath startOffset="21.466115282336823" xlink:href="#id76">April</textPath></text><path d="M 120.99513854157772 99.54816195383933 l 41.98496737662402 -0.9035618217048259 a62.994689063997434,62.994689063997434 0 0,0 0.013999798356352287,1.084299811018579 l -41.99430018209809 0.1807257526257842" fill="red" stroke="none" /><path d="M 120.99824983174949 100.27111621757518 l 42.044433853762875 0.5428513313184322 a63.047938185496754,63.047938185496754 0 0,0 -0.023351567192681836,1.0850555692225636 l -42.02886022388519 -1.2664967163311107" fill="red" stroke="none" /><path d="M 120.9764740272857 100.99374915477107 l 42.079988514618464 1.993516782886565 a63.12718294111383,63.12718294111383 0 0,0 -0.0607633678776391,1.0849707519769505 l -42.03943879585329 -2.7175592511989386" fill="red" stroke="none" /><path d="M 120.8583938346157 102.4346265915055 l 41.83894842537067 4.883511990649479 a63.12299009690128,63.12299009690128 0 0,0 -0.13525901362793857,1.0781474211452897 l -41.748687902495874 -5.602977166082164" fill="red" stroke="none" /><path d="M 120.64145759157962 103.86396538481128 l 34.30864780608735 6.422386933395727 a55.90458950058566,55.90458950058566 0 0,0 -0.18520409707255847,0.9443517009159168 l -34.19301377603913 -7.012002361379588" fill="red" stroke="none" /><path d="M 120.49622156327973 104.57218783832717 l 41.09447681392858 9.167136807677846 a63.104541582366096,63.104541582366096 0 0,0 -0.24562521505497623,1.058146997847709 l -40.93059103294305 -9.87315246287412" fill="red" stroke="none" /><path d="M 120.41448212921028 104.9243191809786 l 36.88929636961274 8.898323677080484 a58.947336545628794,58.947336545628794 0 0,0 -0.24642424767368948,0.9843423746773567 l -36.730660807643986 -9.531993891155237" fill="red" stroke="none" /><path d="M 120.23288151984713 105.62410040840565 l 36.49973799308008 10.14577143409933 a58.88360531359812,58.88360531359812 0 0,0 -0.2798579703328521,0.974222308645159 l -36.31968738586113 -10.77255121824907" fill="red" stroke="none" /><path d="M 119.9155931802556 106.66101706037122 l 40.90970024153917 13.682756460084901 a64.13723911191565,64.13723911191565 0 0,0 -0.3591965427403675,1.0439932893781585 l -40.66811286785557 -14.384922452552361" fill="red" stroke="none" /><path d="M 119.79798401119884 107.00284435728193 l 27.939143353254675 9.882494716025521 a50.635442178681714,50.635442178681714 0 0,0 -0.2977261258257065,0.8192144299893228 l -27.76489296642374 -10.361956943020976" fill="red" stroke="none" /><path d="M 119.41010516605496 108.01547362559984 l 38.862968989401246 16.04860459446765 a63.04626104781174,63.04626104781174 0 0,0 -0.4228573337179922,0.9995098268722669 l -38.580960674490946 -16.71518894700608" fill="red" stroke="none" /><path d="M 118.81262510543309 109.33194174019688 l 34.97130484855209 17.347402480853283 a60.03747604089021,60.03747604089021 0 0,0 -0.46720972367987046,0.9218491090183547 l -34.66751645508595 -17.94680580157433" fill="red" stroke="none" /><path d="M 118.64920377521936 109.65438752849418 l 33.61041877809773 17.39956363766617 a58.847127568949,58.847127568949 0 0,0 -0.47343212385446093,0.8955551607784236 l -33.30593414601837 -17.975533813530728" fill="red" stroke="none" /><line stroke="#e1ed5e" stroke-width="0.3" x1="174.80103733775053" x2="179.2010983576182" y1="140.37084112569926" y2="142.7455964860345" /><path d="M 175.68104954172406 140.8457921977663 a86.0,86.0 0 0,1 -30.038265399797805,32.042727171017184" fill="none" id="id77" stroke="none" /><text fill="#e1ed5e" style="font-size:6.75px; font-family:Arial;" text-anchor="middle"><textPath startOffset="22.206326154141568" xlink:href="#id77">May</textPath></text><path d="M 118.30583269289576 110.29060199501025 l 33.58660265442238 18.880668586867838 a59.52972260675114,59.52972260675114 0 0,0 -0.5098238943060361,0.8889209329065128 l -33.256626763963965 -19.456009365632667" fill="red" stroke="none" /><path d="M 117.35343817320211 111.8261652097733 l 18.175167173057897 12.386163915099779 a42.994402885741664,42.994402885741664 0 0,0 -0.42203939085582953,0.6079792197129813 l -17.959266875039933 -12.697184396999779" fill="red" stroke="none" /><path d="M 117.14729908036423 112.12312394758627 l 25.95272748083959 18.348553352547203 a52.78385555318923,52.78385555318923 0 0,0 -0.5309055680552771,0.737381399715591 l -25.63304212040871 -18.79256835771392" fill="red" stroke="none" /><path d="M 116.27256486870786 113.27417163493432 l 19.594201522739226 15.98376138985306 a46.28662416143115,46.28662416143115 0 0,0 -0.5089412700142197,0.6130525455575161 l -19.316164252831463 -16.318675192524346" fill="red" stroke="none" /><path d="M 116.0416608686014 113.55231037782055 l 20.712293520073377 17.498152636425157 a48.114284953679054,48.114284953679054 0 0,0 -0.5399281736181164,0.6280584458700642 l -20.408022836884484 -17.85208818145675" fill="red" stroke="none" /><path d="M 115.80600337817218 113.82643327865902 l 25.32825361640242 22.156101091042512 a54.651348365456286,54.651348365456286 0 0,0 -0.6254746635439605,0.7027274151030225 l -24.94312010321012 -22.588802675886402" fill="red" stroke="none" /><path d="M 115.32070863581623 114.36230785411682 l 22.05451573182531 20.674875558526157 a51.22998748802044,51.22998748802044 0 0,0 -0.6086450595808914,0.6381619116396833 l -21.695364120865456 -21.051444586748346" fill="red" stroke="none" /><path d="M 114.55890576462653 115.13401014063108 l 29.616718766115902 30.786635299724715 a63.719631828346294,63.719631828346294 0 0,0 -0.7969935203389293,0.7536071193077797 l -29.082389411386163 -31.291877055778418" fill="red" stroke="none" /><path d="M 114.29624159901734 115.38237550388516 l 28.64281537648932 30.818907092329706 a63.07393381961453,63.07393381961453 0 0,0 -0.8016410168263012,0.7322800621457705 l -28.108074810196158 -31.30737992106206" fill="red" stroke="none" /><path d="M 111.7513745106137 117.40417183066458 l 17.193470958985447 25.46409551201484 a51.725162389521884,51.725162389521884 0 0,0 -0.7421952447498552,0.4918865375504966 l -16.752601015495628 -25.756280070656654" fill="red" stroke="none" /><path d="M 111.45004920935366 117.60387380957326 l 17.428831826137497 26.795950873727104 a52.96540570759238,52.96540570759238 0 0,0 -0.7685487133843226,0.4905241515057047 l -16.965001310706246 -27.09198945405662" fill="red" stroke="none" /><line stroke="#e1ed5e" stroke-width="0.3" x1="143.8653032363475" x2="146.44561519142675" y1="172.8068346515853" y2="177.08958963109032" /><path d="M 144.38136562736335 173.6633856474863 a86.0,86.0 0 0,1 -40.68145358897372,12.25698825130547" fill="none" id="id78" stroke="none" /><text fill="#e1ed5e" style="font-size:6.75px; font-family:Arial;" text-anchor="middle"><textPath startOffset="21.466115282336833" xlink:href="#id78">June</textPath></text><path d="M 110.5260780823613 118.17145234162733 l 21.211950010598063 36.61876110689998 a63.31879592162709,63.31879592162709 0 0,0 -0.947825789287068,0.5382002198907823 l -20.578475454389796 -36.97846449258539" fill="red" stroke="none" /><path d="M 109.89434966115114 118.52300852407294 l 19.798050014799635 37.063522287273855 a63.0198461292727,63.0198461292727 0 0,0 -0.9612300017422123,0.5028701063760366 l -19.157129110530928 -37.39882181259461" fill="red" stroke="none" /><path d="M 108.92500713936063 119.00905698771935 l 17.865398535250744 38.050880359209195 a63.03619822170163,63.03619822170163 0 0,0 -0.9861623114751366,0.4526987489912778 l -17.207768228008188 -38.352766178534544" fill="red" stroke="none" /><path d="M 107.93186726928326 119.44442032107085 l 15.863628960522796 38.88858182491881 a62.9997204770525,62.9997204770525 0 0,0 -1.007632301118838,0.4009576877758888 l -15.191875583362092 -39.15588635710076" fill="red" stroke="none" /><path d="M 107.2578585660854 119.70592522655815 l 10.422496662505187 28.29828358258508 a51.15661271430092,51.15661271430092 0 0,0 -0.8289330786246101,0.29722590996849024 l -9.933844023250842 -28.473497033593528" fill="red" stroke="none" /><path d="M 106.91757812671514 119.82793768551818 l 13.908818037337369 39.8670130314082 a63.22361835800234,63.22361835800234 0 0,0 -1.0306361027223705,0.34964772350435175 l -13.220512201677773 -40.10052374181067" fill="red" stroke="none" /><path d="M 106.2309692047433 120.05430185196036 l 11.20770787228702 36.07187732019865 a58.77291422638696,58.77291422638696 0 0,0 -0.9687036399442583,0.2918624603180769 l -10.585129257902517 -36.259455149622454" fill="red" stroke="none" /><path d="M 105.53697534728816 120.25689768951611 l 7.868566126848484 28.786969238146877 a50.842987967202646,50.842987967202646 0 0,0 -0.8461957243122553,0.22348798174412343 l -7.3718799597247315 -28.918148569194585" fill="red" stroke="none" /><path d="M 104.83641907484287 120.43548508189849 l 7.833044454393241 33.09722764229267 a55.011513683313815,55.011513683313815 0 0,0 -0.9233547678460465,0.21015253897673064 l -7.262169537154333 -33.227156914847086" fill="red" stroke="none" /><path d="M 103.41894727170886 120.7198165907248 l 6.863310926806728 41.593663869953474 a63.15611356618038,63.15611356618038 0 0,0 -1.0741475599860586,0.1677597579095218 l -6.146327503212152 -41.7056419352101" fill="red" stroke="none" /><path d="M 102.70371172650421 120.8252237178851 l 4.862330150038869 37.45188962719086 a58.76620567564689,58.76620567564689 0 0,0 -1.0042656984910476,0.12160259030726273 l -4.216937028496441 -37.53003774622347" fill="red" stroke="none" /><path d="M 101.62511606390274 120.93702456842531 l 3.2513785865343925 41.88881942625174 a63.01481471621766,63.01481471621766 0 0,0 -1.0821661337754271,0.07463251247580426 l -2.529849691980035 -41.93858028324384" fill="red" stroke="none" /><line stroke="#e1ed5e" stroke-width="0.3" x1="102.19456741930631" x2="102.32365962044197" y1="184.97166512339345" y2="189.96999836594603" /><path d="M 102.22038585953345 185.97133177190398 a86.0,86.0 0 0,1 -42.740103519485714,-10.115201625700543" fill="none" id="id79" stroke="none" /><text fill="#e1ed5e" style="font-size:6.75px; font-family:Arial;" text-anchor="middle"><textPath startOffset="22.20632615414155" xlink:href="#id79">July</textPath></text><line stroke="#e1ed5e" stroke-width="0.3" x1="58.666819895761336" x2="56.23545636021788" y1="174.27360380694188" y2="178.64263932499728" /><path d="M 58.180547188652646 175.14741091055294 a86.0,86.0 0 0,1 -31.652253787137756,-30.449443065178592" fill="none" id="id80" stroke="none" /><text fill="#e1ed5e" style="font-size:6.75px; font-family:Arial;" text-anchor="middle"><textPath startOffset="22.20632615414155" xlink:href="#id80">August</textPath></text><line stroke="#e1ed5e" stroke-width="0.3" x1="26.63291911575756" x2="22.317208475507996" y1="142.92168965132927" y2="145.44649492493687" /><path d="M 25.769776987707644 143.4266507060508 a86.0,86.0 0 0,1 -11.730757126820373,-40.83630448921669" fill="none" id="id81" stroke="none" /><text fill="#e1ed5e" style="font-size:6.75px; font-family:Arial;" text-anchor="middle"><textPath startOffset="21.46611528233685" xlink:href="#id81">September</textPath></text><path d="M 79.76711848015287 105.62410040840567 l -16.625714883215874 4.621422300773557 a38.25606964114578,38.25606964114578 0 0,0 -0.1708988326018529,-0.6359781320377142 l 16.7028017921595 -4.334553235560303" fill="red" stroke="none" /><path d="M 79.67330655649465 105.27499134158121 l -18.356604817308934 4.763732563845566 a39.96465365775743,39.96465365775743 0 0,0 -0.1670687818698908,-0.6673567355190821 l 18.435884913473885 -4.447047988929092" fill="red" stroke="none" /><path d="M 79.4281124754447 104.21870165774334 l -21.5209632640946 4.413329758394743 a42.96882653604516,42.96882653604516 0 0,0 -0.14234972105093446,-0.7258381608409629 l 21.5937429181212 -4.042227870485825" fill="red" stroke="none" /><path d="M 79.18660465613746 102.79330883721812 l -21.61736288310077 2.9012071207556467 a42.8111755936535,42.8111755936535 0 0,0 -0.09173515662297993,-0.7312194573108438 l 21.6640995489706 -2.528669909157394" fill="red" stroke="none" /><path d="M 79.0235259727143 100.99374915477108 l -23.750981832752878 1.1251899671307877 a44.7776195293366,44.7776195293366 0 0,0 -0.02984719854338702,-0.7702235713593708 l 23.766831164147465 -0.71618914875742" fill="red" stroke="none" /><line stroke="#e1ed5e" stroke-width="0.3" x1="15.007084014347285" x2="10.007500721073583" y1="101.09737516637583" y2="101.16192664675087" /><path d="M 14.007167355692545 101.11028546245083 a86.0,86.0 0 0,1 10.666146001902534,-42.60595125391555" fill="none" id="id82" stroke="none" /><text fill="#e1ed5e" style="font-size:6.75px; font-family:Arial;" text-anchor="middle"><textPath startOffset="22.20632615414155" xlink:href="#id82">October</textPath></text><path d="M 79.00486145842228 99.54816195383935 l -37.76291230945659 -0.8126986388515899 a58.77165637312321,58.77165637312321 0 0,0 0.030472559616114312,-1.0112359015661665 l 37.74332805538483 1.4626046878427508" fill="red" stroke="none" /><path d="M 79.03285615573316 98.82574320788736 l -41.96582436266854 -2.35027978347868 a63.03158609306783,63.03158609306783 0 0,0 0.06999330170213292,-1.08276539756334 l 41.919150469962 3.0723042452950318" fill="red" stroke="none" /><path d="M 79.08570108090925 98.10471618934814 l -21.937214361777897 -1.9879818774477265 a43.02710707059951,43.02710707059951 0 0,0 0.07319294943525316,-0.7370430122045268 l 21.899744286660418 2.3653004203566836" fill="red" stroke="none" /><path d="M 79.16333360222342 97.38593545837743 l -33.34676482363792 -4.183519275069844 a54.60816207006709,54.60816207006709 0 0,0 0.12503709125843177,-0.9316715639650199 l 33.26981173332165 4.756909181099523" fill="red" stroke="none" /><path d="M 79.32604984820605 96.31383870115002 l -37.64421199705775 -6.711955691603411 a59.23790064955808,59.23790064955808 0 0,0 0.18762695613356636,-1.0023107021848614 l 37.52309931701432 7.358944471250845" fill="red" stroke="none" /><path d="M 79.46518482838121 95.60439243477599 l -39.255122163640216 -8.40280813409859 a61.14438691300181,61.14438691300181 0 0,0 0.2291622120653523,-1.027289262494801 l 39.10466556457283 9.077275566143351" fill="red" stroke="none" /><path d="M 79.91906864156998 93.8553929516997 l -33.23024211045277 -10.168192711982737 a55.751131402406564,55.751131402406564 0 0,0 0.2886966577966667,-0.9152472986913696 l 33.0502899688879 10.738690177100521" fill="red" stroke="none" /><line stroke="#e1ed5e" stroke-width="0.3" x1="26.266209847984243" x2="21.928928074336255" y1="57.711370442889674" y2="55.22380399835377" /><path d="M 25.398753493254645 57.213857153982495 a86.0,86.0 0 0,1 29.58750427330803,-30.492523968695096" fill="none" id="id83" stroke="none" /><text fill="#e1ed5e" style="font-size:6.75px; font-family:Arial;" text-anchor="middle"><textPath startOffset="21.46611528233685" xlink:href="#id83">November</textPath></text><line stroke="#e1ed5e" stroke-width="0.3" x1="56.762969772571076" x2="54.21961505331055" y1="26.818313649435495" y2="22.513508569990535" /><path d="M 56.25429882871897 25.957352633546506 a86.0,86.0 0 0,1 42.265352541879196,-11.944610805530505" fill="none" id="id84" stroke="none" /><text fill="#e1ed5e" style="font-size:6.75px; font-family:Arial;" text-anchor="middle"><textPath startOffset="22.20632615414155" xlink:href="#id84">December</textPath></text></svg>