<?xml version="1.0" encoding="utf-8" ?>
<svg baseProfile="full" height="200mm" version="1.1" viewBox="0,0,200,200" width="200mm" xmlns="http://www.w3.org/2000/svg" xmlns:ev="http://www.w3.org/2001/xml-events" xmlns:xlink="http://www.w3.org/1999/xlink"><defs /><rect fill="#1a1a1a" height="200" width="200" x="0" y="0" /><text alignment-baseline="middle" fill="#e1ed5e" style="dominant-baseline: central; font-size:9.0px; font-family:Arial;" text-anchor="middle" x="100.0" y="100.0">2021</text><line stroke="#e1ed5e" stroke-width="0.3" x1="100.0" x2="100.0" y1="15.0" y2="10.0" /><path d="M 100.0 14.0 a86.0,86.0 0 0,1 42.46469731375804,11.215312516191453" fill="none" id="id49" stroke="none" /><text fill="#e1ed5e" style="font-size:6.75px; font-family:Arial;" text-anchor="middle"><textPath startOffset="22.20632615414155" xlink:href="#id49">January</textPath></text><path d="M 100.36148047927253 79.00311137660856 l 0.5567033728082855 -32.3365697053569 a53.34136142704419,53.34136142704419 0 0,0 0.9179117743894117,0.023706953028958245 l -1.113241782392565 32.32219596018558" fill="#9dff22" stroke="none" /><path d="M 101.08401301168833 79.027996857942 l 1.672326152656123 -32.353882241160534 a53.3970734918409,53.3970734918409 0 0,0 0.9175090760360257,0.05534665307509555 l -2.228997277531761 32.32030231870513" fill="#9cff22" stroke="none" /><path d="M 102.16513564639614 79.11191278185805 l 0.9031902368833817 -8.713503227382855 a29.760187846023218,29.760187846023218 0 0,0 0.5090881135284157,0.05720198128288291 l -1.0530450539215226 8.696665292629373" fill="#ff0f01" stroke="none" /><path d="M 102.52436894288641 79.15227682838746 l 1.8912322380602669 -15.618907950605333 a36.73299224393634,36.73299224393634 0 0,0 0.6270588903469858,0.08141024067769324 l -2.159805856915099 15.584039386763504" fill="#ff7d0b" stroke="none" /><path d="M 102.88285421437855 79.19881850522331 l 8.648562643135682 -62.40354448433004 a84.0,84.0 0 0,0 1.430524078285377,0.2108220633561242 l -9.721455701849713 62.245427936812945" fill="#4dd2ff" stroke="none" /><path d="M 103.2404852339499 79.25152402106235 l 8.929573495989596 -57.175091940740685 a78.86819870405878,78.86819870405878 0 0,0 1.3395230020082658,0.22103277280733857 l -9.912425704136735 57.012912904993726" fill="#46fff6" stroke="none" /><path d="M 104.307194497241 79.44645832069477 l 9.497034844765114 -45.31898934137493 a67.30339583406747,67.30339583406747 0 0,0 1.131842091808384,0.2473768424143156 l -10.275719660727027 45.14879900086474" fill="#36ff6c" stroke="none" /><path d="M 104.66035177308747 79.52364482259891 l 1.7356974092468438 -7.626196124823337 a28.821221952529967,28.821221952529967 0 0,0 0.4827915807474176,0.11426116879254548 l -1.866712676956785 7.595189043889922" fill="#ff0000" stroke="none" /><path d="M 105.01212808612495 79.60689891045804 l 7.187361507562086 -29.24358421656311 a51.1138736012424,51.1138736012424 0 0,0 0.8526064565424935,0.21734836984734035 l -7.689676852789604 29.115532850546902" fill="#b9ff1f" stroke="none" /><path d="M 105.36241919743992 79.69619591428918 l 6.579978344574022 -24.913865603836438 a46.76813563960512,46.76813563960512 0 0,0 0.7765784578381953,0.2122682279483745 l -7.007854691635928 24.79691083506177" fill="#f2ff19" stroke="none" /><path d="M 107.08798089147638 80.2323363322302 l 13.390835111627965 -37.345688253130675 a60.67385658197134,60.67385658197134 0 0,0 0.9800783102925987,0.36097111290186745 l -14.03169574769314 37.109653872422484" fill="#46ff2c" stroke="none" /><path d="M 107.4271985657038 80.35727306442388 l 9.34783919773849 -24.722249065311267 a47.43050692881353,47.43050692881353 0 0,0 0.7611847298861951,0.29532784948154006 l -9.772007092624351 24.55767851193918" fill="#e9ff1a" stroke="none" /><path d="M 108.09893153111575 80.62456947434976 l 8.930839344599256 -21.36564021960412 a44.157082575156295,44.157082575156295 0 0,0 0.6987674165866042,0.2991757405990125 l -9.297290518976176 21.208744951042316" fill="#ffe915" stroke="none" /><path d="M 108.76106565485865 80.91482961587045 l 12.90269377146443 -28.107323782704697 a51.92735289005485,51.92735289005485 0 0,0 0.8091314902457495,0.37989808393915575 l -13.384603473009777 27.881060716125535" fill="#aeff20" stroke="none" /><path d="M 109.41281617654863 81.2277094730956 l 11.62311613640542 -23.18036481835952 a46.93118088002565,46.93118088002565 0 0,0 0.7190292977725414,0.3683147335685374 l -12.020405921766717 22.976857559478482" fill="#efff19" stroke="none" /><path d="M 110.05341064243156 81.56283822128135 l 14.82687807636649 -27.191324366432976 a51.971025722310344,51.971025722310344 0 0,0 0.7817330996140702,0.4350336235707613 l -15.292735265052595 26.932075345302035" fill="#aeff20" stroke="none" /><line stroke="#e1ed5e" stroke-width="0.3" x1="143.23703022742887" x2="145.7803849466894" y1="26.81831364943548" y2="22.513508569990506" /><path d="M 143.74570117128098 25.957352633546492 a86.0,86.0 0 0,1 28.547481713284135,27.462654790039103" fill="none" id="id50" stroke="none" /><text fill="#e1ed5e" style="font-size:6.75px; font-family:Arial;" text-anchor="middle"><textPath startOffset="19.985693538727396" xlink:href="#id50">February</textPath></text><path d="M 110.99172775467656 82.1063720568725 l 16.26375121666445 -26.47604814509385 a52.07234669314311,52.07234669314311 0 0,0 0.7597128437052648,0.4757321130320466 l -16.717083212741976 26.192171690738856" fill="#adff20" stroke="none" /><path d="M 111.60114157652 82.49532879139004 l 8.540429140920162 -12.886439072066162 a36.45960031401691,36.45960031401691 0 0,0 0.5201488141853924,0.3512068012322518 l -8.760982649512096 12.73752035853524" fill="#ff790b" stroke="none" /><path d="M 111.90073688211348 82.69761687909136 l 16.60705986395047 -24.144867256901023 a50.304761595655506,50.304761595655506 0 0,0 0.7092225447210403,0.4968557160040772 l -17.02021354825516 23.855426698133012" fill="#c3ff1e" stroke="none" /><path d="M 112.48926042617603 83.11751280151076 l 11.149514340980355 -15.071471544981303 a39.747291126210946,39.747291126210946 0 0,0 0.5465325328751764,0.4116369729539203 l -11.407293027613914 14.877317982521536" fill="#ffaa0f" stroke="none" /><path d="M 112.77801427241765 83.33499621200491 l 21.237158859733587 -27.69736559206013 a55.90216292973542,55.90216292973542 0 0,0 0.7585855491022818,0.5920880535589297 l -21.710776963995297 27.327699149277976" fill="#7dff26" stroke="none" /><path d="M 113.89432698308785 84.25364557470407 l 25.899384006524755 -29.35161094596226 a60.14454185503468,60.14454185503468 0 0,0 0.7703914721465438,0.6916650702432073 l -26.40078646626729 28.901446866949758" fill="#4cff2c" stroke="none" /><path d="M 114.68862486808459 84.99185889309783 l 22.177562460631716 -22.659982796585684 a52.706767369708004,52.706767369708004 0 0,0 0.6429327090013488,0.640171751625555 l -22.564330969800384 22.274875194310013" fill="#a5ff21" stroke="none" /><path d="M 114.94478906791727 85.2469230424477 l 21.306002928922908 -21.032689015532544 a50.938599967790324,50.938599967790324 0 0,0 0.610622188991642,0.6292998409616478 l -21.66488938161766 20.66282497902078" fill="#bbff1f" stroke="none" /><path d="M 115.19652480421416 85.50635884689758 l 20.903032299850736 -19.936206012162152 a49.88579355821774,49.88579355821774 0 0,0 0.587304682715562,0.6264956868861782 l -21.24310430453676 19.57344090839792" fill="#c8ff1d" stroke="none" /><path d="M 115.68641384162765 86.03803664274999 l 11.599215809900734 -10.324082211888465 a36.52831223676556,36.52831223676556 0 0,0 0.41400169152947874,0.47327550084692444 l -11.775209365008061 10.122891154838593" fill="#ff7a0b" stroke="none" /><path d="M 116.15771136456269 86.58626213691792 l 19.41486670348406 -16.11774877835639 a46.23328902058277,46.23328902058277 0 0,0 0.5030655360700177,0.616698864083296 l -19.689430731630484 15.781165744664992" fill="#f9ff18" stroke="none" /><path d="M 116.60985879189232 87.15038557335679 l 23.21624074148642 -17.960402054100722 a50.35251055892152,50.35251055892152 0 0,0 0.5244431204455003,0.6901056719746963 l -23.521959802156037 17.558111606244992" fill="#c2ff1e" stroke="none" /><path d="M 117.65298651832404 88.62581576622439 l 50.52551395786193 -32.55463338548355 a81.10517211995437,81.10517211995437 0 0,0 0.7460610026331945,1.1800893392283924 l -51.07840255674108 31.680096398540947" fill="#49f0ff" stroke="none" /><line stroke="#e1ed5e" stroke-width="0.3" x1="172.23445277983987" x2="176.4835382374775" y1="55.19839476539836" y2="52.563006222186495" /><path d="M 173.08426987136738 54.67131705675599 a86.0,86.0 0 0,1 12.851231095245387,41.99856678651699" fill="none" id="id51" stroke="none" /><text fill="#e1ed5e" style="font-size:6.75px; font-family:Arial;" text-anchor="middle"><textPath startOffset="22.20632615414155" xlink:href="#id51">March</textPath></text><path d="M 118.03404312379186 89.2402003453031 l 22.197754723161275 -13.244029193332528 a46.848493650955234,46.848493650955234 0 0,0 0.4072256800771511,0.696080691395517 l -22.422440077708753 12.859969089583116" fill="#f1ff19" stroke="none" /><path d="M 118.56541770881063 90.18545643968196 l 22.80651133216473 -12.056582967276398 a46.79725086110878,46.79725086110878 0 0,0 0.3703457927217096,0.7153901928400708 l -23.010666558046555 11.662220052175982" fill="#f1ff19" stroke="none" /><path d="M 118.73160827565052 90.50648371742162 l 25.945562756553223 -13.149678279904313 a50.08756204323815,50.08756204323815 0 0,0 0.38314596751529256,0.7723988906269821 l -26.168068737021922 12.70111980077838" fill="#c6ff1e" stroke="none" /><path d="M 118.89224826269711 90.83032412892265 l 23.671356548429827 -11.489297830496417 a47.312299129508645,47.312299129508645 0 0,0 0.34930401478752987,0.7357233387725957 l -23.865618757059114 11.08013207608328" fill="#eaff1a" stroke="none" /><path d="M 119.85752413597 93.16781622104841 l 17.749671074091133 -6.106955427261165 a39.77087445562891,39.77087445562891 0 0,0 0.21715409972121869,0.6492631182709269 l -17.852162467584122 5.800519206067925" fill="#ffaa0f" stroke="none" /><path d="M 120.28053869075195 94.5502522615342 l 25.02590636707288 -6.72491390424479 a46.91371174712345,46.91371174712345 0 0,0 0.20285414820086095,0.7816797824328277 l -25.137956847144046 6.293137696263112" fill="#f0ff19" stroke="none" /><path d="M 120.53481517161879 95.60439243477599 l 25.103661507093506 -5.373598131426689 a46.67234656085806,46.67234656085806 0 0,0 0.1613989842166088,0.7870387667227479 l -25.192439787225112 4.94068370854053" fill="#f3ff19" stroke="none" /><path d="M 120.6074358757038 95.95851677861258 l 31.138912702354286 -6.106892384762292 a52.73209761241618,52.73209761241618 0 0,0 0.16702082378116667,0.8922319191940724 l -31.239419250045312 5.5699823881056565" fill="#a4ff21" stroke="none" /><path d="M 120.87857604477298 97.74499172005257 l 29.485286449356824 -3.184583322988027 a50.656764623634835,50.656764623634835 0 0,0 0.08617167790452533,0.8677370366889235 l -29.535735252943578 2.6765707555946685" fill="#bfff1e" stroke="none" /><path d="M 120.91429891909075 98.10471618934814 l 25.962218649200434 -2.352733547741255 a47.06860472552296,47.06860472552296 0 0,0 0.0661773738293921,0.8075315818597415 l -25.99887050684932 1.9054880486737449" fill="#eeff19" stroke="none" /><path d="M 120.96714384426684 98.82574320788733 l 20.664755206822488 -1.1573216332749126 a41.6971375103115,41.6971375103115 0 0,0 0.03396607475205514,0.716970154313666 l -20.681614889808042 0.8014403723382468" fill="#ffc612" stroke="none" /><path d="M 120.98425023603335 99.18683210126433 l 25.989703058735525 -1.0071359227667545 a47.009209673655484,47.009209673655484 0 0,0 0.024373839920257465,0.8088490857642496 l -26.003188593111428 0.5596166895775058" fill="#eeff19" stroke="none" /><line stroke="#e1ed5e" stroke-width="0.3" x1="184.98032266829074" x2="189.97916517819016" y1="98.17113171792111" y2="98.06355123074" /><path d="M 185.9800911702706 98.14961562048488 a86.0,86.0 0 0,1 -9.607161424134198,41.387399972396054" fill="none" id="id52" stroke="none" /><text fill="#e1ed5e" style="font-size:6.75px; font-family:Arial;" text-anchor="middle"><textPath startOffset="21.466115282336823" xlink:href="#id52">April</textPath></text><path d="M 120.99824983174949 100.27111621757518 l 38.48711499256325 0.4969214637301793 a59.490322827847294,59.490322827847294 0 0,0 -0.02203390484779363,1.0238289777103726 l -38.472859025030445 -1.1593402572306668" fill="#54ff2b" stroke="none" /><path d="M 120.9764740272857 100.99374915477107 l 35.97314558190788 1.7042083893592825 a57.01349093453037,57.01349093453037 0 0,0 -0.05487860478226791,0.9798943537488546 l -35.93848062623808 -2.3231744594435604" fill="#70ff27" stroke="none" /><path d="M 120.76222939487914 103.15116336523771 l 35.61609423713844 5.405591530580315 a57.02397241427169,57.02397241427169 0 0,0 -0.15564352657792083,0.9691923885740611 l -35.517768956199234 -6.017863148847581" fill="#70ff27" stroke="none" /><path d="M 120.64145759157962 103.86396538481128 l 41.84055624508336 7.832318056754026 a63.567327295005725,63.567327295005725 0 0,0 -0.21058967716530685,1.073792226899163 l -41.69953663494239 -8.551374010721133" fill="#30ff3a" stroke="none" /><path d="M 120.23288151984713 105.62410040840565 l 34.82136516351027 9.679236931488758 a57.1415979091465,57.1415979091465 0 0,0 -0.2715786767346042,0.945401001488379 l -34.64959384988957 -10.277195408481719" fill="#6fff28" stroke="none" /><path d="M 120.13307415673323 105.97154293290107 l 30.95834149096052 9.182356549501737 a53.29140101750163,53.29140101750163 0 0,0 -0.26841921349005293,0.8772095203172462 l -30.795695504964335 -9.713893042371039" fill="#9dff22" stroke="none" /><path d="M 119.79798401119884 107.00284435728193 l 28.395130674134567 10.043784281428222 a51.11911434111306,51.11911434111306 0 0,0 -0.3005700200012975,0.8270396053566018 l -28.218036393128042 -10.531071683790955" fill="#b9ff1f" stroke="none" /><path d="M 119.54520255179757 107.68017299344265 l 28.925467289833403 11.36609314297722 a52.07846088965887,52.07846088965887 0 0,0 -0.3350316152234069,0.831520993241711 l -28.725533060352607 -11.862313504061746" fill="#acff20" stroke="none" /><path d="M 119.12269723197855 108.67885076344098 l 28.284017784465846 12.836723102606575 a52.060700604541644,52.060700604541644 0 0,0 -0.37737905224348456,0.8128409053159075 l -28.05886411538253 -13.321684075201313" fill="#adff20" stroke="none" /><path d="M 118.64920377521936 109.65438752849418 l 28.713589191046317 14.864555115897023 a53.33303578425188,53.33303578425188 0 0,0 -0.42907060116673224,0.8116398779295616 l -28.453466081654692 -15.356610008912718" fill="#9dff22" stroke="none" /><line stroke="#e1ed5e" stroke-width="0.3" x1="174.80103733775053" x2="179.2010983576182" y1="140.37084112569926" y2="142.7455964860345" /><path d="M 175.68104954172406 140.8457921977663 a86.0,86.0 0 0,1 -30.038265399797805,32.042727171017184" fill="none" id="id53" stroke="none" /><text fill="#e1ed5e" style="font-size:6.75px; font-family:Arial;" text-anchor="middle"><textPath startOffset="22.206326154141568" xlink:href="#id53">May</textPath></text><path d="M 118.30583269289576 110.29060199501025 l 25.827370590018866 14.518825544749038 a50.62852285877628,50.62852285877628 0 0,0 -0.4335923225668827,0.7560047620009944 l -25.573626271299602 -14.961250152608347" fill="#bfff1e" stroke="none" /><path d="M 118.12598468904814 110.60418214915192 l 20.624159673290052 12.06568082234468 a44.89427998362913,44.89427998362913 0 0,0 -0.39596567736792354,0.6636612511718484 l -20.4134131202239 -12.418904167402633" fill="#fff316" stroke="none" /><path d="M 117.75023020441432 111.22182372390056 l 24.506007057636037 15.49287463939841 a49.9926464211362,49.9926464211362 0 0,0 -0.4661103350556752,0.7234135909593985 l -24.235691859203314 -15.912409830279262" fill="#c7ff1e" stroke="none" /><path d="M 116.71984013943494 112.70617746262583 l 24.881369752468434 18.90850013825305 a52.25082300096058,52.25082300096058 0 0,0 -0.5503583734551346,0.7114123867460973 l -24.552204561795232 -19.3339905191124" fill="#aaff21" stroke="none" /><path d="M 116.0416608686014 113.55231037782055 l 24.010040704992825 20.28415427077518 a52.431337374283316,52.431337374283316 0 0,0 -0.5883732088319733,0.6844109664704351 l -23.657324986590073 -20.694442336407143" fill="#a8ff21" stroke="none" /><path d="M 115.56566222782051 114.09645910891815 l 15.211688826027489 13.775896352834332 a41.522446181289496,41.522446181289496 0 0,0 -0.4843367781386276,0.5256519149940438 l -14.97230563989314 -14.035699522629711" fill="#ffc312" stroke="none" /><path d="M 115.32070863581623 114.36230785411682 l 18.828013670811472 17.65021025134245 a46.80744118863507,46.80744118863507 0 0,0 -0.5561023772989936,0.5830711193299889 l -18.521404742133516 -17.971688487254944" fill="#f1ff19" stroke="none" /><path d="M 114.81725581225074 114.88116024355365 l 17.806249484330365 17.88304496261273 a46.23620054273313,46.23620054273313 0 0,0 -0.5688154577227349,0.5567056451657806 l -17.495784074231835 -18.18690071070108" fill="#f9ff18" stroke="none" /><path d="M 113.48314897796784 116.09983520530334 l 17.17452608574363 20.507601018240074 a47.749318604278685,47.749318604278685 0 0,0 -0.6346791030519475,0.5222976930784075 l -16.818976854146992 -20.800193830175658" fill="#e5ff1a" stroke="none" /><path d="M 112.63410532772338 116.77436683061366 l 27.423703805889406 36.410593038563675 a66.58279078614049,66.58279078614049 0 0,0 -0.9214266530442269,0.68164940972198 l -26.792892182426613 -36.87725239702542" fill="#35ff62" stroke="none" /><path d="M 112.34349029814194 116.9893568818739 l 10.267756420294019 14.132354300694498 a38.468550597769905,38.468550597769905 0 0,0 -0.5390591989612447,0.3846044255494181 l -10.02296989348389 -14.307002988088136" fill="#ff970d" stroke="none" /><path d="M 111.7513745106137 117.40417183066458 l 14.470893597029367 21.431868968050622 a46.859848587341666,46.859848587341666 0 0,0 -0.6723837139323997,0.4456192616311104 l -14.099835184357003 -21.677786250773053" fill="#f0ff19" stroke="none" /><line stroke="#e1ed5e" stroke-width="0.3" x1="143.8653032363475" x2="146.44561519142675" y1="172.8068346515853" y2="177.08958963109032" /><path d="M 144.38136562736335 173.6633856474863 a86.0,86.0 0 0,1 -40.68145358897372,12.25698825130547" fill="none" id="id54" stroke="none" /><text fill="#e1ed5e" style="font-size:6.75px; font-family:Arial;" text-anchor="middle"><textPath startOffset="21.466115282336833" xlink:href="#id54">June</textPath></text><path d="M 110.21172684928248 118.3499491758327 l 17.556408915037974 31.54796598615628 a57.10403927340677,57.10403927340677 0 0,0 -0.8630247340731473,0.470589896120964 l -17.010761369096176 -31.845496534037014" fill="#6fff27" stroke="none" /><path d="M 109.57404056367764 118.69057910512821 l 23.31812726463588 45.52198200168378 a72.14670961549118,72.14670961549118 0 0,0 -1.1101870136091707,0.5566708157279834 l -22.531086343343947 -45.91662065832107" fill="#3cffa8" stroke="none" /><path d="M 108.59647513512805 119.15986991738527 l 12.007639715585073 26.76269184160354 a50.333003360514056,50.333003360514056 0 0,0 -0.7935341330975241,0.34786204413142513 l -11.545184907829796 -26.96541843902942" fill="#c3ff1e" stroke="none" /><path d="M 108.2653958097858 119.30500536409082 l 11.716274766361877 27.365023093508636 a50.76769361756381,50.76769361756381 0 0,0 -0.8063083217593389,0.3370369438889448 l -11.243494985105078 -27.562645080417553" fill="#bdff1f" stroke="none" /><path d="M 107.59598834532513 119.57807347666477 l 8.955776318850136 23.08282198970613 a45.75929321450307,45.75929321450307 0 0,0 -0.736789510132656,0.2785907481599042 l -8.557116587957205 -23.233560987972663" fill="#ffff18" stroke="none" /><path d="M 106.91757812671514 119.82793768551818 l 9.866440543742756 28.280297626663508 a50.95199296968201,50.95199296968201 0 0,0 -0.8305909219377037,0.2817815369088906 l -9.378179888867825 -28.445942150470522" fill="#bbff1f" stroke="none" /><path d="M 106.57524785965236 119.94407469862006 l 7.574270022031538 22.974313718859914 a45.190672938536466,45.190672938536466 0 0,0 -0.7408659092245036,0.2372018683593861 l -7.177682767716093 -23.101288433879006" fill="#fff717" stroke="none" /><path d="M 105.18746579009965 120.34920634021253 l 8.534440071731757 33.47859803707957 a55.54928644511097,55.54928644511097 0 0,0 -0.9285902162578415,0.2282248826684613 l -7.956896570730703 -33.62054417806206" fill="#82ff25" stroke="none" /><path d="M 104.83641907484287 120.43548508189849 l 7.637920664078595 32.272764492099675 a54.164275358181555,54.164275358181555 0 0,0 -0.9091340803093199,0.20691595679195532 l -7.0812664343764125 -32.39945718246931" fill="#93ff23" stroke="none" /><path d="M 104.48393922423573 120.51570834832081 l 5.408287943015007 24.7449513817948 a46.32907809932983,46.32907809932983 0 0,0 -0.7805534959832426,0.1635725742627757 l -4.9815429856023865 -24.834379936784117" fill="#f8ff18" stroke="none" /><path d="M 103.41894727170886 120.7198165907248 l 4.775997870620305 28.943938602329997 a50.33533257823436,50.33533257823436 0 0,0 -0.8560940757277689,0.1337042881647754 l -4.2770679312840185 -29.021861197841876" fill="#c3ff1e" stroke="none" /><path d="M 101.98527174616119 120.90594882070398 l 3.577810590336263 37.676214974788415 a58.84571182375611,58.84571182375611 0 0,0 -1.0092198804699766,0.08707973786273898 l -2.9287463921247445 -37.73221896492982" fill="#5bff2a" stroke="none" /><path d="M 101.26447882468166 120.96189622390904 l 1.6171857576830482 26.80889498949895 a47.85762722827232,47.85762722827232 0 0,0 -0.8227225927060116,0.042525360570574745 l -1.155475096563557 -26.83276015683173" fill="#e3ff1b" stroke="none" /><line stroke="#e1ed5e" stroke-width="0.3" x1="102.19456741930631" x2="102.32365962044197" y1="184.97166512339345" y2="189.96999836594603" /><path d="M 102.22038585953345 185.97133177190398 a86.0,86.0 0 0,1 -42.740103519485714,-10.115201625700543" fill="none" id="id55" stroke="none" /><text fill="#e1ed5e" style="font-size:6.75px; font-family:Arial;" text-anchor="middle"><textPath startOffset="22.20632615414155" xlink:href="#id55">July</textPath></text><path d="M 100.18074693466247 120.99922214144158 l 0.25204055185810825 29.282131655531277 a50.28321633174279,50.28321633174279 0 0,0 -0.8655749730411073,0.0 l 0.2520405518580881 -29.282131655531277" fill="#c3ff1e" stroke="none" /><path d="M 99.81925306533755 120.99922214144158 l -0.25122611934017774 29.187510690618357 a50.18859186185588,50.18859186185588 0 0,0 -0.8638181050666435,-0.014871412056541944 l 0.753603914299489 -29.178861801282654" fill="#c5ff1e" stroke="none" /><path d="M 99.09653310690486 120.98055641714683 l -1.8625062071323513 43.25163086182021 a64.29171400601696,64.29171400601696 0 0,0 -1.1052417075390348,-0.057128371759120354 l 2.606735983084875 -43.21316268329889" fill="#31ff44" stroke="none" /><path d="M 98.73552117531835 120.96189622390904 l -1.6292647745189206 27.009134876841113 a48.058231104432586,48.058231104432586 0 0,0 -0.8253137041595581,-0.05691846510410456 l 2.0939412394574086 -26.97708806722072" fill="#e0ff1b" stroke="none" /><path d="M 98.01472825383883 120.90594882070398 l -2.1781579636749964 22.937141477004303 a44.04033053692659,44.04033053692659 0 0,0 -0.75406987122829,-0.07816242535849047 l 2.5726604315088797 -22.89624968319005" fill="#ffe715" stroke="none" /><path d="M 96.93821686468263 120.77559828337769 l -4.450560096863791 30.199084854155938 a51.52527168108921,51.52527168108921 0 0,0 -0.8763323410625121,-0.13686508898911395 l 4.969728301534821 -30.11800145781972" fill="#b3ff20" stroke="none" /><path d="M 95.86986931433489 120.58985236759428 l -5.40642515206026 26.95253593396719 a48.48942753490189,48.48942753490189 0 0,0 -0.8169511186785376,-0.17120004998603575 l 5.869567732168184 -26.85547990325461" fill="#dbff1b" stroke="none" /><path d="M 95.16358092515715 120.4354850818985 l -6.766419747795735 28.59038219686041 a50.380170019350004,50.380170019350004 0 0,0 -0.8421806285414953,-0.20698750834260723 l 7.25755366108044 -28.469673430203773" fill="#c2ff1e" stroke="none" /><path d="M 94.46302465271185 120.25689768951611 l -6.784418797484574 24.8206410257515 a46.73115930829547,46.73115930829547 0 0,0 -0.7741101810330449,-0.2187712695375389 l 7.210660146622232 -24.70018096287544" fill="#f2ff19" stroke="none" /><path d="M 93.42475214034765 119.94407469862007 l -14.118502769685477 42.82431322462258 a66.09161699937363,66.09161699937363 0 0,0 -1.0773886141907696,-0.3655087137800233 l 14.853561116813474 -42.57494152394443" fill="#34ff5c" stroke="none" /><path d="M 92.40401165467489 119.57807347666478 l -11.081113186531002 28.560713669691317 a51.63503606615804,51.63503606615804 0 0,0 -0.8258628739257624,-0.3286278814023135 l 11.571097136498622 -28.365738943882935" fill="#b2ff20" stroke="none" /><path d="M 92.06813273071674 119.44442032107085 l -7.781183426033388 19.075029371339337 a41.601057279349405,41.601057279349405 0 0,0 -0.6607209484639943,-0.27618141004400615 l 8.108375833994844 -18.93826291827536" fill="#ffc512" stroke="none" /><path d="M 91.07499286063937 119.00905698771935 l -11.04216767355751 23.518322315834464 a46.981550213226996,46.981550213226996 0 0,0 -0.7290805739143431,-0.35000298163240173 l 11.445360915472095 -23.3247650577025" fill="#efff19" stroke="none" /><path d="M 90.10565033884886 118.52300852407294 l -13.759890244577276 25.759607555749152 a50.20431408146786,50.20431408146786 0 0,0 -0.7587478112018992,-0.41372980351365896 l 14.201260867647816 -25.51893710047573" fill="#c4ff1e" stroke="none" /><line stroke="#e1ed5e" stroke-width="0.3" x1="58.666819895761336" x2="56.23545636021788" y1="174.27360380694188" y2="178.64263932499728" /><path d="M 58.180547188652646 175.14741091055294 a86.0,86.0 0 0,1 -31.652253787137756,-30.449443065178592" fill="none" id="id56" stroke="none" /><text fill="#e1ed5e" style="font-size:6.75px; font-family:Arial;" text-anchor="middle"><textPath startOffset="22.20632615414155" xlink:href="#id56">August</textPath></text><path d="M 89.7882731507175 118.34994917583269 l -14.546431385815472 26.13919081063224 a50.91414318172724,50.91414318172724 0 0,0 -0.7621392233488651,-0.43276254162938466 l 14.994219376085544 -25.88492510320822" fill="#bbff1f" stroke="none" /><path d="M 89.1626897886671 117.98757091392108 l -15.279949164607517 25.36138246481758 a50.608724508153784,50.608724508153784 0 0,0 -0.7423114196860431,-0.45598830266895296 l 15.714239784225867 -25.094605695320247" fill="#bfff1e" stroke="none" /><path d="M 88.24862548938628 117.40417183066458 l -16.69417706143522 24.724624841658958 a50.83291171373202,50.83291171373202 0 0,0 -0.7209634661194055,-0.4958852460927926 l 17.117297412177514 -24.433598806201065" fill="#bcff1f" stroke="none" /><path d="M 87.95078237400918 117.19931262002967 l -17.107107053107175 24.41905286829858 a50.81515142861478,50.81515142861478 0 0,0 -0.7120719236505678,-0.5080444108425044 l 17.524906304606628 -24.120964195611855" fill="#bcff1f" stroke="none" /><path d="M 87.65650970185807 116.9893568818739 l -12.196447624279376 16.786970004031733 a41.74983606123314,41.74983606123314 0 0,0 -0.57776808771216,-0.42741901880527855 l 12.483600682410101 -16.57454103648669" fill="#ffc712" stroke="none" /><path d="M 87.07902340077011 116.55440617244103 l -18.32348568417657 23.476122116717313 a50.78050431502542,50.78050431502542 0 0,0 -0.6844305363048482,-0.5437530119126353 l 18.724873713198775 -23.157235190799547" fill="#bdff1f" stroke="none" /><path d="M 86.24171649860922 115.8653595955263 l -19.712700460504873 22.731693337558557 a51.08854335853421,51.08854335853421 0 0,0 -0.659425731247336,-0.5818665377106863 l 20.101068544658798 -22.389003658075584" fill="#b9ff1f" stroke="none" /><path d="M 85.97065885151581 115.62618273729859 l -21.258003757528858 23.677623049405753 a52.820316733572305,52.820316733572305 0 0,0 -0.6713222063568517,-0.6132369186110976 l 21.662425513352563 -23.30819336420808" fill="#a3ff21" stroke="none" /><path d="M 85.44109423537348 115.13401014063109 l -20.851142689157992 21.674802351436057 a51.076023813287634,51.076023813287634 0 0,0 -0.6283568183151395,-0.6149793983006743 l 21.221149459848924 -21.312672850212813" fill="#b9ff1f" stroke="none" /><path d="M 84.9287848128048 114.62390073753433 l -21.588211197534555 20.947471967748207 a51.08068224872822,51.08068224872822 0 0,0 -0.6068712177214701,-0.6363020455418056 l 21.945588966634983 -20.572762805623903" fill="#b9ff1f" stroke="none" /><path d="M 84.43433777217949 114.09645910891817 l -22.251144013738557 20.150915336946362 a51.01954028357052,51.01954028357052 0 0,0 -0.5839092858174421,-0.6560282725957408 l 22.59471214920434 -19.764912894609758" fill="#baff1f" stroke="none" /><path d="M 83.95833913139862 113.55231037782056 l -22.733197171230003 19.205451758908954 a50.759832507757814,50.759832507757814 0 0,0 -0.558126112894066,-0.6722988572773237 l 23.060419284017605 -18.811291644517866" fill="#bdff1f" stroke="none" /><path d="M 83.28015986056508 112.70617746262583 l -23.972904777763773 18.218115715261376 a51.10979747023189,51.10979747023189 0 0,0 -0.526281803068271,-0.7050404789530443 l 24.28294784752713 -17.802762356799022" fill="#b9ff1f" stroke="none" /><path d="M 82.85270091963577 112.12312394758628 l -24.6407125709749 17.420960073930836 a51.177053631905366,51.177053631905366 0 0,0 -0.5023614957045617,-0.7236892024532467 l 24.9369349738416 -16.994229609290578" fill="#b8ff1f" stroke="none" /><path d="M 82.6465618267979 111.8261652097733 l -24.90301109923536 16.9711108854017 a51.136001169585185,51.136001169585185 0 0,0 -0.48943702079999435,-0.7316419384089675 l 25.191451225446087 -16.53993203278691" fill="#b8ff1f" stroke="none" /><path d="M 82.24976979558568 111.22182372390057 l -25.41041035488557 16.064644935342244 a51.06263081139595,51.06263081139595 0 0,0 -0.46329698862626023,-0.7469822626381872 l 25.683171983179786 -15.624866341338794" fill="#b9ff1f" stroke="none" /><line stroke="#e1ed5e" stroke-width="0.3" x1="26.63291911575756" x2="22.317208475507996" y1="142.92168965132927" y2="145.44649492493687" /><path d="M 25.769776987707644 143.4266507060508 a86.0,86.0 0 0,1 -11.730757126820373,-40.83630448921669" fill="none" id="id57" stroke="none" /><text fill="#e1ed5e" style="font-size:6.75px; font-family:Arial;" text-anchor="middle"><textPath startOffset="21.46611528233685" xlink:href="#id57">September</textPath></text><path d="M 81.87401531095188 110.60418214915194 l -25.97521284777175 15.196188958892257 a51.09378409840487,51.09378409840487 0 0,0 -0.43757690852950126,-0.7629522234885802 l 26.23294175245363 -14.746816889545372" fill="#b9ff1f" stroke="none" /><path d="M 81.51974371655577 109.97397251340807 l -25.894109449719643 13.975300555872465 a50.42471630825061,50.42471630825061 0 0,0 -0.4056728258928868,-0.7673801047932685 l 26.130834783837415 -13.52750543599307" fill="#c1ff1e" stroke="none" /><path d="M 81.18737489456691 109.33194174019688 l -26.976147865842428 13.381430759829234 a51.11270899238225,51.11270899238225 0 0,0 -0.38418926952605276,-0.7915436883264386 l 27.2024903919832 -12.91509811553751" fill="#b9ff1f" stroke="none" /><path d="M 80.87730276802145 108.67885076344099 l -27.47326689504779 12.468763191395972 a51.170357130959516,51.170357130959516 0 0,0 -0.35711771595364017,-0.8052061731518293 l 27.683825695732708 -11.994008681751447" fill="#b8ff1f" stroke="none" /><path d="M 80.58989483394504 108.01547362559985 l -16.773043895952494 6.92648956916296 a39.14693525880534,39.14693525880534 0 0,0 -0.2518404101571377,-0.6250472447282954 l 16.88978692036702 -6.63674295659186" fill="#ffa10e" stroke="none" /><path d="M 80.32549172779594 107.34259656027581 l -27.96790164550123 10.437720505092155 a50.85212775992444,50.85212775992444 0 0,0 -0.2990001930768292,-0.8227201158743198 l 28.143426099583284 -9.954752592211719" fill="#bcff1f" stroke="none" /><path d="M 80.20201598880116 107.00284435728193 l -35.98551955097938 12.728618852752321 a59.170346543521994,59.170346543521994 0 0,0 -0.3313797757040398,-0.9631447436305566 l 36.19929015762665 -12.107301406032468" fill="#57ff2a" stroke="none" /><path d="M 79.58551787078972 104.9243191809786 l -59.7293083734054 14.407721784374456 a82.44243424361778,82.44243424361778 0 0,0 -0.3208951389705113,-1.3824078600789051 l 59.96846407830647 -13.377445266946976" fill="#4be2ff" stroke="none" /><path d="M 79.4281124754447 104.21870165774334 l -29.4968255046005 6.048949397856199 a51.11067092687699,51.11067092687699 0 0,0 -0.16932251438292803,-0.8633718529360277 l 29.596577951959095 -5.540313817852216" fill="#b9ff1f" stroke="none" /><path d="M 79.23777060512086 103.15116336523772 l -28.715618107430107 4.358279742955198 a50.04447151541273,50.04447151541273 0 0,0 -0.12193204173613675,-0.8527924159113481 l 28.78638420018284 -3.86334185506345" fill="#c6ff1e" stroke="none" /><path d="M 79.18660465613746 102.79330883721812 l -28.83226604394147 3.8694995317673917 a50.09076471760356,50.09076471760356 0 0,0 -0.10733375299825668,-0.8555556180176707 l 28.894601306186573 -3.372626159462312" fill="#c6ff1e" stroke="none" /><line stroke="#e1ed5e" stroke-width="0.3" x1="15.007084014347285" x2="10.007500721073583" y1="101.09737516637583" y2="101.16192664675087" /><path d="M 14.007167355692545 101.11028546245083 a86.0,86.0 0 0,1 10.666146001902534,-42.60595125391555" fill="none" id="id58" stroke="none" /><text fill="#e1ed5e" style="font-size:6.75px; font-family:Arial;" text-anchor="middle"><textPath startOffset="22.20632615414155" xlink:href="#id58">October</textPath></text><line stroke="#e1ed5e" stroke-width="0.3" x1="26.266209847984243" x2="21.928928074336255" y1="57.711370442889674" y2="55.22380399835377" /><path d="M 25.398753493254645 57.213857153982495 a86.0,86.0 0 0,1 29.58750427330803,-30.492523968695096" fill="none" id="id59" stroke="none" /><text fill="#e1ed5e" style="font-size:6.75px; font-family:Arial;" text-anchor="middle"><textPath startOffset="21.46611528233685" xlink:href="#id59">November</textPath></text><line stroke="#e1ed5e" stroke-width="0.3" x1="56.762969772571076" x2="54.21961505331055" y1="26.818313649435495" y2="22.513508569990535" /><path d="M 56.25429882871897 25.957352633546506 a86.0,86.0 0 0,1 42.265352541879196,-11.944610805530505" fill="none" id="id60" stroke="none" /><text fill="#e1ed5e" style="font-size:6.75px; font-family:Arial;" text-anchor="middle"><textPath startOffset="22.20632615414155" xlink:href="#id60">December</textPath></text></svg>