<?xml version="1.0" encoding="utf-8" ?>
<svg baseProfile="full" height="200mm" version="1.1" viewBox="0,0,200,200" width="200mm" xmlns="http://www.w3.org/2000/svg" xmlns:ev="http://www.w3.org/2001/xml-events" xmlns:xlink="http://www.w3.org/1999/xlink"><defs /><rect fill="#1a1a1a" height="200" width="200" x="0" y="0" /><text alignment-baseline="middle" fill="#e1ed5e" style="dominant-baseline: central; font-size:9.0px; font-family:Arial;" text-anchor="middle" x="100.0" y="100.0">2020</text><line stroke="#e1ed5e" stroke-width="0.3" x1="100.0" x2="100.0" y1="15.0" y2="10.0" /><path d="M 100.0 14.0 a86.0,86.0 0 0,1 42.35913384403234,11.155469271406648" fill="none" id="id37" stroke="none" /><text fill="#e1ed5e" style="font-size:6.75px; font-family:Arial;" text-anchor="middle"><textPath startOffset="22.145653131862478" xlink:href="#id37">January</textPath></text><line stroke="#e1ed5e" stroke-width="0.3" x1="143.13028292997686" x2="145.6673583964461" y1="26.7553504044142" y2="22.446841604673864" /><path d="M 143.63769802327073 25.89364864446614 a86.0,86.0 0 0,1 29.32050498858742,28.57503671076993" fill="none" id="id38" stroke="none" /><text fill="#e1ed5e" style="font-size:6.75px; font-family:Arial;" text-anchor="middle"><textPath startOffset="20.669276256404974" xlink:href="#id38">February</textPath></text><line stroke="#e1ed5e" stroke-width="0.3" x1="172.87174338648825" x2="177.1583165268699" y1="56.24261187166439" y2="53.66864786411523" /><path d="M 173.72905801456457 55.72781907015455 a86.0,86.0 0 0,1 12.242430191666344,42.057860355516425" fill="none" id="id39" stroke="none" /><text fill="#e1ed5e" style="font-size:6.75px; font-family:Arial;" text-anchor="middle"><textPath startOffset="22.145653131862474" xlink:href="#id39">March</textPath></text><path d="M 120.51834098615036 95.52812308129327 l 14.864679799515093 -3.2396877771105492 a36.21362160812709,36.21362160812709 0 0,0 0.12716549317730794,0.6085329192801642 l -14.918103003516768 2.9840384065449808" fill="#ff9a0e" stroke="none" /><path d="M 120.592083275326 95.88100663000786 l 17.87837039699171 -3.576174792363581 a39.23253010960262,39.23253010960262 0 0,0 0.12642908455565363,0.6615303942411211 l -17.937125773829518 3.268741833089145" fill="#ffc312" stroke="none" /><path d="M 120.77682067341334 96.94652285012252 l 14.789405579275355 -2.173533319001731 a35.948269614812,35.948269614812 0 0,0 0.08448782027821951,0.6113117799726175 l -14.824537916108786 1.9193332308290278" fill="#ff960d" stroke="none" /><path d="M 120.82617615685814 97.30363454192243 l 17.942514932684425 -2.3230177796993106 a39.092270551658316,39.092270551658316 0 0,0 0.0804517322197838,0.6662557530409129 l -17.97974875116387 2.0146683497349844" fill="#ffc112" stroke="none" /><path d="M 120.93736805541906 98.37931529534042 l 24.797697831268767 -1.9194986437421573 a45.87187754823185,45.87187754823185 0 0,0 0.05403278783163792,0.7856248765051783 l -24.82699458026547 1.4935303430826448" fill="#e4ff1b" stroke="none" /><line stroke="#e1ed5e" stroke-width="0.3" x1="184.99686870605535" x2="189.99668451229388" y1="99.2704041080226" y2="99.22748670261217" /><path d="M 185.99683186730306 99.26182062694052 a86.0,86.0 0 0,1 -10.086455211305974,41.156179273409016" fill="none" id="id40" stroke="none" /><text fill="#e1ed5e" style="font-size:6.75px; font-family:Arial;" text-anchor="middle"><textPath startOffset="21.40746469413373" xlink:href="#id40">April</textPath></text><path d="M 120.99922638620191 99.81974689727618 l 18.168777845380454 -0.1559571061856682 a39.169447185144556,39.169447185144556 0 0,0 0.0,0.6724204178189879 l -18.168777845380454 -0.15595710618566597" fill="#ffc212" stroke="none" /><path d="M 120.99303781780057 100.54070618675476 l 14.990350074911737 0.38609824349726096 a35.995321511125994,35.995321511125994 0 0,0 -0.02121206525473112,0.6175661354980668 l -14.98151332266016 -0.6433706435594385" fill="#ff970d" stroke="none" /><path d="M 120.98066250479742 100.90099992219065 l 15.43595198321374 0.6628861949728209 a36.45017901953132,36.45017901953132 0 0,0 -0.032212256505994456,0.6249091706428086 l -15.422298137251174 -0.9277671589923601" fill="#ff9d0e" stroke="none" /><path d="M 120.93736805541906 101.62068470465957 l 18.077404186371794 1.3993054135196674 a39.131480848451346,39.131480848451346 0 0,0 -0.05759106245230321,0.6692954431326799 l -18.050719501221753 -1.7094219040280048" fill="#ffc212" stroke="none" /><path d="M 120.86939407059847 102.33845913500097 l 15.173410693015116 1.7002123168583803 a36.26836972244589,36.26836972244589 0 0,0 -0.07464015591272823,0.618127564349666 l -15.141988450842723 -1.9604335581314547" fill="#ff9a0e" stroke="none" /><path d="M 120.77682067341334 103.0534771498775 l 19.497049491847186 2.8653948575282806 a40.70648184169585,40.70648184169585 0 0,0 -0.107539755851333,0.6904823763811844 l -19.444988243857587 -3.1996654158409155" fill="#ffd714" stroke="none" /><path d="M 120.7213421655516 103.40968896794604 l 14.930649417472948 2.4568326798667206 a36.13143479133246,36.13143479133246 0 0,0 -0.1059600478996021,0.6111493984979405 l -14.886274552081112 -2.7127751112852487" fill="#ff980e" stroke="none" /><path d="M 120.592083275326 104.11899336999214 l 15.392587997467153 3.078948694062328 a36.69750586304837,36.69750586304837 0 0,0 -0.12886467092273776,0.6166640999012865 l -15.33746561572005 -3.3427292452490236" fill="#ffa00e" stroke="none" /><path d="M 120.43855184770803 104.8234425847677 l 17.348417275896995 4.0941792398205115 a38.82497926019603,38.82497926019603 0 0,0 -0.15865083348909212,0.6473495403651892 l -17.275578915891607 -4.3913846047938" fill="#ffbe11" stroke="none" /><path d="M 120.26092885502905 105.52220625578681 l 23.331321137287382 6.35905532574432 a45.182392988435,45.182392988435 0 0,0 -0.21038107228991004,0.7465682069565339 l -23.21872157292289 -6.7586314566038626" fill="#ecff1a" stroke="none" /><path d="M 120.16314734710363 105.8691983318838 l 28.656579839500655 8.341512745809109 a50.845944498141975,50.845944498141975 0 0,0 -0.25113945124945164,0.8359615545295984 l -28.509164068247575 -8.83221190392943" fill="#a7ff21" stroke="none" /><path d="M 119.71291397450082 107.23885506374661 l 23.151239738284847 8.501455909982411 a45.66281926319281,45.66281926319281 0 0,0 -0.2765195000383342,0.7335008263445771 l -23.001889554432072 -8.897625016521149" fill="#e6ff1a" stroke="none" /><path d="M 119.31412917781788 108.2440532568976 l 38.0974093141087 16.261518624202537 a62.42281478137407,62.42281478137407 0 0,0 -0.42913044969337855,0.9819344492211866 l -37.81264498239836 -16.91311514319957" fill="#30ff3a" stroke="none" /><path d="M 119.16976305983485 108.57439118712176 l 13.617686174903238 6.091017816058814 a35.91783747041429,35.91783747041429 0 0,0 -0.2565825528273009,0.5606791837058998 l -13.51111915722088 -6.323885981979403" fill="#ff950d" stroke="none" /><path d="M 118.8641267826498 109.22738970284198 l 16.684914843928997 8.161427941910773 a39.57404881548889,39.57404881548889 0 0,0 -0.3037404106020781,0.6076842888388579 l -16.542354520115186 -8.446644086913377" fill="#ffc812" stroke="none" /><line stroke="#e1ed5e" stroke-width="0.3" x1="174.33088141563837" x2="178.70328620479359" y1="141.23008692659167" y2="143.65538615756765" /><path d="M 175.20536237346943 141.71514677278685 a86.0,86.0 0 0,1 -30.301960400862466,31.631185727798858" fill="none" id="id41" stroke="none" /><text fill="#e1ed5e" style="font-size:6.75px; font-family:Arial;" text-anchor="middle"><textPath startOffset="22.145653131862474" xlink:href="#id41">May</textPath></text><path d="M 118.18653347947321 110.5 l 26.191356915136005 15.12158696539533 a51.243173930790675,51.243173930790675 0 0,0 -0.4463677946826031,0.7580301006919317 l -25.927915410323635 -15.568968234380812" fill="#a2ff22" stroke="none" /><path d="M 118.00360718960297 110.81064883170644 l 18.420798165991243 11.061160026157236 a42.48662528636,42.48662528636 0 0,0 -0.38082590290819135,0.6220504922228364 l -18.228204298627645 -11.375747634504629" fill="#ffef16" stroke="none" /><path d="M 117.62189284568427 111.42229804090321 l 25.273913192568678 16.382245180666644 a51.11890843349029,51.11890843349029 0 0,0 -0.48362275308493713,0.7322664882922356 l -24.988966000563014 -16.81369154729794" fill="#a3ff21" stroke="none" /><path d="M 116.79662413953412 112.60449989151573 l 25.19924199596068 18.9099809798551 a52.505383315069665,52.505383315069665 0 0,0 -0.5471761579408235,0.7162711553351827 l -24.870913860665553 -19.33977304843116" fill="#93ff23" stroke="none" /><path d="M 114.13192950727249 115.5334660781643 l 20.60963421077794 22.653598274159624 a51.625847532257396,51.625847532257396 0 0,0 -0.6606509881810273,0.5907581874076271 l -20.217718195773536 -23.004051991450638" fill="#9dff22" stroke="none" /><path d="M 113.59037401385872 116.0094264158162 l 19.43238662696914 22.891302584528493 a51.027144120552826,51.027144120552826 0 0,0 -0.6726487212851895,0.5611474868768915 l -19.03656357152206 -23.221512255317254" fill="#a4ff21" stroke="none" /><line stroke="#e1ed5e" stroke-width="0.3" x1="143.1302829299769" x2="145.66735839644613" y1="173.24464959558577" y2="177.55315839532614" /><path d="M 143.63769802327073 174.10635135553383 a86.0,86.0 0 0,1 -40.68552437913181,11.842963189579606" fill="none" id="id42" stroke="none" /><text fill="#e1ed5e" style="font-size:6.75px; font-family:Arial;" text-anchor="middle"><textPath startOffset="21.407464694133747" xlink:href="#id42">June</textPath></text><path d="M 110.34350942703117 118.27599006163325 l 7.604958341708647 13.437232696765196 a36.4400328343608,36.4400328343608 0 0,0 -0.5470443873721423,0.30343630015548523 l -7.37316976618041 -13.565801912353825" fill="#ff9d0e" stroke="none" /><path d="M 109.06512990194946 118.94263497670748 l 9.778680001769143 20.433680248498977 a43.652988126843155,43.652988126843155 0 0,0 -0.6787234903165441,0.3176768642262346 l -9.426467797581092 -20.598533344295745" fill="#fffe18" stroke="none" /><path d="M 108.73861861582097 119.09545874513695 l 8.89660378692265 19.44068485577803 a42.37965824336684,42.37965824336684 0 0,0 -0.6641227390214796,0.29705365386409727 l -8.561567645045544 -19.590542260551977" fill="#ffed16" stroke="none" /><path d="M 107.74402155503746 119.51999308798841 l 16.63546400425061 41.93223638010404 a66.11154076811873,66.11154076811873 0 0,0 -1.058501608358636,0.4094511613175244 l -15.913190133398446 -42.2116274295596" fill="#35ff68" stroke="none" /><path d="M 106.38641147887787 120.00534299687104 l 6.369442512551015 19.952187951538612 a41.94420210879886,41.94420210879886 0 0,0 -0.6878037568043169,0.21308336203306696 l -6.025998122875074 -20.05858790137832" fill="#ffe815" stroke="none" /><path d="M 105.3480935250658 120.30758222061773 l 1.235192601717441 4.690227498848204 a25.850147910557922,25.850147910557922 0 0,0 -0.4300907071090235,0.10932737589048483 l -1.1544966013830205 -4.710740106573959" fill="#ff0000" stroke="none" /><path d="M 104.64783097203109 120.47920084513623 l 6.8480503296101105 30.173773302345687 a51.94111162544459,51.94111162544459 0 0,0 -0.8712196017648719,0.18987825725710145 l -6.329068311226102 -30.286883017736507" fill="#9aff23" stroke="none" /><path d="M 104.29559338865022 120.5559693870025 l 4.776491502075655 22.857240946819953 a44.35098145197293,44.35098145197293 0 0,0 -0.7465822768296998,0.14933736462205932 l -4.383412739714997 -22.935867708104873" fill="#f7ff18" stroke="none" /><path d="M 103.94208987418118 120.62667999033965 l 2.9612514708825897 15.494519001423088 a36.77495259451722,36.77495259451722 0 0,0 -0.6210856362181757,0.11318249237005643 l -2.694831101113357 -15.543069667724508" fill="#ffa10e" stroke="none" /><path d="M 102.51750503828377 120.84855314841334 l 3.364188672193185 27.860308228548586 a49.0626894650503,49.0626894650503 0 0,0 -0.8370190574398194,0.09378973124081415 l -2.8854337131525662 -27.91395372029637" fill="#bcff1f" stroke="none" /><path d="M 101.80034050326958 120.92268563240118 l 1.573444299644714 18.285807813451445 a39.35337828179233,39.35337828179233 0 0,0 -0.673563062610239,0.05213804095656293 l -1.259312242259239 -18.310123621403065" fill="#ffc512" stroke="none" /><path d="M 101.44090949804482 120.95050786540614 l 1.4905756523866607 21.672642849314002 a42.72384090922711,42.72384090922711 0 0,0 -0.7321150214180672,0.044042221686537646 l -1.1183162788361285 -21.69503704882523" fill="#fff216" stroke="none" /><line stroke="#e1ed5e" stroke-width="0.3" x1="101.45913802915013" x2="101.54496967792366" y1="184.9874750549273" y2="189.98673829345242" /><path d="M 101.47630435890484 185.9873277026323 a86.0,86.0 0 0,1 -42.54439059252881,-10.42667462771756" fill="none" id="id43" stroke="none" /><text fill="#e1ed5e" style="font-size:6.75px; font-family:Arial;" text-anchor="middle"><textPath startOffset="22.145653131862474" xlink:href="#id43">July</textPath></text><path d="M 100.0 121.0 l 2.590945136401993e-15 21.156672586789185 a42.156672586789185,42.156672586789185 0 0,0 -0.7236753429860504,-0.006211882454092579 l 0.3631824181371957 -21.153555102529527" fill="#ffea16" stroke="none" /><path d="M 99.63950707515114 120.99690560180557 l -0.3160719339171791 18.409605577201702 a39.412318674614184,39.412318674614184 0 0,0 -0.6763654719967589,-0.01742077532513204 l 0.6320507199846819 -18.401467084526523" fill="#ffc612" stroke="none" /><path d="M 99.27912038922189 120.98762331915562 l -0.5241658896572197 15.260517962217733 a36.26951729279777,36.26951729279777 0 0,0 -0.6220640859194364,-0.026714108426408388 l 0.7860557361774948 -15.249271285365497" fill="#ff9a0e" stroke="none" /><path d="M 97.48249496171623 120.84855314841334 l -4.03244414057913 33.39442213795308 a54.63700396400817,54.63700396400817 0 0,0 -0.9301876505987392,-0.12043141437554851 l 4.605109613068662 -33.320279127377134" fill="#7bff26" stroke="none" /><path d="M 96.41257539226777 120.69131181640829 l -2.8314995401814365 16.331336906044847 a37.57497978233428,37.57497978233428 0 0,0 -0.634597153157868,-0.11564474084877477 l 3.1114314268903613 -16.28032399126471" fill="#ffad10" stroke="none" /><path d="M 95.00130118170881 120.39639698878247 l -5.150640503116374 21.016370913096303 a42.6383211906373,42.6383211906373 0 0,0 -0.7094097014173734,-0.1803291719752402 l 5.510655497759125 -20.9248565092858" fill="#fff116" stroke="none" /><path d="M 94.6519064749342 120.30758222061772 l -4.639911122123601 17.61849828677486 a39.21922767579062,39.21922767579062 0 0,0 -0.6495798488865108,-0.1770458763672975 l 4.941672371944806 -17.536251916263414" fill="#ffc312" stroke="none" /><path d="M 93.95794788825049 120.11202640906438 l -4.708195412262942 15.672051269854027 a37.363993859843234,37.363993859843234 0 0,0 -0.6126972037601801,-0.18981515991140432 l 4.976533248894755 -15.588919522135974" fill="#ffaa0f" stroke="none" /><path d="M 92.59220618246901 119.65005319985036 l -9.549332297458925 25.33073844793632 a48.070944897529,48.070944897529 0 0,0 -0.7696564306044976,-0.29771964146108143 l 9.982760990556951 -25.1630789183372" fill="#c8ff1d" stroke="none" /><path d="M 91.92203290615298 119.3841803445677 l -6.356178943047005 15.252515577615469 a37.52392938139826,37.52392938139826 0 0,0 -0.5924580392692078,-0.2528851072313417 l 6.617072057486644 -15.141155820724723" fill="#ffac0f" stroke="none" /><path d="M 91.59046798132341 119.24265499422711 l -7.40460099406531 16.94317614610053 a39.4905201062356,39.4905201062356 0 0,0 -0.6188476610105808,-0.2768026873455637 l 7.694362057931526 -16.81356970784511" fill="#ffc712" stroke="none" /><path d="M 90.28995756902619 118.62028667847754 l -11.275409948537316 21.62208529484939 a45.38543503826242,45.38543503826242 0 0,0 -0.6877215728365501,-0.36617300146382586 l 11.644920337160428 -21.425341825662994" fill="#eaff1a" stroke="none" /><line stroke="#e1ed5e" stroke-width="0.3" x1="58.13341422392154" x2="55.67067388415222" y1="173.97424548756322" y2="178.32567169271397" /><path d="M 57.64086615596768 174.84453072859336 a86.0,86.0 0 0,1 -31.369924170532247,-30.572349798747897" fill="none" id="id44" stroke="none" /><text fill="#e1ed5e" style="font-size:6.75px; font-family:Arial;" text-anchor="middle"><textPath startOffset="22.145653131862474" xlink:href="#id44">August</textPath></text><path d="M 89.34428304082925 118.09573695890944 l -9.416170909686025 15.990716776234043 a39.557136029521104,39.557136029521104 0 0,0 -0.5821816662441411,-0.34958336314168065 l 9.689285332487595 -15.826719412556445" fill="#ffc812" stroke="none" /><path d="M 88.72937992617639 117.7192867562869 l -16.18201039770444 25.44080810567732 a51.151155493302596,51.151155493302596 0 0,0 -0.7368552125418963,-0.4776206463375443 l 16.616351242503345 -25.159273617635883" fill="#a3ff22" stroke="none" /><path d="M 88.4268655584334 117.5232005979908 l -13.903737374590408 21.052030485506876 a46.22898928899636,46.22898928899636 0 0,0 -0.6584410616125037,-0.44302853154382726 l 14.263074724299917 -20.810252279905928" fill="#dfff1b" stroke="none" /><path d="M 87.83215693770417 117.11559508785305 l -9.66482610395166 13.594788274540551 a37.68014184139963,37.68014184139963 0 0,0 -0.5239674737853155,-0.37931204380120787 l 9.89677458811093 -13.42687545936628" fill="#ffae10" stroke="none" /><path d="M 86.40962598614128 116.0094264158162 l -11.949711413176598 14.076729997600085 a39.464829549268444,39.464829549268444 0 0,0 -0.5127054918429225,-0.44286279259831984 l 12.189596384782384 -13.869523072537042" fill="#ffc712" stroke="none" /><path d="M 85.60350026404147 115.28858382429668 l -10.97128158104788 11.65112084105108 a37.00367571476676,37.00367571476676 0 0,0 -0.4587178529843459,-0.43944132654136825 l 11.169671919897539 -11.46106738420413" fill="#ffa50f" stroke="none" /><path d="M 85.34317274990678 115.03919595460226 l -19.233587687634895 19.735355354108243 a48.55748802577749,48.55748802577749 0 0,0 -0.5919575844186491,-0.5868981482868969 l 19.569537192183507 -19.40227719559269" fill="#c2ff1e" stroke="none" /><path d="M 84.58840730492382 114.26474011684316 l -15.559605812824342 14.401738848923303 a42.20168424732016,42.20168424732016 0 0,0 -0.48753455365451864,-0.5358858779495194 l 15.80453806732074 -14.13251539541611" fill="#ffeb16" stroke="none" /><path d="M 84.3458050057657 113.99807769240083 l -18.84552402877761 16.85178379380082 a46.28114698648466,46.28114698648466 0 0,0 -0.5244952823852131,-0.5967793510833614 l 19.132030375121413 -16.525792164906157" fill="#deff1b" stroke="none" /><path d="M 83.64595745247003 113.17365903436017 l -16.992706005075636 13.688121107144918 a42.82009891863004,42.82009891863004 0 0,0 -0.45620445577840496,-0.5763994268522508 l 17.2251768914956 -13.394401736377986" fill="#fff316" stroke="none" /><path d="M 83.20337586046588 112.60449989151573 l -21.94561910017243 16.46840170200065 a48.43753728577532,48.43753728577532 0 0,0 -0.49336625722667876,-0.6693460816612092 l 22.22508737698294 -16.089249311070564" fill="#c4ff1e" stroke="none" /><path d="M 82.37810715431573 111.42229804090323 l -18.124883780634395 11.748330687973821 a42.599414020187936,42.599414020187936 0 0,0 -0.3924872838100186,-0.6170552005544205 l 18.323888756070303 -11.435461812740728" fill="#fff016" stroke="none" /><path d="M 82.18462484594161 111.11811171558189 l -13.89415367039504 8.67097949748895 a37.37783232489653,37.37783232489653 0 0,0 -0.3350335934647547,-0.54725219617264 l 14.0409552283152 -8.431190185191753" fill="#ffaa0f" stroke="none" /><line stroke="#e1ed5e" stroke-width="0.3" x1="26.387840678322732" x2="22.057713659400548" y1="142.50000000000003" y2="145.00000000000006" /><path d="M 25.521815274538298 143.00000000000003 a86.0,86.0 0 0,1 -11.493303480769221,-40.785679425670985" fill="none" id="id45" stroke="none" /><text fill="#e1ed5e" style="font-size:6.75px; font-family:Arial;" text-anchor="middle"><textPath startOffset="21.40746469413373" xlink:href="#id45">September</textPath></text><path d="M 81.29705330413844 109.54985784667822 l -19.183767827828245 9.79536854264662 a42.53987448798829,42.53987448798829 0 0,0 -0.32650384104456043,-0.6532263983413578 l 19.34909158208454 -9.46461028814151" fill="#fff016" stroke="none" /><path d="M 81.1358732173502 109.22738970284198 l -14.503680839566263 7.094477087347116 a37.145846618833424,37.145846618833424 0 0,0 -0.27526972450143583,-0.575207853364373 l 14.62332982202761 -6.844456731917639" fill="#ffa70f" stroke="none" /><path d="M 80.9802524753101 108.90220220490708 l -20.546214123163473 9.616665648809708 a43.68539558826072,43.68539558826072 0 0,0 -0.31207085700911924,-0.6819311423876994 l 20.70826944502765 -9.26254552420732" fill="#fffe18" stroke="none" /><path d="M 80.28708602549918 107.23885506374661 l -27.92526760668099 10.254545070433737 a50.74855064547353,50.74855064547353 0 0,0 -0.2932778798500477,-0.8203504265938423 l 28.097185656574982 -9.773659687458974" fill="#a8ff21" stroke="none" /><path d="M 80.16572619554312 106.89939002012753 l -19.963479818587675 6.94433457888592 a42.13679988102901,42.13679988102901 0 0,0 -0.23178165116888522,-0.6852212667804168 l 20.079746891328927 -6.600611637631342" fill="#ffea16" stroke="none" /><path d="M 79.94057633289273 106.21446072829308 l -27.191533859122487 8.424006696994839 a49.46653126818964,49.46653126818964 0 0,0 -0.24432622189486425,-0.8132825298909316 l 27.332136401020982 -7.955986563513183" fill="#b7ff1f" stroke="none" /><path d="M 79.56144815229197 104.8234425847677 l -15.29182986111241 3.608830209728549 a36.71189727511794,36.71189727511794 0 0,0 -0.13948622162691024,-0.6146020294232802 l 15.351526944296987 -3.3457938463662424" fill="#ffa10e" stroke="none" /><path d="M 79.407916724674 104.11899336999214 l -21.63892845527948 4.328391724592002 a43.067582550298084,43.067582550298084 0 0,0 -0.13878776160109293,-0.7261962148226921 l 21.71004250916273 -3.956292944735995" fill="#fff617" stroke="none" /><path d="M 79.17382384314188 102.69636545807758 l -21.389447393496496 2.769292196743441 a42.56797253035385,42.56797253035385 0 0,0 -0.08760471261513995,-0.7254926918649852 l 21.433834192371297 -2.4017058279550567" fill="#fff016" stroke="none" /><path d="M 79.0935383218832 101.97986365728391 l -27.534650594824264 2.6075600389981433 a48.657844325544175,48.657844325544175 0 0,0 -0.07161131883046953,-0.832232074371764 l 27.575355536352475 -2.134506917250717" fill="#c1ff1e" stroke="none" /><path d="M 79.06263194458094 101.62068470465958 l -21.46901872841954 1.6618378291436642 a42.53324105032965,42.53324105032965 0 0,0 -0.0501001858284076,-0.7284457064656897 l 21.494382875413017 -1.2930486985236311" fill="#ffef16" stroke="none" /><line stroke="#e1ed5e" stroke-width="0.3" x1="15.003131293944662" x2="10.003315487706104" y1="100.72959589197737" y2="100.7725132973878" /><path d="M 14.003168132696942 100.73817937305945 a86.0,86.0 0 0,1 10.791469493833604,-42.45332614584628" fill="none" id="id46" stroke="none" /><text fill="#e1ed5e" style="font-size:6.75px; font-family:Arial;" text-anchor="middle"><textPath startOffset="22.145653131862435" xlink:href="#id46">October</textPath></text><path d="M 79.00077361379809 99.81974689727619 l -32.39439454961209 -0.27806691642049114 a53.395587962652336,53.395587962652336 0 0,0 0.01573534516363423,-0.916504969275418 l 32.38484777284979 0.8341188016649614" fill="#89ff24" stroke="none" /><path d="M 79.01933749520258 99.09900007780938 l -30.538007298864386 -1.3114334303715136 a51.56615362501128,51.56615362501128 0 0,0 0.04557075471992966,-0.8840604672416082 l 30.510994954687884 1.835465690989834" fill="#9eff22" stroke="none" /><path d="M 79.06263194458094 98.37931529534042 l -30.770923314345872 -2.3818640734505285 a51.862971309997825,51.862971309997825 0 0,0 0.07632840758680552,-0.8870517959576258 l 30.725501284061323 2.9097369167838347" fill="#9bff22" stroke="none" /><path d="M 79.13060592940154 97.66154086499901 l -31.904107941514987 -3.5749218404477596 a53.10377189224266,53.10377189224266 0 0,0 0.10928734442500922,-0.9050559875928165 l 31.83803851083031 4.122071504964012" fill="#8cff24" stroke="none" /><path d="M 79.17382384314186 97.30363454192245 l -21.399806918980218 -2.7706334447222076 a42.578418520703664,42.578418520703664 0 0,0 0.10007040144781049,-0.7240595748616232 l 21.3490920009772 3.1375813277838978" fill="#fff016" stroke="none" /><path d="M 79.407916724674 95.88100663000787 l -29.705868515969883 -5.942005664562895 a51.29432381826319,51.29432381826319 0 0,0 0.18012194571785398,-0.8619487151382894 l 29.599488859427662 6.451070830986594" fill="#a1ff22" stroke="none" /><path d="M 79.73907114497095 94.47779374421319 l -30.56542590463933 -8.330742748721109 a52.68038092380466,52.68038092380466 0 0,0 0.24529367070547822,-0.8704607022062419 l 30.41791374185927 8.854211374830365" fill="#91ff24" stroke="none" /><path d="M 79.83685265289637 94.1308016681162 l -30.75769432812481 -8.95311655147694 a53.03426378686876,53.03426378686876 0 0,0 0.26194804789867937,-0.8719398574693343 l 30.5994699602225 9.479794012536997" fill="#8dff24" stroke="none" /><path d="M 79.94057633289273 93.78553927170692 l -29.803800080116307 -9.23329344977588 a52.20128534444078,52.20128534444078 0 0,0 0.2725287026442983,-0.8536922794472709 l 29.64090666169475 9.743554762914544" fill="#97ff23" stroke="none" /><path d="M 80.28708602549916 92.7611449362534 l -30.395751660778604 -11.16174103486813 a53.380336347128704,53.380336347128704 0 0,0 0.32325432719141745,-0.8574705077996153 l 30.199666649772748 11.681879822861891" fill="#89ff24" stroke="none" /><path d="M 80.5471966667186 92.08871423366112 l -58.3584099998442 -23.73385729901662 a84.0,84.0 0 0,0 0.5546966218540859,-1.3310699622349447 l 57.94238753345363 24.732159770692828" fill="#4dd2ff" stroke="none" /><path d="M 80.9802524753101 91.09779779509293 l -33.10113358119685 -15.493001890216124 a57.54747805157667,57.54747805157667 0 0,0 0.4264562493772592,-0.8911295428598347 l 32.83029807385969 16.058943935141045" fill="#5aff2a" stroke="none" /><path d="M 81.1358732173502 90.77261029715801 l -31.209047737052842 -15.2659091535184 a55.74266315263008,55.74266315263008 0 0,0 0.4278384421309256,-0.8559634818722295 l 30.94238938171017 15.7994044915544" fill="#6eff28" stroke="none" /><path d="M 81.46374523516351 90.13048839642627 l -24.21483660742045 -12.893036587355414 a48.43335022134473,48.43335022134473 0 0,0 0.3970488797291849,-0.7305252181543764 l 23.989942378075916 13.306816638984412" fill="#c4ff1e" stroke="none" /><line stroke="#e1ed5e" stroke-width="0.3" x1="26.387840678322718" x2="22.05771365940052" y1="57.49999999999999" y2="54.99999999999999" /><path d="M 25.521815274538284 56.99999999999999 a86.0,86.0 0 0,1 29.574782752854787,-30.34633250058573" fill="none" id="id47" stroke="none" /><text fill="#e1ed5e" style="font-size:6.75px; font-family:Arial;" text-anchor="middle"><textPath startOffset="21.40746469413373" xlink:href="#id47">November</textPath></text><path d="M 81.81346652052679 89.5 l -29.06210600931485 -16.779014727695372 a54.55802945539074,54.55802945539074 0 0,0 0.4752427576621353,-0.8070661005010464 l 28.769789541522933 17.275431996489992" fill="#7cff26" stroke="none" /><path d="M 82.37810715431573 88.57770195909679 l -27.293791139370835 -17.691505662310774 a53.52599587036763,53.52599587036763 0 0,0 0.5063955838986681,-0.7667474566546146 l 26.98607111655144 18.157432997304447" fill="#87ff25" stroke="none" /><path d="M 82.98947788004972 87.6856937992154 l -22.50014321070854 -16.288368522986843 a48.777101966242306,48.777101966242306 0 0,0 0.49682493338730344,-0.6740384401310875 l 22.21721625773742 16.67221327238679" fill="#c0ff1e" stroke="none" /><path d="M 83.2033758604659 87.39550010848427 l -22.007548400139708 -16.514874603235743 a48.51496446926822,48.51496446926822 0 0,0 0.5055906687059721,-0.6618344150146146 l 21.72080575407943 16.89022993149124" fill="#c3ff1e" stroke="none" /><path d="M 84.34580500576568 86.00192230759919 l -24.826755905202834 -22.20023821980624 a54.304930352617006,54.304930352617006 0 0,0 0.6273571885317728,-0.6895754470000661 l 24.442001015829195 22.623151242363964" fill="#7eff26" stroke="none" /><path d="M 84.58840730492382 85.73525988315684 l -12.011658689252014 -11.117811959119779 a37.36721378932377,37.36721378932377 0 0,0 0.4397661379790913,-0.4670163989089166 l 11.819036717536651 11.322369817973206" fill="#ffaa0f" stroke="none" /><path d="M 84.83555147118756 85.47280134310135 l -23.841320245397355 -22.839445482608 a54.01588740283406,54.01588740283406 0 0,0 0.6471957246716739,-0.6640798283445855 l 23.44573771957488 23.245348003020315" fill="#82ff25" stroke="none" /><path d="M 86.96720088162412 83.53348406188908 l -17.376710614109548 -21.954906208577665 a48.99942817976734,48.99942817976734 0 0,0 0.664035713262921,-0.516358187017353 l 16.99726495621138 22.24996544721582" fill="#bdff1f" stroke="none" /><path d="M 87.25179093698888 83.31218511350988 l -16.790654611672345 -21.97950587393306 a48.65908098167276,48.65908098167276 0 0,0 0.6681285982578569,-0.5013761559644813 l 16.410873024503733 22.264501057161542" fill="#c1ff1e" stroke="none" /><path d="M 87.83215693770416 82.88440491214696 l -19.529278541400036 -27.47037598703484 a54.70481089127557,54.70481089127557 0 0,0 0.7700481255177104,-0.5375533965626135 l 19.054835324708563 27.801574199402577" fill="#7aff26" stroke="none" /><path d="M 88.4268655584334 82.4767994020092 l -18.31694843792557 -27.73419452106319 a54.2369695641735,54.2369695641735 0 0,0 0.7813077407619463,-0.5064342380695686 l 17.8381550649066 28.044542600836667" fill="#7fff26" stroke="none" /><line stroke="#e1ed5e" stroke-width="0.3" x1="56.869717070023135" x2="54.33264160355391" y1="26.7553504044142" y2="22.446841604673864" /><path d="M 56.362301976729285 25.89364864446614 a86.0,86.0 0 0,1 42.16139366436587,-11.88097634709845" fill="none" id="id48" stroke="none" /><text fill="#e1ed5e" style="font-size:6.75px; font-family:Arial;" text-anchor="middle"><textPath startOffset="22.145653131862474" xlink:href="#id48">December</textPath></text><path d="M 89.34428304082924 81.90426304109057 l -15.751683474065354 -26.74980218589341 a52.04299356137503,52.04299356137503 0 0,0 0.7737245040454288,-0.4467100506892356 l 15.290166502159526 27.01625913385882" fill="#99ff23" stroke="none" /><path d="M 89.97174638481275 81.54914285379989 l -16.186359160666612 -29.781077747999344 a54.89558695037567,54.89558695037567 0 0,0 0.8318280824557526,-0.4429016010046114 l 15.672742262424299 30.05454981672653" fill="#78ff26" stroke="none" /><path d="M 90.61103034731259 81.2157712731953 l -14.889880016884861 -29.789734368966347 a54.30370550990988,54.30370550990988 0 0,0 0.8374142122131472,-0.4096212545547654 l 14.376305555409662 30.040949373618325" fill="#7eff26" stroke="none" /><path d="M 91.26138138417902 80.90454125486306 l -13.683836444522049 -29.901652170572916 a53.88398063450284,53.88398063450284 0 0,0 0.8444045632191559,-0.37769142073549217 l 13.168518478447275 30.132147342218254" fill="#83ff25" stroke="none" /><path d="M 92.592206182469 80.34994680014964 l -11.879597682450278 -31.512044233808112 a54.676902661770384,54.676902661770384 0 0,0 0.8811074768902113,-0.32355487012433143 l 11.33690105390594 31.711329952941167" fill="#7aff26" stroke="none" /><path d="M 92.93061703081487 80.22567764915836 l -11.242603205760304 -31.44756208885027 a54.396785596435244,54.396785596435244 0 0,0 0.8819900721376975,-0.3068019309177317 l 10.701107361577602 31.635922452336587" fill="#7dff26" stroke="none" /><path d="M 94.6519064749342 79.69241777938228 l -8.610191036205787 -32.694297806024856 a54.809059417691586,54.809059417691586 0 0,0 0.9119045354208181,-0.2318025669290273 l 8.047681207559592 32.837285604789145" fill="#79ff26" stroke="none" /><path d="M 95.35216902796891 79.52079915486377 l -7.3589389065118445 -32.42484263744329 a54.249427091195635,54.249427091195635 0 0,0 0.9099374808761943,-0.19831663880345127 l 6.801239009016532 32.54639073438046" fill="#7fff26" stroke="none" /><path d="M 95.70440661134978 79.44403061299748 l -6.785246259932582 -32.46985964057342 a54.17124284506789,54.17124284506789 0 0,0 0.9118916537564966,-0.18240386976653075 l 6.226858120645108 32.581552907002816" fill="#80ff26" stroke="none" /><path d="M 97.48249496171623 79.15144685158666 l -4.0607722536564985 -33.629019551704495 a54.873305526697415,54.873305526697415 0 0,0 0.9361493014621965,-0.10489748184942384 l 3.4828870505935026 33.69377279406089" fill="#78ff26" stroke="none" /><path d="M 97.84075906011542 79.11130261209362 l -3.415236394702305 -33.03931406604133 a54.21535960344575,54.21535960344575 0 0,0 0.9265674396626223,-0.08774689988458576 l 2.847569391654667 33.0930727214311" fill="#7fff26" stroke="none" /><path d="M 98.5590905019552 79.04949213459386 l -2.3003535730823077 -33.44663609440463 a54.52564827997698,54.52564827997698 0 0,0 0.9343505946279731,-0.056208211575613 l 1.7258586263218505 33.48119628380494" fill="#7cff26" stroke="none" /><path d="M 98.9189461498227 79.02784411241856 l -1.4283174063202597 -27.70897610455008 a48.74576449434625,48.74576449434625 0 0,0 0.8360461262229861,-0.03590341794509404 l 0.9524455194964534 27.729412090921002" fill="#c0ff1e" stroke="none" /><path d="M 99.63950707515114 79.00309439819443 l -0.47180867465871895 -27.480489965442708 a48.484539875469636,48.484539875469636 0 0,0 0.8323015995075643,-0.007144308221364794 l 6.731770756906337e-15 27.484539875469636" fill="#c3ff1e" stroke="none" /></svg>