<?xml version="1.0" encoding="utf-8" ?>
<svg baseProfile="full" height="200mm" version="1.1" viewBox="0,0,200,200" width="200mm" xmlns="http://www.w3.org/2000/svg" xmlns:ev="http://www.w3.org/2001/xml-events" xmlns:xlink="http://www.w3.org/1999/xlink"><defs /><rect fill="#1a1a1a" height="200" width="200" x="0" y="0" /><text alignment-baseline="middle" fill="#e1ed5e" style="dominant-baseline: central; font-size:9.0px; font-family:Arial;" text-anchor="middle" x="100.0" y="100.0">2024</text><line stroke="#e1ed5e" stroke-width="0.3" x1="100.0" x2="100.0" y1="15.0" y2="10.0" /><path d="M 100.0 14.0 a86.0,86.0 0 0,1 42.35913384403234,11.155469271406648" fill="none" id="id85" stroke="none" /><text fill="#e1ed5e" style="font-size:6.75px; font-family:Arial;" text-anchor="middle"><textPath startOffset="22.145653131862478" xlink:href="#id85">January</textPath></text><path d="M 101.80034050326958 79.07731436759882 l 2.567599711038832 -29.83940065023659 a50.9496644295302,50.9496644295302 0 0,0 0.870755086149784,0.08246141197903417 l -3.0794543605736293 29.790927482752373" fill="red" stroke="none" /><line stroke="#e1ed5e" stroke-width="0.3" x1="143.13028292997686" x2="145.6673583964461" y1="26.7553504044142" y2="22.446841604673864" /><path d="M 143.63769802327073 25.89364864446614 a86.0,86.0 0 0,1 29.32050498858742,28.57503671076993" fill="none" id="id86" stroke="none" /><text fill="#e1ed5e" style="font-size:6.75px; font-family:Arial;" text-anchor="middle"><textPath startOffset="20.669276256404974" xlink:href="#id86">February</textPath></text><path d="M 113.03279911837588 83.53348406188908 l 19.190800408098752 -24.246949401645008 a51.92250597201683,51.92250597201683 0 0,0 0.6941525501365791,0.5591601579092169 l -19.60420372859059 23.913940949942383" fill="red" stroke="none" /><path d="M 113.86319453409587 84.22622945171908 l 19.87462640350474 -22.61367651234039 a51.106131270617674,51.106131270617674 0 0,0 0.6540002293414517,0.5848110378426594 l -20.25989165966957 22.269169944614344" fill="red" stroke="none" /><path d="M 117.01052211995028 87.68569379921539 l 36.32997445485116 -26.300099817572658 a65.85044363553635,65.85044363553635 0 0,0 0.655007782407971,0.9213504748287039 l -36.77609733578909 25.672572116034452" fill="red" stroke="none" /><line stroke="#e1ed5e" stroke-width="0.3" x1="172.87174338648825" x2="177.1583165268699" y1="56.24261187166439" y2="53.66864786411523" /><path d="M 173.72905801456457 55.72781907015455 a86.0,86.0 0 0,1 12.242430191666344,42.057860355516425" fill="none" id="id87" stroke="none" /><text fill="#e1ed5e" style="font-size:6.75px; font-family:Arial;" text-anchor="middle"><textPath startOffset="22.145653131862474" xlink:href="#id87">March</textPath></text><path d="M 118.70294669586156 90.45014215332178 l 26.315180034252247 -13.436718428570462 a50.54715049482425,50.54715049482425 0 0,0 0.38796162398357925,0.7761831331560733 l -26.541961571447562 12.983003439250638" fill="red" stroke="none" /><path d="M 119.31412917781788 91.75594674310238 l 33.156544248326526 -14.152557129617822 a57.05067682857468,57.05067682857468 0 0,0 0.37673592513450577,0.9040290744248303 l -33.39460601799752 13.581295545751715" fill="red" stroke="none" /><path d="M 119.58574465831526 92.42381321644754 l 33.3849945704345 -12.914033091211193 a56.7956717097031,56.7956717097031 0 0,0 0.3439365111248792,0.912332457874389 l -33.60176176537382 12.339032353142647" fill="red" stroke="none" /><path d="M 120.16314734710363 94.1308016681162 l 28.75157929355223 -8.369165702346645 a50.94488681606188,50.94488681606188 0 0,0 0.23721275495067978,0.8417843829919679 l -28.89101054057749 7.874373395451665" fill="red" stroke="none" /><path d="M 120.65975698304385 96.23510406497455 l 30.50433916959494 -5.558906749702009 a52.006711409395976,52.006711409395976 0 0,0 0.1525163244655405,0.8796736298812169 l -30.595270311552714 5.034440086900199" fill="red" stroke="none" /><path d="M 120.93736805541906 98.37931529534042 l 38.90537385135755 -3.0115219908759365 a60.0217552041861,60.0217552041861 0 0,0 0.0707000222700783,1.027962807284969 l -38.951337834792696 2.3432157594366334" fill="red" stroke="none" /><line stroke="#e1ed5e" stroke-width="0.3" x1="184.99686870605535" x2="189.99668451229388" y1="99.2704041080226" y2="99.22748670261217" /><path d="M 185.99683186730306 99.26182062694052 a86.0,86.0 0 0,1 -10.086455211305974,41.156179273409016" fill="none" id="id88" stroke="none" /><text fill="#e1ed5e" style="font-size:6.75px; font-family:Arial;" text-anchor="middle"><textPath startOffset="21.40746469413373" xlink:href="#id88">April</textPath></text><line stroke="#e1ed5e" stroke-width="0.3" x1="174.33088141563837" x2="178.70328620479359" y1="141.23008692659167" y2="143.65538615756765" /><path d="M 175.20536237346943 141.71514677278685 a86.0,86.0 0 0,1 -30.301960400862466,31.631185727798858" fill="none" id="id89" stroke="none" /><text fill="#e1ed5e" style="font-size:6.75px; font-family:Arial;" text-anchor="middle"><textPath startOffset="22.145653131862474" xlink:href="#id89">May</textPath></text><line stroke="#e1ed5e" stroke-width="0.3" x1="143.1302829299769" x2="145.66735839644613" y1="173.24464959558577" y2="177.55315839532614" /><path d="M 143.63769802327073 174.10635135553383 a86.0,86.0 0 0,1 -40.68552437913181,11.842963189579606" fill="none" id="id90" stroke="none" /><text fill="#e1ed5e" style="font-size:6.75px; font-family:Arial;" text-anchor="middle"><textPath startOffset="21.407464694133747" xlink:href="#id90">June</textPath></text><line stroke="#e1ed5e" stroke-width="0.3" x1="101.45913802915013" x2="101.54496967792366" y1="184.9874750549273" y2="189.98673829345242" /><path d="M 101.47630435890484 185.9873277026323 a86.0,86.0 0 0,1 -42.54439059252881,-10.42667462771756" fill="none" id="id91" stroke="none" /><text fill="#e1ed5e" style="font-size:6.75px; font-family:Arial;" text-anchor="middle"><textPath startOffset="22.145653131862474" xlink:href="#id91">July</textPath></text><line stroke="#e1ed5e" stroke-width="0.3" x1="58.13341422392154" x2="55.67067388415222" y1="173.97424548756322" y2="178.32567169271397" /><path d="M 57.64086615596768 174.84453072859336 a86.0,86.0 0 0,1 -31.369924170532247,-30.572349798747897" fill="none" id="id92" stroke="none" /><text fill="#e1ed5e" style="font-size:6.75px; font-family:Arial;" text-anchor="middle"><textPath startOffset="22.145653131862474" xlink:href="#id92">August</textPath></text><line stroke="#e1ed5e" stroke-width="0.3" x1="26.387840678322732" x2="22.057713659400548" y1="142.50000000000003" y2="145.00000000000006" /><path d="M 25.521815274538298 143.00000000000003 a86.0,86.0 0 0,1 -11.493303480769221,-40.785679425670985" fill="none" id="id93" stroke="none" /><text fill="#e1ed5e" style="font-size:6.75px; font-family:Arial;" text-anchor="middle"><textPath startOffset="21.40746469413373" xlink:href="#id93">September</textPath></text><path d="M 80.28708602549918 107.23885506374661 l -22.53104668266303 8.273712429389144 a45.002132863155495,45.002132863155495 0 0,0 -0.2600691043777345,-0.7274595712067927 l 22.669755957084703 -7.88571790180143" fill="red" stroke="none" /><path d="M 79.83685265289637 105.86919833188381 l -27.756151475483406 8.079411172027287 a49.90814469343647,49.90814469343647 0 0,0 -0.23238541170878635,-0.82465384482501 l 27.890755379266768 -7.601749403299282" fill="red" stroke="none" /><path d="M 79.64726062577567 105.17358676015961 l -30.57078228494428 7.770973310718634 a52.542998521214884,52.542998521214884 0 0,0 -0.21470688892172288,-0.8760773757061251 l 30.699676700382298 -7.245040110404409" fill="red" stroke="none" /><path d="M 79.48165901384964 104.47187691870673 l -24.74057723276008 5.392093656954993 a46.32135138209532,46.32135138209532 0 0,0 -0.16265916612498044,-0.7783829931890152 l 24.82949410970943 -4.966594212480568" fill="red" stroke="none" /><path d="M 79.2786578344484 103.40968896794605 l -35.37843304496706 5.8215076944766455 a56.85419747469002,56.85419747469002 0 0,0 -0.15019933531295623,-0.9643874784422712 l 35.47315387241829 -5.213332034102924" fill="red" stroke="none" /><path d="M 79.00696218219943 100.54070618675478 l -30.31405645758331 0.7807825629862046 a51.32410988510976,51.32410988510976 0 0,0 -0.015124893555313467,-0.8809492234871933 l 30.322992782737288 -0.26028642352995895" fill="red" stroke="none" /><line stroke="#e1ed5e" stroke-width="0.3" x1="15.003131293944662" x2="10.003315487706104" y1="100.72959589197737" y2="100.7725132973878" /><path d="M 14.003168132696942 100.73817937305945 a86.0,86.0 0 0,1 10.791469493833604,-42.45332614584628" fill="none" id="id94" stroke="none" /><text fill="#e1ed5e" style="font-size:6.75px; font-family:Arial;" text-anchor="middle"><textPath startOffset="22.145653131862435" xlink:href="#id94">October</textPath></text><path d="M 79.00077361379809 99.81974689727619 l -35.78957560435293 -0.30721046238598787 a56.79089409623479,56.79089409623479 0 0,0 0.016735920604164886,-0.9747834724696555 l 35.779028252150106 0.9215408508246957" fill="red" stroke="none" /><path d="M 79.01933749520258 99.09900007780938 l -38.26924391587154 -1.6434459961695638 a59.30451598225458,59.30451598225458 0 0,0 0.0524094073656222,-1.016728501607297 l 38.235392919049346 2.300146291153573" fill="red" stroke="none" /><path d="M 79.06263194458094 98.37931529534042 l -41.757438263411274 -3.2322898140848997 a62.882351268342624,62.882351268342624 0 0,0 0.0925459844739261,-1.0755246222437067 l 41.6957986562396 3.948635483704287" fill="red" stroke="none" /><path d="M 79.0935383218832 98.0201363427161 l -34.29851176626322 -3.2481047242933445 a55.45196792173813,55.45196792173813 0 0,0 0.09787960871630294,-0.9468964251070611 l 34.23769976506525 3.8364056716833184" fill="red" stroke="none" /><path d="M 79.17382384314186 97.30363454192245 l -29.620029631349922 -3.834905849430517 a50.867250597201675,50.867250597201675 0 0,0 0.1195513211777276,-0.8650138056179926 l 29.549833793616987 4.3428079632485765" fill="red" stroke="none" /><path d="M 79.2786578344484 96.59031103205396 l -37.28828033078645 -6.135772338576086 a58.78972813104311,58.78972813104311 0 0,0 0.17240838745391507,-0.9944057630881303 l 37.1774571258403 6.774971134584808" fill="red" stroke="none" /><path d="M 79.56144815229197 95.17655741523228 l -37.027002243953824 -8.738271710273075 a59.04413604823114,59.04413604823114 0 0,0 0.24127254090509126,-0.9844743013492384 l 36.87154217653243 9.372601836230432" fill="red" stroke="none" /><path d="M 79.64726062577567 94.8264132398404 l -37.89948169219113 -9.633900041384665 a60.10476623819815,60.10476623819815 0 0,0 0.2627737997352177,-0.9977949186072536 l 37.72851841165119 10.283075464364703" fill="red" stroke="none" /><path d="M 79.94057633289273 93.78553927170692 l -30.380066739149832 -9.411822333806622 a52.8045728586054,52.8045728586054 0 0,0 0.27567830255303494,-0.863558356302103 l 30.21402372081954 9.931949723800118" fill="red" stroke="none" /><path d="M 80.16572619554312 93.10060997987247 l -39.441235234235236 -13.719708996627714 a62.75932772153338,62.75932772153338 0 0,0 0.36268863525913003,-1.0145046629759225 l 39.19990642893216 14.39474861598456" fill="red" stroke="none" /><path d="M 80.41425534168474 92.42381321644754 l -34.13135157879937 -13.202740015621398 a57.595921965646674,57.595921965646674 0 0,0 0.3646132467933507,-0.9190635649206697 l 33.89967965703988 13.78670459775565" fill="red" stroke="none" /><path d="M 80.68587082218212 91.75594674310238 l -38.467325587773715 -16.419413884848822 a62.82501990672278,62.82501990672278 0 0,0 0.4318954398161757,-0.988261287727465 l 38.17979626594056 17.077337242352154" fill="red" stroke="none" /><path d="M 80.9802524753101 91.09779779509293 l -57.05924257406971 -26.706606614721213 a84.0,84.0 0 0,0 0.6224829681603801,-1.3007499917396512 l 56.59238034794942 27.68216910852595" fill="red" stroke="none" /><line stroke="#e1ed5e" stroke-width="0.3" x1="26.387840678322718" x2="22.05771365940052" y1="57.49999999999999" y2="54.99999999999999" /><path d="M 25.521815274538284 56.99999999999999 a86.0,86.0 0 0,1 29.574782752854787,-30.34633250058573" fill="none" id="id95" stroke="none" /><text fill="#e1ed5e" style="font-size:6.75px; font-family:Arial;" text-anchor="middle"><textPath startOffset="21.40746469413373" xlink:href="#id95">November</textPath></text><path d="M 81.99639281039701 89.18935116829357 l -51.219453510632555 -30.75581017870297 a80.74405642134,80.74405642134 0 0,0 0.7237437189674963,-1.182180973481324 l 50.683941827209665 31.630528268308836" fill="red" stroke="none" /><path d="M 82.18462484594161 88.88188828441811 l -47.40954842427827 -29.58706461179064 a76.88434194062108,76.88434194062108 0 0,0 0.7083695217378939,-1.1136745452221901 l 46.894661210914485 30.3965528316915" fill="red" stroke="none" /><path d="M 82.37810715431573 88.57770195909679 l -30.794212645730084 -19.960436591839994 a57.697446251848476,57.697446251848476 0 0,0 0.545860595567956,-0.826502514333645 l 30.4470276112414 20.4861189845127" fill="red" stroke="none" /><path d="M 82.98947788004972 87.6856937992154 l -27.69748761517102 -20.05084506404627 a55.19337959276533,55.19337959276533 0 0,0 0.5621786870112465,-0.7627033584737701 l 27.349206908575955 20.523354731788903" fill="red" stroke="none" /><path d="M 83.42222388311158 87.10902102172516 l -47.59439733478755 -37.00969123966948 a81.29049596177909,81.29049596177909 0 0,0 0.8660672769736455,-1.0942477122704264 l 46.95206362717235 37.821258895854584" fill="red" stroke="none" /><path d="M 84.10781606972428 86.27271002978789 l -34.38892524851012 -29.704334578643223 a66.44167330224093,66.44167330224093 0 0,0 0.7529706256195765,-0.8567423510437892 l 33.87394355893195 30.29028920749831" fill="red" stroke="none" /><path d="M 84.58840730492382 85.73525988315684 l -30.694331782702903 -28.41021525830377 a62.82442270503924,62.82442270503924 0 0,0 0.7393661700208081,-0.7851812506187383 l 30.20210977894582 28.93293796886702" fill="red" stroke="none" /><path d="M 85.34317274990677 84.96080404539775 l -29.438281714035217 -30.206270409671617 a63.17856330337845,63.17856330337845 0 0,0 0.7831961110176316,-0.7502841577421113 l 28.915413117152283 30.7071666977193" fill="red" stroke="none" /><path d="M 86.96720088162412 83.53348406188908 l -36.78270719213102 -46.473748941015806 a80.26868388124217,80.26868388124217 0 0,0 1.0877937709437502,-0.8458750157476641 l 35.979503476552026 47.09832500838427" fill="red" stroke="none" /><path d="M 87.25179093698888 83.31218511350988 l -36.26989465672129 -47.47845638490795 a80.7470424297577,80.7470424297577 0 0,0 1.1087223018532044,-0.8320058850717125 l 35.449519365957336 48.09408129724367" fill="red" stroke="none" /><path d="M 88.72937992617638 82.28071324371311 l -28.643221292154532 -45.03190138386801 a74.36952565123423,74.36952565123423 0 0,0 1.083088984240099,-0.6759276310807508 l 27.865968179124735 45.516964811790295" fill="red" stroke="none" /><line stroke="#e1ed5e" stroke-width="0.3" x1="56.869717070023135" x2="54.33264160355391" y1="26.7553504044142" y2="22.446841604673864" /><path d="M 56.362301976729285 25.89364864446614 a86.0,86.0 0 0,1 42.16139366436587,-11.88097634709845" fill="none" id="id96" stroke="none" /><text fill="#e1ed5e" style="font-size:6.75px; font-family:Arial;" text-anchor="middle"><textPath startOffset="22.145653131862474" xlink:href="#id96">December</textPath></text><path d="M 90.28995756902619 81.37971332152246 l -18.36938780103718 -35.22572320305884 a60.72764759413036,60.72764759413036 0 0,0 0.9284759300879011,-0.474086425555811 l 17.761984649235696 35.53586758028749" fill="red" stroke="none" /><path d="M 90.61103034731259 81.2157712731953 l -19.843823927531787 -39.70094070572534 a65.38402912069162,65.38402912069162 0 0,0 1.0082832234613066,-0.4932018503115859 l 19.159380454808428 40.03573630613413" fill="red" stroke="none" /><path d="M 91.5904679813234 80.7573450057729 l -18.44290439700551 -42.20097451498139 a67.0549994312365,67.0549994312365 0 0,0 1.0587183736126053,-0.45190391840924843 l 17.715750948222475 42.51135308305004" fill="red" stroke="none" /><path d="M 93.27111125876988 80.10723608172694 l -15.382066675436315 -45.474346911797895 a69.00546012967807,69.00546012967807 0 0,0 1.1253714796461296,-0.36993195807753393 l 14.599172458142425 45.73169979127746" fill="red" stroke="none" /><path d="M 93.61358852112211 79.99465700312896 l -13.190362486533516 -41.31862262068457 a64.37296667045842,64.37296667045842 0 0,0 1.0555920982293148,-0.3270251303530386 l 12.479129755432584 41.53896433884425" fill="red" stroke="none" /><path d="M 93.95794788825049 79.88797359093562 l -11.188037173027688 -37.24133703712346 a59.88559322033898,59.88559322033898 0 0,0 0.9870856426574867,-0.28732624463730355 l 10.547091517988576 37.427906976063284" fill="red" stroke="none" /><path d="M 95.35216902796891 79.52079915486377 l -9.890321014223938 -43.578579275367105 a65.68681037424639,65.68681037424639 0 0,0 1.1017792069629893,-0.24012765010848178 l 9.14077939064183 43.7419383836093" fill="red" stroke="none" /><path d="M 95.70440661134978 79.44403061299748 l -8.03988394022334 -38.47375512471762 a60.30482880218405,60.30482880218405 0 0,0 1.015141377191659,-0.20305670613071436 l 7.378246077500705 38.6061012275112" fill="red" stroke="none" /><path d="M 98.5590905019552 79.04949213459386 l -2.478361058490108 -36.03482586496114 a57.11995222386531,57.11995222386531 0 0,0 0.9788065435086012,-0.05888257106641197 l 1.859410162849023 36.07206041385225" fill="red" stroke="none" /><path d="M 98.9189461498227 79.02784411241856 l -2.4889386490872334 -48.28474486698628 a69.34885109771356,69.34885109771356 0 0,0 1.1894128427298079,-0.05107850519529935 l 1.6597000457566056 48.320355940607406" fill="red" stroke="none" /><path d="M 99.63950707515114 79.00309439819443 l -0.833919249201042 -48.571615552078015 a69.57877374587645,69.57877374587645 0 0,0 1.194412174049882,-0.010252591992868345 l 1.1898367954878214e-14 48.57877374587645" fill="red" stroke="none" /></svg>