<?xml version="1.0" encoding="utf-8" ?>
<svg baseProfile="full" height="200mm" version="1.1" viewBox="0,0,200,200" width="200mm" xmlns="http://www.w3.org/2000/svg" xmlns:ev="http://www.w3.org/2001/xml-events" xmlns:xlink="http://www.w3.org/1999/xlink"><defs /><rect fill="#1a1a1a" height="200" width="200" x="0" y="0" /><text alignment-baseline="middle" fill="#e1ed5e" style="dominant-baseline: central; font-size:9.0px; font-family:Arial;" text-anchor="middle" x="100.0" y="100.0">2021</text><line stroke="#e1ed5e" stroke-width="0.3" x1="100.0" x2="100.0" y1="15.0" y2="10.0" /><path d="M 100.0 14.0 a86.0,86.0 0 0,1 42.46469731375804,11.215312516191453" fill="none" id="id49" stroke="none" /><text fill="#e1ed5e" style="font-size:6.75px; font-family:Arial;" text-anchor="middle"><textPath startOffset="22.20632615414155" xlink:href="#id49">January</textPath></text><path d="M 100.36148047927253 79.00311137660856 l 0.5567033728082855 -32.3365697053569 a53.34136142704419,53.34136142704419 0 0,0 0.9179117743894117,0.023706953028958245 l -1.113241782392565 32.32219596018558" fill="#9dff22" stroke="none" /><path d="M 101.08401301168833 79.027996857942 l 1.672326152656123 -32.353882241160534 a53.3970734918409,53.3970734918409 0 0,0 0.9175090760360257,0.05534665307509555 l -2.228997277531761 32.32030231870513" fill="#9cff22" stroke="none" /><path d="M 102.16513564639614 79.11191278185805 l 0.9031902368833817 -8.713503227382855 a29.760187846023218,29.760187846023218 0 0,0 0.5090881135284157,0.05720198128288291 l -1.0530450539215226 8.696665292629373" fill="#ff0f01" stroke="none" /><path d="M 102.52436894288641 79.15227682838746 l 1.8912322380602669 -15.618907950605333 a36.73299224393634,36.73299224393634 0 0,0 0.6270588903469858,0.08141024067769324 l -2.159805856915099 15.584039386763504" fill="#ff7d0b" stroke="none" /><path d="M 102.88285421437855 79.19881850522331 l 8.648562643135682 -62.40354448433004 a84.0,84.0 0 0,0 1.430524078285377,0.2108220633561242 l -9.721455701849713 62.245427936812945" fill="#4dd2ff" stroke="none" /><path d="M 103.2404852339499 79.25152402106235 l 8.929573495989596 -57.175091940740685 a78.86819870405878,78.86819870405878 0 0,0 1.3395230020082658,0.22103277280733857 l -9.912425704136735 57.012912904993726" fill="#46fff6" stroke="none" /><path d="M 104.307194497241 79.44645832069477 l 9.497034844765114 -45.31898934137493 a67.30339583406747,67.30339583406747 0 0,0 1.131842091808384,0.2473768424143156 l -10.275719660727027 45.14879900086474" fill="#36ff6c" stroke="none" /><path d="M 104.66035177308747 79.52364482259891 l 1.7356974092468438 -7.626196124823337 a28.821221952529967,28.821221952529967 0 0,0 0.4827915807474176,0.11426116879254548 l -1.866712676956785 7.595189043889922" fill="#ff0000" stroke="none" /><path d="M 105.01212808612495 79.60689891045804 l 7.187361507562086 -29.24358421656311 a51.1138736012424,51.1138736012424 0 0,0 0.8526064565424935,0.21734836984734035 l -7.689676852789604 29.115532850546902" fill="#b9ff1f" stroke="none" /><path d="M 105.36241919743992 79.69619591428918 l 6.579978344574022 -24.913865603836438 a46.76813563960512,46.76813563960512 0 0,0 0.7765784578381953,0.2122682279483745 l -7.007854691635928 24.79691083506177" fill="#f2ff19" stroke="none" /><path d="M 107.08798089147638 80.2323363322302 l 13.390835111627965 -37.345688253130675 a60.67385658197134,60.67385658197134 0 0,0 0.9800783102925987,0.36097111290186745 l -14.03169574769314 37.109653872422484" fill="#46ff2c" stroke="none" /><path d="M 107.4271985657038 80.35727306442388 l 9.34783919773849 -24.722249065311267 a47.43050692881353,47.43050692881353 0 0,0 0.7611847298861951,0.29532784948154006 l -9.772007092624351 24.55767851193918" fill="#e9ff1a" stroke="none" /><path d="M 108.09893153111575 80.62456947434976 l 8.930839344599256 -21.36564021960412 a44.157082575156295,44.157082575156295 0 0,0 0.6987674165866042,0.2991757405990125 l -9.297290518976176 21.208744951042316" fill="#ffe915" stroke="none" /><path d="M 108.76106565485865 80.91482961587045 l 12.90269377146443 -28.107323782704697 a51.92735289005485,51.92735289005485 0 0,0 0.8091314902457495,0.37989808393915575 l -13.384603473009777 27.881060716125535" fill="#aeff20" stroke="none" /><path d="M 109.41281617654863 81.2277094730956 l 11.62311613640542 -23.18036481835952 a46.93118088002565,46.93118088002565 0 0,0 0.7190292977725414,0.3683147335685374 l -12.020405921766717 22.976857559478482" fill="#efff19" stroke="none" /><path d="M 110.05341064243156 81.56283822128135 l 14.82687807636649 -27.191324366432976 a51.971025722310344,51.971025722310344 0 0,0 0.7817330996140702,0.4350336235707613 l -15.292735265052595 26.932075345302035" fill="#aeff20" stroke="none" /><line stroke="#e1ed5e" stroke-width="0.3" x1="143.23703022742887" x2="145.7803849466894" y1="26.81831364943548" y2="22.513508569990506" /><path d="M 143.74570117128098 25.957352633546492 a86.0,86.0 0 0,1 28.547481713284135,27.462654790039103" fill="none" id="id50" stroke="none" /><text fill="#e1ed5e" style="font-size:6.75px; font-family:Arial;" text-anchor="middle"><textPath startOffset="19.985693538727396" xlink:href="#id50">February</textPath></text><path d="M 110.99172775467656 82.1063720568725 l 16.26375121666445 -26.47604814509385 a52.07234669314311,52.07234669314311 0 0,0 0.7597128437052648,0.4757321130320466 l -16.717083212741976 26.192171690738856" fill="#adff20" stroke="none" /><path d="M 111.60114157652 82.49532879139004 l 8.540429140920162 -12.886439072066162 a36.45960031401691,36.45960031401691 0 0,0 0.5201488141853924,0.3512068012322518 l -8.760982649512096 12.73752035853524" fill="#ff790b" stroke="none" /><path d="M 111.90073688211348 82.69761687909136 l 16.60705986395047 -24.144867256901023 a50.304761595655506,50.304761595655506 0 0,0 0.7092225447210403,0.4968557160040772 l -17.02021354825516 23.855426698133012" fill="#c3ff1e" stroke="none" /><path d="M 112.48926042617603 83.11751280151076 l 11.149514340980355 -15.071471544981303 a39.747291126210946,39.747291126210946 0 0,0 0.5465325328751764,0.4116369729539203 l -11.407293027613914 14.877317982521536" fill="#ffaa0f" stroke="none" /><path d="M 112.77801427241765 83.33499621200491 l 21.237158859733587 -27.69736559206013 a55.90216292973542,55.90216292973542 0 0,0 0.7585855491022818,0.5920880535589297 l -21.710776963995297 27.327699149277976" fill="#7dff26" stroke="none" /><path d="M 113.89432698308785 84.25364557470407 l 25.899384006524755 -29.35161094596226 a60.14454185503468,60.14454185503468 0 0,0 0.7703914721465438,0.6916650702432073 l -26.40078646626729 28.901446866949758" fill="#4cff2c" stroke="none" /><path d="M 114.68862486808459 84.99185889309783 l 22.177562460631716 -22.659982796585684 a52.706767369708004,52.706767369708004 0 0,0 0.6429327090013488,0.640171751625555 l -22.564330969800384 22.274875194310013" fill="#a5ff21" stroke="none" /><path d="M 114.94478906791727 85.2469230424477 l 21.306002928922908 -21.032689015532544 a50.938599967790324,50.938599967790324 0 0,0 0.610622188991642,0.6292998409616478 l -21.66488938161766 20.66282497902078" fill="#bbff1f" stroke="none" /><path d="M 115.19652480421416 85.50635884689758 l 20.903032299850736 -19.936206012162152 a49.88579355821774,49.88579355821774 0 0,0 0.587304682715562,0.6264956868861782 l -21.24310430453676 19.57344090839792" fill="#c8ff1d" stroke="none" /><path d="M 115.68641384162765 86.03803664274999 l 11.599215809900734 -10.324082211888465 a36.52831223676556,36.52831223676556 0 0,0 0.41400169152947874,0.47327550084692444 l -11.775209365008061 10.122891154838593" fill="#ff7a0b" stroke="none" /><path d="M 116.15771136456269 86.58626213691792 l 19.41486670348406 -16.11774877835639 a46.23328902058277,46.23328902058277 0 0,0 0.5030655360700177,0.616698864083296 l -19.689430731630484 15.781165744664992" fill="#f9ff18" stroke="none" /><path d="M 116.60985879189232 87.15038557335679 l 23.21624074148642 -17.960402054100722 a50.35251055892152,50.35251055892152 0 0,0 0.5244431204455003,0.6901056719746963 l -23.521959802156037 17.558111606244992" fill="#c2ff1e" stroke="none" /><path d="M 117.65298651832404 88.62581576622439 l 50.52551395786193 -32.55463338548355 a81.10517211995437,81.10517211995437 0 0,0 0.7460610026331945,1.1800893392283924 l -51.07840255674108 31.680096398540947" fill="#49f0ff" stroke="none" /><line stroke="#e1ed5e" stroke-width="0.3" x1="172.23445277983987" x2="176.4835382374775" y1="55.19839476539836" y2="52.563006222186495" /><path d="M 173.08426987136738 54.67131705675599 a86.0,86.0 0 0,1 12.851231095245387,41.99856678651699" fill="none" id="id51" stroke="none" /><text fill="#e1ed5e" style="font-size:6.75px; font-family:Arial;" text-anchor="middle"><textPath startOffset="22.20632615414155" xlink:href="#id51">March</textPath></text><path d="M 118.03404312379186 89.2402003453031 l 22.197754723161275 -13.244029193332528 a46.848493650955234,46.848493650955234 0 0,0 0.4072256800771511,0.696080691395517 l -22.422440077708753 12.859969089583116" fill="#f1ff19" stroke="none" /><path d="M 118.56541770881063 90.18545643968196 l 22.80651133216473 -12.056582967276398 a46.79725086110878,46.79725086110878 0 0,0 0.3703457927217096,0.7153901928400708 l -23.010666558046555 11.662220052175982" fill="#f1ff19" stroke="none" /><path d="M 118.73160827565052 90.50648371742162 l 25.945562756553223 -13.149678279904313 a50.08756204323815,50.08756204323815 0 0,0 0.38314596751529256,0.7723988906269821 l -26.168068737021922 12.70111980077838" fill="#c6ff1e" stroke="none" /><path d="M 118.89224826269711 90.83032412892265 l 23.671356548429827 -11.489297830496417 a47.312299129508645,47.312299129508645 0 0,0 0.34930401478752987,0.7357233387725957 l -23.865618757059114 11.08013207608328" fill="#eaff1a" stroke="none" /><path d="M 119.85752413597 93.16781622104841 l 17.749671074091133 -6.106955427261165 a39.77087445562891,39.77087445562891 0 0,0 0.21715409972121869,0.6492631182709269 l -17.852162467584122 5.800519206067925" fill="#ffaa0f" stroke="none" /><path d="M 120.28053869075195 94.5502522615342 l 25.02590636707288 -6.72491390424479 a46.91371174712345,46.91371174712345 0 0,0 0.20285414820086095,0.7816797824328277 l -25.137956847144046 6.293137696263112" fill="#f0ff19" stroke="none" /><path d="M 120.53481517161879 95.60439243477599 l 25.103661507093506 -5.373598131426689 a46.67234656085806,46.67234656085806 0 0,0 0.1613989842166088,0.7870387667227479 l -25.192439787225112 4.94068370854053" fill="#f3ff19" stroke="none" /><path d="M 120.6074358757038 95.95851677861258 l 31.138912702354286 -6.106892384762292 a52.73209761241618,52.73209761241618 0 0,0 0.16702082378116667,0.8922319191940724 l -31.239419250045312 5.5699823881056565" fill="#a4ff21" stroke="none" /><path d="M 120.87857604477298 97.74499172005257 l 29.485286449356824 -3.184583322988027 a50.656764623634835,50.656764623634835 0 0,0 0.08617167790452533,0.8677370366889235 l -29.535735252943578 2.6765707555946685" fill="#bfff1e" stroke="none" /><path d="M 120.91429891909075 98.10471618934814 l 25.962218649200434 -2.352733547741255 a47.06860472552296,47.06860472552296 0 0,0 0.0661773738293921,0.8075315818597415 l -25.99887050684932 1.9054880486737449" fill="#eeff19" stroke="none" /><path d="M 120.96714384426684 98.82574320788733 l 20.664755206822488 -1.1573216332749126 a41.6971375103115,41.6971375103115 0 0,0 0.03396607475205514,0.716970154313666 l -20.681614889808042 0.8014403723382468" fill="#ffc612" stroke="none" /><path d="M 120.98425023603335 99.18683210126433 l 25.989703058735525 -1.0071359227667545 a47.009209673655484,47.009209673655484 0 0,0 0.024373839920257465,0.8088490857642496 l -26.003188593111428 0.5596166895775058" fill="#eeff19" stroke="none" /><line stroke="#e1ed5e" stroke-width="0.3" x1="184.98032266829074" x2="189.97916517819016" y1="98.17113171792111" y2="98.06355123074" /><path d="M 185.9800911702706 98.14961562048488 a86.0,86.0 0 0,1 -9.607161424134198,41.387399972396054" fill="none" id="id52" stroke="none" /><text fill="#e1ed5e" style="font-size:6.75px; font-family:Arial;" text-anchor="middle"><textPath startOffset="21.466115282336823" xlink:href="#id52">April</textPath></text><path d="M 120.99824983174949 100.27111621757518 l 38.48711499256325 0.4969214637301793 a59.490322827847294,59.490322827847294 0 0,0 -0.02203390484779363,1.0238289777103726 l -38.472859025030445 -1.1593402572306668" fill="#54ff2b" stroke="none" /><path d="M 120.9764740272857 100.99374915477107 l 35.97314558190788 1.7042083893592825 a57.01349093453037,57.01349093453037 0 0,0 -0.05487860478226791,0.9798943537488546 l -35.93848062623808 -2.3231744594435604" fill="#70ff27" stroke="none" /><path d="M 120.76222939487914 103.15116336523771 l 35.61609423713844 5.405591530580315 a57.02397241427169,57.02397241427169 0 0,0 -0.15564352657792083,0.9691923885740611 l -35.517768956199234 -6.017863148847581" fill="#70ff27" stroke="none" /><path d="M 120.64145759157962 103.86396538481128 l 41.84055624508336 7.832318056754026 a63.567327295005725,63.567327295005725 0 0,0 -0.21058967716530685,1.073792226899163 l -41.69953663494239 -8.551374010721133" fill="#30ff3a" stroke="none" /><path d="M 120.23288151984713 105.62410040840565 l 34.82136516351027 9.679236931488758 a57.1415979091465,57.1415979091465 0 0,0 -0.2715786767346042,0.945401001488379 l -34.64959384988957 -10.277195408481719" fill="#6fff28" stroke="none" /><path d="M 120.13307415673323 105.97154293290107 l 30.95834149096052 9.182356549501737 a53.29140101750163,53.29140101750163 0 0,0 -0.26841921349005293,0.8772095203172462 l -30.795695504964335 -9.713893042371039" fill="#9dff22" stroke="none" /><path d="M 119.79798401119884 107.00284435728193 l 28.395130674134567 10.043784281428222 a51.11911434111306,51.11911434111306 0 0,0 -0.3005700200012975,0.8270396053566018 l -28.218036393128042 -10.531071683790955" fill="#b9ff1f" stroke="none" /><line stroke="#e1ed5e" stroke-width="0.3" x1="174.80103733775053" x2="179.2010983576182" y1="140.37084112569926" y2="142.7455964860345" /><path d="M 175.68104954172406 140.8457921977663 a86.0,86.0 0 0,1 -30.038265399797805,32.042727171017184" fill="none" id="id53" stroke="none" /><text fill="#e1ed5e" style="font-size:6.75px; font-family:Arial;" text-anchor="middle"><textPath startOffset="22.206326154141568" xlink:href="#id53">May</textPath></text><line stroke="#e1ed5e" stroke-width="0.3" x1="143.8653032363475" x2="146.44561519142675" y1="172.8068346515853" y2="177.08958963109032" /><path d="M 144.38136562736335 173.6633856474863 a86.0,86.0 0 0,1 -40.68145358897372,12.25698825130547" fill="none" id="id54" stroke="none" /><text fill="#e1ed5e" style="font-size:6.75px; font-family:Arial;" text-anchor="middle"><textPath startOffset="21.466115282336833" xlink:href="#id54">June</textPath></text><line stroke="#e1ed5e" stroke-width="0.3" x1="102.19456741930631" x2="102.32365962044197" y1="184.97166512339345" y2="189.96999836594603" /><path d="M 102.22038585953345 185.97133177190398 a86.0,86.0 0 0,1 -42.740103519485714,-10.115201625700543" fill="none" id="id55" stroke="none" /><text fill="#e1ed5e" style="font-size:6.75px; font-family:Arial;" text-anchor="middle"><textPath startOffset="22.20632615414155" xlink:href="#id55">July</textPath></text><line stroke="#e1ed5e" stroke-width="0.3" x1="58.666819895761336" x2="56.23545636021788" y1="174.27360380694188" y2="178.64263932499728" /><path d="M 58.180547188652646 175.14741091055294 a86.0,86.0 0 0,1 -31.652253787137756,-30.449443065178592" fill="none" id="id56" stroke="none" /><text fill="#e1ed5e" style="font-size:6.75px; font-family:Arial;" text-anchor="middle"><textPath startOffset="22.20632615414155" xlink:href="#id56">August</textPath></text><line stroke="#e1ed5e" stroke-width="0.3" x1="26.63291911575756" x2="22.317208475507996" y1="142.92168965132927" y2="145.44649492493687" /><path d="M 25.769776987707644 143.4266507060508 a86.0,86.0 0 0,1 -11.730757126820373,-40.83630448921669" fill="none" id="id57" stroke="none" /><text fill="#e1ed5e" style="font-size:6.75px; font-family:Arial;" text-anchor="middle"><textPath startOffset="21.46611528233685" xlink:href="#id57">September</textPath></text><line stroke="#e1ed5e" stroke-width="0.3" x1="15.007084014347285" x2="10.007500721073583" y1="101.09737516637583" y2="101.16192664675087" /><path d="M 14.007167355692545 101.11028546245083 a86.0,86.0 0 0,1 10.666146001902534,-42.60595125391555" fill="none" id="id58" stroke="none" /><text fill="#e1ed5e" style="font-size:6.75px; font-family:Arial;" text-anchor="middle"><textPath startOffset="22.20632615414155" xlink:href="#id58">October</textPath></text><line stroke="#e1ed5e" stroke-width="0.3" x1="26.266209847984243" x2="21.928928074336255" y1="57.711370442889674" y2="55.22380399835377" /><path d="M 25.398753493254645 57.213857153982495 a86.0,86.0 0 0,1 29.58750427330803,-30.492523968695096" fill="none" id="id59" stroke="none" /><text fill="#e1ed5e" style="font-size:6.75px; font-family:Arial;" text-anchor="middle"><textPath startOffset="21.46611528233685" xlink:href="#id59">November</textPath></text><line stroke="#e1ed5e" stroke-width="0.3" x1="56.762969772571076" x2="54.21961505331055" y1="26.818313649435495" y2="22.513508569990535" /><path d="M 56.25429882871897 25.957352633546506 a86.0,86.0 0 0,1 42.265352541879196,-11.944610805530505" fill="none" id="id60" stroke="none" /><text fill="#e1ed5e" style="font-size:6.75px; font-family:Arial;" text-anchor="middle"><textPath startOffset="22.20632615414155" xlink:href="#id60">December</textPath></text></svg>