<?xml version="1.0" encoding="utf-8" ?>
<svg baseProfile="full" height="200mm" version="1.1" viewBox="0,0,200,200" width="200mm" xmlns="http://www.w3.org/2000/svg" xmlns:ev="http://www.w3.org/2001/xml-events" xmlns:xlink="http://www.w3.org/1999/xlink"><defs /><rect fill="#1a1a1a" height="200" width="200" x="0" y="0" /><text alignment-baseline="middle" fill="#e1ed5e" style="dominant-baseline: central; font-size:9.0px; font-family:Arial;" text-anchor="middle" x="100.0" y="100.0">2019</text><line stroke="#e1ed5e" stroke-width="0.3" x1="100.0" x2="100.0" y1="15.0" y2="10.0" /><path d="M 100.0 14.0 a86.0,86.0 0 0,1 42.46469731375804,11.215312516191453" fill="none" id="id25" stroke="none" /><text fill="#e1ed5e" style="font-size:6.75px; font-family:Arial;" text-anchor="middle"><textPath startOffset="22.20632615414155" xlink:href="#id25">January</textPath></text><path d="M 107.4271985657038 80.35727306442388 l 4.1246092999417066 -10.908362483912581 a32.66210846963777,32.66210846963777 0 0,0 0.5241752581368996,0.2033718566058812 l -4.3117677230782725 10.835747923416152" fill="#ff830c" stroke="none" /><path d="M 109.41281617654863 81.2277094730956 l 5.547531923047129 -11.063626338117027 a33.37654791073439,33.37654791073439 0 0,0 0.5113597262271534,0.26193831309307003 l -5.737152136863038 10.966495499711456" fill="#ff8d0d" stroke="none" /><path d="M 109.73455568895987 81.39251694778311 l 3.870680063198432 -7.398757167540981 a29.350076153897092,29.350076153897092 0 0,0 0.44563891268768485,0.2380448737048691 l -3.997464022414428 7.331033567334357" fill="#ff5407" stroke="none" /><path d="M 110.36928655335952 81.73862282372117 l 4.038947321823766 -7.113000500024638 a29.17972319713926,29.17972319713926 0 0,0 0.43464346484868654,0.2517735491347984 l -4.160787519137781 7.0424227934997905" fill="#ff5207" stroke="none" /><line stroke="#e1ed5e" stroke-width="0.3" x1="143.23703022742887" x2="145.7803849466894" y1="26.81831364943548" y2="22.513508569990506" /><path d="M 143.74570117128098 25.957352633546492 a86.0,86.0 0 0,1 28.547481713284135,27.462654790039103" fill="none" id="id26" stroke="none" /><text fill="#e1ed5e" style="font-size:6.75px; font-family:Arial;" text-anchor="middle"><textPath startOffset="19.985693538727396" xlink:href="#id26">February</textPath></text><path d="M 110.99172775467656 82.1063720568725 l 3.103623016265674 -5.052442779540011 a26.92955764518906,26.92955764518906 0 0,0 0.3928905094082392,0.24602800094759478 l -3.1901326780461763 4.998270437269473" fill="#ff3204" stroke="none" /><path d="M 113.34407831869373 83.78471172551755 l 5.934849745574911 -7.21183563164643 a30.33986159856963,30.33986159856963 0 0,0 0.4004030462736704,0.3353260362790341 l -6.0581103288076985 7.108608437973577" fill="#ff6209" stroke="none" /><path d="M 115.19652480421416 85.50635884689758 l 7.6562938523670825 -7.30216790276551 a31.580193364677832,31.580193364677832 0 0,0 0.37179313229713895,0.39660299100810803 l -7.7808543066346845 7.169295494879347" fill="#ff740a" stroke="none" /><path d="M 116.82858285166822 87.43820079747576 l 7.047291781348332 -5.260494306573268 a29.79415270511887,29.79415270511887 0 0,0 0.3032440172172466,0.41362449869184337 l -7.136798411079205 5.138407364209931" fill="#ff5b08" stroke="none" /><line stroke="#e1ed5e" stroke-width="0.3" x1="172.23445277983987" x2="176.4835382374775" y1="55.19839476539836" y2="52.563006222186495" /><path d="M 173.08426987136738 54.67131705675599 a86.0,86.0 0 0,1 12.851231095245387,41.99856678651699" fill="none" id="id27" stroke="none" /><text fill="#e1ed5e" style="font-size:6.75px; font-family:Arial;" text-anchor="middle"><textPath startOffset="22.20632615414155" xlink:href="#id27">March</textPath></text><path d="M 118.3937258080291 89.86733742301442 l 5.584034378943476 -3.0761106678791044 a27.375256605522814,27.375256605522814 0 0,0 0.2238147543325947,0.4146947482081206 l -5.6361572324945355 2.979534936338525" fill="#ff3805" stroke="none" /><path d="M 118.89224826269711 90.83032412892265 l 6.207339809510329 -3.0128385612649535 a27.899874180517845,27.899874180517845 0 0,0 0.20598318497786852,0.4338531198248936 l -6.258281188329954 2.9055430257995196" fill="#ff4006" stroke="none" /><path d="M 119.97218684219823 93.5106431181261 l 15.679883812766345 -5.0947030854113065 a37.4868055095689,37.4868055095689 0 0,0 0.1941183109625435,0.6154080933632892 l -15.765257607497094 4.824044825621598" fill="#ffc412" stroke="none" /><path d="M 120.08093135843002 93.85539295169968 l 20.382568640495485 -6.2369056840720845 a42.315442685914846,42.315442685914846 0 0,0 0.2071322842485617,0.6983470915118845 l -20.48690682185575 5.88512920581367" fill="#fdff18" stroke="none" /><path d="M 120.18372546131832 94.20196356495316 l 6.633568071097579 -1.9055783058632145 a27.901844248725247,27.901844248725247 0 0,0 0.12863179280349712,0.46275699836171097 l -6.665386634467439 1.7911100040825518" fill="#ff4006" stroke="none" /><path d="M 120.67395015179393 96.31383870115 l 10.435774497742395 -1.860696567161151 a31.600357592212436,31.600357592212436 0 0,0 0.0908707985851903,0.536324597150763 l -10.466257157847808 1.6807861816945502" fill="#ff740a" stroke="none" /><path d="M 120.73433829027371 96.67025291283417 l 9.334983276008108 -1.4991138341082506 a30.4545891000596,30.4545891000596 0 0,0 0.07866580840028424,0.5183093893378915 l -9.359404977847692 1.338205332378277" fill="#ff6409" stroke="none" /><path d="M 120.96714384426684 98.82574320788733 l 10.59059909503559 -0.5931224115338094 a31.607194887755778,31.607194887755778 0 0,0 0.025746907542389418,0.543476524989091 l -10.599239610811475 0.41073477992171853" fill="#ff740a" stroke="none" /><path d="M 120.98425023603335 99.18683210126433 l 27.644571498288023 -1.0712642988840064 a48.665320177471685,48.665320177471685 0 0,0 0.02523251788124634,0.837344426916241 l -27.658915710624914 0.5952497245427664" fill="#b1ff20" stroke="none" /><line stroke="#e1ed5e" stroke-width="0.3" x1="184.98032266829074" x2="189.97916517819016" y1="98.17113171792111" y2="98.06355123074" /><path d="M 185.9800911702706 98.14961562048488 a86.0,86.0 0 0,1 -9.607161424134198,41.387399972396054" fill="none" id="id28" stroke="none" /><text fill="#e1ed5e" style="font-size:6.75px; font-family:Arial;" text-anchor="middle"><textPath startOffset="21.466115282336823" xlink:href="#id28">April</textPath></text><path d="M 120.99980553446 99.90962569577887 l 14.039734896755721 -0.060421096312597136 a35.03986490960864,35.03986490960864 0 0,0 -0.002595791086444115,0.6031704309450869 l -14.038694808379773 -0.18125881283617448" fill="#ffa30f" stroke="none" /><path d="M 120.95626037817324 101.35467743843564 l 15.671052931628452 1.013025294585423 a36.70376134030859,36.70376134030859 0 0,0 -0.04618284212256165,0.630128188323455 l -15.651293530841553 -1.2826266194056484" fill="#ffb911" stroke="none" /><path d="M 120.92983693683757 101.71520430193887 l 5.701501393671776 0.4672391737904245 a26.72061452883915,26.72061452883915 0 0,0 -0.04151289698704874,0.45809135903816967 l -5.692613900407652 -0.5653119213771647" fill="#ff2f04" stroke="none" /><path d="M 120.8583938346157 102.4346265915055 l 9.16937350318589 1.0702646011628387 a30.23162373352758,30.23162373352758 0 0,0 -0.06477987814409084,0.5163593662990554 l -9.14959211579495 -1.227941721749289" fill="#ff6108" stroke="none" /><path d="M 120.76222939487914 103.15116336523771 l 8.085734128288475 1.227202950199519 a29.178332560757564,29.178332560757564 0 0,0 -0.07964051585931038,0.49592156827873474 l -8.063411858067877 -1.3662037481714586" fill="#ff5207" stroke="none" /><path d="M 120.64145759157962 103.86396538481128 l 9.27061292301774 1.7354068757788428 a30.431643599761603,30.431643599761603 0 0,0 -0.10081578499505318,0.5140575157036218 l -9.239367205047023 -1.8947281185504097" fill="#ff6409" stroke="none" /><path d="M 120.5718875245553 104.21870165774334 l 6.909176250093588 1.4168730635494178 a28.05296006886961,28.05296006886961 0 0,0 -0.10107877096361106,0.47220636708644964 l -6.8837634404055335 -1.5355932500520366" fill="#ff4206" stroke="none" /><path d="M 120.41448212921028 104.9243191809786 l 9.16292694998923 2.210253321546452 a30.425733395139396,30.425733395139396 0 0,0 -0.1271921498270554,0.5080694127424922 l -9.123523485867112 -2.36765057368634" fill="#ff6409" stroke="none" /><path d="M 120.13307415673323 105.97154293290107 l 12.479235124785275 3.7013864716978713 a34.01658830541024,34.01658830541024 0 0,0 -0.17133544444730398,0.5599341458562593 l -12.413672907831838 -3.915647590106188" fill="#ff950d" stroke="none" /><path d="M 119.9155931802556 106.66101706037122 l 12.671501128496514 4.238140658602528 a34.36146612807099,34.36146612807099 0 0,0 -0.19243921328070238,0.5593184325927176 l -12.59667108427258 -4.455631794284546" fill="#ff9a0e" stroke="none" /><path d="M 119.67450827220406 107.3425965602758 l 10.405735943671399 3.8834577154380088 a32.10678100788027,32.10678100788027 0 0,0 -0.19769478324559397,0.516118695862361 l -10.337346880832298 -4.061999978133514" fill="#ff7b0b" stroke="none" /><path d="M 119.26925614724726 108.34839909993367 l 12.28812242222311 5.323825132929027 a34.39182835573803,34.39182835573803 0 0,0 -0.2400204313297722,0.5411827091053135 l -12.194660906162063 -5.534556178527028" fill="#ff9a0e" stroke="none" /><path d="M 118.64920377521936 109.65438752849418 l 11.925334888755124 6.173550667943185 a34.42856433348785,34.42856433348785 0 0,0 -0.27698188521717515,0.5239453434820842 l -11.817300495313056 -6.377911026511404" fill="#ff9b0e" stroke="none" /><line stroke="#e1ed5e" stroke-width="0.3" x1="174.80103733775053" x2="179.2010983576182" y1="140.37084112569926" y2="142.7455964860345" /><path d="M 175.68104954172406 140.8457921977663 a86.0,86.0 0 0,1 -30.038265399797805,32.042727171017184" fill="none" id="id29" stroke="none" /><text fill="#e1ed5e" style="font-size:6.75px; font-family:Arial;" text-anchor="middle"><textPath startOffset="22.206326154141568" xlink:href="#id29">May</textPath></text><path d="M 118.48025628344425 109.97397251340804 l 7.239762674756586 3.907369725511283 a29.226888947751803,29.226888947751803 0 0,0 -0.24275518622994577,0.440671176017694 l -7.171431079075131 -4.0314114199267825" fill="#ff5307" stroke="none" /><path d="M 118.30583269289576 110.29060199501025 l 10.25897202793981 5.7670688784587405 a32.768839811932985,32.768839811932985 0 0,0 -0.2806385918370753,0.48931703996524406 l -10.158181439950356 -5.9428057642823" fill="#ff840c" stroke="none" /><path d="M 117.94076556474637 110.91462005526583 l 10.032500815277176 6.103470568617458 a32.743228925236735,32.743228925236735 0 0,0 -0.29708299627163626,0.4789923832752103 l -9.925953179337577 -6.275259283257942" fill="#ff840c" stroke="none" /><path d="M 117.55443506779139 111.5257021239791 l 9.73402588634793 6.391061996577442 a32.64460962850142,32.64460962850142 0 0,0 -0.3124507219241934,0.46707143540601737 l -9.622572059013013 -6.5576703461892665" fill="#ff830c" stroke="none" /><path d="M 117.14729908036423 112.12312394758627 l 9.539966440876771 6.744747092619432 a32.683431560823784,32.683431560823784 0 0,0 -0.32873339048357025,0.45658192754683724 l -9.422453258017597 -6.907962625617401" fill="#ff830c" stroke="none" /><path d="M 116.0416608686014 113.55231037782055 l 9.058954603815346 7.653182890170133 a32.85899940401298,32.85899940401298 0 0,0 -0.36873663512214166,0.4289240112036981 l -8.925875459122425 -7.80798400053536" fill="#ff850c" stroke="none" /><path d="M 115.32070863581623 114.36230785411682 l 8.607436068224947 8.068990122132778 a32.79815906231375,32.79815906231375 0 0,0 -0.3896631339465679,0.40856023809029657 l -8.467266382899414 -8.215957476805583" fill="#ff850c" stroke="none" /><path d="M 114.81725581225074 114.88116024355365 l 8.613881149136736 8.651031427374583 a33.20816502218396,33.20816502218396 0 0,0 -0.40853957214255765,0.3998419575233076 l -8.463691624618384 -8.798023487820464" fill="#ff8a0c" stroke="none" /><path d="M 114.0293411484842 115.62618273729858 l 7.970181955688096 8.877360552498804 a32.930269518574924,32.930269518574924 0 0,0 -0.425047684469373,0.3750551620973578 l -7.816191918312135 -9.01323885636845" fill="#ff860c" stroke="none" /><path d="M 113.75828350139079 115.86535959552629 l 6.466192807115145 7.456487874269847 a30.86969405999603,30.86969405999603 0 0,0 -0.4044437411147316,0.3446757303975545 l -6.336883589423366 -7.566687994890348" fill="#ff6a09" stroke="none" /><path d="M 113.48314897796784 116.09983520530334 l 10.44614429928368 12.473436437148544 a37.269866234024235,37.269866234024235 0 0,0 -0.4953872843361782,0.40767000921406654 l -10.229886886402811 -12.651401565219789" fill="#ffc111" stroke="none" /><path d="M 113.20401910651253 116.32954008644616 l 7.435439847829969 9.195481472426284 a32.82550824448712,32.82550824448712 0 0,0 -0.4424292455403284,0.35149255046334693 l -7.276053109572289 -9.322107936894756" fill="#ff850c" stroke="none" /><path d="M 112.63410532772338 116.77436683061366 l 4.928787508763636 6.543976605983059 a29.192470697304813,29.192470697304813 0 0,0 -0.40398908263106825,0.2988614653155406 l -4.815413455714004 -6.627848020038369" fill="#ff5207" stroke="none" /><path d="M 112.34349029814194 116.9893568818739 l 6.281548618822446 8.645809951507882 a31.686808820607904,31.686808820607904 0 0,0 -0.44402675731342006,0.316801301701516 l -6.131794533660141 -8.752655515053618" fill="#ff750a" stroke="none" /><path d="M 112.04921762599082 117.19931262002967 l 7.170605026181911 10.235475974309761 a33.49730150321171,33.49730150321171 0 0,0 -0.47509241125919766,0.32677289258797126 l -6.99335573029983 -10.357389656262827" fill="#ff8e0d" stroke="none" /><path d="M 111.7513745106137 117.40417183066458 l 3.509939437713655 5.1983356529077565 a27.272349513277266,27.272349513277266 0 0,0 -0.39132613967415547,0.25934962701384234 l -3.419938599299535 -5.257983301012917" fill="#ff3705" stroke="none" /><line stroke="#e1ed5e" stroke-width="0.3" x1="143.8653032363475" x2="146.44561519142675" y1="172.8068346515853" y2="177.08958963109032" /><path d="M 144.38136562736335 173.6633856474863 a86.0,86.0 0 0,1 -40.68145358897372,12.25698825130547" fill="none" id="id30" stroke="none" /><text fill="#e1ed5e" style="font-size:6.75px; font-family:Arial;" text-anchor="middle"><textPath startOffset="21.466115282336833" xlink:href="#id30">June</textPath></text><path d="M 110.8373102113329 117.98757091392108 l 6.049354361172252 10.040608641176876 a32.722137606781004,32.722137606781004 0 0,0 -0.484960978660033,0.2865234943207277 l -5.875625511483837 -10.143250707791353" fill="#ff840c" stroke="none" /><path d="M 109.89434966115114 118.52300852407294 l 5.521467756739332 10.336626238816141 a32.71889278855705,32.71889278855705 0 0,0 -0.4990551914016695,0.26108208933638194 l -5.342721662811167 -10.430137747097241" fill="#ff840c" stroke="none" /><path d="M 109.57404056367764 118.69057910512821 l 4.940025720068131 9.643988960376232 a31.83560691344944,31.83560691344944 0 0,0 -0.48988342717280386,0.2456377201975696 l -4.773288385212567 -9.727594521483104" fill="#ff770b" stroke="none" /><path d="M 108.92500713936063 119.00905698771935 l 5.291705941478405 11.270617292864392 a33.4510628435203,33.4510628435203 0 0,0 -0.5233211771281775,0.24023108513668023 l -5.096916768582807 -11.360035448335147" fill="#ff8e0d" stroke="none" /><path d="M 108.2653958097858 119.30500536409082 l 4.597664048884228 10.738497123260903 a32.68134560625124,32.68134560625124 0 0,0 -0.5190553096053352,0.21696516151166215 l -4.412137279781432 -10.816047327792537" fill="#ff830c" stroke="none" /><path d="M 107.59598834532513 119.57807347666477 l 4.218763939622663 10.873538325196176 a32.663267333289184,32.663267333289184 0 0,0 -0.5259249225072952,0.19885980408552106 l -4.0309687963550935 -10.944546379388328" fill="#ff830c" stroke="none" /><path d="M 106.57524785965236 119.94407469862006 l 2.7670453751916515 8.393015873353127 a29.8373783193166,29.8373783193166 0 0,0 -0.48916059398985984,0.15661377501312654 l -2.6221634361108515 -8.439402495025961" fill="#ff5b08" stroke="none" /><path d="M 106.2309692047433 120.05430185196036 l 18.692907614229917 60.16290555588107 a84.0,84.0 0 0,0 -1.3845001022390167,0.4171385235770977 l -17.654532537550654 -60.47575944856389" fill="#4dd2ff" stroke="none" /><path d="M 105.88484417918355 120.15858648285463 l 2.3019518287820167 7.8853566223576115 a29.214489106681675,29.214489106681675 0 0,0 -0.48394334285533686,0.1367672226703127 l -2.165877317822074 -7.923812638366443" fill="#ff5307" stroke="none" /><path d="M 104.13013068566511 120.58985236759428 l 3.1983829395959975 15.944830213213649 a37.26244950665519,37.26244950665519 0 0,0 -0.6299703016785337,0.12073530765864574 l -2.9234450233457596 -15.997522719220761" fill="#ffc111" stroke="none" /><path d="M 103.7750983002368 120.6578951692458 l 1.5844154980051575 8.670155492445256 a29.81373750082776,29.81373750082776 0 0,0 -0.5056282511991487,0.08790995265013522 l -1.4349382753339588 -8.696144023616396" fill="#ff5b08" stroke="none" /><path d="M 103.41894727170886 120.7198165907248 l 0.9849198972751122 5.968901537898189 a27.04961591947553,27.04961591947553 0 0,0 -0.4600548909333707,0.07185111245709615 l -0.8820291427332243 -5.984970957702391" fill="#ff3304" stroke="none" /><path d="M 101.98527174616119 120.90594882070398 l 1.099003019756748 11.573076043247244 a32.62514071915767,32.62514071915767 0 0,0 -0.559529991166021,0.04827860201722141 l -0.8996287108491854 -11.59027889754313" fill="#ff820c" stroke="none" /><path d="M 101.26447882468166 120.96189622390904 l 0.7030022744089989 11.654019374380082 a32.67520362889875,32.67520362889875 0 0,0 -0.5617208750976961,0.029034553038078694 l -0.5022933308978231 -11.664393734180363" fill="#ff830c" stroke="none" /><line stroke="#e1ed5e" stroke-width="0.3" x1="102.19456741930631" x2="102.32365962044197" y1="184.97166512339345" y2="189.96999836594603" /><path d="M 102.22038585953345 185.97133177190398 a86.0,86.0 0 0,1 -42.740103519485714,-10.115201625700543" fill="none" id="id31" stroke="none" /><text fill="#e1ed5e" style="font-size:6.75px; font-family:Arial;" text-anchor="middle"><textPath startOffset="22.20632615414155" xlink:href="#id31">July</textPath></text><path d="M 100.54218724476979 120.99299961872073 l 0.21018537270066714 8.13818748325449 a29.140901264816897,29.140901264816897 0 0,0 -0.5015569709505983,0.008634758106004198 l -0.07006871185740092 -8.140599718639653" fill="#ff5107" stroke="none" /><path d="M 99.81925306533755 120.99922214144158 l -0.07857482546356576 9.12884203384071 a30.129180186742598,30.129180186742598 0 0,0 -0.5185666776179014,-0.00892759563201421 l 0.23570119297413508 -9.126136960929536" fill="#ff5f08" stroke="none" /><path d="M 98.73552117531835 120.96189622390904 l -1.263501918983044 20.945701570843298 a41.983775908880204,41.983775908880204 0 0,0 -0.7209958588502202,-0.04972409572910263 l 1.6238605386121943 -20.92084913059791" fill="#fffd17" stroke="none" /><path d="M 98.37488393609728 120.93702456842531 l -0.6711141399360748 8.646233674113965 a29.672240248990132,29.672240248990132 0 0,0 -0.5088869490958061,-0.043908907252595566 l 0.8198454067734227 -8.633400514582707" fill="#ff5908" stroke="none" /><path d="M 97.2962882734958 120.8252237178851 l -1.5016094921448992 11.566082768465158 a32.66315144692404,32.66315144692404 0 0,0 -0.5569400311846662,-0.07718681347306934 l 1.7004781145163963 -11.538521389499484" fill="#ff830c" stroke="none" /><path d="M 96.22490169976321 120.6578951692458 l -2.087499448584684 11.423105133981778 a32.612277332626974,32.612277332626974 0 0,0 -0.5513530769358091,-0.10566812942612791 l 2.283820140092188 -11.385479806207181" fill="#ff820c" stroke="none" /><path d="M 95.86986931433489 120.58985236759428 l -2.2864639780253118 11.398660075033979 a32.625720150983376,32.625720150983376 0 0,0 -0.5496789698301541,-0.11519057255642787 l 2.4823344092848525 -11.35761352175101" fill="#ff820c" stroke="none" /><path d="M 95.16358092515715 120.4354850818985 l -2.015788468118727 8.517379187170992 a29.75266538639825,29.75266538639825 0 0,0 -0.4973607359061658,-0.12223916815915033 l 2.1621024887681033 -8.48141876069781" fill="#ff5a08" stroke="none" /><path d="M 92.40401165467489 119.57807347666478 l -2.128706024659765 5.48657542196691 a26.88505728097477,26.88505728097477 0 0,0 -0.430005910004134,-0.17110822590123495 l 2.2228330107057572 -5.449120351659609" fill="#ff3104" stroke="none" /><path d="M 92.06813273071674 119.44442032107085 l -1.8955994957886342 4.646930174848327 a26.018690815177802,26.018690815177802 0 0,0 -0.4132369511130017,-0.1727330790797444 l 1.9753079063990981 -4.61361205274861" fill="#ff2403" stroke="none" /><path d="M 90.10565033884886 118.52300852407294 l -6.395028559714611 11.97200145335294 a34.572958744454006,34.572958744454006 0 0,0 -0.5225080205569671,-0.2849130336691293 l 6.600159392140219 -11.860147767924046" fill="#ff9d0e" stroke="none" /><line stroke="#e1ed5e" stroke-width="0.3" x1="58.666819895761336" x2="56.23545636021788" y1="174.27360380694188" y2="178.64263932499728" /><path d="M 58.180547188652646 175.14741091055294 a86.0,86.0 0 0,1 -31.652253787137756,-30.449443065178592" fill="none" id="id32" stroke="none" /><text fill="#e1ed5e" style="font-size:6.75px; font-family:Arial;" text-anchor="middle"><textPath startOffset="22.20632615414155" xlink:href="#id32">August</textPath></text><path d="M 89.7882731507175 118.34994917583269 l -5.095438234989804 9.156241057037988 a31.478561022448844,31.478561022448844 0 0,0 -0.4712059272834675,-0.2675630232308369 l 5.252292929194478 -9.067174868012518" fill="#ff720a" stroke="none" /><path d="M 89.1626897886671 117.98757091392108 l -6.010541179224284 9.976187225800775 a32.64692735580425,32.64692735580425 0 0,0 -0.4788539373279344,-0.29415119896829933 l 6.181374316484527 -9.871247560004099" fill="#ff830c" stroke="none" /><path d="M 87.65650970185807 116.9893568818739 l -6.827160152761237 9.396779802421785 a32.61505860539037,32.61505860539037 0 0,0 -0.4513536295907514,-0.3339006248299232 l 6.987898752770552 -9.277869228852095" fill="#ff820c" stroke="none" /><path d="M 87.07902340077011 116.55440617244103 l -5.259530256765523 6.738530905777587 a29.548125951923716,29.548125951923716 0 0,0 -0.3982559835683709,-0.3163986395853576 l 5.374743733051252 -6.646998352187099" fill="#ff5708" stroke="none" /><path d="M 85.97065885151581 115.62618273729859 l -7.768736435146652 8.652986187211466 a32.62873319647706,32.62873319647706 0 0,0 -0.4146963614507392,-0.37881529382942 l 7.916532346064245 -8.51797812679547" fill="#ff820c" stroke="none" /><path d="M 85.44109423537348 115.13401014063109 l -8.064071305471455 8.382617408534887 a32.63174624197073,32.63174624197073 0 0,0 -0.40144824741305407,-0.3929016037494821 l 8.207169505260302 -8.242565701862835" fill="#ff820c" stroke="none" /><path d="M 84.9287848128048 114.62390073753433 l -35.91934695222506 34.85325886877951 a71.04946692272034,71.04946692272034 0 0,0 -0.8441131678683899,-0.8850492817900331 l 36.5139666714724 -34.22980247040698" fill="#3cffa9" stroke="none" /><path d="M 83.95833913139862 113.55231037782056 l -18.133755052803625 15.31975266176993 a44.73874246738626,44.73874246738626 0 0,0 -0.4919216474024955,-0.5925513137233335 l 18.394772700099658 -15.005340090932837" fill="#dfff1b" stroke="none" /><path d="M 83.72743513129214 113.27417163493432 l -6.759940902100622 5.514349858211491 a29.723809681478045,29.723809681478045 0 0,0 -0.32000099783202357,-0.3992504471981911 l 6.853859811987507 -5.39717157743504" fill="#ff5a08" stroke="none" /><path d="M 83.28015986056508 112.70617746262583 l -9.241251951777604 7.0228534661152615 a32.606946559830476,32.606946559830476 0 0,0 -0.3357564200494665,-0.449800593186246 l 9.360769638522155 -6.862739993419708" fill="#ff820c" stroke="none" /><path d="M 82.6465618267979 111.8261652097733 l -9.663558701940254 6.5856022641074174 a32.69420899278194,32.69420899278194 0 0,0 -0.3129254513619877,-0.46778109150338393 l 9.775487258712971 -6.418284258398213" fill="#ff830c" stroke="none" /><path d="M 82.24976979558568 111.22182372390057 l -19.78764929504749 12.509894786838625 a44.41043639494073,44.41043639494073 0 0,0 -0.4029408810006361,-0.6496689993426373 l 20.00005481571608 -12.167429456130723" fill="#e3ff1b" stroke="none" /><path d="M 82.05923443525364 110.91462005526583 l -7.429083981455079 4.519630376062498 a29.695881067478975,29.695881067478975 0 0,0 -0.26191643269942433,-0.43898700660929757 l 7.505781289852735 -4.391081275567089" fill="#ff5908" stroke="none" /><line stroke="#e1ed5e" stroke-width="0.3" x1="26.63291911575756" x2="22.317208475507996" y1="142.92168965132927" y2="145.44649492493687" /><path d="M 25.769776987707644 143.4266507060508 a86.0,86.0 0 0,1 -11.730757126820373,-40.83630448921669" fill="none" id="id33" stroke="none" /><text fill="#e1ed5e" style="font-size:6.75px; font-family:Arial;" text-anchor="middle"><textPath startOffset="21.46611528233685" xlink:href="#id33">September</textPath></text><path d="M 81.18737489456691 109.33194174019688 l -10.401384687208605 5.159573178884761 a32.61077080988014,32.61077080988014 0 0,0 -0.24511923674396968,-0.5050182296122826 l 10.488657180567294 -4.979765993307194" fill="#ff820c" stroke="none" /><path d="M 80.87730276802145 108.67885076344099 l -10.572505078457636 4.798339515526708 a32.61042315078471,32.61042315078471 0 0,0 -0.22758801159204597,-0.51315088465971 l 10.653534174780964 -4.615640294374303" fill="#ff820c" stroke="none" /><path d="M 80.73074385275274 108.34839909993369 l -21.52016455356102 9.323604451386108 a44.453082577312756,44.453082577312756 0 0,0 -0.29815109828532727,-0.7047411239358695 l 21.677466633038655 -8.951788801784081" fill="#e3ff1b" stroke="none" /><path d="M 80.32549172779594 107.34259656027581 l -10.915154706298491 4.073574612005652 a32.65051983312363,32.65051983312363 0 0,0 -0.1919784316646913,-0.528242192485677 l 10.983657398968408 -3.8850846225138578" fill="#ff830c" stroke="none" /><path d="M 80.0844068197444 106.66101706037122 l -8.319704651670584 2.782628371670542 a29.772713727567712,29.772713727567712 0 0,0 -0.15837346817353343,-0.4874234157230349 l 8.366370370860366 -2.6390060559697033" fill="#ff5a08" stroke="none" /><path d="M 79.97269907076064 106.31721596034903 l -8.528722229815912 2.6902167387376914 a29.9429507979604,29.9429507979604 0 0,0 -0.1508172641233529,-0.49287954538362133 l 8.573766266445395 -2.543010220802022" fill="#ff5d08" stroke="none" /><path d="M 79.86692584326677 105.97154293290107 l -8.347895243772287 2.4760160549488335 a29.70735381762797,29.70735381762797 0 0,0 -0.1411910785537608,-0.49150466697499234 l 8.389278959212152 -2.331953912469245" fill="#ff5a08" stroke="none" /><path d="M 79.58551787078972 104.9243191809786 l -11.32838605583034 2.73259876940184 a32.653301105887024,32.653301105887024 0 0,0 -0.12709820728068488,-0.5475357504960611 l 11.37374482904158 -2.5371943615572046" fill="#ff830c" stroke="none" /><path d="M 79.35854240842038 103.8639653848113 l -23.397570364938233 4.379894277218498 a44.80398649096086,44.80398649096086 0 0,0 -0.13537963524944738,-0.7592808897397795 l 23.469496442526868 -3.976494636745505" fill="#deff1b" stroke="none" /><path d="M 79.29508885075956 103.50808413554451 l -11.520857343885679 1.9520072597577642 a32.685053969935765,32.685053969935765 0 0,0 -0.08921190248396414,-0.5555226019270646 l 11.552751000730934 -1.7534054281374858" fill="#ff830c" stroke="none" /><path d="M 79.07016306316243 101.71520430193888 l -11.597156904569916 0.9503893161235517 a32.63603403748096,32.63603403748096 0 0,0 -0.04106458718181586,-0.5602936661294272 l 11.611798050416066 -0.7506225134973638" fill="#ff820c" stroke="none" /><line stroke="#e1ed5e" stroke-width="0.3" x1="15.007084014347285" x2="10.007500721073583" y1="101.09737516637583" y2="101.16192664675087" /><path d="M 14.007167355692545 101.11028546245083 a86.0,86.0 0 0,1 10.666146001902534,-42.60595125391555" fill="none" id="id34" stroke="none" /><text fill="#e1ed5e" style="font-size:6.75px; font-family:Arial;" text-anchor="middle"><textPath startOffset="22.20632615414155" xlink:href="#id34">October</textPath></text><path d="M 79.00175016825051 100.2711162175752 l -11.630081576349081 0.1501603110895137 a32.63105092377988,32.63105092377988 0 0,0 -0.002417343541356646,-0.5617055059618872 l 11.63094321717994 0.05005467307604879" fill="#ff820c" stroke="none" /><path d="M 79.00019446554 99.90962569577889 l -11.688422322013464 -0.05030203889560642 a32.68853056089001,32.68853056089001 0 0,0 0.007264625688571969,-0.562653265478282 l 11.685824689207177 0.2514915624343603" fill="#ff830c" stroke="none" /><path d="M 79.00486145842228 99.54816195383935 l -11.650255811140243 -0.25072608178091943 a32.6529534467916,32.6529534467916 0 0,0 0.01693025400258403,-0.5618327073841776 l 11.644213862682014 0.4512289365900914" fill="#ff830c" stroke="none" /><path d="M 79.32604984820605 96.31383870115002 l -27.786367653742694 -4.954303958789201 a49.224587775644,49.224587775644 0 0,0 0.15591132484440168,-0.8328845316454365 l 27.69697060498843 5.4318665678972105" fill="#aaff21" stroke="none" /><path d="M 79.46518482838121 95.60439243477599 l -11.813422658687543 -2.5287381247767113 a33.08103767962386,33.08103767962386 0 0,0 0.12398396900873754,-0.5557958222529362 l 11.768144302676767 2.7317121165796068" fill="#ff890c" stroke="none" /><path d="M 79.81627453868168 94.20196356495316 l -14.662861942670732 -4.212096916825275 a36.255860539037144,36.255860539037144 0 0,0 0.17747088850254228,-0.5983436105260025 l 14.588185157056483 4.463869914097817" fill="#ffb310" stroke="none" /><path d="M 80.803312248108 91.48605970444005 l -16.172985908182685 -7.172895564216723 a38.69225547976955,38.69225547976955 0 0,0 0.27526349143522055,-0.6065066158190435 l 16.047120099784113 7.450224188877837" fill="#ffd313" stroke="none" /><path d="M 80.95270993114464 91.15688171328213 l -13.16351771280655 -6.111449123883146 a35.51302893848089,35.51302893848089 0 0,0 0.26219067375105826,-0.5522404258780094 l 13.05636884521374 6.337131965401687" fill="#ffa90f" stroke="none" /><line stroke="#e1ed5e" stroke-width="0.3" x1="26.266209847984243" x2="21.928928074336255" y1="57.711370442889674" y2="55.22380399835377" /><path d="M 25.398753493254645 57.213857153982495 a86.0,86.0 0 0,1 29.58750427330803,-30.492523968695096" fill="none" id="id35" stroke="none" /><text fill="#e1ed5e" style="font-size:6.75px; font-family:Arial;" text-anchor="middle"><textPath startOffset="21.46611528233685" xlink:href="#id35">November</textPath></text><path d="M 83.6137871275137 86.86637796730984 l -9.106676777339374 -7.299041682064065 a32.670799947023376,32.670799947023376 0 0,0 0.3554917644269217,-0.43579086936803224 l 8.979686520836058 7.454716721040179" fill="#ff830c" stroke="none" /><path d="M 86.10567301691215 84.25364557470407 l -2.4317295778901573 -2.7558640189295462 a24.67533607045891,24.67533607045891 0 0,0 0.32090415720558496,-0.27828492288660617 l 2.3839316220377986 2.7973139352358327" fill="#ff1101" stroke="none" /><path d="M 86.37877921826538 84.01681056812374 l -5.51186939873207 -6.467647366954849 a29.49771538308721,29.49771538308721 0 0,0 0.3892890235879966,-0.32601836190196565 l 5.399722838184963 6.561566886250627" fill="#ff5708" stroke="none" /><line stroke="#e1ed5e" stroke-width="0.3" x1="56.762969772571076" x2="54.21961505331055" y1="26.818313649435495" y2="22.513508569990535" /><path d="M 56.25429882871897 25.957352633546506 a86.0,86.0 0 0,1 42.265352541879196,-11.944610805530505" fill="none" id="id36" stroke="none" /><text fill="#e1ed5e" style="font-size:6.75px; font-family:Arial;" text-anchor="middle"><textPath startOffset="22.20632615414155" xlink:href="#id36">December</textPath></text><path d="M 90.26544431104013 81.39251694778311 l -1.5235827012023475 -2.9123095287672736 a24.286769088139856,24.286769088139856 0 0,0 0.3720958687839239,-0.1906019562730781 l 1.4732263448296599 2.938104010352857" fill="#ff0b01" stroke="none" /><path d="M 91.56875222667455 80.76684994638697 l -7.811089607361523 -17.8184608660062 a40.45535063903053,40.45535063903053 0 0,0 0.6401890524589561,-0.2740955421596316 l 7.503216797112258 17.950275936128616" fill="#ffea16" stroke="none" /><path d="M 92.23578459929587 80.48803036053334 l -2.1815914815666324 -5.482478854229985 a26.900586053903716,26.900586053903716 0 0,0 0.4317119224543084,-0.16749751886514236 l 2.0868963941126477 5.519219076985679" fill="#ff3104" stroke="none" /><path d="M 92.57280143429618 80.3572730644239 l -0.9073533863516274 -2.399679319801029 a23.565492351499902,23.565492351499902 0 0,0 0.3806586432142905,-0.140199790806262 l 0.8659124173647674 2.4149423784136137" fill="#ff0000" stroke="none" /></svg>
