<?xml version="1.0" encoding="utf-8" ?>
<svg baseProfile="full" height="200mm" version="1.1" viewBox="0,0,200,200" width="200mm" xmlns="http://www.w3.org/2000/svg" xmlns:ev="http://www.w3.org/2001/xml-events" xmlns:xlink="http://www.w3.org/1999/xlink"><defs /><rect fill="#1a1a1a" height="200" width="200" x="0" y="0" /><text alignment-baseline="middle" fill="#e1ed5e" style="dominant-baseline: central; font-size:9.0px; font-family:Arial;" text-anchor="middle" x="100.0" y="100.0">2020</text><line stroke="#e1ed5e" stroke-width="0.3" x1="100.0" x2="100.0" y1="15.0" y2="10.0" /><path d="M 100.0 14.0 a86.0,86.0 0 0,1 42.35913384403234,11.155469271406648" fill="none" id="id37" stroke="none" /><text fill="#e1ed5e" style="font-size:6.75px; font-family:Arial;" text-anchor="middle"><textPath startOffset="22.145653131862478" xlink:href="#id37">January</textPath></text><path d="M 106.72888874123014 80.10723608172694 l 3.323444355377908 -9.825172699313143 a31.372044203271678,31.372044203271678 0 0,0 0.5086666652553594,0.17694067090299825 l -3.4916167926782853 9.766673595841555" fill="#ff3304" stroke="none" /><line stroke="#e1ed5e" stroke-width="0.3" x1="143.13028292997686" x2="145.6673583964461" y1="26.7553504044142" y2="22.446841604673864" /><path d="M 143.63769802327073 25.89364864446614 a86.0,86.0 0 0,1 29.32050498858742,28.57503671076993" fill="none" id="id38" stroke="none" /><text fill="#e1ed5e" style="font-size:6.75px; font-family:Arial;" text-anchor="middle"><textPath startOffset="20.669276256404974" xlink:href="#id38">February</textPath></text><line stroke="#e1ed5e" stroke-width="0.3" x1="172.87174338648825" x2="177.1583165268699" y1="56.24261187166439" y2="53.66864786411523" /><path d="M 173.72905801456457 55.72781907015455 a86.0,86.0 0 0,1 12.242430191666344,42.057860355516425" fill="none" id="id39" stroke="none" /><text fill="#e1ed5e" style="font-size:6.75px; font-family:Arial;" text-anchor="middle"><textPath startOffset="22.145653131862474" xlink:href="#id39">March</textPath></text><path d="M 120.51834098615036 95.52812308129327 l 27.86328994586168 -6.072674358625608 a49.51736840020596,49.51736840020596 0 0,0 0.1738820999897309,0.8320887944796502 l -27.963429756675776 5.593469112860553" fill="#c8ff1d" stroke="none" /><path d="M 120.592083275326 95.88100663000786 l 16.43457099734861 -3.287374476474494 a37.76012991642571,37.76012991642571 0 0,0 0.12168419025485602,0.6367031022578642 l -16.488581479885625 3.004768809183315" fill="#ff940d" stroke="none" /><path d="M 120.77682067341334 96.94652285012252 l 13.770291136698438 -2.0237585910761657 a34.91820810393314,34.91820810393314 0 0,0 0.08206690676168168,0.5937952557436688 l -13.803002560015331 1.7870750271324112" fill="#ff6909" stroke="none" /><path d="M 120.82617615685814 97.30363454192243 l 16.59087966824449 -2.1480215340368423 a37.7293539826514,37.7293539826514 0 0,0 0.0776468555190878,0.6430273502850357 l -16.62530861002324 1.8629005068283935" fill="#ff930d" stroke="none" /><path d="M 120.9064616781168 98.02013634271609 l 7.18218841663827 -0.6801607103487869 a28.214322493761635,28.214322493761635 0 0,0 0.04152392839618171,0.48257099058640973 l -7.192805967732192 0.5567686723867152" fill="#ff0000" stroke="none" /><path d="M 120.93736805541906 98.37931529534042 l 22.84061436932514 -1.7680080063268537 a43.90893967600111,43.90893967600111 0 0,0 0.05172063033458734,0.7520066139468791 l -22.867598960824793 1.3756579682256405" fill="#ffeb16" stroke="none" /><line stroke="#e1ed5e" stroke-width="0.3" x1="184.99686870605535" x2="189.99668451229388" y1="99.2704041080226" y2="99.22748670261217" /><path d="M 185.99683186730306 99.26182062694052 a86.0,86.0 0 0,1 -10.086455211305974,41.156179273409016" fill="none" id="id40" stroke="none" /><text fill="#e1ed5e" style="font-size:6.75px; font-family:Arial;" text-anchor="middle"><textPath startOffset="21.40746469413373" xlink:href="#id40">April</textPath></text><path d="M 120.99922638620191 99.81974689727618 l 34.04663259597814 -0.29224939289933877 a55.04788687764883,55.04788687764883 0 0,0 0.0,0.9450049912463272 l -34.04663259597814 -0.29224939289933466" fill="#84ff25" stroke="none" /><path d="M 120.99303781780057 100.54070618675476 l 13.951843052436951 0.35934998643633 a34.95647007565255,34.95647007565255 0 0,0 -0.020599869460552075,0.5997427229147495 l -13.943618495979553 -0.5987989739151902" fill="#ff6a09" stroke="none" /><path d="M 120.98066250479742 100.90099992219065 l 13.95968480650197 0.5994889304181023 a34.97255119420129,34.97255119420129 0 0,0 -0.030906426800619866,0.5995764232137508 l -13.947336790244778 -0.8390371470085838" fill="#ff6a09" stroke="none" /><path d="M 120.93736805541906 101.62068470465957 l 16.658726596212336 1.2894907956971737 a37.708559432803895,37.708559432803895 0 0,0 -0.05549690311213821,0.6449581372403467 l -16.63413607040246 -1.5752699803131778" fill="#ff930d" stroke="none" /><path d="M 120.86939407059847 102.33845913500097 l 13.950953388290902 1.5632334260621015 a35.03826197171941,35.03826197171941 0 0,0 -0.07210859921452746,0.5971626432996406 l -13.922062702816712 -1.8024897462851508" fill="#ff6b09" stroke="none" /><path d="M 120.77682067341334 103.0534771498775 l 17.614253958638212 2.588688751771605 a38.80346179744127,38.80346179744127 0 0,0 -0.10251229335198958,0.6582024606771456 l -17.567220173147955 -2.8906793943802014" fill="#ffa30f" stroke="none" /><path d="M 120.7213421655516 103.40968896794604 l 14.144441072882374 2.327462395951705 a35.33465362221254,35.33465362221254 0 0,0 -0.10362338534155444,0.5976721498070322 l -14.102402870048586 -2.569927578679325" fill="#ff700a" stroke="none" /><path d="M 120.592083275326 104.11899336999214 l 33.23562947512578 6.6480567131152 a54.894007208777275,54.894007208777275 0 0,0 -0.19276236921900355,0.922437717476079 l -33.11660939508242 -7.217610881876688" fill="#86ff25" stroke="none" /><path d="M 120.43855184770803 104.8234425847677 l 16.048665769381703 3.787441423322769 a37.48952350774349,37.48952350774349 0 0,0 -0.15319374961547338,0.6250827759263862 l -15.981284493249934 -4.062380023857255" fill="#ff900d" stroke="none" /><path d="M 120.26092885502905 105.52220625578681 l 21.945126423997817 5.981241792503163 a43.74563314453202,43.74563314453202 0 0,0 -0.2036911416202184,0.722828003095168 l -21.83921679030302 -6.357077719501341" fill="#ffe915" stroke="none" /><path d="M 120.16314734710363 105.8691983318838 l 26.847991659076275 7.815059085134138 a48.962292549609856,48.962292549609856 0 0,0 -0.24183567449068571,0.804992307589065 l -26.70987966458196 -8.274788996313927" fill="#d0ff1d" stroke="none" /><path d="M 119.71291397450082 107.23885506374661 l 21.24536849030945 7.801593588658346 a43.63251079336158,43.63251079336158 0 0,0 -0.26422459814527766,0.7008871383510279 l -21.10831320834973 -8.165149007203532" fill="#ffe715" stroke="none" /><path d="M 119.31412917781788 108.2440532568976 l 35.31246345328213 15.072790839333036 a59.39477957777161,59.39477957777161 0 0,0 -0.4083139883857569,0.9343023119924286 l -35.0485155828794 -15.67675522110131" fill="#52ff2b" stroke="none" /><path d="M 119.16976305983485 108.57439118712176 l 13.16834478340855 5.890033127035002 a35.4255951202123,35.4255951202123 0 0,0 -0.2530661718946077,0.552995256762245 l -13.065294146658887 -6.115217366011936" fill="#ff710a" stroke="none" /><path d="M 118.8641267826498 109.22738970284198 l 14.983258778170738 7.329062689075532 a37.67972432368202,37.67972432368202 0 0,0 -0.2892010112690032,0.5785957506152143 l -14.855237853690001 -7.585190295854493" fill="#ff930d" stroke="none" /><line stroke="#e1ed5e" stroke-width="0.3" x1="174.33088141563837" x2="178.70328620479359" y1="141.23008692659167" y2="143.65538615756765" /><path d="M 175.20536237346943 141.71514677278685 a86.0,86.0 0 0,1 -30.301960400862466,31.631185727798858" fill="none" id="id41" stroke="none" /><text fill="#e1ed5e" style="font-size:6.75px; font-family:Arial;" text-anchor="middle"><textPath startOffset="22.145653131862474" xlink:href="#id41">May</textPath></text><path d="M 118.18653347947321 110.5 l 24.30153655735367 14.030498673109665 a49.060997346219345,49.060997346219345 0 0,0 -0.42735934389892055,0.7257495956169671 l -24.057103503324985 -14.445599437020183" fill="#ceff1d" stroke="none" /><path d="M 118.00360718960297 110.81064883170644 l 17.13766746089959 10.290676905089336 a40.98993939874045,40.98993939874045 0 0,0 -0.3674104633273581,0.6001373798769704 l -16.958489033116823 -10.583351401090864" fill="#ffc212" stroke="none" /><path d="M 117.62189284568427 111.42229804090321 l 23.456072286124446 15.203942667640245 a48.95258842634769,48.95258842634769 0 0,0 -0.46312776056606514,0.701234457430085 l -23.191620086637652 -15.60435700340939" fill="#d0ff1d" stroke="none" /><path d="M 116.79662413953412 112.60449989151573 l 23.415391307495117 17.57134616714159 a50.2751217966491,50.2751217966491 0 0,0 -0.5239338568318175,0.6858462370956048 l -23.110305473308994 -17.970713317478072" fill="#bfff1e" stroke="none" /><path d="M 114.13192950727249 115.5334660781643 l 18.798166090462278 20.662477487424947 a48.93401196181724,48.93401196181724 0 0,0 -0.6262038281896886,0.5599553245316427 l -18.440697235449214 -20.982128341839978" fill="#d0ff1d" stroke="none" /><path d="M 113.59037401385872 116.0094264158162 l 17.958112547088398 21.15461142543842 a48.74907909850674,48.74907909850674 0 0,0 -0.642618870497075,0.5360955173007925 l -17.592319342429427 -21.459769126651086" fill="#d2ff1c" stroke="none" /><line stroke="#e1ed5e" stroke-width="0.3" x1="143.1302829299769" x2="145.66735839644613" y1="173.24464959558577" y2="177.55315839532614" /><path d="M 143.63769802327073 174.10635135553383 a86.0,86.0 0 0,1 -40.68552437913181,11.842963189579606" fill="none" id="id42" stroke="none" /><text fill="#e1ed5e" style="font-size:6.75px; font-family:Arial;" text-anchor="middle"><textPath startOffset="21.407464694133747" xlink:href="#id42">June</textPath></text><path d="M 110.34350942703117 118.27599006163325 l 6.998915490095813 12.366413047869772 a35.20960906246287,35.20960906246287 0 0,0 -0.528573042366346,0.29319055645198305 l -6.785598259573373 -12.484736519754899" fill="#ff6e0a" stroke="none" /><path d="M 109.06512990194946 118.94263497670748 l 18.58769932127063 38.841142609981105 a64.05969026022893,64.05969026022893 0 0,0 -0.9960100883742998,0.4661830128567892 l -17.918200519024825 -39.15450185440842" fill="#31ff44" stroke="none" /><path d="M 108.73861861582097 119.09545874513695 l 16.842097802797657 36.80302321383209 a61.47368004119301,61.47368004119301 0 0,0 -0.9633411513665796,0.43089024380150537 l -16.20784324857545 -37.08671720854345" fill="#3bff2e" stroke="none" /><path d="M 107.74402155503746 119.51999308798841 l 15.374450631131603 38.75365892494032 a62.69196340159227,62.69196340159227 0 0,0 -1.0037512863978966,0.38827256061223603 l -14.706927082240178 -39.01187137369059" fill="#30ff32" stroke="none" /><path d="M 106.38641147887787 120.00534299687104 l 12.156872074440209 38.08122862465342 a60.974610844852855,60.974610844852855 0 0,0 -0.9998656381634534,0.30976093057575665 l -11.50136580340513 -38.28430614303583" fill="#40ff2d" stroke="none" /><path d="M 105.3480935250658 120.30758222061773 l 1.9128325952130631 7.263336929226365 a28.510991404919395,28.510991404919395 0 0,0 -0.47436140389404896,0.12058081389402503 l -1.7878658980936168 -7.29510297495566" fill="#ff0500" stroke="none" /><path d="M 104.64783097203109 120.47920084513623 l 6.274979888131688 27.648719198599114 a49.35184378341981,49.35184378341981 0 0,0 -0.8277892471267484,0.18041281360312547 l -5.799428224385804 -27.752363470335958" fill="#caff1d" stroke="none" /><path d="M 104.29559338865022 120.5559693870025 l 9.014501878142582 43.13765477332622 a65.06947360082386,65.06947360082386 0 0,0 -1.0953470286924638,0.21910008272115536 l -8.27265836391916 -43.286044252710234" fill="#33ff51" stroke="none" /><path d="M 103.94208987418118 120.62667999033965 l 5.5354559428650125 28.96384455410641 a50.48805798708757,50.48805798708757 0 0,0 -0.8526838351657186,0.15538739916022246 l -5.037437374148237 -29.054600127197997" fill="#bcff1f" stroke="none" /><path d="M 102.51750503828377 120.84855314841334 l 3.06567172596119 25.388159682835013 a46.57258288113438,46.57258288113438 0 0,0 -0.7945373531443647,0.08902956766615275 l -2.629398471216026 -25.437045011008138" fill="#efff19" stroke="none" /><path d="M 101.80034050326958 120.92268563240118 l 1.4508546710311279 16.86113050567729 a37.9234364478948,37.9234364478948 0 0,0 -0.6490885182878232,0.050243556438171626 l -1.1611971579680689 -16.883551829110516" fill="#ff960d" stroke="none" /><path d="M 101.44090949804482 120.95050786540614 l 1.3664298808646171 19.86759057763511 a40.91452449796015,40.91452449796015 0 0,0 -0.7011106057335988,0.04217707302971592 l -1.025174922998553 -19.888119628489516" fill="#ffc112" stroke="none" /><line stroke="#e1ed5e" stroke-width="0.3" x1="101.45913802915013" x2="101.54496967792366" y1="184.9874750549273" y2="189.98673829345242" /><path d="M 101.47630435890484 185.9873277026323 a86.0,86.0 0 0,1 -42.54439059252881,-10.42667462771756" fill="none" id="id43" stroke="none" /><text fill="#e1ed5e" style="font-size:6.75px; font-family:Arial;" text-anchor="middle"><textPath startOffset="22.145653131862474" xlink:href="#id43">July</textPath></text><path d="M 100.0 121.0 l 4.880707654062946e-15 39.854002455737316 a60.854002455737316,60.854002455737316 0 0,0 -1.0446398730489512,-0.008966976920151009 l 0.6841469482000943 -39.8481298770116" fill="#41ff2d" stroke="none" /><path d="M 99.63950707515114 120.99690560180557 l -0.29182216634659575 16.997178188345863 a37.999683130668984,37.999683130668984 0 0,0 -0.6521228509439835,-0.016796371401309712 l 0.5835583313613232 -16.989664099594506" fill="#ff970e" stroke="none" /><path d="M 99.27912038922189 120.98762331915562 l -0.4952531726124387 14.418755752000395 a35.4272586842001,35.4272586842001 0 0,0 -0.6076183785990048,-0.026093747598015943 l 0.7426973118122822 -14.40812943597655" fill="#ff710a" stroke="none" /><path d="M 97.48249496171623 120.84855314841334 l -3.747822158365017 31.03734382702228 a52.262803501406104,52.262803501406104 0 0,0 -0.8897672067579118,-0.11519817867487571 l 4.280067187013723 -30.968434052147007" fill="#a6ff21" stroke="none" /><path d="M 96.76829788921471 120.74984581791261 l -3.0804020792984517 19.778391080447857 a41.01683368320988,41.01683368320988 0 0,0 -0.694790975935649,-0.11432759069123465 l 3.419470558287164 -19.722597491260956" fill="#ffc312" stroke="none" /><path d="M 96.41257539226777 120.69131181640829 l -2.572927206417001 14.839960397815332 a36.06135382421674,36.06135382421674 0 0,0 -0.609033793455973,-0.11098624515077368 l 2.8272957334240307 -14.793605978733192" fill="#ff7b0b" stroke="none" /><path d="M 95.00130118170881 120.39639698878247 l -4.7013811412549495 19.18323940656854 a40.75094070582644,40.75094070582644 0 0,0 -0.6780077608905813,-0.1723469214896628 l 5.029994195370909 -19.09970725324361" fill="#ffbf11" stroke="none" /><path d="M 94.6519064749342 120.30758222061772 l -4.274322935349859 16.230300394012136 a37.78369707291955,37.78369707291955 0 0,0 -0.6258034563528924,-0.17056551485333865 l 4.552307792637446 -16.154534385014653" fill="#ff940d" stroke="none" /><path d="M 93.95794788825049 120.11202640906438 l -4.319523610026437 14.378289248861494 a36.013110468570524,36.013110468570524 0 0,0 -0.5905453299657567,-0.18295245278491393 l 4.565709572863827 -14.302020208269932" fill="#ff7a0b" stroke="none" /><path d="M 92.59220618246901 119.65005319985036 l -8.740181496281265 23.18436981491435 a45.7771220343011,45.7771220343011 0 0,0 -0.732930389102415,-0.28351321964284615 l 9.136884147877208 -23.030916707133464" fill="#f9ff18" stroke="none" /><path d="M 91.92203290615298 119.3841803445677 l -5.747503289993741 13.791915590878828 a35.9415772170951,35.9415772170951 0 0,0 -0.5674745880115372,-0.24222115749728435 l 5.983412953175709 -13.69121978372214" fill="#ff790b" stroke="none" /><path d="M 91.59046798132341 119.24265499422711 l -6.796486492906748 15.551691160159272 a37.97195706420565,37.97195706420565 0 0,0 -0.5950505779605412,-0.2661585547839575 l 7.062450473722924 -15.432728854465461" fill="#ff970d" stroke="none" /><path d="M 90.28995756902619 118.62028667847754 l -10.661803762452793 20.44541452602401 a44.05838317423852,44.05838317423852 0 0,0 -0.6676128706858979,-0.35546625019575645 l 11.011205448925253 -20.259377808105683" fill="#ffed16" stroke="none" /><line stroke="#e1ed5e" stroke-width="0.3" x1="58.13341422392154" x2="55.67067388415222" y1="173.97424548756322" y2="178.32567169271397" /><path d="M 57.64086615596768 174.84453072859336 a86.0,86.0 0 0,1 -31.369924170532247,-30.572349798747897" fill="none" id="id44" stroke="none" /><text fill="#e1ed5e" style="font-size:6.75px; font-family:Arial;" text-anchor="middle"><textPath startOffset="22.145653131862474" xlink:href="#id44">August</textPath></text><path d="M 89.34428304082925 118.09573695890944 l -8.626036487960219 14.64889578825963 a37.999960391333616,37.999960391333616 0 0,0 -0.5592639528131633,-0.33582193470576904 l 8.87623319733081 -14.49865985301794" fill="#ff970e" stroke="none" /><path d="M 88.72937992617639 117.7192867562869 l -14.93582970979817 23.481605079178102 a48.82920743058581,48.82920743058581 0 0,0 -0.7034065149169044,-0.4559396046527244 l 15.336721856972083 -23.221751632821483" fill="#d1ff1c" stroke="none" /><path d="M 88.4268655584334 117.5232005979908 l -12.691774507669619 19.216964234302573 a44.029825325781275,44.029825325781275 0 0,0 -0.6271182947324594,-0.42195317609626204 l 13.019789090499083 -18.99626138414919" fill="#ffed16" stroke="none" /><path d="M 87.83215693770417 117.11559508785305 l -8.692968880050296 12.22774938010874 a36.002851823979086,36.002851823979086 0 0,0 -0.5006436387283154,-0.36242738590280976 l 8.901593529152565 -12.076721222832864" fill="#ff7a0b" stroke="none" /><path d="M 86.40962598614128 116.0094264158162 l -10.798050168072827 12.720075946678852 a37.68526953697469,37.68526953697469 0 0,0 -0.4895864209692467,-0.4228930898112639 l 11.014816068804937 -12.532838724402865" fill="#ff930d" stroke="none" /><path d="M 85.60350026404147 115.28858382429668 l -10.076656460861422 10.70105996568918 a35.69869687487622,35.69869687487622 0 0,0 -0.44254061977543785,-0.4239439030710543 l 10.258869566502176 -10.526503932312542" fill="#ff750a" stroke="none" /><path d="M 85.34317274990678 115.03919595460226 l -17.448438001335532 17.90363451286123 a45.999762348001745,45.999762348001745 0 0,0 -0.5607767063423797,-0.5559837718406619 l 17.753206627807874 -17.60147073079191" fill="#f6ff19" stroke="none" /><path d="M 84.58840730492382 114.26474011684316 l -14.262351523956312 13.201019646029058 a40.43403176615043,40.43403176615043 0 0,0 -0.46711376527145526,-0.5134398543209379 l 14.486862990069646 -12.954242216150448" fill="#ffbb11" stroke="none" /><path d="M 84.3458050057657 113.99807769240083 l -16.867823451821923 15.083311742780113 a43.62807462272745,43.62807462272745 0 0,0 -0.4944285267141922,-0.5625689024079518 l 17.124263042494707 -14.791530562560862" fill="#ffe715" stroke="none" /><path d="M 83.64595745247003 113.17365903436017 l -15.538726342839336 12.516898013067294 a40.9530637303442,40.9530637303442 0 0,0 -0.43631310116921473,-0.5512673501028266 l 15.751305874650113 -12.248310719049787" fill="#ffc212" stroke="none" /><path d="M 83.20337586046588 112.60449989151573 l -20.062320223277126 15.055139114690238 a46.08294054739177,46.08294054739177 0 0,0 -0.46938323403454824,-0.6368085046281149 l 20.317805476895504 -14.708524300793243" fill="#f5ff19" stroke="none" /><path d="M 82.37810715431573 111.42229804090323 l -16.811538443425018 10.897036107782906 a41.034301105081795,41.034301105081795 0 0,0 -0.37806720477759626,-0.5943844412039877 l 16.996123339828504 -10.606837991900246" fill="#ffc312" stroke="none" /><path d="M 82.18462484594161 111.11811171558189 l -12.838708520272622 8.012303663426763 a36.13371885768606,36.13371885768606 0 0,0 -0.32388206916087514,-0.5290370192918397 l 12.974358553888901 -7.790729528010368" fill="#ff7c0b" stroke="none" /><line stroke="#e1ed5e" stroke-width="0.3" x1="26.387840678322732" x2="22.057713659400548" y1="142.50000000000003" y2="145.00000000000006" /><path d="M 25.521815274538298 143.00000000000003 a86.0,86.0 0 0,1 -11.493303480769221,-40.785679425670985" fill="none" id="id45" stroke="none" /><text fill="#e1ed5e" style="font-size:6.75px; font-family:Arial;" text-anchor="middle"><textPath startOffset="21.40746469413373" xlink:href="#id45">September</textPath></text><path d="M 81.29705330413844 109.54985784667822 l -17.777689024727106 9.077414687075052 a40.96110428961856,40.96110428961856 0 0,0 -0.3143863973497053,-0.6289833937979162 l 17.93089533528855 -8.770899437113384" fill="#ffc212" stroke="none" /><path d="M 81.1358732173502 109.22738970284198 l -27.803921170582797 13.600291116789634 a51.95199429635204,51.95199429635204 0 0,0 -0.3849908525171774,-0.8044828113313653 l 28.03329128105989 -13.120995803393164" fill="#aaff21" stroke="none" /><path d="M 80.9802524753101 108.90220220490708 l -18.812828260878426 8.805353541477183 a41.771537212342054,41.771537212342054 0 0,0 -0.2983990242255444,-0.6520557203826117 l 18.961211749959023 -8.481108838879884" fill="#ffcd13" stroke="none" /><path d="M 80.28708602549918 107.23885506374661 l -26.23053048008498 9.632214122992488 a48.94316156375014,48.94316156375014 0 0,0 -0.2828444649946919,-0.7911663083378119 l 26.392015115123613 -9.180512858273756" fill="#d0ff1d" stroke="none" /><path d="M 80.16572619554312 106.89939002012753 l -37.74642392788614 13.130165647155732 a60.96490672159068,60.96490672159068 0 0,0 -0.3353493094678332,-0.9914006457743879 l 37.96625865892634 -12.480263326907181" fill="#40ff2d" stroke="none" /><path d="M 79.94057633289273 106.21446072829308 l -24.865782451790096 7.703482965879895 a47.031726541767334,47.031726541767334 0 0,0 -0.23230017873786057,-0.773251743479827 l 24.994358950531584 -7.275493618809345" fill="#e9ff1a" stroke="none" /><path d="M 79.56144815229197 104.8234425847677 l -28.8321716206574 6.804313996542032 a50.62419297342258,50.62419297342258 0 0,0 -0.1923457496041822,-0.8475108629285988 l 28.94472823181925 -6.3083687996744064" fill="#baff1f" stroke="none" /><path d="M 79.407916724674 104.11899336999214 l -19.916473936405403 3.9838525806649527 a41.31100724838595,41.31100724838595 0 0,0 -0.13312709666937944,-0.6965772239306484 l 19.98192732535694 -3.64137279170099" fill="#ffc712" stroke="none" /><path d="M 79.17382384314188 102.69636545807758 l -19.77415743547685 2.560160572446222 a40.939200697112526,40.939200697112526 0 0,0 -0.08425270687267725,-0.6977332757713597 l 19.815192228609188 -2.220333619751463" fill="#ffc212" stroke="none" /><path d="M 79.0935383218832 101.97986365728391 l -25.20031728953974 2.3864962479905123 a46.31306689903751,46.31306689903751 0 0,0 -0.06816043426697262,-0.7921275648389138 l 25.237571346504456 -1.9535476357759367" fill="#f2ff19" stroke="none" /><path d="M 79.06263194458094 101.62068470465958 l -40.37618879527024 3.125372369618597 a61.496969937022214,61.496969937022214 0 0,0 -0.0724376874568069,-1.0532280777348904 l 40.42389044389211 -2.4318008677293634" fill="#3aff2e" stroke="none" /><line stroke="#e1ed5e" stroke-width="0.3" x1="15.003131293944662" x2="10.003315487706104" y1="100.72959589197737" y2="100.7725132973878" /><path d="M 14.003168132696942 100.73817937305945 a86.0,86.0 0 0,1 10.791469493833604,-42.45332614584628" fill="none" id="id46" stroke="none" /><text fill="#e1ed5e" style="font-size:6.75px; font-family:Arial;" text-anchor="middle"><textPath startOffset="22.145653131862435" xlink:href="#id46">October</textPath></text><path d="M 79.00077361379809 99.81974689727619 l -29.293173618787026 -0.25144666457252024 a50.294252782508806,50.294252782508806 0 0,0 0.014821401120882722,-0.8632723106898746 l 29.284540786067478 0.7542658912314473" fill="#beff1e" stroke="none" /><path d="M 79.01933749520258 99.09900007780938 l -27.877264799221063 -1.1971696989664762 a48.902958767378294,48.902958767378294 0 0,0 0.043217199313972346,-0.8384021211234194 l 27.852606010450522 1.6755436134666075" fill="#d0ff1d" stroke="none" /><path d="M 79.06263194458094 98.37931529534042 l -28.11994597469598 -2.1766616614091667 a49.2040638491702,49.2040638491702 0 0,0 0.07241520772032341,-0.8415744818192898 l 28.078437144277913 2.659057190604137" fill="#ccff1d" stroke="none" /><path d="M 79.13060592940154 97.66154086499901 l -28.8577421633724 -3.2335702008959335 a50.03834118905216,50.03834118905216 0 0,0 0.10297870062941629,-0.852811367039249 l 28.797981376483314 3.7284752448586187" fill="#c2ff1e" stroke="none" /><path d="M 79.17382384314186 97.30363454192245 l -19.658121915240866 -2.5451374512396017 a40.82219669663722,40.82219669663722 0 0,0 0.09594282158290124,-0.6941944631107503 l 19.611534577102756 2.882220222550419" fill="#ffc011" stroke="none" /><path d="M 79.407916724674 95.88100663000787 l -27.322892290882244 -5.4653436804038655 a48.864142274329616,48.864142274329616 0 0,0 0.17158827190061415,-0.8211119966980998 l 27.225046308157264 5.933572128387374" fill="#d1ff1d" stroke="none" /><path d="M 79.73907114497095 94.47779374421319 l -27.696436419682122 -7.5487869067664715 a49.7067374341506,49.7067374341506 0 0,0 0.23144760668400313,-0.8213259056325585 l 27.562770320923537 8.023120736302042" fill="#c6ff1e" stroke="none" /><path d="M 79.83685265289637 94.1308016681162 l -28.005746743014345 -8.152064716765128 a50.168099180100604,50.168099180100604 0 0,0 0.24779142216109162,-0.824817054581895 l 27.861679000849627 8.631619374937745" fill="#c0ff1e" stroke="none" /><path d="M 79.94057633289273 93.78553927170692 l -54.99768999034642 -17.038424944994077 a78.57650413910562,78.57650413910562 0 0,0 0.4102265411676368,-1.2850287974116859 l 54.697098733401525 17.980022776097154" fill="#46fff3" stroke="none" /><path d="M 80.28708602549916 92.7611449362534 l -27.357228102186813 -10.045953096216484 a50.14342298094823,50.14342298094823 0 0,0 0.30365261008050876,-0.805474624338843 l 27.18074480829187 10.514096000749472" fill="#c0ff1e" stroke="none" /><path d="M 80.5471966667186 92.08871423366112 l -54.38905290770302 -22.119554325478276 a79.71493642809045,79.71493642809045 0 0,0 0.526400070809226,-1.2631685407249926 l 54.00132699235731 23.049955375644533" fill="#47feff" stroke="none" /><path d="M 80.9802524753101 91.09779779509293 l -31.218943927555397 -14.61204209498491 a55.46932308789163,55.46932308789163 0 0,0 0.4110560580666414,-0.858949066052132 l 30.96350861152885 15.145803663102129" fill="#7fff26" stroke="none" /><path d="M 81.1358732173502 90.77261029715801 l -28.919714307539934 -14.146081453182514 a53.19412207390977,53.19412207390977 0 0,0 0.4082777720237077,-0.8168290384843571 l 28.67261662230448 14.640442347830643" fill="#9aff22" stroke="none" /><path d="M 81.46374523516351 90.13048839642627 l -22.13259312542418 -11.78435921602294 a46.07434546678813,46.07434546678813 0 0,0 0.377710135025546,-0.694944106067891 l 21.927037640783283 12.162558155565451" fill="#f5ff19" stroke="none" /><line stroke="#e1ed5e" stroke-width="0.3" x1="26.387840678322718" x2="22.05771365940052" y1="57.49999999999999" y2="54.99999999999999" /><path d="M 25.521815274538284 56.99999999999999 a86.0,86.0 0 0,1 29.574782752854787,-30.34633250058573" fill="none" id="id47" stroke="none" /><text fill="#e1ed5e" style="font-size:6.75px; font-family:Arial;" text-anchor="middle"><textPath startOffset="21.40746469413373" xlink:href="#id47">November</textPath></text><path d="M 81.81346652052679 89.5 l -54.20663171322685 -31.296213411494435 a83.59242682298886,83.59242682298886 0 0,0 0.7281548809512984,-1.2365661777174521 l 53.66140312214577 32.22213075750546" fill="#4cd6ff" stroke="none" /><path d="M 82.37810715431573 88.57770195909679 l -24.685214493168843 -16.000657796171573 a50.41735651760605,50.41735651760605 0 0,0 0.47698555210804866,-0.7222169200690088 l 24.406904502140065 16.42205459457964" fill="#bdff1f" stroke="none" /><path d="M 82.98947788004972 87.6856937992154 l -41.90655462600024 -30.337113807884776 a72.73489919594408,72.73489919594408 0 0,0 0.7408499068469983,-1.005105182982295 l 41.379602699569425 31.052025300135938" fill="#3dffb1" stroke="none" /><path d="M 83.2033758604659 87.39550010848427 l -20.05322790089266 -15.048316066466008 a46.0715728601418,46.0715728601418 0 0,0 0.4801272676485247,-0.6285020056442611 l 19.79194865588983 15.390338985351153" fill="#f6ff19" stroke="none" /><path d="M 84.34580500576568 86.00192230759919 l -46.151983686609825 -41.26938839982036 a82.9125836733077,82.9125836733077 0 0,0 0.9578468299183629,-1.052841456147752 l 45.436739155849594 42.055567431525766" fill="#4bddff" stroke="none" /><path d="M 84.58840730492382 85.73525988315684 l -10.936307582184805 -10.122483028478227 a35.90192894205252,35.90192894205252 0 0,0 0.42252153788777097,-0.44870323120509553 l 10.760930210560762 10.308727719627834" fill="#ff780b" stroke="none" /><path d="M 84.83555147118756 85.47280134310135 l -44.91852967793045 -43.03093533320824 a83.20398463183744,83.20398463183744 0 0,0 0.9969152728674329,-1.0229228934040824 l 44.17322760391222 43.795680918680056" fill="#4cdaff" stroke="none" /><path d="M 86.96720088162412 83.53348406188908 l -15.597339302163709 -19.70672868340878 a46.13229294569652,46.13229294569652 0 0,0 0.6251805620723279,-0.48614418643826685 l 15.256748795456136 19.97157392146785" fill="#f5ff19" stroke="none" /><path d="M 87.25179093698888 83.31218511350988 l -15.286540229476719 -20.010571864918674 a46.181368083336636,46.181368083336636 0 0,0 0.6341075930877379,-0.47584615943579067 l 14.940779647478228 20.270037051618466" fill="#f4ff19" stroke="none" /><path d="M 87.83215693770416 82.88440491214696 l -17.773909149380454 -25.00122910622775 a51.67528815304789,51.67528815304789 0 0,0 0.7274032782405295,-0.5077839811973976 l 17.34211077996616 25.302657903230276" fill="#adff20" stroke="none" /><path d="M 88.4268655584334 82.4767994020092 l -16.537414882438213 -25.039753907666178 a51.00792173327524,51.00792173327524 0 0,0 0.7347918663345173,-0.4762832102545602 l 16.10513738384667 25.319950959624645" fill="#b5ff1f" stroke="none" /><line stroke="#e1ed5e" stroke-width="0.3" x1="56.869717070023135" x2="54.33264160355391" y1="26.7553504044142" y2="22.446841604673864" /><path d="M 56.362301976729285 25.89364864446614 a86.0,86.0 0 0,1 42.16139366436587,-11.88097634709845" fill="none" id="id48" stroke="none" /><text fill="#e1ed5e" style="font-size:6.75px; font-family:Arial;" text-anchor="middle"><textPath startOffset="22.145653131862474" xlink:href="#id48">December</textPath></text><path d="M 89.34428304082924 81.90426304109057 l -14.245607898650825 -24.192156599269232 a49.07486037945102,49.07486037945102 0 0,0 0.7295971928173262,-0.4212331356730763 l 13.828218237973099 24.43313663221848" fill="#ceff1d" stroke="none" /><path d="M 89.97174638481275 81.54914285379989 l -14.450742455504713 -26.58773849708504 a51.261060720085545,51.261060720085545 0 0,0 0.7767544207512085,-0.4135779781832739 l 13.992199218966944 26.83188694299089" fill="#b2ff20" stroke="none" /><path d="M 90.61103034731259 81.2157712731953 l -13.518499841620411 -27.046055367277425 a51.23638452093317,51.23638452093317 0 0,0 0.7901132377129809,-0.3864839776446747 l 13.052226354645377 27.274133095019312" fill="#b3ff20" stroke="none" /><path d="M 91.26138138417902 80.90454125486306 l -25.58071641861865 -55.89848195896902 a82.473680041193,82.473680041193 0 0,0 1.2924277485109845,-0.5780864928916734 l 24.617375267252047 56.32937220277054" fill="#4be1ff" stroke="none" /><path d="M 92.592206182469 80.34994680014964 l -10.759448619196801 -28.54071576181379 a51.50144571632273,51.50144571632273 0 0,0 0.8299356159952238,-0.30476385399956296 l 10.267923851547451 28.721210464822075" fill="#afff20" stroke="none" /><path d="M 92.93061703081487 80.22567764915836 l -10.287617806030466 -28.77629796057771 a51.55994771656038,51.55994771656038 0 0,0 0.8359935519595318,-0.29080195353481797 l 9.79211848202593 28.948658346681114" fill="#afff20" stroke="none" /><path d="M 94.6519064749342 79.69241777938228 l -16.044280575197423 -60.922746661853175 a84.0,84.0 0 0,0 1.3975788270984877,-0.35525907265894796 l 14.996096454873559 61.18919096634739" fill="#4dd2ff" stroke="none" /><path d="M 95.35216902796891 79.52079915486377 l -6.711713137335506 -29.5730464772835 a51.32510793361587,51.32510793361587 0 0,0 0.8608872373952271,-0.1876263665330206 l 6.20306348332116 29.683904301950236" fill="#b1ff20" stroke="none" /><path d="M 95.70440661134978 79.44403061299748 l -12.708187018502626 -60.8132752990217 a83.12690616706936,83.12690616706936 0 0,0 1.3993168322378926,-0.27990255660108515 l 11.662373700733758 61.02246725228565" fill="#4cdbff" stroke="none" /><path d="M 97.48249496171623 79.15144685158666 l -3.659807036550219 -30.308452358240526 a51.5286172614568,51.5286172614568 0 0,0 0.8790882669015863,-0.09850367390897892 l 3.138982868047833 30.366811792656478" fill="#afff20" stroke="none" /><path d="M 97.84075906011542 79.11130261209362 l -3.140664852910103 -30.383083470425273 a51.544975640670174,51.544975640670174 0 0,0 0.8809292506069173,-0.0834249159311642 l 2.6186360389181704 30.432520141861623" fill="#afff20" stroke="none" /><path d="M 98.5590905019552 79.04949213459386 l -2.0948272199694506 -30.45832802697787 a51.530280825444606,51.530280825444606 0 0,0 0.8830220281540675,-0.05312041247661745 l 1.5716608396828993 30.48980041727918" fill="#afff20" stroke="none" /><path d="M 98.9189461498227 79.02784411241856 l -1.3126052769002865 -25.46419170654651 a46.497999762348,46.497999762348 0 0,0 0.7974943665708066,-0.03424783950761696 l 0.8752851497286598 25.48297211447996" fill="#f0ff19" stroke="none" /><path d="M 99.63950707515114 79.00309439819443 l -0.43118649124988284 -25.11445143436148 a46.11815265180021,46.11815265180021 0 0,0 0.7916794160987288,-0.006795615633162103 l 6.152173049104346e-15 25.11815265180021" fill="#f5ff19" stroke="none" /></svg>
