<?xml version="1.0" encoding="utf-8" ?>
<svg baseProfile="full" height="200mm" version="1.1" viewBox="0,0,200,200" width="200mm" xmlns="http://www.w3.org/2000/svg" xmlns:ev="http://www.w3.org/2001/xml-events" xmlns:xlink="http://www.w3.org/1999/xlink"><defs /><rect fill="#1a1a1a" height="200" width="200" x="0" y="0" /><text alignment-baseline="middle" fill="#e1ed5e" style="dominant-baseline: central; font-size:9.0px; font-family:Arial;" text-anchor="middle" x="100.0" y="100.0">2018</text><line stroke="#e1ed5e" stroke-width="0.3" x1="100.0" x2="100.0" y1="15.0" y2="10.0" /><path d="M 100.0 14.0 a86.0,86.0 0 0,1 42.46469731375804,11.215312516191453" fill="none" id="id13" stroke="none" /><text fill="#e1ed5e" style="font-size:6.75px; font-family:Arial;" text-anchor="middle"><textPath startOffset="22.20632615414155" xlink:href="#id13">January</textPath></text><path d="M 104.307194497241 79.44645832069477 l 1.009737464810207 -4.818375646009592 a25.92303906280457,25.92303906280457 0 0,0 0.43594808843246396,0.0952813668562851 l -1.092528277396199 4.800280781057436" fill="#ff3605" stroke="none" /><path d="M 106.40334571778207 80.00007090966166 l 1.756576451654449 -5.486413825398701 a26.760754941327825,26.760754941327825 0 0,0 0.43749651719614047,0.1442357232295304 l -1.850755791093007 5.455364377909935" fill="#ff4206" stroke="none" /><line stroke="#e1ed5e" stroke-width="0.3" x1="143.23703022742887" x2="145.7803849466894" y1="26.81831364943548" y2="22.513508569990506" /><path d="M 143.74570117128098 25.957352633546492 a86.0,86.0 0 0,1 28.547481713284135,27.462654790039103" fill="none" id="id14" stroke="none" /><text fill="#e1ed5e" style="font-size:6.75px; font-family:Arial;" text-anchor="middle"><textPath startOffset="19.985693538727396" xlink:href="#id14">February</textPath></text><path d="M 111.2981086023043 82.29822771554956 l 3.7149067279632355 -5.820481575382094 a27.904964718724415,27.904964718724415 0 0,0 0.40267259305237085,0.26190945558814266 l -3.8145463467998866 5.755673195634423" fill="#ff5207" stroke="none" /><path d="M 114.16331599549186 84.49514656593476 l 1.9351636090288915 -2.1184606866414626 a23.869274102374177,23.869274102374177 0 0,0 0.3009712191356437,0.27971994715817317 l -1.971342711959382 2.084836153408649" fill="#ff1902" stroke="none" /><path d="M 114.42810811169701 84.74124197986012 l 2.5905600336023755 -2.739702834451161 a24.77054013488753,24.77054013488753 0 0,0 0.3072924176147291,0.295615062277906 l -2.637335694829523 2.694704685410953" fill="#ff2603" stroke="none" /><path d="M 116.15771136456269 86.58626213691792 l 13.299592944119729 -11.040997664395785 a38.28533487973179,38.28533487973179 0 0,0 0.4165836548275416,0.5106823034127624 l -13.487675091023679 10.810431191374922" fill="#ffdb14" stroke="none" /><line stroke="#e1ed5e" stroke-width="0.3" x1="172.23445277983987" x2="176.4835382374775" y1="55.19839476539836" y2="52.563006222186495" /><path d="M 173.08426987136738 54.67131705675599 a86.0,86.0 0 0,1 12.851231095245387,41.99856678651699" fill="none" id="id15" stroke="none" /><text fill="#e1ed5e" style="font-size:6.75px; font-family:Arial;" text-anchor="middle"><textPath startOffset="22.20632615414155" xlink:href="#id15">March</textPath></text><path d="M 118.3937258080291 89.86733742301442 l 3.3224836971571015 -1.8302766156345012 a24.79325854742505,24.79325854742505 0 0,0 0.2027048422178786,0.37558128709957 l -3.353496638593445 1.7728143452024725" fill="#ff2603" stroke="none" /><path d="M 118.56541770881063 90.18545643968196 l 5.802462039356551 -3.06745139460722 a27.56336984912869,27.56336984912869 0 0,0 0.2181320028211455,0.42136159942843204 l -5.854403475337813 2.9671170729184433" fill="#ff4d07" stroke="none" /><path d="M 118.89224826269711 90.83032412892265 l 3.6187556160667964 -1.7564249418367557 a25.02248937663249,25.02248937663249 0 0,0 0.1847396165489795,0.3891087469282546 l -3.648453426457532 1.6938737792679608" fill="#ff2904" stroke="none" /><path d="M 119.04729006885535 91.15688171328212 l 3.1836137093664476 -1.4780618402603052 a24.50999473704729,24.50999473704729 0 0,0 0.17436840118835356,0.3841976586110876 l -3.208584427518148 1.4230421728071547" fill="#ff2203" stroke="none" /><path d="M 119.196687751892 91.48605970444005 l 7.266299175120909 -3.222682899582953 a28.948886008342754,28.948886008342754 0 0,0 0.19810589805257564,0.45725572629677225 l -7.320695783016165 3.097128028699578" fill="#ff6108" stroke="none" /><path d="M 119.34039704204932 91.81776055985345 l 4.7995678500173575 -2.030527774206965 a26.211419632762855,26.211419632762855 0 0,0 0.1722194031069822,0.4170429449440768 l -4.833808940010537 1.9476102588095852" fill="#ff3a05" stroke="none" /><path d="M 119.47837535516314 92.15188598940014 l 3.834014937749742 -1.5447790588873198 a25.133523059529843,25.133523059529843 0 0,0 0.15822923155556495,0.40267613542159836 l -3.8600377191870074 1.4785539185699372" fill="#ff2b04" stroke="none" /><path d="M 119.85752413597 93.16781622104841 l 3.9596410964472923 -1.3623549181850596 a25.187453705508556,25.187453705508556 0 0,0 0.13752674308913662,0.41118745710225535 l -3.9825051333081993 1.2939943581604902" fill="#ff2c04" stroke="none" /><path d="M 119.97218684219823 93.5106431181261 l 3.9779307854193093 -1.2925080624339687 a25.182643951502865,25.182643951502865 0 0,0 0.13040354447350894,0.4134148719630169 l -3.9995898136610246 1.2238430240445326" fill="#ff2c04" stroke="none" /><path d="M 120.08093135843002 93.85539295169968 l 4.943904789728477 -1.5127959791734655 a26.170178550543838,26.170178550543838 0 0,0 0.128101906025225,0.4318959442483232 l -4.9692125928654045 1.4274706481786124" fill="#ff3a05" stroke="none" /><path d="M 120.18372546131832 94.20196356495316 l 5.203008134079944 -1.4946314440837734 a26.41342930100191,26.41342930100191 0 0,0 0.12176997100224025,0.4380713744515057 l -5.2279648756485475 1.4048487662133158" fill="#ff3d05" stroke="none" /><path d="M 120.28053869075195 94.5502522615342 l 5.007575800756846 -1.3456262336766769 a26.185221823710577,26.185221823710577 0 0,0 0.11322448535155823,0.4363001292339324 l -5.029996617978707 1.2592296788938941" fill="#ff3a05" stroke="none" /><path d="M 120.37134235888165 94.90015583598534 l 5.053027647116268 -1.264995359793525 a26.208963588164206,26.208963588164206 0 0,0 0.10579335483022981,0.4385817556086564 l -5.074053802207318 1.1778283725254626" fill="#ff3a05" stroke="none" /><path d="M 120.45610955862082 95.25157060432595 l 1.124643425404275 -0.2610608769735816 a22.15454563174925,22.15454563174925 0 0,0 0.08303271879229311,0.3722193972658392 l -1.1289705311986058 0.24166331015777856" fill="#ff0000" stroke="none" /><path d="M 120.53481517161879 95.60439243477599 l 10.202062987611143 -2.183816356487826 a31.433175119878367,31.433175119878367 0 0,0 0.1086999670872747,0.5300596435251189 l -10.238142250613414 2.0078810567992953" fill="#ff820c" stroke="none" /><path d="M 120.6074358757038 95.95851677861258 l 3.150846497388415 -0.61793681315666 a24.2108689719699,24.2108689719699 0 0,0 0.0766842106278013,0.4096501194963015 l -3.1610164319260754 0.5636086161977958" fill="#ff1e03" stroke="none" /><path d="M 120.73433829027371 96.67025291283417 l 5.120636282273505 -0.8223278460414657 a26.18624517562668,26.18624517562668 0 0,0 0.06764045113006252,0.4456660604232158 l -5.134032626842868 0.7340626732261677" fill="#ff3a05" stroke="none" /><path d="M 120.78858239683441 97.02765380044208 l 4.527823916350798 -0.647387106688048 a25.57387138902967,25.57387138902967 0 0,0 0.058556859807851365,0.43631662100412355 l -4.538296775216486 0.56935214361926" fill="#ff3104" stroke="none" /><path d="M 120.96714384426684 98.82574320788733 l 7.200482247247541 -0.40326022695881236 a28.211765623172585,28.211765623172585 0 0,0 0.022981024532131748,0.4850931061467946 l -7.2063568800131685 0.279256014189018" fill="#ff5608" stroke="none" /><line stroke="#e1ed5e" stroke-width="0.3" x1="184.98032266829074" x2="189.97916517819016" y1="98.17113171792111" y2="98.06355123074" /><path d="M 185.9800911702706 98.14961562048488 a86.0,86.0 0 0,1 -9.607161424134198,41.387399972396054" fill="none" id="id16" stroke="none" /><text fill="#e1ed5e" style="font-size:6.75px; font-family:Arial;" text-anchor="middle"><textPath startOffset="21.466115282336823" xlink:href="#id16">April</textPath></text><path d="M 120.99824983174949 100.27111621757518 l 5.161868507868131 0.06664680517124195 a26.162298740789833,26.162298740789833 0 0,0 -0.0096899390296177,0.45025339082204285 l -5.159956506153505 -0.15549001178339966" fill="#ff3a05" stroke="none" /><path d="M 120.9764740272857 100.99374915477107 l 5.088947716338503 0.24108615610074977 a26.094655179135316,26.094655179135316 0 0,0 -0.025117533500093214,0.44849043364877456 l -5.08404383195088 -0.32864830608494766" fill="#ff3905" stroke="none" /><path d="M 120.95626037817324 101.35467743843564 l 10.602719082606225 0.6853925303503859 a31.624848933764767,31.624848933764767 0 0,0 -0.039792254311929356,0.5429336949930319 l -10.589350269629959 -0.8677993618401881" fill="#ff850c" stroke="none" /><path d="M 120.92983693683757 101.71520430193887 l 8.222188241506963 0.6738099625784669 a29.249751471677516,29.249751471677516 0 0,0 -0.0454421405027947,0.501450233815845 l -8.209371504727093 -0.8152415849428825" fill="#ff6509" stroke="none" /><path d="M 120.89721153311464 102.0752229133903 l 1.6460495069454677 0.16346294087969693 a22.654146037191534,22.654146037191534 0 0,0 -0.04187532431537339,0.3877134957297959 l -1.6429918811290425 -0.19177275849428424" fill="#ff0701" stroke="none" /><path d="M 120.8583938346157 102.4346265915055 l 5.2911372415350275 0.6175903825426845 a26.327058399282677,26.327058399282677 0 0,0 -0.05641323304465767,0.4496689728410292 l -5.279722499243522 -0.7085771096711087" fill="#ff3c05" stroke="none" /><path d="M 120.81339534386255 102.79330883721812 l 5.2622772534483095 0.7062358309685168 a26.30945674632568,26.30945674632568 0 0,0 -0.06410230103159206,0.44833134411467673 l -5.2493409014001156 -0.7967126470636029" fill="#ff3c05" stroke="none" /><path d="M 120.70491114924044 103.5080841355445 l 7.433499785627949 1.259476192946208 a28.53944290670929,28.53944290670929 0 0,0 -0.08623472314706236,0.4836501235722711 l -7.410718620141697 -1.3872450672516974" fill="#ff5b08" stroke="none" /><path d="M 120.49622156327973 104.57218783832717 l 5.161810116517371 1.151469082515048 a26.288682702428755,26.288682702428755 0 0,0 -0.10232485935846626,0.44081281602589495 l -5.141224691228351 -1.2401505558895078" fill="#ff3b05" stroke="none" /><path d="M 120.41448212921028 104.9243191809786 l 5.191562533599898 1.2522928968585496 a26.34046430938365,26.34046430938365 0 0,0 -0.110114035360888,0.4398508347927306 l -5.169237183943949 -1.3414715710486762" fill="#ff3c05" stroke="none" /><path d="M 120.23288151984713 105.62410040840565 l 40.67961980949147 11.307646227252585 a63.221965030603094,63.221965030603094 0 0,0 -0.3004770295516061,1.0459999587520845 l -40.478950143053765 -12.006203661509252" fill="#33ff54" stroke="none" /><path d="M 119.9155931802556 106.66101706037122 l 6.280640192683723 2.1006379822517824 a27.622621925071147,27.622621925071147 0 0,0 -0.1546987434179482,0.4496269612492046 l -6.243550618322544 -2.208437646590287" fill="#ff4e07" stroke="none" /><path d="M 119.79798401119884 107.00284435728193 l 8.172910508073207 2.8908812231415126 a29.669121086897196,29.669121086897196 0 0,0 -0.17444841197762104,0.4800071071507225 l -8.121937835090359 -3.031136127298366" fill="#ff6a09" stroke="none" /><path d="M 119.54520255179757 107.68017299344265 l 4.919636672086116 1.9331424479420858 a26.28581731706366,26.28581731706366 0 0,0 -0.16910215245919347,0.41969767443713163 l -4.88563190536953 -2.017539490222031" fill="#ff3b05" stroke="none" /><path d="M 119.41010516605496 108.01547362559984 l 4.797381797576806 1.9810962867763335 a26.190338583291098,26.190338583291098 0 0,0 -0.17566111865227452,0.41521099503837944 l -4.762569697732222 -2.0633818074808765" fill="#ff3a05" stroke="none" /><path d="M 119.26925614724726 108.34839909993367 l 7.575846539626926 3.282233104867006 a29.256300923940586,29.256300923940586 0 0,0 -0.20417960610419958,0.4603711099231755 l -7.518225848791453 -3.412152551282869" fill="#ff6509" stroke="none" /><path d="M 118.81262510543309 109.33194174019688 l 10.535301082273913 5.226001972835781 a32.76025788468286,32.76025788468286 0 0,0 -0.2549392819837972,0.5030193894499804 l -10.443783130503846 -5.406575573988456" fill="#ff940d" stroke="none" /><line stroke="#e1ed5e" stroke-width="0.3" x1="174.80103733775053" x2="179.2010983576182" y1="140.37084112569926" y2="142.7455964860345" /><path d="M 175.68104954172406 140.8457921977663 a86.0,86.0 0 0,1 -30.038265399797805,32.042727171017184" fill="none" id="id17" stroke="none" /><text fill="#e1ed5e" style="font-size:6.75px; font-family:Arial;" text-anchor="middle"><textPath startOffset="22.206326154141568" xlink:href="#id17">May</textPath></text><path d="M 116.0416608686014 113.55231037782055 l 2.421711687889374 2.045909629227432 a24.17024190090055,24.17024190090055 0 0,0 -0.27123326425873495,0.31550556304011634 l -2.3861359140598606 -2.087292291429076" fill="#ff1d03" stroke="none" /><path d="M 115.80600337817218 113.82643327865902 l 4.259444011992326 3.725984173666932 a26.65913609605863,26.65913609605863 0 0,0 -0.3051089255575352,0.3427931123014032 l -4.194676236786452 -3.7987514557092017" fill="#ff4106" stroke="none" /><path d="M 115.32070863581623 114.36230785411682 l 2.648467984420419 2.482790674910044 a24.630238587189584,24.630238587189584 0 0,0 -0.2926230078798491,0.3068140538706533 l -2.6053384251616056 -2.5280118453632046" fill="#ff2403" stroke="none" /><path d="M 114.81725581225074 114.88116024355365 l 3.6827965549493036 3.6986798617120704 a26.219504112900083,26.219504112900083 0 0,0 -0.3225623874405141,0.31569518649371364 l -3.6185842151329957 -3.761525151128356" fill="#ff3a05" stroke="none" /><path d="M 114.55890576462653 115.13401014063108 l 4.853276025500015 5.044989628523986 a28.000443452496977,28.000443452496977 0 0,0 -0.35022443410178533,0.3311590623502237 l -4.765715757007421 -5.127783327620131" fill="#ff5307" stroke="none" /><path d="M 114.0293411484842 115.62618273729858 l 2.1972291293279698 2.4473211911525827 a24.28895072316869,24.28895072316869 0 0,0 -0.31350980158999714,0.27663594874358 l -2.154776974831385 -2.4847802816684514" fill="#ff1f03" stroke="none" /><path d="M 113.48314897796784 116.09983520530334 l 4.679495293608776 5.587648938256326 a28.288312346497214,28.288312346497214 0 0,0 -0.37600538042692355,0.3094268297753884 l -4.582619784637161 -5.667370886888892" fill="#ff5708" stroke="none" /><path d="M 112.34349029814194 116.9893568818739 l 4.231209982272613 5.823760921317178 a28.198564383454837,28.198564383454837 0 0,0 -0.39514604247354884,0.28192620952674136 l -4.13033661195018 -5.8957313926881385" fill="#ff5608" stroke="none" /><path d="M 112.04921762599082 117.19931262002967 l 1.7985633362331142 2.5673080233915293 a24.13462925422011,24.13462925422011 0 0,0 -0.34230157931183886,0.23543814752312564 l -1.754104872298392 -2.5978869602797494" fill="#ff1d02" stroke="none" /><path d="M 111.1453310114006 117.79835938074945 l 4.727619478223876 7.5496968553727735 a29.907766753732798,29.907766753732798 0 0,0 -0.43867686874869877,0.26947116196252585 l -4.596963409542869 -7.629956484163677" fill="#ff6e0a" stroke="none" /><line stroke="#e1ed5e" stroke-width="0.3" x1="143.8653032363475" x2="146.44561519142675" y1="172.8068346515853" y2="177.08958963109032" /><path d="M 144.38136562736335 173.6633856474863 a86.0,86.0 0 0,1 -40.68145358897372,12.25698825130547" fill="none" id="id18" stroke="none" /><text fill="#e1ed5e" style="font-size:6.75px; font-family:Arial;" text-anchor="middle"><textPath startOffset="21.466115282336833" xlink:href="#id18">June</textPath></text><path d="M 110.5260780823613 118.17145234162733 l 3.7093232741797313 6.403504759231795 a28.40026704611906,28.40026704611906 0 0,0 -0.42512661741498864,0.24139798849139957 l -3.5985478898435437 -6.466405913517823" fill="#ff5908" stroke="none" /><path d="M 110.21172684928248 118.3499491758327 l 3.0155765629978823 5.418836351927241 a27.201410276402477,27.201410276402477 0 0,0 -0.4111003384158029,0.22416468255472827 l -2.9218534127134306 -5.469941686241739" fill="#ff4806" stroke="none" /><path d="M 109.2508944713604 118.85261126421891 l 4.75234905206591 9.684921771386557 a31.788073564383453,31.788073564383453 0 0,0 -0.493301451586155,0.23681467464119896 l -4.5849349324795226 -9.765290722527316" fill="#ff870c" stroke="none" /><path d="M 108.59647513512805 119.15986991738527 l 2.5460828318721127 5.674723080186164 a27.219728275700753,27.219728275700753 0 0,0 -0.42913758445325084,0.1881213058332093 l -2.448024572761108 -5.717708939313828" fill="#ff4906" stroke="none" /><path d="M 108.2653958097858 119.30500536409082 l 1.8997183022520925 4.437061800696579 a25.826639312307513,25.826639312307513 0 0,0 -0.4101867293294962,0.17145808612685814 l -1.8230601134251352 -4.469104929843411" fill="#ff3505" stroke="none" /><path d="M 107.2578585660854 119.70592522655815 l 2.845061600495477 7.724671217250612 a29.231945148337296,29.231945148337296 0 0,0 -0.473669482796367,0.16984102417779243 l -2.711672557069375 -7.772499782468365" fill="#ff6409" stroke="none" /><path d="M 106.57524785965236 119.94407469862006 l 2.182019238989056 6.6185116706041045 a27.968924213480953,27.968924213480953 0 0,0 -0.4585287432128881,0.14680642371630528 l -2.0677691506852276 -6.655090940980116" fill="#ff5307" stroke="none" /><path d="M 105.88484417918355 120.15858648285463 l 2.450574975847784 8.394466544771046 a29.74484912868894,29.74484912868894 0 0,0 -0.4927288533953218,0.13925009570500527 l -2.3057149543478563 -8.435405433814571" fill="#ff6b09" stroke="none" /><path d="M 105.53697534728816 120.25689768951611 l 1.6318330428311427 5.97002387073874 a27.189027718217613,27.189027718217613 0 0,0 -0.45251547800857905,0.11951345059124395 l -1.5288271220110663 -5.997228670633568" fill="#ff4806" stroke="none" /><path d="M 105.18746579009965 120.34920634021253 l 6.238695590503606 24.472933220537552 a46.255608943121125,46.255608943121125 0 0,0 -0.7732323610326295,0.19004170169194257 l -5.816509944727765 -24.576696180543525" fill="#c3ff1e" stroke="none" /><path d="M 104.13013068566511 120.58985236759428 l 1.5535287482218927 7.744773715205384 a28.899048770028458,28.899048770028458 0 0,0 -0.48857610578246935,0.0936367734941425 l -1.4199850278677189 -7.770367687047995" fill="#ff6008" stroke="none" /><path d="M 103.7750983002368 120.6578951692458 l 1.9597000191563019 10.723767790724914 a31.901358621496236,31.901358621496236 0 0,0 -0.5410334135468986,0.09406559395020009 l -1.7748176341373532 -10.75591196319612" fill="#ff890c" stroke="none" /><path d="M 103.06178313531738 120.77559828337769 l 6.65355339954595 45.14740152281878 a66.63504834119527,66.63504834119527 0 0,0 -1.1361955064697833,0.15746634415967845 l -5.875429301889336 -45.255242432471064" fill="#37ff7b" stroke="none" /><path d="M 102.34483914955558 120.86867818915974 l 1.2250278524499798 10.902544010484178 a31.971151222174573,31.971151222174573 0 0,0 -0.5474182775469963,0.056742142726042756 l -1.0371769782973808 -10.922015521665978" fill="#ff8a0c" stroke="none" /><path d="M 101.62511606390274 120.93702456842531 l 4.462820800550166 57.49631722992488 a78.66925753381935,78.66925753381935 0 0,0 -1.3510030404079973,0.09317307954956157 l -3.4724549993632388 -57.56461865399073" fill="#46fffa" stroke="none" /><path d="M 100.90346689309514 120.98055641714683 l 0.7125134892935241 16.54618401000631 a37.56151806947098,37.56151806947098 0 0,0 -0.6462005732716509,0.022256454321921335 l -0.4275925643472209 -16.555997262754325" fill="#ffd213" stroke="none" /><line stroke="#e1ed5e" stroke-width="0.3" x1="102.19456741930631" x2="102.32365962044197" y1="184.97166512339345" y2="189.96999836594603" /><path d="M 102.22038585953345 185.97133177190398 a86.0,86.0 0 0,1 -42.740103519485714,-10.115201625700543" fill="none" id="id19" stroke="none" /><text fill="#e1ed5e" style="font-size:6.75px; font-family:Arial;" text-anchor="middle"><textPath startOffset="22.20632615414155" xlink:href="#id19">July</textPath></text><path d="M 100.18074693466247 120.99922214144158 l 0.5422408039873879 62.99766642432473 a84.0,84.0 0 0,0 -1.4459754772996436,0.0 l 0.5422408039873445 -62.99766642432473" fill="#4dd2ff" stroke="none" /><path d="M 99.81925306533755 120.99922214144158 l -0.1784374805345149 20.73090920795526 a41.731677127597365,41.731677127597365 0 0,0 -0.7182623962998975,-0.01236553852882132 l 0.5352595667270803 -20.724766192147282" fill="#f8ff18" stroke="none" /><path d="M 98.73552117531835 120.96189622390904 l -0.5580496875290866 9.25106803644155 a30.26788429301002,30.26788429301002 0 0,0 -0.519796487071139,-0.03584820906460423 l 0.7172089353791558 -9.240091482860661" fill="#ff730a" stroke="none" /><path d="M 98.01472825383883 120.90594882070398 l -0.9760248657701581 10.278051823878027 a31.324290476004833,31.324290476004833 0 0,0 -0.5363425614109143,-0.05559409946266187 l 1.1528000237866658 -10.259728355959606" fill="#ff810b" stroke="none" /><path d="M 97.2962882734958 120.8252237178851 l -7.865939693809086 60.587063431783605 a82.09554208412928,82.09554208412928 0 0,0 -1.3998126862545224,-0.19400128319262167 l 8.90768097125044 -60.442687583098376" fill="#4be3ff" stroke="none" /><path d="M 96.22490169976321 120.6578951692458 l -1.7502012693848596 9.577359706306321 a30.73596545943628,30.73596545943628 0 0,0 -0.5196315778812214,-0.09958862863451226 l 1.914800461837776 -9.54581387932334" fill="#ff790b" stroke="none" /><path d="M 95.86986931433489 120.58985236759428 l -1.865168370151048 9.298384071818335 a30.483606876924878,30.483606876924878 0 0,0 -0.5135885904517089,-0.10762748265748856 l 2.0249484220321436 -9.264900608434305" fill="#ff760a" stroke="none" /><path d="M 95.51606077576429 120.51570834832081 l -8.516814370044186 38.96762889385428 a60.887494639585206,60.887494639585206 0 0,0 -1.0219816673525652,-0.23259970020279117 l 9.186316186789613 -38.81525246007381" fill="#30ff38" stroke="none" /><path d="M 93.42475214034765 119.94407469862007 l -3.309700777586986 10.03900095437099 a31.570508947019608,31.570508947019608 0 0,0 -0.5146447980543297,-0.17459545767680668 l 3.4820153085785415 -9.980542509796061" fill="#ff840c" stroke="none" /><path d="M 93.08242187328487 119.8279376855182 l -2.7519561028445088 7.887964995979509 a29.3542357023118,29.3542357023118 0 0,0 -0.47565105819815356,-0.17055154661579638 l 2.8873267216723892 -7.839425908323754" fill="#ff6609" stroke="none" /><path d="M 92.40401165467489 119.57807347666478 l -3.773637615748481 9.72625959344698 a31.432663443920315,31.432663443920315 0 0,0 -0.5027413892705894,-0.20005117419057264 l 3.9405000810609287 -9.659861574850341" fill="#ff820c" stroke="none" /><path d="M 91.7346041902142 119.30500536409082 l -23.41392234514902 54.68653974590745 a80.4880608943121,80.4880608943121 0 0,0 -1.268949185666444,-0.5562700320171104 l 24.35179220547321 -54.27540516059589" fill="#49f3ff" stroke="none" /><path d="M 91.07499286063937 119.00905698771935 l -3.1965676275856123 6.8082563127480835 a28.521329577794237,28.521329577794237 0 0,0 -0.4426066667234832,-0.21247809719011668 l 3.3132869623093377 -6.752223939058404" fill="#ff5b08" stroke="none" /><path d="M 90.7491055286396 118.85261126421891 l -2.286080998485229 4.658857207417865 a26.189519901758217,26.189519901758217 0 0,0 -0.4030019531389401,-0.20207354548717554 l 2.3659368593069297 -4.618815821021388" fill="#ff3a05" stroke="none" /><line stroke="#e1ed5e" stroke-width="0.3" x1="58.666819895761336" x2="56.23545636021788" y1="174.27360380694188" y2="178.64263932499728" /><path d="M 58.180547188652646 175.14741091055294 a86.0,86.0 0 0,1 -31.652253787137756,-30.449443065178592" fill="none" id="id20" stroke="none" /><text fill="#e1ed5e" style="font-size:6.75px; font-family:Arial;" text-anchor="middle"><textPath startOffset="22.20632615414155" xlink:href="#id20">August</textPath></text><path d="M 89.1626897886671 117.98757091392108 l -3.7105778174265187 6.158749756261981 a28.190172897742777,28.190172897742777 0 0,0 -0.4134837909528227,-0.2539955159216673 l 3.81604080831165 -6.093965773511935" fill="#ff5608" stroke="none" /><path d="M 88.8546689885994 117.79835938074946 l -6.125185155903889 9.781517172248558 a32.54105590425325,32.54105590425325 0 0,0 -0.4721834245063986,-0.30136980210548625 l 6.292650382457212 -9.674632941319267" fill="#ff910d" stroke="none" /><path d="M 87.65650970185807 116.9893568818739 l -4.847097263288337 6.671457039955373 a29.24637441035437,29.24637441035437 0 0,0 -0.4047350459245181,-0.2994133111265744 l 4.96121727963142 -6.587033780089032" fill="#ff6509" stroke="none" /><path d="M 87.36589467227662 116.77436683061367 l -23.46508873654965 31.154719386110465 a60.00290924330436,60.00290924330436 0 0,0 -0.8196719461293638,-0.6284894956871431 l 23.9978894111725 -30.746190548595955" fill="#31ff2f" stroke="none" /><path d="M 87.07902340077011 116.55440617244103 l -4.597220105760848 5.88997652850895 a28.471697009863163,28.471697009863163 0 0,0 -0.3837476432506366,-0.30487233658284546 l 4.697925241728843 -5.809970277920974" fill="#ff5a08" stroke="none" /><path d="M 86.51685102203217 116.09983520530335 l -5.992671268588624 7.155674095234575 a30.333583486023937,30.333583486023937 0 0,0 -0.39741981124463155,-0.33868978498135577 l 6.114956556410313 -7.051459920030268" fill="#ff730a" stroke="none" /><path d="M 86.24171649860922 115.8653595955263 l -5.457306743220077 6.293091278103456 a29.3297775915169,29.3297775915169 0 0,0 -0.37857430970141237,-0.33404781223126373 l 5.5648234058280766 -6.198220324099903" fill="#ff6609" stroke="none" /><path d="M 85.70375840098266 115.38237550388516 l -5.55581008069098 5.977903793632967 a29.161026860551246,29.161026860551246 0 0,0 -0.36474079945874605,-0.3448851918610705 l 5.657886714540543 -5.881383965025965" fill="#ff6309" stroke="none" /><path d="M 85.44109423537348 115.13401014063109 l -42.90545172641993 44.60029840248467 a82.88751413200265,82.88751413200265 0 0,0 -1.0197139630216625,-0.9980047341562344 l 43.66681564181739 -43.85514356540587" fill="#4cdcff" stroke="none" /><path d="M 84.67929136418377 114.36230785411682 l -7.509766283726014 7.039986063516283 a31.293589918521697,31.293589918521697 0 0,0 -0.36502272653573964,-0.3961600767904905 l 7.629835418257483 -6.909674731924448" fill="#ff800b" stroke="none" /><path d="M 84.19399662182784 113.82643327865904 l -13.76801731825707 12.043687975746675 a39.29231316517875,39.29231316517875 0 0,0 -0.4409299006507178,-0.512901088832971 l 13.973289728478568 -11.804909787752175" fill="#ffe815" stroke="none" /><path d="M 83.72743513129214 113.27417163493432 l -46.95022889982522 38.29914962663301 a81.59000623757359,81.59000623757359 0 0,0 -0.878382807887979,-1.0959176103712236 l 47.60252961976806 -37.48530418268353" fill="#4ae8ff" stroke="none" /><path d="M 83.50135304334701 112.99209946851258 l -5.975461186271311 4.705463805986082 a28.605756110872868,28.605756110872868 0 0,0 -0.30130467809750755,-0.3894769127203738 l 6.055572681586887 -4.6019088991524555" fill="#ff5c08" stroke="none" /><path d="M 83.06392112726016 112.41649034213515 l -4.661366685179653 3.417427071672611 a26.77989162215898,26.77989162215898 0 0,0 -0.26935496517100715,-0.37411048817152626 l 4.719501442726267 -3.3366829780499465" fill="#ff4206" stroke="none" /><path d="M 82.6465618267979 111.8261652097733 l -5.1178807758088904 3.4877759078373156 a27.193325796265253,27.193325796265253 0 0,0 -0.2602749542192187,-0.38907574198820527 l 5.17715883543884 -3.3991632516432895" fill="#ff4806" stroke="none" /><path d="M 82.05923443525364 110.91462005526583 l -6.696837849859686 4.0741539394824136 a28.838773342169894,28.838773342169894 0 0,0 -0.2543567783035182,-0.4263165910112504 l 6.765975503861436 -3.9582752545850517" fill="#ff5f08" stroke="none" /><line stroke="#e1ed5e" stroke-width="0.3" x1="26.63291911575756" x2="22.317208475507996" y1="142.92168965132927" y2="145.44649492493687" /><path d="M 25.769776987707644 143.4266507060508 a86.0,86.0 0 0,1 -11.730757126820373,-40.83630448921669" fill="none" id="id21" stroke="none" /><text fill="#e1ed5e" style="font-size:6.75px; font-family:Arial;" text-anchor="middle"><textPath startOffset="21.46611528233685" xlink:href="#id21">September</textPath></text><path d="M 81.87401531095188 110.60418214915194 l -6.657241501521286 3.8946629771611425 a28.712798721297418,28.712798721297418 0 0,0 -0.2459018826144722,-0.4287506594697072 l 6.7232953802881354 -3.779492471833128" fill="#ff5d08" stroke="none" /><path d="M 81.51974371655577 109.97397251340807 l -5.46821352740017 2.9512475683898187 a27.213792834587345,27.213792834587345 0 0,0 -0.21893819243290952,-0.41414855107099446 l 5.518204228057965 -2.856684002232698" fill="#ff4806" stroke="none" /><path d="M 81.18737489456691 109.33194174019688 l -7.177855128722999 3.560551783996994 a29.012436162332854,29.012436162332854 0 0,0 -0.21807231266179056,-0.4492935549687045 l 7.238080697999509 -3.436469273063005" fill="#ff6109" stroke="none" /><path d="M 80.87730276802145 108.67885076344099 l -7.027410450167468 3.1893956072502645 a28.717301469728277,28.717301469728277 0 0,0 -0.20041793108800943,-0.451889525814879 l 7.081269465986757 -3.0679577449426896" fill="#ff5d08" stroke="none" /><path d="M 80.58989483394504 108.01547362559985 l -7.621290659475807 3.14723973679916 a29.245555728821486,29.245555728821486 0 0,0 -0.18814276778826947,-0.46695492017439566 l 7.674336041521465 -3.0155854487819584" fill="#ff6509" stroke="none" /><path d="M 80.20201598880116 107.00284435728193 l -7.794911105730819 2.757177156088425 a29.268171806167402,29.268171806167402 0 0,0 -0.1639145412349608,-0.47641238352477405 l 7.8412164779090086 -2.622592069474354" fill="#ff6509" stroke="none" /><path d="M 79.97269907076064 106.31721596034903 l -7.882172879464187 2.4862755341976377 a29.264999415227475,29.264999415227475 0 0,0 -0.14740254479784845,-0.48172004505353483 l 7.923802196768166 -2.350228516592055" fill="#ff6509" stroke="none" /><path d="M 79.86692584326677 105.97154293290107 l -7.499081532737048 2.224254824745106 a28.82199037074578,28.82199037074578 0 0,0 -0.13698318374277316,-0.47685643311400666 l 7.536257353365925 -2.0948409161265036" fill="#ff5f08" stroke="none" /><path d="M 79.4281124754447 104.21870165774334 l -7.633857662017857 1.5654843501983235 a28.792722505945186,28.792722505945186 0 0,0 -0.09538626831198303,-0.48637252711074336 l 7.659673863305507 -1.4338480960196254" fill="#ff5e08" stroke="none" /><path d="M 79.23777060512086 103.15116336523772 l -14.740405834762502 2.237208055638591 a35.909214065728435,35.909214065728435 0 0,0 -0.08749185785338506,-0.6119178500498099 l 14.776731743632485 -1.9831447336083803" fill="#ffbd11" stroke="none" /><path d="M 79.10278846688536 102.07522291339032 l -10.285161726799373 1.0213804482744742 a31.335752017465204,31.335752017465204 0 0,0 -0.048682931453869205,-0.5372120919102042 l 10.301219254530317 -0.8441869678157039" fill="#ff810b" stroke="none" /><path d="M 79.0235259727143 100.99374915477108 l -7.2817828925174695 0.3449705410572326 a28.289949709562983,28.289949709562983 0 0,0 -0.018857093222889112,-0.48661778647256776 l 7.28664211859156 -0.2195755075706681" fill="#ff5708" stroke="none" /><line stroke="#e1ed5e" stroke-width="0.3" x1="15.007084014347285" x2="10.007500721073583" y1="101.09737516637583" y2="101.16192664675087" /><path d="M 14.007167355692545 101.11028546245083 a86.0,86.0 0 0,1 10.666146001902534,-42.60595125391555" fill="none" id="id22" stroke="none" /><text fill="#e1ed5e" style="font-size:6.75px; font-family:Arial;" text-anchor="middle"><textPath startOffset="22.20632615414155" xlink:href="#id22">October</textPath></text><path d="M 79.00175016825051 100.2711162175752 l -12.87361512749294 0.16621603551966235 a33.8746881213208,33.8746881213208 0 0,0 -0.002509473529884707,-0.5831132706982864 l 12.874568898312328 0.05540671338229948" fill="#ffa30f" stroke="none" /><path d="M 79.00486145842228 99.54816195383935 l -7.738228082987448 -0.16653502194512138 a28.7400198822658,28.7400198822658 0 0,0 0.014901434182330753,-0.49450605462199193 l 7.734214954349473 0.2997112239921077" fill="#ff5e08" stroke="none" /><path d="M 79.05617556472873 98.46500227214037 l -7.669917382902399 -0.5621373399119499 a28.690489649526334,28.690489649526334 0 0,0 0.04033816744636387,-0.49222781567707724 l 7.659104731636539 0.6940790727968056" fill="#ff5d08" stroke="none" /><path d="M 79.32604984820605 96.31383870115002 l -7.223410159123783 -1.2879326291676976 a28.337330903278623,28.337330903278623 0 0,0 0.08975414530277546,-0.47947023314915294 l 7.200170289911147 1.4120809397794232" fill="#ff5808" stroke="none" /><path d="M 80.02781315780177 93.51064311812611 l -20.511667913434753 -6.664644907663466 a42.5672439670968,42.5672439670968 0 0,0 0.23242263761640544,-0.6949141031613475 l 20.393907982046574 7.016732113747136" fill="#eeff19" stroke="none" /><path d="M 80.95270993114464 91.15688171328213 l -9.655634267195957 -4.482838012621894 a31.645520642470082,31.645520642470082 0 0,0 0.23363707986793797,-0.492099275085843 l 9.57703899348627 4.648379703348269" fill="#ff850c" stroke="none" /><path d="M 81.10775173730289 90.83032412892265 l -9.34605067484807 -4.536265571537944 a31.388761646719427,31.388761646719427 0 0,0 0.24010906020654393,-0.4840452137229349 l 9.266581601688113 4.6964703737598406" fill="#ff820b" stroke="none" /><line stroke="#e1ed5e" stroke-width="0.3" x1="26.266209847984243" x2="21.928928074336255" y1="57.711370442889674" y2="55.22380399835377" /><path d="M 25.398753493254645 57.213857153982495 a86.0,86.0 0 0,1 29.58750427330803,-30.492523968695096" fill="none" id="id23" stroke="none" /><text fill="#e1ed5e" style="font-size:6.75px; font-family:Arial;" text-anchor="middle"><textPath startOffset="21.46611528233685" xlink:href="#id23">November</textPath></text><path d="M 81.78341655067845 89.55222093294921 l -7.341831381701191 -4.210769403436685 a29.463632022143386,29.463632022143386 0 0,0 0.25610957050517197,-0.43777427513037476 l 7.268262136725694 4.336523090920951" fill="#ff6809" stroke="none" /><path d="M 82.34701348167596 88.62581576622439 l -2.12386741331187 -1.3684516907122812 a23.526553545670733,23.526553545670733 0 0,0 0.22227368485205357,-0.3385380713506603 l 2.099997093101896 1.4048078260406085" fill="#ff1402" stroke="none" /><path d="M 83.6137871275137 86.86637796730984 l -8.2103544089365 -6.580635342682558 a31.52210440138786,31.52210440138786 0 0,0 0.34299278041154807,-0.42046859286168986 l 8.095863136448559 6.72098810515233" fill="#ff840c" stroke="none" /><path d="M 83.84228863543731 86.58626213691792 l -2.5326146448538025 -2.1025149037368682 a24.29161143815056,24.29161143815056 0 0,0 0.26985595856263334,-0.31942433798725134 l 2.496048072804045 2.145798191353235" fill="#ff1f03" stroke="none" /><path d="M 84.5562425177563 85.77008943001954 l -7.597550803806218 -7.00039926250764 a31.330942263459516,31.330942263459516 0 0,0 0.3688587029040058,-0.393472746328682 l 7.475924778931756 7.130141425714372" fill="#ff810b" stroke="none" /><path d="M 85.05521093208273 85.24692304244772 l -9.071832457965497 -8.955458774972023 a33.747485478149,33.747485478149 0 0,0 0.411661791136917,-0.4098939845800887 l 8.916334866661266 9.11028861020222" fill="#ffa10e" stroke="none" /><path d="M 85.57189188830299 84.74124197986013 l -4.541512939353463 -4.802975306980694 a27.61013703169467,27.61013703169467 0 0,0 0.3481403149207829,-0.3235584810166954 l 4.458164740637823 4.880438374072037" fill="#ff4e07" stroke="none" /><path d="M 87.51073957382395 83.11751280151077 l -5.510214861041969 -7.448490036887548 a30.265121242836535,30.265121242836535 0 0,0 0.42148459326610477,-0.30622648190686796 l 5.381184951422083 7.542235753611084" fill="#ff730a" stroke="none" /><line stroke="#e1ed5e" stroke-width="0.3" x1="56.762969772571076" x2="54.21961505331055" y1="26.818313649435495" y2="22.513508569990535" /><path d="M 56.25429882871897 25.957352633546506 a86.0,86.0 0 0,1 42.265352541879196,-11.944610805530505" fill="none" id="id24" stroke="none" /><text fill="#e1ed5e" style="font-size:6.75px; font-family:Arial;" text-anchor="middle"><textPath startOffset="22.20632615414155" xlink:href="#id24">December</textPath></text><path d="M 91.90106846888425 80.62456947434976 l -2.6234858079015333 -6.27628061933038 a27.802527191922344,27.802527191922344 0 0,0 0.4431406817782894,-0.18076821069724197 l 2.5150612565348633 6.320509716211199" fill="#ff5107" stroke="none" /><path d="M 93.59665428221793 80.00007090966166 l -2.7168536392837126 -8.485701464409225 a29.910018127948227,29.910018127948227 0 0,0 0.4916845600121426,-0.15276878619356912 l 2.570383706560841 8.53121038548532" fill="#ff6e0a" stroke="none" /><path d="M 94.28887869178378 79.79150937346287 l -1.4558060334464669 -5.151290087050845 a26.353051537951735,26.353051537951735 0 0,0 0.43758879507999027,-0.11960954770786102 l 1.366919349142754 5.175586175585003" fill="#ff3c05" stroke="none" /><path d="M 95.33964822691252 79.52364482259891 l -2.383613411991458 -10.47296796593937 a31.74079470585942,31.74079470585942 0 0,0 0.5337853615011265,-0.11666480528583212 l 2.20298532633681 10.512446269321071" fill="#ff860c" stroke="none" /></svg>
