<?xml version="1.0" encoding="utf-8" ?>
<svg baseProfile="full" height="200mm" version="1.1" viewBox="0,0,200,200" width="200mm" xmlns="http://www.w3.org/2000/svg" xmlns:ev="http://www.w3.org/2001/xml-events" xmlns:xlink="http://www.w3.org/1999/xlink"><defs /><rect fill="#1a1a1a" height="200" width="200" x="0" y="0" /><text alignment-baseline="middle" fill="#e1ed5e" style="dominant-baseline: central; font-size:9.0px; font-family:Arial;" text-anchor="middle" x="100.0" y="100.0">2025</text><line stroke="#e1ed5e" stroke-width="0.3" x1="100.0" x2="100.0" y1="15.0" y2="10.0" /><path d="M 100.0 14.0 a86.0,86.0 0 0,1 42.46469731375804,11.215312516191453" fill="none" id="id97" stroke="none" /><text fill="#e1ed5e" style="font-size:6.75px; font-family:Arial;" text-anchor="middle"><textPath startOffset="22.20632615414155" xlink:href="#id97">January</textPath></text><path d="M 100.0 79.0 l 0.0 -36.57373795776134 a57.57373795776134,57.57373795776134 0 0,0 0.9910372566896442,0.008530170549956024 l -0.6295567774171158 36.56831916381994" fill="red" stroke="none" /><path d="M 102.88285421437855 79.19881850522331 l 5.422118390814747 -39.12319539814701 a60.497136427918456,60.497136427918456 0 0,0 1.0302691705649136,0.151834894391318 l -6.094756541808316 39.02406601959473" fill="red" stroke="none" /><path d="M 103.59715602781102 79.31037775812273 l 6.829922485583149 -39.2833991841074 a60.87271363497855,60.87271363497855 0 0,0 1.0307920933478258,0.18837066640206745 l -7.505109700033875 39.1600130363546" fill="red" stroke="none" /><path d="M 104.307194497241 79.44645832069477 l 6.0848667211993845 -29.03643238012592 a50.66715369529717,50.66715369529717 0 0,0 0.8520701892345552,0.18622954072280357 l -6.583779634587468 28.927389341307247" fill="red" stroke="none" /><path d="M 105.71112130821622 79.79150937346287 l 10.841969452032581 -38.36371637377018 a60.866314547571235,60.866314547571235 0 0,0 1.0057717409109568,0.2936123512489902 l -11.500731410666965 38.17140569360249" fill="red" stroke="none" /><path d="M 106.40334571778207 80.00007090966166 l 12.16509107392712 -37.995911759129974 a60.89584879714346,60.89584879714346 0 0,0 0.9955519498184652,0.32821782540101613 l -12.817325845988004 37.78088020946972" fill="red" stroke="none" /><path d="M 107.76421540070413 80.48803036053334 l 18.3881361932777 -46.210561739061745 a70.7346918046364,70.7346918046364 0 0,0 1.127430586985995,0.4599072445277471 l -19.180850649852083 45.88719360835042" fill="red" stroke="none" /><path d="M 108.76106565485865 80.91482961587045 l 19.137959126471642 -41.690272065323484 a66.87308867306834,66.87308867306834 0 0,0 1.0420157948343818,0.489240387581118 l -19.852753132605624 41.35466669510236" fill="red" stroke="none" /><path d="M 110.05341064243156 81.56283822128135 l 21.417117978483564 -39.2773042947841 a65.73700453952354,65.73700453952354 0 0,0 0.9887969614570363,0.5502644385030854 l -22.090039029012633 38.902824458720836" fill="red" stroke="none" /><path d="M 110.36928655335952 81.73862282372117 l 17.425330561775905 -30.687794398625446 a56.28998257635541,56.28998257635541 0 0,0 0.8384614513977957,0.48569099159153095 l -17.950988745639027 30.383299249643866" fill="red" stroke="none" /><line stroke="#e1ed5e" stroke-width="0.3" x1="143.23703022742887" x2="145.7803849466894" y1="26.81831364943548" y2="22.513508569990506" /><path d="M 143.74570117128098 25.957352633546492 a86.0,86.0 0 0,1 28.547481713284135,27.462654790039103" fill="none" id="id98" stroke="none" /><text fill="#e1ed5e" style="font-size:6.75px; font-family:Arial;" text-anchor="middle"><textPath startOffset="19.985693538727396" xlink:href="#id98">February</textPath></text><path d="M 111.60114157652 82.49532879139004 l 19.224318990842637 -29.007092183516068 a55.79922179596365,55.79922179596365 0 0,0 0.7960564240875658,0.5375008510632311 l -19.720780109336744 28.671879420154166" fill="red" stroke="none" /><path d="M 112.19680574252982 82.90503203632743 l 22.969394480034843 -32.19376212674753 a60.547836889684106,60.547836889684106 0 0,0 0.8432142134778556,0.6126309863102496 l -23.520154009866488 31.793611905620608" fill="red" stroke="none" /><path d="M 112.48926042617603 83.11751280151076 l 23.271904746080384 -31.45803839086554 a60.13041949573003,60.13041949573003 0 0,0 0.8268042812149505,0.6227318431607359 l -23.80995518105372 31.052789958198957" fill="red" stroke="none" /><path d="M 113.89432698308785 84.25364557470407 l 32.56781088661664 -36.90889768902705 a70.22325704954409,70.22325704954409 0 0,0 0.8994897410261807,0.807570770710158 l -33.19831161523881 36.342827909547594" fill="red" stroke="none" /><path d="M 114.68862486808459 84.99185889309783 l 32.057392692441134 -32.75472533122633 a66.83174072366724,66.83174072366724 0 0,0 0.8152333040906278,0.8117324332025717 l -32.616461796699085 32.19805704737364" fill="red" stroke="none" /><path d="M 115.19652480421416 85.50635884689758 l 28.985091056947525 -27.644445949438207 a61.05434926984771,61.05434926984771 0 0,0 0.7187919178731029,0.7667571016698974 l -29.45665029679109 27.141419430890256" fill="red" stroke="none" /><path d="M 115.9244219780498 86.31012108654704 l 26.233173133615303 -22.552087869177516 a55.594450998929574,55.594450998929574 0 0,0 0.6175997793838478,0.7310433377922656 l -26.617483526486268 22.097185581756143" fill="red" stroke="none" /><path d="M 116.38621287248628 86.86637796730983 l 20.903377604584556 -16.75414952811842 a47.78904107448413,47.78904107448413 0 0,0 0.5089440013636105,0.6463071976592456 l -21.188675686542133 16.391849936506134" fill="red" stroke="none" /><path d="M 117.04232023915458 87.72973835380427 l 28.36676074529302 -20.423719981513877 a55.95427660621782,55.95427660621782 0 0,0 0.5560453045581181,0.7864866498695328 l -28.714118669655022 19.932406831312548" fill="red" stroke="none" /><path d="M 117.45458315368197 88.32363383020206 l 30.752507897204513 -20.572106459707513 a57.99903115160133,57.99903115160133 0 0,0 0.5479620441170586,0.8345837867052422 l -31.102066576679498 20.039704609024596" fill="red" stroke="none" /><line stroke="#e1ed5e" stroke-width="0.3" x1="172.23445277983987" x2="176.4835382374775" y1="55.19839476539836" y2="52.563006222186495" /><path d="M 173.08426987136738 54.67131705675599 a86.0,86.0 0 0,1 12.851231095245387,41.99856678651699" fill="none" id="id99" stroke="none" /><text fill="#e1ed5e" style="font-size:6.75px; font-family:Arial;" text-anchor="middle"><textPath startOffset="22.20632615414155" xlink:href="#id99">March</textPath></text><path d="M 118.21658344932153 89.55222093294921 l 34.32352920195633 -19.68561508260552 a60.568018626891785,60.568018626891785 0 0,0 0.5109124610386412,0.9088562590433411 l -34.657299304287406 19.091875313627384" fill="red" stroke="none" /><path d="M 118.56541770881063 90.18545643968196 l 33.50295839185026 -17.711222537174066 a58.896380101104015,58.896380101104015 0 0,0 0.46609632351522473,0.9003497415513056 l -33.8028641485256 17.131900073362413" fill="red" stroke="none" /><path d="M 119.196687751892 91.48605970444005 l 36.95812735281669 -16.39133238944149 a61.42992647690781,61.42992647690781 0 0,0 0.420383387067273,0.9703028171605914 l -37.234801449726646 15.752730427694296" fill="red" stroke="none" /><path d="M 119.34039704204932 91.81776055985345 l 28.49764520280899 -12.056347965492407 a51.943033276817175,51.943033276817175 0 0,0 0.34128629093092133,0.8264518240749956 l -28.700953180626108 11.564021570964108" fill="red" stroke="none" /><path d="M 119.61058180528143 92.48833698450437 l 35.488339230428416 -13.593500076921677 a59.00270339956401,59.00270339956401 0 0,0 0.3551271893192594,0.9515643092453826 l -35.7170710082493 12.980612630646961" fill="red" stroke="none" /><path d="M 119.97218684219823 93.5106431181261 l 46.92692247795361 -15.247481396681833 a70.34188628532584,70.34188628532584 0 0,0 0.3642521140442672,1.1547787423865634 l -47.182430075766085 14.43745248786885" fill="red" stroke="none" /><path d="M 120.28053869075195 94.5502522615342 l 41.420235583362356 -11.130366832912763 a63.889637228781055,63.889637228781055 0 0,0 0.27625778170709475,1.0645339255589394 l -41.605689696939756 10.415736481804974" fill="red" stroke="none" /><path d="M 120.45610955862082 95.25157060432595 l 43.18515569699699 -10.024470302172492 a65.33336979536983,65.33336979536983 0 0,0 0.24486204376034024,1.097668529555785 l -43.35131212775937 9.279623603066744" fill="red" stroke="none" /><path d="M 120.6074358757038 95.95851677861258 l 41.00587824607766 -8.041979114207422 a62.787025244751426,62.787025244751426 0 0,0 0.19886826342895386,1.0623622152557943 l -41.13823223341647 7.334938821489064" fill="red" stroke="none" /><path d="M 120.67395015179393 96.31383870115 l 37.425750525597074 -6.673004053649599 a59.01599381187152,59.01599381187152 0 0,0 0.16970790508728373,1.001625662438837 l -37.53507029220458 6.027792602894925" fill="red" stroke="none" /><path d="M 120.78858239683441 97.02765380044208 l 49.03858751287768 -7.011524713093745 a70.5373045699954,70.5373045699954 0 0,0 0.1615102771143502,1.2034391632203656 l -49.15201378904987 6.166367207808714" fill="red" stroke="none" /><path d="M 120.91429891909075 98.10471618934814 l 24.821258007564907 -2.249338055449191 a45.92296873901255,45.92296873901255 0 0,0 0.06456663602669295,0.7878765008175678 l -24.856299127411095 1.8217476374238541" fill="red" stroke="none" /><path d="M 120.96714384426684 98.82574320788733 l 40.083094009173955 -2.2448381972651523 a61.145905443521606,61.145905443521606 0 0,0 0.049808848258783865,1.0513860633874244 l -40.115796465666236 1.5545410272547282" fill="red" stroke="none" /><line stroke="#e1ed5e" stroke-width="0.3" x1="184.98032266829074" x2="189.97916517819016" y1="98.17113171792111" y2="98.06355123074" /><path d="M 185.9800911702706 98.14961562048488 a86.0,86.0 0 0,1 -9.607161424134198,41.387399972396054" fill="none" id="id100" stroke="none" /><text fill="#e1ed5e" style="font-size:6.75px; font-family:Arial;" text-anchor="middle"><textPath startOffset="21.466115282336823" xlink:href="#id100">April</textPath></text><path d="M 120.99513854157772 99.54816195383933 l 45.808335554369066 -0.9858448323057826 a66.81894254885262,66.81894254885262 0 0,0 0.014849691870346127,1.1501250002929158 l -45.81851825335713 0.19718357395240413" fill="red" stroke="none" /><path d="M 120.99980553446 99.90962569577887 l 47.16034523313487 -0.20295823122166118 a68.16078195441725,68.16078195441725 0 0,0 -0.005049424439813381,1.1733084111784362 l -47.15685151140555 -0.6088596581604597" fill="red" stroke="none" /><path d="M 120.9764740272857 100.99374915477107 l 45.437199278102455 2.1525628339178704 a66.48815895364373,66.48815895364373 0 0,0 -0.0639984912011015,1.1427360521502947 l -45.39341443601382 -2.9343706024035883" fill="red" stroke="none" /><path d="M 120.95626037817324 101.35467743843564 l 33.70305430396576 2.1786695931449174 a54.7733988608218,54.7733988608218 0 0,0 -0.06891912816922659,0.9403467473668314 l -33.660558617132196 -2.7584894770085193" fill="red" stroke="none" /><path d="M 120.8583938346157 102.4346265915055 l 45.74123685041387 5.338993617982046 a67.0517708829803,67.0517708829803 0 0,0 -0.14367754724096418,1.1452514171102115 l -45.64255779392606 -6.125562789379653" fill="red" stroke="none" /><path d="M 120.81339534386255 102.79330883721812 l 34.250945022022876 4.596725610235451 a55.55802542445717,55.55802542445717 0 0,0 -0.13536567116600673,0.9467471888556923 l -34.16674529984027 -5.185618271071553" fill="red" stroke="none" /><path d="M 120.5718875245553 104.21870165774334 l 56.26629113168351 11.538595833219913 a78.43722409307196,78.43722409307196 0 0,0 -0.2826203790851697,1.3203083219170502 l -56.0593367138739 -12.505417974553133" fill="red" stroke="none" /><path d="M 120.49622156327973 104.57218783832717 l 48.07220481400455 10.723691170763937 a70.25377577410205,70.25377577410205 0 0,0 -0.27345256538175905,1.1780264947460677 l -47.88049168269224 -11.549586322858568" fill="red" stroke="none" /><path d="M 120.32669344350535 105.2749913415812 l 47.61693944097271 12.35709801802431 a70.19421503746474,70.19421503746474 0 0,0 -0.31357401630207216,1.1669255670573435 l -47.39717734832885 -13.174914518257202" fill="red" stroke="none" /><path d="M 120.13307415673323 105.97154293290107 l 42.345571280469784 12.55985027179666 a65.16896247275113,65.16896247275113 0 0,0 -0.32824435681760034,1.072721550171298 l -42.12310015114605 -13.286898794520015" fill="red" stroke="none" /><path d="M 120.02730092923936 106.31721596034902 l 29.19666797317013 9.209511434456012 a51.61471086907264,51.61471086907264 0 0,0 -0.27456015074435025,0.8450092559102487 l -29.03381557140953 -9.710719590344056" fill="red" stroke="none" /><path d="M 119.79798401119884 107.00284435728193 l 49.89645133180972 17.649124398711816 a73.92586747091502,73.92586747091502 0 0,0 -0.43466910080004295,1.196022682451246 l -49.58525797000445 -18.505394878169195" fill="red" stroke="none" /><path d="M 119.54520255179757 107.68017299344265 l 38.52246767018288 15.137178295146189 a62.38978958800503,62.38978958800503 0 0,0 -0.401366546208135,0.9961588518577112 l -38.25619850971734 -15.798036514846713" fill="red" stroke="none" /><path d="M 119.26925614724726 108.34839909993367 l 46.94738580771116 20.33993997621569 a72.16414948393196,72.16414948393196 0 0,0 -0.5036333080788258,1.135560154407413 l -46.59031141490106 -21.14504846711579" fill="red" stroke="none" /><path d="M 118.97047184881838 109.00673069616215 l 40.50192108287027 19.22935279510966 a65.83495980060474,65.83495980060474 0 0,0 -0.4948492383536503,1.019536000511371 l -40.1649185879019 -19.923677751586304" fill="red" stroke="none" /><path d="M 118.64920377521936 109.65438752849418 l 49.58204985360049 25.667815608291136 a76.83203762882167,76.83203762882167 0 0,0 -0.6181228593028597,1.169255504119454 l -49.13287448607274 -26.517486127496724" fill="red" stroke="none" /><line stroke="#e1ed5e" stroke-width="0.3" x1="174.80103733775053" x2="179.2010983576182" y1="140.37084112569926" y2="142.7455964860345" /><path d="M 175.68104954172406 140.8457921977663 a86.0,86.0 0 0,1 -30.038265399797805,32.042727171017184" fill="none" id="id101" stroke="none" /><text fill="#e1ed5e" style="font-size:6.75px; font-family:Arial;" text-anchor="middle"><textPath startOffset="22.206326154141568" xlink:href="#id101">May</textPath></text><path d="M 118.30583269289576 110.29060199501025 l 46.24565924997601 25.996942139816213 a74.05188026908984,74.05188026908984 0 0,0 -0.6341944213123237,1.1057714299648944 l -45.79131283251131 -26.789133415639423" fill="red" stroke="none" /><path d="M 117.94076556474637 110.91462005526583 l 42.60509540018474 25.919653597454726 a70.87005711517574,70.87005711517574 0 0,0 -0.6430119937710504,1.0367400734349803 l -42.152618766745725 -26.649190002254983" fill="red" stroke="none" /><path d="M 117.35343817320211 111.8261652097733 l 40.8340757576491 27.82794517596445 a70.41473743427065,70.41473743427065 0 0,0 -0.6912014331960439,0.9957272167577826 l -40.34901341729092 -28.52671365490925" fill="red" stroke="none" /><path d="M 117.14729908036423 112.12312394758627 l 30.100183944370848 21.28080108083137 a57.86317360356911,57.86317360356911 0 0,0 -0.5819938829691622,0.8083386008206832 l -29.729410269026083 -21.795773287103184" fill="red" stroke="none" /><path d="M 116.71984013943494 112.70617746262583 l 40.269252990547756 30.60246213589504 a71.57789462992335,71.57789462992335 0 0,0 -0.7539305871439272,0.974556914749425 l -39.73651558618576 -31.291097044757716" fill="red" stroke="none" /><path d="M 116.27256486870786 113.27417163493432 l 38.6724998509244 31.546680238485685 a70.9074671646339,70.9074671646339 0 0,0 -0.7796579907491046,0.9391482751627558 l -38.12374586028175 -32.207689770762215" fill="red" stroke="none" /><path d="M 115.80600337817218 113.82643327865902 l 28.45554836336145 24.89172825288677 a58.80630063990874,58.80630063990874 0 0,0 -0.6730273306533965,0.7561533407028368 l -28.02286218305972 -25.377855763330473" fill="red" stroke="none" /><path d="M 115.32070863581623 114.36230785411682 l 25.41891907757065 23.828815610884625 a55.8415542203505,55.8415542203505 0 0,0 -0.6634334256568469,0.6956072944293217 l -25.004979100534836 -24.262830021896455" fill="red" stroke="none" /><path d="M 114.81725581225074 114.88116024355365 l 29.528349095652185 29.65570009641654 a62.849539406345954,62.849539406345954 0 0,0 -0.7731991189899464,0.7567380747742062 l -29.013500024286444 -30.159588274113315" fill="red" stroke="none" /><path d="M 114.29624159901734 115.38237550388516 l 20.433526623405818 21.98593086251897 a51.015165602756525,51.015165602756525 0 0,0 -0.6483795563522982,0.592279351796923 l -20.052047517586654 -22.334402980902475" fill="red" stroke="none" /><path d="M 113.75828350139079 115.86535959552629 l 27.315761658640398 31.49916058178411 a62.693500121106055,62.693500121106055 0 0,0 -0.8213879179779688,0.7000046033311476 l -26.76950826408538 -31.964689575338205" fill="red" stroke="none" /><path d="M 113.20401910651253 116.32954008644616 l 31.81078440278617 39.3407094382638 a71.59266175470947,71.59266175470947 0 0,0 -0.9649412612424559,0.7666076968922108 l -31.128885648826362 -39.88245104916114" fill="red" stroke="none" /><path d="M 112.92097659922987 116.55440617244103 l 31.205207918346048 39.980235441844485 a71.71670560291278,71.71670560291278 0 0,0 -0.9796886916459701,0.7511835126852063 l -30.512390498206585 -40.51145829635706" fill="red" stroke="none" /><path d="M 112.34349029814194 116.9893568818739 l 29.751797620647462 40.94983634657643 a71.61678139186012,71.61678139186012 0 0,0 -1.0035648395735692,0.7160168667366272 l -29.042505453225008 -41.45589747515728" fill="red" stroke="none" /><path d="M 111.7513745106137 117.40417183066458 l 28.139504416587805 41.675530777587525 a71.2859977966512,71.2859977966512 0 0,0 -1.0228702267475323,0.677902610879579 l -27.41795949110031 -42.153731409558425" fill="red" stroke="none" /><path d="M 111.1453310114006 117.79835938074945 l 23.716625560595542 37.873888590151594 a65.68679631525076,65.68679631525076 0 0,0 -0.9634714073765245,0.5918428304733637 l -23.06117495328671 -38.27651988745333" fill="red" stroke="none" /><line stroke="#e1ed5e" stroke-width="0.3" x1="143.8653032363475" x2="146.44561519142675" y1="172.8068346515853" y2="177.08958963109032" /><path d="M 144.38136562736335 173.6633856474863 a86.0,86.0 0 0,1 -40.68145358897372,12.25698825130547" fill="none" id="id102" stroke="none" /><text fill="#e1ed5e" style="font-size:6.75px; font-family:Arial;" text-anchor="middle"><textPath startOffset="21.466115282336833" xlink:href="#id102">June</textPath></text><path d="M 110.5260780823613 118.17145234162733 l 30.222452822503836 52.173835004272654 a81.29515497667732,81.29515497667732 0 0,0 -1.2169158195357492,0.690996561884379 l -29.319888236046886 -52.68633473195166" fill="red" stroke="none" /><path d="M 110.21172684928248 118.3499491758327 l 20.452256884768197 36.751656199356766 a63.05923257830873,63.05923257830873 0 0,0 -0.9530267581630727,0.5196661757395789 l -19.816607314736473 -37.09826302685611" fill="red" stroke="none" /><path d="M 109.57404056367764 118.69057910512821 l 22.70714339101216 44.32921053325633 a70.80655847859548,70.80655847859548 0 0,0 -1.0895648896566776,0.5463304546699327 l -21.94072459367272 -44.713508828835565" fill="red" stroke="none" /><path d="M 108.92500713936063 119.00905698771935 l 14.450775309019075 30.77819514053072 a55.001797057513656,55.001797057513656 0 0,0 -0.8604690773189816,0.39499915005401537 l -13.918838235932673 -31.02238136091881" fill="red" stroke="none" /><path d="M 108.2653958097858 119.30500536409082 l 18.3477488973289 42.85377240646689 a67.61636728730261,67.61636728730261 0 0,0 -1.0739042045436977,0.4488920445954755 l -17.607373233287742 -43.163249494082336" fill="red" stroke="none" /><path d="M 107.2578585660854 119.70592522655815 l 15.462169970880714 41.98157934770132 a65.73848125200215,65.73848125200215 0 0,0 -1.0652152039983445,0.38194827361215533 l -14.737235206252635 -42.24151516235344" fill="red" stroke="none" /><path d="M 106.2309692047433 120.05430185196036 l 13.360214115587373 42.99969360735246 a66.02742466031705,66.02742466031705 0 0,0 -1.0882735261046181,0.3278878861714608 l -12.61806561504251 -43.223296862629645" fill="red" stroke="none" /><path d="M 105.88484417918355 120.15858648285463 l 14.320383710207745 49.05460275584324 a72.1021275598303,72.1021275598303 0 0,0 -1.1943848995909943,0.33754510301271134 l -13.473867642512145 -49.29383665219447" fill="red" stroke="none" /><path d="M 104.83641907484287 120.43548508189849 l 9.680017938447245 40.901307168067426 a63.031175041215114,63.031175041215114 0 0,0 -1.0579628172438031,0.2407888927734766 l -8.97453497181058 -41.06187279441858" fill="red" stroke="none" /><path d="M 104.13013068566511 120.58985236759428 l 12.390392056995317 61.76955710278282 a84.0,84.0 0 0,0 -1.4201295417131825,0.2721712066061275 l -11.32529490071043 -61.973685507737414" fill="red" stroke="none" /><path d="M 103.41894727170886 120.7198165907248 l 7.902417102565117 47.890950042852566 a69.5385546969614,69.5385546969614 0 0,0 -1.182698944488196,0.18471325169677977 l -7.076882294468404 -48.01988160189645" fill="red" stroke="none" /><path d="M 102.70371172650421 120.8252237178851 l 6.619738833169084 50.988254703086305 a72.41617508028159,72.41617508028159 0 0,0 -1.2375323506582414,0.1498479333260026 l -5.741079059459462 -51.09464816513766" fill="red" stroke="none" /><path d="M 101.98527174616119 120.90594882070398 l 4.759970816795816 50.12497985547726 a71.35048090821724,71.35048090821724 0 0,0 -1.223680053855623,0.10558426402380007 l -3.896446445198651 -50.19948837177972" fill="red" stroke="none" /><line stroke="#e1ed5e" stroke-width="0.3" x1="102.19456741930631" x2="102.32365962044197" y1="184.97166512339345" y2="189.96999836594603" /><path d="M 102.22038585953345 185.97133177190398 a86.0,86.0 0 0,1 -42.740103519485714,-10.115201625700543" fill="none" id="id103" stroke="none" /><text fill="#e1ed5e" style="font-size:6.75px; font-family:Arial;" text-anchor="middle"><textPath startOffset="22.20632615414155" xlink:href="#id103">July</textPath></text><line stroke="#e1ed5e" stroke-width="0.3" x1="58.666819895761336" x2="56.23545636021788" y1="174.27360380694188" y2="178.64263932499728" /><path d="M 58.180547188652646 175.14741091055294 a86.0,86.0 0 0,1 -31.652253787137756,-30.449443065178592" fill="none" id="id104" stroke="none" /><text fill="#e1ed5e" style="font-size:6.75px; font-family:Arial;" text-anchor="middle"><textPath startOffset="22.20632615414155" xlink:href="#id104">August</textPath></text><path d="M 85.70375840098266 115.38237550388516 l -17.06306873308298 18.3594078683537 a46.06424089946635,46.06424089946635 0 0,0 -0.5761631142989873,-0.5447981868580434 l 17.37656768177278 -18.062975044749727" fill="red" stroke="none" /><path d="M 85.18274418774928 114.88116024355367 l -17.60121473399429 17.677125930511984 a45.945611663684595,45.945611663684595 0 0,0 -0.5556342295024067,-0.5628545409693195 l 17.902889588552227 -17.371530895562" fill="red" stroke="none" /><path d="M 84.43433777217949 114.09645910891817 l -18.41361641370558 16.675602169959813 a45.842241790181816,45.842241790181816 0 0,0 -0.5246560536453008,-0.589456638111138 l 18.697931316999217 -16.356171362107812" fill="red" stroke="none" /><path d="M 83.95833913139862 113.55231037782056 l -25.517103843320665 21.557350829216848 a54.40422074116902,54.40422074116902 0 0,0 -0.5981977234195696,-0.7205676935549615 l 25.88439756663377 -21.114921878548127" fill="red" stroke="none" /><path d="M 83.50135304334701 112.99209946851258 l -25.328253270543826 19.945101360077892 a53.238602358051985,53.238602358051985 0 0,0 -0.5607626620209126,-0.724861332229578 l 25.667822749782808 -19.506162033735063" fill="red" stroke="none" /><path d="M 83.06392112726016 112.41649034213515 l -20.287645873206714 14.87365292415987 a46.155797073140235,46.155797073140235 0 0,0 -0.46423985908847665,-0.6447885607083838 l 20.540665524670796 -14.52223075800035" fill="red" stroke="none" /><line stroke="#e1ed5e" stroke-width="0.3" x1="26.63291911575756" x2="22.317208475507996" y1="142.92168965132927" y2="145.44649492493687" /><path d="M 25.769776987707644 143.4266507060508 a86.0,86.0 0 0,1 -11.730757126820373,-40.83630448921669" fill="none" id="id105" stroke="none" /><text fill="#e1ed5e" style="font-size:6.75px; font-family:Arial;" text-anchor="middle"><textPath startOffset="21.46611528233685" xlink:href="#id105">September</textPath></text><line stroke="#e1ed5e" stroke-width="0.3" x1="15.007084014347285" x2="10.007500721073583" y1="101.09737516637583" y2="101.16192664675087" /><path d="M 14.007167355692545 101.11028546245083 a86.0,86.0 0 0,1 10.666146001902534,-42.60595125391555" fill="none" id="id106" stroke="none" /><text fill="#e1ed5e" style="font-size:6.75px; font-family:Arial;" text-anchor="middle"><textPath startOffset="22.20632615414155" xlink:href="#id106">October</textPath></text><line stroke="#e1ed5e" stroke-width="0.3" x1="26.266209847984243" x2="21.928928074336255" y1="57.711370442889674" y2="55.22380399835377" /><path d="M 25.398753493254645 57.213857153982495 a86.0,86.0 0 0,1 29.58750427330803,-30.492523968695096" fill="none" id="id107" stroke="none" /><text fill="#e1ed5e" style="font-size:6.75px; font-family:Arial;" text-anchor="middle"><textPath startOffset="21.46611528233685" xlink:href="#id107">November</textPath></text><line stroke="#e1ed5e" stroke-width="0.3" x1="56.762969772571076" x2="54.21961505331055" y1="26.818313649435495" y2="22.513508569990535" /><path d="M 56.25429882871897 25.957352633546506 a86.0,86.0 0 0,1 42.265352541879196,-11.944610805530505" fill="none" id="id108" stroke="none" /><text fill="#e1ed5e" style="font-size:6.75px; font-family:Arial;" text-anchor="middle"><textPath startOffset="22.20632615414155" xlink:href="#id108">December</textPath></text></svg>