<?xml version="1.0" encoding="utf-8" ?>
<svg baseProfile="full" height="200mm" version="1.1" viewBox="0,0,200,200" width="200mm" xmlns="http://www.w3.org/2000/svg" xmlns:ev="http://www.w3.org/2001/xml-events" xmlns:xlink="http://www.w3.org/1999/xlink"><defs /><rect fill="#1a1a1a" height="200" width="200" x="0" y="0" /><text alignment-baseline="middle" fill="#e1ed5e" style="dominant-baseline: central; font-size:9.0px; font-family:Arial;" text-anchor="middle" x="100.0" y="100.0">2026</text><line stroke="#e1ed5e" stroke-width="0.3" x1="100.0" x2="100.0" y1="15.0" y2="10.0" /><path d="M 100.0 14.0 a86.0,86.0 0 0,1 42.46469731375804,11.215312516191453" fill="none" id="id109" stroke="none" /><text fill="#e1ed5e" style="font-size:6.75px; font-family:Arial;" text-anchor="middle"><textPath startOffset="22.20632615414155" xlink:href="#id109">January</textPath></text><path d="M 100.72285384407766 79.0124445844662 l 2.1685615322329816 -62.9626662466014 a84.0,84.0 0 0,0 1.4446366704426739,0.062209093903220936 l -3.2520390350649873 62.916009426173986" fill="#4dd2ff" stroke="none" /><path d="M 102.16513564639614 79.11191278185805 l 3.247245310935281 -31.327710754021137 a52.49555624523883,52.49555624523883 0 0,0 0.8980072248127512,0.10090157499378627 l -3.786019239257757 31.26717322555675" fill="#e6ff1a" stroke="none" /><path d="M 102.52436894288641 79.15227682838746 l 2.3883323579214477 -19.7242530574072 a40.86832378748977,40.86832378748977 0 0,0 0.6976520070660724,0.09057525326384637 l -2.727499093495366 19.680219480979215" fill="#ff5608" stroke="none" /><path d="M 102.88285421437855 79.19881850522331 l 3.4089468436311794 -24.597193172913855 a45.83229410602941,45.83229410602941 0 0,0 0.7805261938301432,0.11502927156878393 l -3.8318420178899784 24.5348694171841" fill="#ffad10" stroke="none" /><path d="M 105.01212808612495 79.60689891045804 l 7.4088085816712015 -30.144597217566037 a52.041700758965106,52.041700758965106 0 0,0 0.8680831044561553,0.22129371200247333 l -7.926600574812382 30.012600509394694" fill="#edff1a" stroke="none" /><path d="M 107.76421540070413 80.48803036053334 l 11.072161529935094 -27.825049726952663 a50.947055836131256,50.947055836131256 0 0,0 0.8120381612063912,0.33125075502005075 l -11.549483560729872 27.63033808574903" fill="#feff18" stroke="none" /><path d="M 108.43124777332544 80.76684994638697 l 9.456756594554053 -21.57251494600718 a44.55427023671811,44.55427023671811 0 0,0 0.6997521439396645,0.3139583897003188 l -9.826690856960496 21.40653622579033" fill="#ff970d" stroke="none" /><path d="M 109.08828744355905 81.06846463323043 l 13.550505034982315 -28.226645217869184 a52.31069604717433,52.31069604717433 0 0,0 0.808396376666281,0.3966765912032264 l -14.034372678659027 27.989213466531126" fill="#e9ff1a" stroke="none" /><path d="M 110.36928655335952 81.73862282372117 l 12.354175660412189 -21.756970479680454 a46.0198205569506,46.0198205569506 0 0,0 0.6854833448368287,0.39707619821787543 l -12.726855737714347 21.541090124072532" fill="#ffb010" stroke="none" /><line stroke="#e1ed5e" stroke-width="0.3" x1="143.23703022742887" x2="145.7803849466894" y1="26.81831364943548" y2="22.513508569990506" /><path d="M 143.74570117128098 25.957352633546492 a86.0,86.0 0 0,1 28.547481713284135,27.462654790039103" fill="none" id="id110" stroke="none" /><text fill="#e1ed5e" style="font-size:6.75px; font-family:Arial;" text-anchor="middle"><textPath startOffset="19.985693538727396" xlink:href="#id110">February</textPath></text><path d="M 111.2981086023043 82.29822771554956 l 16.52638860796673 -25.893393143954818 a51.71789916203481,51.71789916203481 0 0,0 0.7462966096790521,0.48541207452600504 l -16.969652243430062 25.605082145269286" fill="#f2ff19" stroke="none" /><path d="M 111.60114157652 82.49532879139004 l 17.077830932904426 -25.768310253342694 a51.913720621843524,51.913720621843524 0 0,0 0.7406241425806962,0.5000727271454201 l -17.518859769891666 25.4705256138986" fill="#efff19" stroke="none" /><path d="M 112.77801427241765 83.33499621200491 l 12.71402145201999 -16.581544764425725 a41.89483113731907,41.89483113731907 0 0,0 0.5685077610109026,0.44372932498969214 l -12.997561768190323 16.36023705021281" fill="#ff6809" stroke="none" /><path d="M 113.6212207817346 84.01681056812373 l 20.230450937022844 -23.738483855449108 a52.18952966735321,52.18952966735321 0 0,0 0.6787278189458495,0.5885860762948505 l -20.636072554615456 23.386732785734583" fill="#ebff1a" stroke="none" /><path d="M 114.16331599549186 84.49514656593476 l 16.373948957912106 -17.92487570072576 a45.277713511835906,45.277713511835906 0 0,0 0.5709134084633185,0.5306017927756714 l -16.68007025017027 17.640369321875447" fill="#ffa30f" stroke="none" /><path d="M 114.68862486808459 84.99185889309783 l 19.152652257599392 -19.56927283765287 a48.38212058798634,48.38212058798634 0 0,0 0.5901793907918872,0.5876449729294341 l -19.486667448558602 19.23669201407332" fill="#ffd714" stroke="none" /><path d="M 115.68641384162765 86.03803664274999 l 22.300572114240154 -19.84900907551379 a50.854625737099006,50.854625737099006 0 0,0 0.5763721285777587,0.6588929789612304 l -22.63893610639576 19.462200540349613" fill="#fffe18" stroke="none" /><path d="M 116.38621287248628 86.86637796730983 l 24.828050582193796 -19.89979226393206 a52.818765341534295,52.818765341534295 0 0,0 0.5625095874618621,0.7143300523335896 l -25.166914250249622 19.469469817645432" fill="#e1ff1b" stroke="none" /><path d="M 116.82858285166822 87.43820079747576 l 12.17927316333666 -9.091293382161481 a36.19823378382191,36.19823378382191 0 0,0 0.36842456764643255,0.5025306962258772 l -12.333960343496718 8.880300242264111" fill="#ff0000" stroke="none" /><path d="M 117.2510076193507 88.02491185347247 l 25.33600289528768 -17.587428783662332 a51.84202804503005,51.84202804503005 0 0,0 0.5025604076230239,0.7374453854896382 l -25.63498776857944 17.14870537490229" fill="#f0ff19" stroke="none" /><line stroke="#e1ed5e" stroke-width="0.3" x1="172.23445277983987" x2="176.4835382374775" y1="55.19839476539836" y2="52.563006222186495" /><path d="M 173.08426987136738 54.67131705675599 a86.0,86.0 0 0,1 12.851231095245387,41.99856678651699" fill="none" id="id111" stroke="none" /><text fill="#e1ed5e" style="font-size:6.75px; font-family:Arial;" text-anchor="middle"><textPath startOffset="22.20632615414155" xlink:href="#id111">March</textPath></text><path d="M 118.21658344932153 89.55222093294921 l 26.78418037419994 -15.361563260211737 a51.876689332167146,51.876689332167146 0 0,0 0.43759805286856035,0.7784381075502681 l -27.044636068360933 14.898241642726674" fill="#f0ff19" stroke="none" /><path d="M 118.73160827565052 90.50648371742162 l 27.55226516475717 -13.963983984416084 a51.88883559518099,51.88883559518099 0 0,0 0.3969248513272672,0.8001762795930357 l -27.788550029037847 13.487648116324097" fill="#efff19" stroke="none" /><path d="M 118.89224826269711 90.83032412892265 l 21.27063642815022 -10.324067252640615 a44.64373783257625,44.64373783257625 0 0,0 0.32960217843894013,0.6942262468277676 l -21.445196800430914 9.956398590172308" fill="#ff980e" stroke="none" /><path d="M 119.196687751892 91.48605970444005 l 25.630066899169982 -11.36721408250408 a49.03772254041701,49.03772254041701 0 0,0 0.33557982367690015,0.7745645006752929 l -25.821937432689563 10.924350437242184" fill="#ffe115" stroke="none" /><path d="M 119.47837535516314 92.15188598940014 l 17.289716667920597 -6.966272348008821 a39.640366221820955,39.640366221820955 0 0,0 0.2495577190274428,0.6350971743631998 l -17.40706793682974 6.667626168749837" fill="#ff4006" stroke="none" /><line stroke="#e1ed5e" stroke-width="0.3" x1="184.98032266829074" x2="189.97916517819016" y1="98.17113171792111" y2="98.06355123074" /><path d="M 185.9800911702706 98.14961562048488 a86.0,86.0 0 0,1 -9.607161424134198,41.387399972396054" fill="none" id="id112" stroke="none" /><text fill="#e1ed5e" style="font-size:6.75px; font-family:Arial;" text-anchor="middle"><textPath startOffset="21.466115282336823" xlink:href="#id112">April</textPath></text><line stroke="#e1ed5e" stroke-width="0.3" x1="174.80103733775053" x2="179.2010983576182" y1="140.37084112569926" y2="142.7455964860345" /><path d="M 175.68104954172406 140.8457921977663 a86.0,86.0 0 0,1 -30.038265399797805,32.042727171017184" fill="none" id="id113" stroke="none" /><text fill="#e1ed5e" style="font-size:6.75px; font-family:Arial;" text-anchor="middle"><textPath startOffset="22.206326154141568" xlink:href="#id113">May</textPath></text><line stroke="#e1ed5e" stroke-width="0.3" x1="143.8653032363475" x2="146.44561519142675" y1="172.8068346515853" y2="177.08958963109032" /><path d="M 144.38136562736335 173.6633856474863 a86.0,86.0 0 0,1 -40.68145358897372,12.25698825130547" fill="none" id="id114" stroke="none" /><text fill="#e1ed5e" style="font-size:6.75px; font-family:Arial;" text-anchor="middle"><textPath startOffset="21.466115282336833" xlink:href="#id114">June</textPath></text><line stroke="#e1ed5e" stroke-width="0.3" x1="102.19456741930631" x2="102.32365962044197" y1="184.97166512339345" y2="189.96999836594603" /><path d="M 102.22038585953345 185.97133177190398 a86.0,86.0 0 0,1 -42.740103519485714,-10.115201625700543" fill="none" id="id115" stroke="none" /><text fill="#e1ed5e" style="font-size:6.75px; font-family:Arial;" text-anchor="middle"><textPath startOffset="22.20632615414155" xlink:href="#id115">July</textPath></text><line stroke="#e1ed5e" stroke-width="0.3" x1="58.666819895761336" x2="56.23545636021788" y1="174.27360380694188" y2="178.64263932499728" /><path d="M 58.180547188652646 175.14741091055294 a86.0,86.0 0 0,1 -31.652253787137756,-30.449443065178592" fill="none" id="id116" stroke="none" /><text fill="#e1ed5e" style="font-size:6.75px; font-family:Arial;" text-anchor="middle"><textPath startOffset="22.20632615414155" xlink:href="#id116">August</textPath></text><line stroke="#e1ed5e" stroke-width="0.3" x1="26.63291911575756" x2="22.317208475507996" y1="142.92168965132927" y2="145.44649492493687" /><path d="M 25.769776987707644 143.4266507060508 a86.0,86.0 0 0,1 -11.730757126820373,-40.83630448921669" fill="none" id="id117" stroke="none" /><text fill="#e1ed5e" style="font-size:6.75px; font-family:Arial;" text-anchor="middle"><textPath startOffset="21.46611528233685" xlink:href="#id117">September</textPath></text><line stroke="#e1ed5e" stroke-width="0.3" x1="15.007084014347285" x2="10.007500721073583" y1="101.09737516637583" y2="101.16192664675087" /><path d="M 14.007167355692545 101.11028546245083 a86.0,86.0 0 0,1 10.666146001902534,-42.60595125391555" fill="none" id="id118" stroke="none" /><text fill="#e1ed5e" style="font-size:6.75px; font-family:Arial;" text-anchor="middle"><textPath startOffset="22.20632615414155" xlink:href="#id118">October</textPath></text><line stroke="#e1ed5e" stroke-width="0.3" x1="26.266209847984243" x2="21.928928074336255" y1="57.711370442889674" y2="55.22380399835377" /><path d="M 25.398753493254645 57.213857153982495 a86.0,86.0 0 0,1 29.58750427330803,-30.492523968695096" fill="none" id="id119" stroke="none" /><text fill="#e1ed5e" style="font-size:6.75px; font-family:Arial;" text-anchor="middle"><textPath startOffset="21.46611528233685" xlink:href="#id119">November</textPath></text><line stroke="#e1ed5e" stroke-width="0.3" x1="56.762969772571076" x2="54.21961505331055" y1="26.818313649435495" y2="22.513508569990535" /><path d="M 56.25429882871897 25.957352633546506 a86.0,86.0 0 0,1 42.265352541879196,-11.944610805530505" fill="none" id="id120" stroke="none" /><text fill="#e1ed5e" style="font-size:6.75px; font-family:Arial;" text-anchor="middle"><textPath startOffset="22.20632615414155" xlink:href="#id120">December</textPath></text></svg>